<svg width="135" height="135" viewBox="0 0 135 135" fill="none" xmlns="http://www.w3.org/2000/svg">
<circle cx="67.0897" cy="67.0897" r="66.8131" fill="#FEECBB" stroke="black" stroke-width="0.553317"/>
<circle cx="15.8252" cy="66.8993" r="0.560657" transform="rotate(45.2103 15.8252 66.8993)" fill="black"/>
<path d="M27.1347 70.8836C26.1452 71.2094 24.9385 70.8756 24.4589 70.6679L24.0486 70.2546M27.1347 70.8836C26.8065 70.553 26.8773 66.2158 26.9537 64.0886M27.1347 70.8836C30.0855 70.9631 36.9337 71.249 40.7203 71.757M26.9537 64.0886C26.4614 63.5926 25.1015 63.8759 24.4831 64.0795L23.4499 65.1051C23.2846 65.2693 18.3039 64.7431 15.8343 64.4595C14.8436 65.1147 10.1986 66.635 7.99997 67.3132C9.78282 67.7316 13.8825 68.9408 16.0183 70.431C18.0093 70.2324 22.3207 69.8365 23.6384 69.8413L24.0486 70.2546M26.9537 64.0886C27.6138 63.7616 31.073 63.6919 32.7201 63.6979C34.366 64.0334 38.6237 63.3078 40.5469 62.9031C40.5146 63.0094 40.484 63.1164 40.4552 63.224M40.7203 71.757C40.261 70.2278 39.5914 66.4485 40.4552 63.224M40.7203 71.757C40.9254 71.9637 41.4593 72.3362 41.9541 72.1734M41.9541 72.1734C53.1409 72.1458 75.8443 72.0095 77.1632 71.6849M41.9541 72.1734C41.6426 68.9392 41.9701 64.5177 42.1835 62.6035M77.1632 71.6849L76.9898 62.831M77.1632 71.6849C77.183 72.6968 77.4429 72.9311 77.5704 72.9218L81.8948 72.7317C82.0674 70.5911 81.7184 64.7014 81.5223 62.0241L77.6097 62.2156C77.4035 62.2835 76.991 62.5016 76.9898 62.831M76.9898 62.831C75.5092 62.3314 53.1767 62.4004 42.1955 62.4974C42.1915 62.5318 42.1875 62.5672 42.1835 62.6035M77.5764 71.2747L81.2824 71.2883M77.584 69.2158L81.29 69.2294M77.587 68.3922L81.293 68.4058M78.0018 67.5702L81.296 67.5823M77.5961 65.9216L81.0969 65.7285M23.6565 64.9C23.4479 65.6542 23.3983 67.9463 24.0486 70.2546M81.7274 62.2307C88.798 61.7763 105.779 61.166 117.14 62.3607C118.513 62.3657 121.668 62.7067 123.311 64.0305C124.269 64.7203 125.689 66.6746 123.704 68.9733C123.084 69.5887 121.185 70.8994 118.549 71.2192M118.549 71.2192C118.143 71.2791 117.665 71.3433 117.117 71.41M118.549 71.2192C118.577 70.627 118.592 70.0405 118.596 69.4673M82.1014 72.5266C98.7465 73.0376 111.539 72.0893 117.117 71.41M118.169 62.5704C118.338 63.6711 118.62 66.3745 118.596 69.4673M117.117 71.41C117.253 70.8647 117.484 69.7328 117.32 69.5675M117.133 64.4196C117.15 63.8856 117.134 62.7673 116.934 62.5658M118.161 64.6292L116.721 64.4181M116.721 64.4181C117.061 65.3115 117.615 67.5509 117.114 69.3609M116.721 64.4181C116.516 64.0742 115.859 63.6325 114.867 64.6171C114.905 64.7055 114.943 64.8047 114.982 64.9131M117.114 69.3609C117.553 69.4298 118.464 69.5477 118.596 69.4673M117.114 69.3609C116.287 70.5108 115.26 69.6972 114.85 69.1467M114.85 69.1467C115.752 67.9533 115.366 65.9853 114.982 64.9131M114.85 69.1467C107.371 68.9133 92.2459 68.5284 91.5859 68.8554C90.2812 69.0565 87.5484 69.4171 87.0548 69.2505C86.7808 69.1123 86.2744 68.7124 86.441 68.2188L86.447 66.5717C86.6541 66.2293 87.1918 65.5862 87.6853 65.7527C89.0966 65.9605 91.9367 66.378 92.0067 66.3862C92.8297 66.554 107.667 65.474 114.982 64.9131M40.4552 63.224C40.9594 62.8464 42.011 62.1937 42.1835 62.6035M31.0473 70.6921C30.9126 70.0053 30.6847 68.5083 30.8512 68.0148M31.8709 70.6951C31.7361 70.0083 31.5083 68.5113 31.6748 68.0178M32.6944 70.6981C32.5597 70.0113 32.3318 68.5144 32.4984 68.0208M33.518 70.7012C33.3832 70.0144 33.1554 68.5174 33.3219 68.0239M34.3415 70.7042C34.2068 70.0174 33.9789 68.5204 34.1455 68.0269M35.1651 70.7072C35.0303 70.0204 34.8025 68.5234 34.969 68.0299M35.9886 70.7102C35.8539 70.0234 35.626 68.5265 35.7926 68.0329M36.8593 70.7607C36.7245 70.0739 36.4967 68.5769 36.6632 68.0834" stroke="black" stroke-width="0.582342"/>
<path d="M52.2 105.156C52.12 105.156 52.048 105.128 51.984 105.072C51.928 105.016 51.9 104.948 51.9 104.868V96.9C51.9 96.82 51.928 96.752 51.984 96.696C52.048 96.632 52.12 96.6 52.2 96.6H56.544C56.624 96.6 56.692 96.632 56.748 96.696C56.812 96.752 56.844 96.82 56.844 96.9C56.844 96.98 56.812 97.052 56.748 97.116C56.692 97.172 56.624 97.2 56.544 97.2H52.5V100.44C52.508 100.44 52.516 100.44 52.524 100.44C52.532 100.432 52.54 100.428 52.548 100.428H55.872C55.96 100.428 56.032 100.456 56.088 100.512C56.152 100.568 56.184 100.64 56.184 100.728C56.184 100.808 56.152 100.88 56.088 100.944C56.032 101 55.96 101.028 55.872 101.028H52.5V104.868C52.5 104.948 52.472 105.016 52.416 105.072C52.36 105.128 52.288 105.156 52.2 105.156ZM66.101 105.216C65.165 105.216 64.433 104.956 63.905 104.436C63.385 103.908 63.125 103.176 63.125 102.24V99.372C63.125 98.436 63.385 97.708 63.905 97.188C64.433 96.66 65.165 96.396 66.101 96.396C66.557 96.396 66.989 96.496 67.397 96.696C67.805 96.896 68.149 97.176 68.429 97.536C68.485 97.6 68.509 97.672 68.501 97.752C68.493 97.832 68.457 97.9 68.393 97.956C68.321 98.004 68.241 98.024 68.153 98.016C68.073 98 68.009 97.964 67.961 97.908C67.737 97.62 67.461 97.396 67.133 97.236C66.805 97.076 66.461 96.996 66.101 96.996C65.357 96.996 64.773 97.208 64.349 97.632C63.933 98.048 63.725 98.628 63.725 99.372V102.24C63.725 102.984 63.933 103.568 64.349 103.992C64.773 104.408 65.357 104.616 66.101 104.616C66.461 104.616 66.805 104.54 67.133 104.388C67.461 104.228 67.737 104.004 67.961 103.716C68.009 103.652 68.073 103.616 68.153 103.608C68.241 103.592 68.321 103.612 68.393 103.668C68.457 103.716 68.493 103.784 68.501 103.872C68.509 103.952 68.485 104.024 68.429 104.088C68.149 104.448 67.805 104.728 67.397 104.928C66.989 105.12 66.557 105.216 66.101 105.216ZM75.3581 105.168C75.2781 105.168 75.2061 105.14 75.1421 105.084C75.0861 105.028 75.0581 104.96 75.0581 104.88V96.9C75.0581 96.82 75.0861 96.752 75.1421 96.696C75.2061 96.632 75.2781 96.6 75.3581 96.6H78.2261C78.6741 96.6 79.0781 96.712 79.4381 96.936C79.8061 97.152 80.0981 97.444 80.3141 97.812C80.5301 98.172 80.6381 98.572 80.6381 99.012C80.6381 99.452 80.5301 99.856 80.3141 100.224C80.0981 100.592 79.8061 100.888 79.4381 101.112C79.0781 101.328 78.6741 101.436 78.2261 101.436H75.6581V104.88C75.6581 104.96 75.6301 105.028 75.5741 105.084C75.5181 105.14 75.4461 105.168 75.3581 105.168ZM75.6581 100.836H78.2261C78.5621 100.836 78.8661 100.756 79.1381 100.596C79.4101 100.428 79.6261 100.208 79.7861 99.936C79.9541 99.656 80.0381 99.348 80.0381 99.012C80.0381 98.676 79.9541 98.372 79.7861 98.1C79.6261 97.828 79.4101 97.612 79.1381 97.452C78.8661 97.284 78.5621 97.2 78.2261 97.2H75.6581V100.836Z" fill="black"/>
<path d="M48.14 42.78C48.0733 42.78 48.0133 42.7533 47.96 42.7C47.9133 42.6533 47.89 42.5967 47.89 42.53V37.05C47.89 36.9833 47.9133 36.9267 47.96 36.88C48.0133 36.8267 48.0733 36.8 48.14 36.8C48.2133 36.8 48.2733 36.8267 48.32 36.88C48.3667 36.9267 48.39 36.9833 48.39 37.05V41.36L49.67 41.24V40.03L49.18 40.1C49.1133 40.1067 49.0533 40.09 49 40.05C48.9467 40.01 48.9133 39.9567 48.9 39.89C48.8933 39.8167 48.91 39.7533 48.95 39.7C48.99 39.64 49.0433 39.6067 49.11 39.6L49.67 39.52V38.75L49.18 38.82C49.1133 38.8267 49.0533 38.81 49 38.77C48.9467 38.73 48.9133 38.6767 48.9 38.61C48.8933 38.5367 48.91 38.4733 48.95 38.42C48.99 38.36 49.0433 38.3267 49.11 38.32L49.67 38.24V37.55C49.67 37.4833 49.6933 37.4267 49.74 37.38C49.7933 37.3267 49.8533 37.3 49.92 37.3C49.9933 37.3 50.0533 37.3267 50.1 37.38C50.1467 37.4267 50.17 37.4833 50.17 37.55V38.17L50.77 38.09C50.8433 38.0767 50.9067 38.0933 50.96 38.14C51.0133 38.18 51.0433 38.2333 51.05 38.3C51.0633 38.3667 51.05 38.43 51.01 38.49C50.97 38.5433 50.9133 38.5767 50.84 38.59L50.17 38.68V39.45L50.77 39.37C50.8433 39.3567 50.9067 39.3733 50.96 39.42C51.0133 39.46 51.0433 39.5167 51.05 39.59C51.0633 39.6567 51.05 39.7167 51.01 39.77C50.97 39.8233 50.9133 39.8567 50.84 39.87L50.17 39.96V41.19L51.55 41.06C51.6167 41.0533 51.6767 41.0733 51.73 41.12C51.7833 41.16 51.8133 41.2167 51.82 41.29C51.8267 41.3567 51.8067 41.4167 51.76 41.47C51.72 41.5233 51.6633 41.5533 51.59 41.56L48.39 41.87V42.53C48.39 42.5967 48.3667 42.6533 48.32 42.7C48.2733 42.7533 48.2133 42.78 48.14 42.78ZM46.51 42.65L45.14 42.26C45.0733 42.24 45.0233 42.2 44.99 42.14C44.9567 42.08 44.95 42.0167 44.97 41.95C44.99 41.8833 45.03 41.8333 45.09 41.8C45.15 41.7667 45.2133 41.76 45.28 41.78L46.35 42.08L46.51 39.35L44.67 39.59C44.6167 39.7367 44.5567 39.88 44.49 40.02C44.43 40.16 44.3667 40.2967 44.3 40.43L44.94 40.25C45.0067 40.23 45.0667 40.2367 45.12 40.27C45.18 40.3033 45.22 40.35 45.24 40.41C45.2533 40.4767 45.2433 40.54 45.21 40.6C45.1833 40.6533 45.1367 40.69 45.07 40.71L43.85 41.05C43.7367 41.0833 43.65 41.0533 43.59 40.96C43.5233 40.8733 43.52 40.7833 43.58 40.69C43.68 40.55 43.7767 40.39 43.87 40.21C43.9633 40.03 44.05 39.8467 44.13 39.66L43.07 39.8L43.21 42.32C43.2167 42.3867 43.1967 42.4467 43.15 42.5C43.11 42.5533 43.0533 42.5833 42.98 42.59C42.9133 42.5967 42.8533 42.5733 42.8 42.52C42.7467 42.4733 42.7167 42.4167 42.71 42.35L42.55 39.6C42.5433 39.5333 42.56 39.4733 42.6 39.42C42.6467 39.3667 42.7033 39.3367 42.77 39.33L44.33 39.13C44.4033 38.9033 44.46 38.6867 44.5 38.48C44.5133 38.4133 44.5467 38.3633 44.6 38.33C44.6533 38.29 44.7133 38.2767 44.78 38.29C44.8467 38.3033 44.8967 38.3367 44.93 38.39C44.97 38.4433 44.9833 38.5033 44.97 38.57C44.9433 38.7233 44.9033 38.8867 44.85 39.06L46.75 38.81C46.8233 38.8033 46.8933 38.8267 46.96 38.88C47.0133 38.9333 47.04 39 47.04 39.08L46.83 42.42C46.83 42.4933 46.7967 42.5567 46.73 42.61C46.6633 42.6567 46.59 42.67 46.51 42.65ZM43.4 38.42C43.24 38.4333 43.1433 38.3667 43.11 38.22L42.75 36.45C42.7433 36.3833 42.7567 36.32 42.79 36.26C42.83 36.2 42.8833 36.1667 42.95 36.16C43.0233 36.1467 43.0867 36.16 43.14 36.2C43.2 36.2333 43.2367 36.2833 43.25 36.35L43.56 37.88L45.9 37.55L46.21 35.97C46.2233 35.8967 46.26 35.8433 46.32 35.81C46.38 35.77 46.4433 35.7567 46.51 35.77C46.5767 35.7767 46.63 35.81 46.67 35.87C46.71 35.93 46.7233 35.9933 46.71 36.06L46.36 37.82C46.34 37.94 46.27 38.0067 46.15 38.02L43.4 38.42ZM46.9 38.05C46.8533 38.0967 46.7933 38.12 46.72 38.12C46.6533 38.1133 46.5967 38.0833 46.55 38.03C46.5033 37.9767 46.4833 37.9167 46.49 37.85C46.4967 37.7833 46.5233 37.7267 46.57 37.68C46.8233 37.46 47.06 37.19 47.28 36.87C47.5 36.55 47.6967 36.2167 47.87 35.87C48.0433 35.5167 48.19 35.1767 48.31 34.85C48.43 34.5167 48.5133 34.2267 48.56 33.98C48.5733 33.9067 48.6067 33.8533 48.66 33.82C48.72 33.78 48.7833 33.7667 48.85 33.78C48.9233 33.7933 48.9767 33.83 49.01 33.89C49.05 33.9433 49.0633 34.0033 49.05 34.07C49.0033 34.3233 48.9167 34.6267 48.79 34.98C48.6633 35.3267 48.5067 35.69 48.32 36.07C48.1333 36.4433 47.92 36.8033 47.68 37.15C47.44 37.4967 47.18 37.7967 46.9 38.05ZM42.86 35.76C42.7933 35.7667 42.73 35.75 42.67 35.71C42.6167 35.67 42.5833 35.6167 42.57 35.55C42.5633 35.4767 42.58 35.4133 42.62 35.36C42.66 35.3 42.7133 35.2667 42.78 35.26L46.65 34.68C46.7233 34.6667 46.7867 34.6833 46.84 34.73C46.9 34.77 46.9333 34.8267 46.94 34.9C46.9533 34.9667 46.9367 35.0267 46.89 35.08C46.85 35.1333 46.7967 35.1667 46.73 35.18L42.86 35.76ZM44.06 37.51C44.0067 37.5433 43.9467 37.5533 43.88 37.54C43.8133 37.5267 43.7633 37.4933 43.73 37.44C43.6967 37.3867 43.6867 37.3267 43.7 37.26C43.7133 37.1933 43.7467 37.1433 43.8 37.11C43.9067 37.0367 44.0167 36.9567 44.13 36.87C44.2433 36.7767 44.3533 36.68 44.46 36.58L44.07 36.28C44.0233 36.24 43.9933 36.1867 43.98 36.12C43.9667 36.0533 43.98 35.9967 44.02 35.95C44.06 35.8967 44.1133 35.8667 44.18 35.86C44.2467 35.8467 44.3067 35.86 44.36 35.9L44.81 36.24C44.91 36.14 45 36.04 45.08 35.94C45.1667 35.8333 45.2433 35.7367 45.31 35.65C45.35 35.5967 45.4033 35.5633 45.47 35.55C45.5367 35.5367 45.5933 35.55 45.64 35.59C45.6933 35.6233 45.7267 35.6733 45.74 35.74C45.7533 35.8067 45.74 35.8667 45.7 35.92C45.6333 36.0133 45.5567 36.1133 45.47 36.22C45.3833 36.32 45.29 36.4233 45.19 36.53L45.57 36.81C45.6233 36.85 45.6533 36.9033 45.66 36.97C45.6667 37.0367 45.65 37.0967 45.61 37.15C45.57 37.1967 45.5167 37.2267 45.45 37.24C45.39 37.2467 45.3333 37.23 45.28 37.19L44.85 36.87C44.7233 36.99 44.5933 37.1067 44.46 37.22C44.3267 37.3267 44.1933 37.4233 44.06 37.51ZM48.86 37.28C48.7933 37.2867 48.73 37.27 48.67 37.23C48.6167 37.19 48.5833 37.1367 48.57 37.07C48.5633 36.9967 48.58 36.9333 48.62 36.88C48.6667 36.82 48.7233 36.7867 48.79 36.78L51.06 36.48C51.1267 36.4667 51.1867 36.4833 51.24 36.53C51.3 36.57 51.3333 36.6233 51.34 36.69C51.3533 36.7567 51.3367 36.82 51.29 36.88C51.25 36.9333 51.1933 36.9667 51.12 36.98L48.86 37.28ZM50.29 36.07C50.2367 36.11 50.1733 36.1233 50.1 36.11C50.0333 36.0967 49.98 36.06 49.94 36L49.25 35C49.21 34.94 49.1967 34.8767 49.21 34.81C49.2233 34.7367 49.26 34.6833 49.32 34.65C49.3733 34.61 49.4333 34.5967 49.5 34.61C49.5733 34.6233 49.63 34.6567 49.67 34.71L50.36 35.72C50.3933 35.7733 50.4033 35.8367 50.39 35.91C50.3767 35.9767 50.3433 36.03 50.29 36.07ZM45.15 34.65C45.0967 34.6967 45.0333 34.7167 44.96 34.71C44.8933 34.6967 44.84 34.6633 44.8 34.61L44.23 33.88C44.1833 33.8267 44.1633 33.7667 44.17 33.7C44.1833 33.6333 44.2167 33.5767 44.27 33.53C44.3233 33.4833 44.3833 33.4667 44.45 33.48C44.5233 33.4867 44.5833 33.5167 44.63 33.57L45.19 34.3C45.2367 34.3533 45.2533 34.4167 45.24 34.49C45.2333 34.5567 45.2033 34.61 45.15 34.65ZM46.18 40.9C46.1333 40.9467 46.0767 40.9667 46.01 40.96C45.9433 40.9467 45.8867 40.9167 45.84 40.87L45.2 40.1C45.16 40.0467 45.1433 39.99 45.15 39.93C45.1567 39.8633 45.1833 39.8067 45.23 39.76C45.2833 39.72 45.34 39.7033 45.4 39.71C45.4667 39.71 45.5233 39.7367 45.57 39.79L46.21 40.57C46.2567 40.6167 46.2767 40.6733 46.27 40.74C46.2633 40.8067 46.2333 40.86 46.18 40.9ZM57.04 36.75C56.9067 36.7633 56.8167 36.7033 56.77 36.57L56.18 34.42C56.16 34.3467 56.1733 34.2767 56.22 34.21C56.2533 34.15 56.3133 34.1133 56.4 34.1L59.58 33.78C59.6533 33.78 59.7233 33.8067 59.79 33.86C59.8433 33.92 59.8633 33.9933 59.85 34.08L59.48 36.3C59.4533 36.4267 59.38 36.4967 59.26 36.51L57.04 36.75ZM52.58 40.82C52.52 40.86 52.4533 40.8733 52.38 40.86C52.3133 40.8467 52.2633 40.81 52.23 40.75C52.19 40.69 52.1767 40.6267 52.19 40.56C52.2033 40.4933 52.24 40.44 52.3 40.4L53.86 39.39V37.26L52.65 37.52C52.5833 37.5333 52.52 37.5233 52.46 37.49C52.4 37.45 52.3633 37.3967 52.35 37.33C52.3367 37.2633 52.3467 37.2 52.38 37.14C52.42 37.08 52.4733 37.0433 52.54 37.03L53.86 36.74V34.82C53.86 34.7467 53.8833 34.6867 53.93 34.64C53.9833 34.5933 54.0433 34.57 54.11 34.57C54.1833 34.57 54.2433 34.5933 54.29 34.64C54.3367 34.6867 54.36 34.7467 54.36 34.82V36.63L55.15 36.45C55.2167 36.4367 55.28 36.45 55.34 36.49C55.4 36.5233 55.4367 36.5733 55.45 36.64C55.4633 36.7067 55.45 36.77 55.41 36.83C55.3767 36.89 55.3267 36.9267 55.26 36.94L54.36 37.14V39.06L55.28 38.46C55.3333 38.4267 55.3933 38.4167 55.46 38.43C55.5333 38.4433 55.59 38.4767 55.63 38.53C55.6633 38.59 55.6733 38.6567 55.66 38.73C55.6467 38.7967 55.61 38.8467 55.55 38.88L52.58 40.82ZM55.54 39.89C55.4733 39.9167 55.4067 39.9233 55.34 39.91C55.28 39.89 55.2333 39.8467 55.2 39.78C55.1733 39.72 55.1667 39.6567 55.18 39.59C55.2 39.5233 55.2433 39.4733 55.31 39.44C55.73 39.2267 56.13 38.9767 56.51 38.69C56.8967 38.3967 57.2267 38.0967 57.5 37.79L55.54 37.99C55.4733 37.9967 55.4133 37.9767 55.36 37.93C55.3067 37.8833 55.2733 37.8267 55.26 37.76C55.2533 37.6867 55.2733 37.6267 55.32 37.58C55.3667 37.5267 55.4233 37.4967 55.49 37.49L61.16 36.91C61.2333 36.8967 61.2967 36.9133 61.35 36.96C61.4033 37.0067 61.4333 37.0633 61.44 37.13C61.4467 37.1967 61.4267 37.26 61.38 37.32C61.34 37.3733 61.2833 37.4033 61.21 37.41L58.21 37.72C57.9167 38.12 57.5333 38.5133 57.06 38.9C56.5933 39.28 56.0867 39.61 55.54 39.89ZM59.12 42.8L57.88 42.05C57.82 42.0167 57.78 41.9667 57.76 41.9C57.7467 41.8333 57.7567 41.77 57.79 41.71C57.83 41.65 57.8833 41.6133 57.95 41.6C58.0167 41.58 58.08 41.5867 58.14 41.62L59.17 42.23C59.2833 42.03 59.3967 41.79 59.51 41.51C59.6233 41.2233 59.73 40.92 59.83 40.6C59.93 40.28 60.0167 39.9667 60.09 39.66C60.1633 39.3467 60.2167 39.0633 60.25 38.81L58.21 38.96C58.1433 38.9667 58.0833 38.9467 58.03 38.9C57.9767 38.8467 57.9467 38.7867 57.94 38.72C57.9333 38.6533 57.9533 38.5933 58 38.54C58.0467 38.4867 58.1033 38.4567 58.17 38.45L60.51 38.28C60.59 38.28 60.6533 38.3033 60.7 38.35C60.7533 38.4167 60.78 38.4833 60.78 38.55C60.76 38.8433 60.7067 39.1833 60.62 39.57C60.54 39.9567 60.4367 40.35 60.31 40.75C60.19 41.15 60.0533 41.5233 59.9 41.87C59.7533 42.2167 59.6067 42.5 59.46 42.72C59.4267 42.7733 59.3767 42.8067 59.31 42.82C59.2433 42.8333 59.18 42.8267 59.12 42.8ZM57.2 36.23L59.02 36.03L59.3 34.32L56.75 34.57L57.2 36.23ZM55.72 42.41C55.6533 42.4367 55.5867 42.44 55.52 42.42C55.46 42.4 55.4167 42.3567 55.39 42.29C55.3633 42.2233 55.36 42.1567 55.38 42.09C55.4 42.03 55.4433 41.9867 55.51 41.96C55.7567 41.8467 56.0233 41.7 56.31 41.52C56.6033 41.34 56.89 41.1433 57.17 40.93C57.4567 40.71 57.72 40.4833 57.96 40.25C58.2 40.0167 58.3933 39.79 58.54 39.57C58.58 39.51 58.6333 39.4733 58.7 39.46C58.7667 39.4467 58.83 39.46 58.89 39.5C58.9433 39.54 58.9767 39.5933 58.99 39.66C59.0033 39.7267 58.9933 39.79 58.96 39.85C58.7933 40.0967 58.5833 40.3467 58.33 40.6C58.0767 40.8467 57.7967 41.0867 57.49 41.32C57.19 41.5467 56.8867 41.7567 56.58 41.95C56.2733 42.1367 55.9867 42.29 55.72 42.41ZM55.47 41.22C55.4033 41.2467 55.3367 41.25 55.27 41.23C55.21 41.21 55.1633 41.1667 55.13 41.1C55.1033 41.04 55.1 40.9767 55.12 40.91C55.14 40.8433 55.1833 40.7933 55.25 40.76C55.5033 40.6333 55.7733 40.4867 56.06 40.32C56.3467 40.1467 56.6167 39.9633 56.87 39.77C57.13 39.57 57.34 39.37 57.5 39.17C57.5467 39.1167 57.6033 39.0867 57.67 39.08C57.7433 39.0733 57.8067 39.0933 57.86 39.14C57.9133 39.1867 57.9433 39.2467 57.95 39.32C57.9567 39.3867 57.9367 39.4467 57.89 39.5C57.6967 39.7267 57.4567 39.95 57.17 40.17C56.89 40.3833 56.6 40.58 56.3 40.76C56 40.94 55.7233 41.0933 55.47 41.22ZM57.7 35.57C57.6333 35.5767 57.57 35.56 57.51 35.52C57.4567 35.4733 57.4267 35.4167 57.42 35.35C57.4133 35.2767 57.43 35.2133 57.47 35.16C57.5167 35.1067 57.5733 35.0767 57.64 35.07L58.47 34.97C58.5433 34.9567 58.6067 34.9733 58.66 35.02C58.7133 35.06 58.7433 35.1167 58.75 35.19C58.7633 35.2567 58.7467 35.32 58.7 35.38C58.66 35.4333 58.6033 35.4633 58.53 35.47L57.7 35.57ZM65.8 42.57C65.74 42.6033 65.6767 42.61 65.61 42.59C65.5433 42.57 65.4933 42.53 65.46 42.47C65.4267 42.4033 65.42 42.3367 65.44 42.27C65.46 42.2033 65.5 42.1567 65.56 42.13C65.9533 41.9167 66.3467 41.6433 66.74 41.31C67.1333 40.9767 67.5033 40.6167 67.85 40.23C67.57 39.9633 67.33 39.73 67.13 39.53C66.93 39.3233 66.82 39.21 66.8 39.19C66.7533 39.1367 66.73 39.0767 66.73 39.01C66.7367 38.9367 66.7633 38.8767 66.81 38.83C66.8633 38.7833 66.9233 38.76 66.99 38.76C67.0633 38.76 67.1233 38.7867 67.17 38.84C67.1767 38.8467 67.2767 38.95 67.47 39.15C67.6633 39.3433 67.8967 39.5767 68.17 39.85C68.3767 39.5833 68.5633 39.3167 68.73 39.05C68.9033 38.7833 69.0467 38.52 69.16 38.26L67.08 38.58C67.0133 38.5867 66.95 38.57 66.89 38.53C66.8367 38.49 66.8033 38.4367 66.79 38.37C66.7833 38.2967 66.8 38.2333 66.84 38.18C66.88 38.12 66.9333 38.0867 67 38.08L69.53 37.69C69.6233 37.6767 69.7 37.7067 69.76 37.78C69.8133 37.86 69.8267 37.9433 69.8 38.03C69.68 38.3767 69.51 38.7367 69.29 39.11C69.0767 39.4767 68.8267 39.84 68.54 40.2C68.76 40.4067 68.98 40.6033 69.2 40.79C69.42 40.9767 69.6133 41.1267 69.78 41.24C69.92 41.3333 70.0767 41.4267 70.25 41.52C70.4233 41.6067 70.5867 41.6867 70.74 41.76C70.9 41.8333 71.03 41.8933 71.13 41.94C71.2367 41.98 71.29 42 71.29 42C71.3567 42.0267 71.4033 42.07 71.43 42.13C71.4567 42.1967 71.4567 42.2633 71.43 42.33C71.4033 42.3967 71.3567 42.4433 71.29 42.47C71.23 42.4967 71.1667 42.4967 71.1 42.47C71.0867 42.4633 70.99 42.42 70.81 42.34C70.63 42.26 70.4167 42.16 70.17 42.04C69.93 41.92 69.7067 41.7933 69.5 41.66C69.3267 41.5467 69.1267 41.3933 68.9 41.2C68.6733 41 68.4433 40.7933 68.21 40.58C67.85 40.9867 67.4633 41.3633 67.05 41.71C66.6367 42.0567 66.22 42.3433 65.8 42.57ZM63.74 42C63.6067 42.0267 63.5133 41.9767 63.46 41.85L62.8 40.23C62.7733 40.17 62.7767 40.1 62.81 40.02C62.8567 39.9533 62.9133 39.91 62.98 39.89L65.39 39.39C65.4833 39.37 65.56 39.39 65.62 39.45C65.68 39.4967 65.7033 39.57 65.69 39.67L65.46 41.49C65.4467 41.61 65.38 41.6833 65.26 41.71L63.74 42ZM71.04 37.12C70.6667 37.2067 70.3467 37.24 70.08 37.22C69.82 37.1933 69.6067 37.1367 69.44 37.05C69.2733 36.9633 69.1433 36.8667 69.05 36.76C68.6167 36.2867 68.5433 35.53 68.83 34.49L67.85 34.67C67.7833 34.6767 67.72 34.6633 67.66 34.63C67.6067 34.59 67.5733 34.5367 67.56 34.47C67.5467 34.3967 67.56 34.3333 67.6 34.28C67.64 34.22 67.6933 34.1833 67.76 34.17L69.15 33.92C69.23 33.9 69.3067 33.9267 69.38 34C69.4467 34.08 69.4633 34.1633 69.43 34.25C69.2567 34.7567 69.1667 35.1967 69.16 35.57C69.16 35.9433 69.2467 36.2267 69.42 36.42C69.54 36.5467 69.6833 36.6333 69.85 36.68C70.0233 36.72 70.2033 36.7333 70.39 36.72C70.5833 36.7 70.76 36.67 70.92 36.63C70.9933 36.61 71.06 36.62 71.12 36.66C71.18 36.6933 71.2167 36.7433 71.23 36.81C71.2433 36.8767 71.2333 36.94 71.2 37C71.1667 37.06 71.1133 37.1 71.04 37.12ZM62.15 36.67C62.0833 36.6767 62.02 36.66 61.96 36.62C61.9067 36.58 61.8733 36.5267 61.86 36.46C61.8533 36.3933 61.8667 36.33 61.9 36.27C61.94 36.21 61.9933 36.1767 62.06 36.17L65.63 35.52C65.7033 35.5067 65.7667 35.52 65.82 35.56C65.88 35.6 65.9167 35.6533 65.93 35.72C65.9433 35.7867 65.93 35.85 65.89 35.91C65.85 35.97 65.7967 36.0067 65.73 36.02L62.15 36.67ZM66.18 37.75C66.1267 37.7833 66.0633 37.7933 65.99 37.78C65.9233 37.7667 65.87 37.7333 65.83 37.68C65.7967 37.62 65.7867 37.5567 65.8 37.49C65.8133 37.4167 65.85 37.3633 65.91 37.33C66.3367 37.0433 66.62 36.69 66.76 36.27C66.9 35.85 66.9033 35.33 66.77 34.71C66.7567 34.6367 66.7667 34.5733 66.8 34.52C66.84 34.46 66.8933 34.4233 66.96 34.41C67.0333 34.3967 67.0967 34.41 67.15 34.45C67.21 34.4833 67.2467 34.5367 67.26 34.61C67.4133 35.3367 67.4 35.9567 67.22 36.47C67.0467 36.9767 66.7 37.4033 66.18 37.75ZM63.85 41.47L64.98 41.25L65.15 39.95L63.38 40.32L63.85 41.47ZM64.38 35.07L63.41 34.12C63.3633 34.0667 63.3367 34.0067 63.33 33.94C63.33 33.8667 63.3533 33.8067 63.4 33.76C63.4533 33.7067 63.5133 33.68 63.58 33.68C63.6533 33.68 63.7133 33.7067 63.76 33.76L64.73 34.71C64.7833 34.7567 64.81 34.8133 64.81 34.88C64.81 34.9467 64.7867 35.0067 64.74 35.06C64.6933 35.1067 64.6333 35.1333 64.56 35.14C64.4933 35.14 64.4333 35.1167 64.38 35.07ZM63.77 38.92C63.7033 38.9333 63.64 38.92 63.58 38.88C63.5267 38.84 63.4933 38.7867 63.48 38.72C63.4667 38.6467 63.48 38.5833 63.52 38.53C63.56 38.47 63.6133 38.4367 63.68 38.43L65 38.18C65.0733 38.1667 65.1367 38.18 65.19 38.22C65.25 38.2533 65.2833 38.3067 65.29 38.38C65.3033 38.4467 65.29 38.51 65.25 38.57C65.2167 38.6233 65.1633 38.6567 65.09 38.67L63.77 38.92ZM63.77 37.71C63.7033 37.7233 63.64 37.71 63.58 37.67C63.5267 37.63 63.4933 37.5767 63.48 37.51C63.4667 37.4433 63.48 37.3833 63.52 37.33C63.56 37.27 63.6133 37.2333 63.68 37.22L65 36.97C65.0733 36.9567 65.1367 36.97 65.19 37.01C65.25 37.0433 65.2833 37.0967 65.29 37.17C65.3033 37.2367 65.29 37.3 65.25 37.36C65.2167 37.4133 65.1633 37.4467 65.09 37.46L63.77 37.71ZM78.28 42.86C78.2133 42.86 78.1533 42.8333 78.1 42.78C78.0467 42.7333 78.02 42.6767 78.02 42.61V37.31L75.83 37.61C75.7633 37.6167 75.7 37.6 75.64 37.56C75.5867 37.5133 75.5533 37.4567 75.54 37.39C75.5333 37.3167 75.55 37.2533 75.59 37.2C75.6367 37.1467 75.6933 37.1167 75.76 37.11L78.02 36.8V33.95C78.02 33.8767 78.0467 33.8167 78.1 33.77C78.1533 33.7233 78.2133 33.7 78.28 33.7C78.3533 33.7 78.4133 33.7233 78.46 33.77C78.5067 33.8167 78.53 33.8767 78.53 33.95V36.73L80.66 36.44C80.7333 36.4267 80.7967 36.4433 80.85 36.49C80.91 36.53 80.9433 36.5867 80.95 36.66C80.9633 36.7267 80.9467 36.7867 80.9 36.84C80.86 36.8933 80.8033 36.9267 80.73 36.94L78.53 37.24V42.61C78.53 42.6767 78.5067 42.7333 78.46 42.78C78.4133 42.8333 78.3533 42.86 78.28 42.86ZM73.79 42.28C73.65 42.3067 73.5567 42.25 73.51 42.11L72.92 40.4C72.9 40.3333 72.9067 40.2633 72.94 40.19C72.9867 40.1167 73.0433 40.0767 73.11 40.07L75.48 39.62C75.5667 39.6067 75.64 39.63 75.7 39.69C75.7667 39.7433 75.7933 39.8133 75.78 39.9L75.54 41.81C75.52 41.9367 75.45 42.01 75.33 42.03L73.79 42.28ZM72.14 36.92C72.0733 36.9333 72.01 36.92 71.95 36.88C71.89 36.84 71.8533 36.7867 71.84 36.72C71.8333 36.6467 71.8467 36.5833 71.88 36.53C71.92 36.47 71.9733 36.4333 72.04 36.42L75.53 35.76C75.6033 35.7467 75.6667 35.76 75.72 35.8C75.78 35.8333 75.8167 35.8867 75.83 35.96C75.8433 36.0267 75.83 36.09 75.79 36.15C75.7567 36.21 75.7033 36.2467 75.63 36.26L72.14 36.92ZM73.92 41.75L75.06 41.56L75.24 40.18L73.49 40.51L73.92 41.75ZM74.62 35.39C74.5733 35.4367 74.5133 35.46 74.44 35.46C74.3733 35.4533 74.3133 35.4267 74.26 35.38L73.4 34.48C73.3533 34.4267 73.33 34.3667 73.33 34.3C73.3367 34.2267 73.3633 34.1667 73.41 34.12C73.4633 34.0667 73.5233 34.0433 73.59 34.05C73.6567 34.05 73.7133 34.0767 73.76 34.13L74.63 35.03C74.6767 35.0767 74.7 35.1367 74.7 35.21C74.7 35.2767 74.6733 35.3367 74.62 35.39ZM73.89 37.95C73.8233 37.9633 73.76 37.95 73.7 37.91C73.64 37.87 73.6033 37.8167 73.59 37.75C73.5767 37.6767 73.59 37.6133 73.63 37.56C73.67 37.5 73.7233 37.4633 73.79 37.45L74.84 37.25C74.9067 37.2367 74.9667 37.25 75.02 37.29C75.08 37.3233 75.1167 37.3767 75.13 37.45C75.1433 37.5167 75.13 37.58 75.09 37.64C75.0567 37.6933 75.0033 37.7267 74.93 37.74L73.89 37.95ZM73.89 39.14C73.8233 39.1467 73.76 39.1333 73.7 39.1C73.64 39.06 73.6033 39.0067 73.59 38.94C73.5767 38.8667 73.59 38.8033 73.63 38.75C73.67 38.69 73.7233 38.6533 73.79 38.64L74.84 38.44C74.9067 38.4267 74.9667 38.44 75.02 38.48C75.08 38.5133 75.1167 38.5667 75.13 38.64C75.1433 38.7067 75.13 38.77 75.09 38.83C75.0567 38.8833 75.0033 38.9167 74.93 38.93L73.89 39.14ZM89.18 33.79C89.2533 33.7633 89.3233 33.7667 89.39 33.8C89.4567 33.8267 89.5 33.8733 89.52 33.94C89.5467 34 89.5467 34.0633 89.52 34.13C89.4933 34.1833 89.4 34.2733 89.24 34.4C88.7867 34.78 88.0733 35.15 87.1 35.51C86.9333 35.57 86.8167 35.5867 86.75 35.56C86.6433 35.5067 86.5933 35.4267 86.6 35.32C86.6067 35.2067 86.67 35.1267 86.79 35.08C87.85 34.7067 88.5967 34.3167 89.03 33.91C89.1033 33.85 89.1533 33.81 89.18 33.79ZM84.88 34.27C84.9933 34.21 85.0933 34.23 85.18 34.33C85.24 34.3967 85.2567 34.4733 85.23 34.56C85.2167 34.6067 85.1267 34.7 84.96 34.84C84.6533 35.0867 84.43 35.2533 84.29 35.34C84.15 35.4267 83.8533 35.5833 83.4 35.81L82.88 36.07H82.82C82.7667 36.07 82.7267 36.0633 82.7 36.05C82.6467 36.0233 82.6067 35.98 82.58 35.92C82.5533 35.86 82.5533 35.8 82.58 35.74C82.6 35.7 82.6367 35.6633 82.69 35.63C82.7433 35.5967 82.9067 35.51 83.18 35.37C83.6067 35.15 83.8867 35 84.02 34.92C84.1533 34.8333 84.3567 34.68 84.63 34.46C84.7633 34.3533 84.8467 34.29 84.88 34.27ZM85.42 35.91C85.4733 35.8967 85.53 35.91 85.59 35.95C85.6567 35.9833 85.6967 36.0333 85.71 36.1C85.7167 36.12 85.67 36.46 85.57 37.12C85.47 37.78 85.4167 38.1233 85.41 38.15C85.39 38.2167 85.3467 38.2633 85.28 38.29C85.26 38.2967 85.0067 38.3633 84.52 38.49C84.0467 38.6167 83.79 38.68 83.75 38.68C83.65 38.68 83.5733 38.6367 83.52 38.55C83.48 38.4833 83.48 38.41 83.52 38.33C83.5533 38.2567 83.5967 38.2133 83.65 38.2C83.6767 38.2 83.8967 38.1433 84.31 38.03C84.7233 37.9167 84.9333 37.86 84.94 37.86C84.9467 37.86 84.9833 37.6333 85.05 37.18C85.1233 36.7267 85.16 36.4967 85.16 36.49C85.1533 36.49 84.7633 36.5867 83.99 36.78C83.2167 36.9733 82.82 37.07 82.8 37.07C82.7 37.07 82.6267 37.0233 82.58 36.93C82.5467 36.8567 82.5433 36.7867 82.57 36.72C82.5967 36.6533 82.64 36.61 82.7 36.59C82.78 36.55 83.6867 36.3233 85.42 35.91ZM86.68 36.04C86.76 36.0133 86.83 36.0167 86.89 36.05C86.95 36.0833 86.9867 36.1367 87 36.21C87.02 36.2767 87.0367 36.43 87.05 36.67C87.0967 37.57 86.9233 38.4433 86.53 39.29C86.4167 39.53 86.2933 39.75 86.16 39.95C86.14 39.9833 86.1233 40.0133 86.11 40.04C86.0767 40.1067 85.9733 40.2467 85.8 40.46C85.7067 40.5667 85.57 40.7067 85.39 40.88C85.21 41.0467 85.09 41.15 85.03 41.19C84.9767 41.2233 84.9167 41.23 84.85 41.21C84.7767 41.1833 84.7233 41.1433 84.69 41.09C84.6567 41.03 84.65 40.9667 84.67 40.9C84.69 40.84 84.7567 40.7633 84.87 40.67C84.95 40.6033 85.05 40.5133 85.17 40.4C85.4367 40.1267 85.6733 39.82 85.88 39.48C86.02 39.24 86.1 39.08 86.12 39C86.1267 38.9733 86.1467 38.92 86.18 38.84C86.3533 38.4133 86.4667 37.9633 86.52 37.49C86.5667 37.11 86.57 36.75 86.53 36.41C86.5167 36.3033 86.52 36.2233 86.54 36.17C86.5733 36.11 86.62 36.0667 86.68 36.04ZM90.48 36.81C90.58 36.7967 90.6567 36.8233 90.71 36.89C90.79 36.9767 90.8033 37.07 90.75 37.17C90.7167 37.23 90.6667 37.27 90.6 37.29C90.58 37.2967 90.3233 37.3367 89.83 37.41C89.3433 37.4833 89.0867 37.5233 89.06 37.53H89.03V40.2C89.03 41.9733 89.0267 42.8733 89.02 42.9C89.0133 42.9267 89 42.9533 88.98 42.98C88.9333 43.04 88.8733 43.07 88.8 43.07C88.7267 43.0767 88.6633 43.0533 88.61 43C88.6033 43 88.5967 42.9967 88.59 42.99C88.5567 42.97 88.5367 42.87 88.53 42.69C88.53 42.5167 88.53 41.9167 88.53 40.89C88.53 40.6167 88.53 40.4 88.53 40.24V37.61H88.5C88.4667 37.6233 88.2967 37.6533 87.99 37.7C87.69 37.74 87.5333 37.76 87.52 37.76C87.4533 37.76 87.3933 37.7333 87.34 37.68C87.2933 37.6267 87.27 37.5667 87.27 37.5C87.27 37.4533 87.2833 37.41 87.31 37.37C87.3433 37.3233 87.38 37.2933 87.42 37.28C87.44 37.2733 87.9133 37.2 88.84 37.06C89.7733 36.9133 90.32 36.83 90.48 36.81ZM82.79 37.37C82.83 37.3567 82.8767 37.36 82.93 37.38C82.9833 37.4 83.0233 37.4267 83.05 37.46C83.0833 37.5067 83.1033 37.62 83.11 37.8C83.1367 38.6467 82.9933 39.49 82.68 40.33C82.42 41.05 82.1 41.6033 81.72 41.99C81.66 42.05 81.6167 42.0867 81.59 42.1C81.5633 42.1133 81.5233 42.12 81.47 42.12C81.4033 42.1133 81.3467 42.0833 81.3 42.03C81.2533 41.9833 81.2333 41.9233 81.24 41.85C81.2467 41.7967 81.2867 41.73 81.36 41.65C81.84 41.1167 82.19 40.3933 82.41 39.48C82.5367 38.9667 82.6 38.44 82.6 37.9C82.6067 37.7 82.61 37.5833 82.61 37.55C82.6167 37.51 82.6367 37.4733 82.67 37.44C82.7033 37.4067 82.7433 37.3833 82.79 37.37Z" fill="black"/>
</svg>
