<svg width="135" height="135" viewBox="0 0 135 135" fill="none" xmlns="http://www.w3.org/2000/svg">
<circle cx="67.0897" cy="67.0897" r="66.8131" transform="rotate(90 67.0897 67.0897)" fill="#FEECBB" stroke="black" stroke-width="0.553317"/>
<circle cx="67.28" cy="15.8252" r="0.560657" transform="rotate(135.21 67.28 15.8252)" fill="black"/>
<path d="M63.2958 27.1347C62.97 26.1452 63.3039 24.9385 63.5115 24.4589L63.9248 24.0486M63.2958 27.1347C63.6265 26.8065 67.9636 26.8773 70.0909 26.9537M63.2958 27.1347C63.2164 30.0855 62.9304 36.9337 62.4224 40.7203M70.0909 26.9537C70.5868 26.4614 70.3036 25.1015 70.1 24.4831L69.0743 23.4499C68.9102 23.2846 69.4363 18.3039 69.7199 15.8343C69.0647 14.8436 67.5444 10.1986 66.8662 7.99997C66.4479 9.78282 65.2387 13.8825 63.7484 16.0183C63.947 18.0093 64.343 22.3207 64.3381 23.6384L63.9248 24.0486M70.0909 26.9537C70.4179 27.6138 70.4875 31.073 70.4815 32.7201C70.146 34.366 70.8716 38.6237 71.2763 40.5469C71.17 40.5146 71.063 40.484 70.9554 40.4552M62.4224 40.7203C63.9516 40.261 67.7309 39.5914 70.9554 40.4552M62.4224 40.7203C62.2158 40.9254 61.8432 41.4593 62.0061 41.9541M62.0061 41.9541C62.0337 53.1409 62.1699 75.8443 62.4945 77.1632M62.0061 41.9541C65.2402 41.6426 69.6618 41.9701 71.5759 42.1835M62.4945 77.1632L71.3485 76.9898M62.4945 77.1632C61.4826 77.183 61.2483 77.4429 61.2577 77.5704L61.4477 81.8948C63.5883 82.0674 69.4781 81.7184 72.1554 81.5223L71.9638 77.6097C71.896 77.4035 71.6779 76.991 71.3485 76.9898M71.3485 76.9898C71.848 75.5092 71.779 53.1767 71.6821 42.1955C71.6476 42.1915 71.6122 42.1875 71.5759 42.1835M62.9048 77.5764L62.8912 81.2824M64.9637 77.584L64.9501 81.29M65.7872 77.587L65.7736 81.293M66.6093 78.0018L66.5972 81.296M68.2579 77.5961L68.4509 81.0969M69.2794 23.6565C68.5253 23.4479 66.2332 23.3983 63.9248 24.0486M71.9487 81.7274C72.4032 88.798 73.0134 105.779 71.8187 117.14C71.8137 118.513 71.4727 121.668 70.149 123.311C69.4592 124.269 67.5048 125.689 65.2062 123.704C64.5908 123.084 63.28 121.185 62.9603 118.549M62.9603 118.549C62.9004 118.143 62.8362 117.665 62.7694 117.117M62.9603 118.549C63.5525 118.577 64.139 118.592 64.7121 118.596M61.6528 82.1014C61.1418 98.7465 62.0901 111.539 62.7694 117.117M71.6091 118.169C70.5083 118.338 67.805 118.62 64.7121 118.596M62.7694 117.117C63.3147 117.253 64.4466 117.484 64.6119 117.32M69.7599 117.133C70.2938 117.15 71.4121 117.134 71.6136 116.934M69.5502 118.161L69.7614 116.721M69.7614 116.721C68.8679 117.061 66.6286 117.615 64.8186 117.114M69.7614 116.721C70.1053 116.516 70.5469 115.859 69.5623 114.867C69.4739 114.905 69.3747 114.943 69.2663 114.982M64.8186 117.114C64.7496 117.553 64.6318 118.464 64.7121 118.596M64.8186 117.114C63.6686 116.287 64.4822 115.26 65.0328 114.85M65.0328 114.85C66.2262 115.752 68.1942 115.366 69.2663 114.982M65.0328 114.85C65.2661 107.371 65.6511 92.2459 65.3241 91.5859C65.123 90.2812 64.7624 87.5484 64.9289 87.0548C65.0672 86.7808 65.4671 86.2744 65.9606 86.441L67.6077 86.447C67.9501 86.6541 68.5933 87.1918 68.4267 87.6853C68.219 89.0966 67.8014 91.9367 67.7932 92.0067C67.6255 92.8297 68.7054 107.667 69.2663 114.982M70.9554 40.4552C71.333 40.9594 71.9858 42.011 71.5759 42.1835M63.4874 31.0473C64.1742 30.9126 65.6711 30.6847 66.1647 30.8512M63.4843 31.8709C64.1711 31.7361 65.6681 31.5083 66.1616 31.6748M63.4813 32.6944C64.1681 32.5597 65.6651 32.3318 66.1586 32.4984M63.4783 33.518C64.1651 33.3832 65.6621 33.1554 66.1556 33.3219M63.4753 34.3415C64.1621 34.2068 65.659 33.9789 66.1526 34.1455M63.4723 35.1651C64.159 35.0303 65.656 34.8025 66.1495 34.969M63.4692 35.9886C64.156 35.8539 65.653 35.626 66.1465 35.7926M63.4188 36.8593C64.1056 36.7245 65.6025 36.4967 66.0961 36.6632" stroke="black" stroke-width="0.582342"/>
<path d="M21.3794 71.156C21.2994 71.156 21.2274 71.128 21.1634 71.072C21.1074 71.016 21.0794 70.948 21.0794 70.868V62.9C21.0794 62.82 21.1074 62.752 21.1634 62.696C21.2274 62.632 21.2994 62.6 21.3794 62.6H25.7234C25.8034 62.6 25.8714 62.632 25.9274 62.696C25.9914 62.752 26.0234 62.82 26.0234 62.9C26.0234 62.98 25.9914 63.052 25.9274 63.116C25.8714 63.172 25.8034 63.2 25.7234 63.2H21.6794V66.44C21.6874 66.44 21.6954 66.44 21.7034 66.44C21.7114 66.432 21.7194 66.428 21.7274 66.428H25.0514C25.1394 66.428 25.2114 66.456 25.2674 66.512C25.3314 66.568 25.3634 66.64 25.3634 66.728C25.3634 66.808 25.3314 66.88 25.2674 66.944C25.2114 67 25.1394 67.028 25.0514 67.028H21.6794V70.868C21.6794 70.948 21.6514 71.016 21.5954 71.072C21.5394 71.128 21.4674 71.156 21.3794 71.156ZM35.2804 71.216C34.3444 71.216 33.6124 70.956 33.0844 70.436C32.5644 69.908 32.3044 69.176 32.3044 68.24V65.372C32.3044 64.436 32.5644 63.708 33.0844 63.188C33.6124 62.66 34.3444 62.396 35.2804 62.396C35.7364 62.396 36.1684 62.496 36.5764 62.696C36.9844 62.896 37.3284 63.176 37.6084 63.536C37.6644 63.6 37.6884 63.672 37.6804 63.752C37.6724 63.832 37.6364 63.9 37.5724 63.956C37.5004 64.004 37.4204 64.024 37.3324 64.016C37.2524 64 37.1884 63.964 37.1404 63.908C36.9164 63.62 36.6404 63.396 36.3124 63.236C35.9844 63.076 35.6404 62.996 35.2804 62.996C34.5364 62.996 33.9524 63.208 33.5284 63.632C33.1124 64.048 32.9044 64.628 32.9044 65.372V68.24C32.9044 68.984 33.1124 69.568 33.5284 69.992C33.9524 70.408 34.5364 70.616 35.2804 70.616C35.6404 70.616 35.9844 70.54 36.3124 70.388C36.6404 70.228 36.9164 70.004 37.1404 69.716C37.1884 69.652 37.2524 69.616 37.3324 69.608C37.4204 69.592 37.5004 69.612 37.5724 69.668C37.6364 69.716 37.6724 69.784 37.6804 69.872C37.6884 69.952 37.6644 70.024 37.6084 70.088C37.3284 70.448 36.9844 70.728 36.5764 70.928C36.1684 71.12 35.7364 71.216 35.2804 71.216ZM44.5376 71.168C44.4576 71.168 44.3856 71.14 44.3216 71.084C44.2656 71.028 44.2376 70.96 44.2376 70.88V62.9C44.2376 62.82 44.2656 62.752 44.3216 62.696C44.3856 62.632 44.4576 62.6 44.5376 62.6H47.4056C47.8536 62.6 48.2576 62.712 48.6176 62.936C48.9856 63.152 49.2776 63.444 49.4936 63.812C49.7096 64.172 49.8176 64.572 49.8176 65.012C49.8176 65.452 49.7096 65.856 49.4936 66.224C49.2776 66.592 48.9856 66.888 48.6176 67.112C48.2576 67.328 47.8536 67.436 47.4056 67.436H44.8376V70.88C44.8376 70.96 44.8096 71.028 44.7536 71.084C44.6976 71.14 44.6256 71.168 44.5376 71.168ZM44.8376 66.836H47.4056C47.7416 66.836 48.0456 66.756 48.3176 66.596C48.5896 66.428 48.8056 66.208 48.9656 65.936C49.1336 65.656 49.2176 65.348 49.2176 65.012C49.2176 64.676 49.1336 64.372 48.9656 64.1C48.8056 63.828 48.5896 63.612 48.3176 63.452C48.0456 63.284 47.7416 63.2 47.4056 63.2H44.8376V66.836Z" fill="black"/>
<path d="M83.3194 69.78C83.2528 69.78 83.1928 69.7533 83.1394 69.7C83.0928 69.6533 83.0694 69.5967 83.0694 69.53V64.05C83.0694 63.9833 83.0928 63.9267 83.1394 63.88C83.1928 63.8267 83.2528 63.8 83.3194 63.8C83.3928 63.8 83.4528 63.8267 83.4994 63.88C83.5461 63.9267 83.5694 63.9833 83.5694 64.05V68.36L84.8494 68.24V67.03L84.3594 67.1C84.2928 67.1067 84.2328 67.09 84.1794 67.05C84.1261 67.01 84.0928 66.9567 84.0794 66.89C84.0728 66.8167 84.0894 66.7533 84.1294 66.7C84.1694 66.64 84.2228 66.6067 84.2894 66.6L84.8494 66.52V65.75L84.3594 65.82C84.2928 65.8267 84.2328 65.81 84.1794 65.77C84.1261 65.73 84.0928 65.6767 84.0794 65.61C84.0728 65.5367 84.0894 65.4733 84.1294 65.42C84.1694 65.36 84.2228 65.3267 84.2894 65.32L84.8494 65.24V64.55C84.8494 64.4833 84.8728 64.4267 84.9194 64.38C84.9728 64.3267 85.0328 64.3 85.0994 64.3C85.1728 64.3 85.2328 64.3267 85.2794 64.38C85.3261 64.4267 85.3494 64.4833 85.3494 64.55V65.17L85.9494 65.09C86.0228 65.0767 86.0861 65.0933 86.1394 65.14C86.1928 65.18 86.2228 65.2333 86.2294 65.3C86.2428 65.3667 86.2294 65.43 86.1894 65.49C86.1494 65.5433 86.0928 65.5767 86.0194 65.59L85.3494 65.68V66.45L85.9494 66.37C86.0228 66.3567 86.0861 66.3733 86.1394 66.42C86.1928 66.46 86.2228 66.5167 86.2294 66.59C86.2428 66.6567 86.2294 66.7167 86.1894 66.77C86.1494 66.8233 86.0928 66.8567 86.0194 66.87L85.3494 66.96V68.19L86.7294 68.06C86.7961 68.0533 86.8561 68.0733 86.9094 68.12C86.9628 68.16 86.9928 68.2167 86.9994 68.29C87.0061 68.3567 86.9861 68.4167 86.9394 68.47C86.8994 68.5233 86.8428 68.5533 86.7694 68.56L83.5694 68.87V69.53C83.5694 69.5967 83.5461 69.6533 83.4994 69.7C83.4528 69.7533 83.3928 69.78 83.3194 69.78ZM81.6894 69.65L80.3194 69.26C80.2528 69.24 80.2028 69.2 80.1694 69.14C80.1361 69.08 80.1294 69.0167 80.1494 68.95C80.1694 68.8833 80.2094 68.8333 80.2694 68.8C80.3294 68.7667 80.3928 68.76 80.4594 68.78L81.5294 69.08L81.6894 66.35L79.8494 66.59C79.7961 66.7367 79.7361 66.88 79.6694 67.02C79.6094 67.16 79.5461 67.2967 79.4794 67.43L80.1194 67.25C80.1861 67.23 80.2461 67.2367 80.2994 67.27C80.3594 67.3033 80.3994 67.35 80.4194 67.41C80.4328 67.4767 80.4228 67.54 80.3894 67.6C80.3628 67.6533 80.3161 67.69 80.2494 67.71L79.0294 68.05C78.9161 68.0833 78.8294 68.0533 78.7694 67.96C78.7028 67.8733 78.6994 67.7833 78.7594 67.69C78.8594 67.55 78.9561 67.39 79.0494 67.21C79.1428 67.03 79.2294 66.8467 79.3094 66.66L78.2494 66.8L78.3894 69.32C78.3961 69.3867 78.3761 69.4467 78.3294 69.5C78.2894 69.5533 78.2328 69.5833 78.1594 69.59C78.0928 69.5967 78.0328 69.5733 77.9794 69.52C77.9261 69.4733 77.8961 69.4167 77.8894 69.35L77.7294 66.6C77.7228 66.5333 77.7394 66.4733 77.7794 66.42C77.8261 66.3667 77.8828 66.3367 77.9494 66.33L79.5094 66.13C79.5828 65.9033 79.6394 65.6867 79.6794 65.48C79.6928 65.4133 79.7261 65.3633 79.7794 65.33C79.8328 65.29 79.8928 65.2767 79.9594 65.29C80.0261 65.3033 80.0761 65.3367 80.1094 65.39C80.1494 65.4433 80.1628 65.5033 80.1494 65.57C80.1228 65.7233 80.0828 65.8867 80.0294 66.06L81.9294 65.81C82.0028 65.8033 82.0728 65.8267 82.1394 65.88C82.1928 65.9333 82.2194 66 82.2194 66.08L82.0094 69.42C82.0094 69.4933 81.9761 69.5567 81.9094 69.61C81.8428 69.6567 81.7694 69.67 81.6894 69.65ZM78.5794 65.42C78.4194 65.4333 78.3228 65.3667 78.2894 65.22L77.9294 63.45C77.9228 63.3833 77.9361 63.32 77.9694 63.26C78.0094 63.2 78.0628 63.1667 78.1294 63.16C78.2028 63.1467 78.2661 63.16 78.3194 63.2C78.3794 63.2333 78.4161 63.2833 78.4294 63.35L78.7394 64.88L81.0794 64.55L81.3894 62.97C81.4028 62.8967 81.4394 62.8433 81.4994 62.81C81.5594 62.77 81.6228 62.7567 81.6894 62.77C81.7561 62.7767 81.8094 62.81 81.8494 62.87C81.8894 62.93 81.9028 62.9933 81.8894 63.06L81.5394 64.82C81.5194 64.94 81.4494 65.0067 81.3294 65.02L78.5794 65.42ZM82.0794 65.05C82.0328 65.0967 81.9728 65.12 81.8994 65.12C81.8328 65.1133 81.7761 65.0833 81.7294 65.03C81.6828 64.9767 81.6628 64.9167 81.6694 64.85C81.6761 64.7833 81.7028 64.7267 81.7494 64.68C82.0028 64.46 82.2394 64.19 82.4594 63.87C82.6794 63.55 82.8761 63.2167 83.0494 62.87C83.2228 62.5167 83.3694 62.1767 83.4894 61.85C83.6094 61.5167 83.6928 61.2267 83.7394 60.98C83.7528 60.9067 83.7861 60.8533 83.8394 60.82C83.8994 60.78 83.9628 60.7667 84.0294 60.78C84.1028 60.7933 84.1561 60.83 84.1894 60.89C84.2294 60.9433 84.2428 61.0033 84.2294 61.07C84.1828 61.3233 84.0961 61.6267 83.9694 61.98C83.8428 62.3267 83.6861 62.69 83.4994 63.07C83.3128 63.4433 83.0994 63.8033 82.8594 64.15C82.6194 64.4967 82.3594 64.7967 82.0794 65.05ZM78.0394 62.76C77.9728 62.7667 77.9094 62.75 77.8494 62.71C77.7961 62.67 77.7628 62.6167 77.7494 62.55C77.7428 62.4767 77.7594 62.4133 77.7994 62.36C77.8394 62.3 77.8928 62.2667 77.9594 62.26L81.8294 61.68C81.9028 61.6667 81.9661 61.6833 82.0194 61.73C82.0794 61.77 82.1128 61.8267 82.1194 61.9C82.1328 61.9667 82.1161 62.0267 82.0694 62.08C82.0294 62.1333 81.9761 62.1667 81.9094 62.18L78.0394 62.76ZM79.2394 64.51C79.1861 64.5433 79.1261 64.5533 79.0594 64.54C78.9928 64.5267 78.9428 64.4933 78.9094 64.44C78.8761 64.3867 78.8661 64.3267 78.8794 64.26C78.8928 64.1933 78.9261 64.1433 78.9794 64.11C79.0861 64.0367 79.1961 63.9567 79.3094 63.87C79.4228 63.7767 79.5328 63.68 79.6394 63.58L79.2494 63.28C79.2028 63.24 79.1728 63.1867 79.1594 63.12C79.1461 63.0533 79.1594 62.9967 79.1994 62.95C79.2394 62.8967 79.2928 62.8667 79.3594 62.86C79.4261 62.8467 79.4861 62.86 79.5394 62.9L79.9894 63.24C80.0894 63.14 80.1794 63.04 80.2594 62.94C80.3461 62.8333 80.4228 62.7367 80.4894 62.65C80.5294 62.5967 80.5828 62.5633 80.6494 62.55C80.7161 62.5367 80.7728 62.55 80.8194 62.59C80.8728 62.6233 80.9061 62.6733 80.9194 62.74C80.9328 62.8067 80.9194 62.8667 80.8794 62.92C80.8128 63.0133 80.7361 63.1133 80.6494 63.22C80.5628 63.32 80.4694 63.4233 80.3694 63.53L80.7494 63.81C80.8028 63.85 80.8328 63.9033 80.8394 63.97C80.8461 64.0367 80.8294 64.0967 80.7894 64.15C80.7494 64.1967 80.6961 64.2267 80.6294 64.24C80.5694 64.2467 80.5128 64.23 80.4594 64.19L80.0294 63.87C79.9028 63.99 79.7728 64.1067 79.6394 64.22C79.5061 64.3267 79.3728 64.4233 79.2394 64.51ZM84.0394 64.28C83.9728 64.2867 83.9094 64.27 83.8494 64.23C83.7961 64.19 83.7628 64.1367 83.7494 64.07C83.7428 63.9967 83.7594 63.9333 83.7994 63.88C83.8461 63.82 83.9028 63.7867 83.9694 63.78L86.2394 63.48C86.3061 63.4667 86.3661 63.4833 86.4194 63.53C86.4794 63.57 86.5128 63.6233 86.5194 63.69C86.5328 63.7567 86.5161 63.82 86.4694 63.88C86.4294 63.9333 86.3728 63.9667 86.2994 63.98L84.0394 64.28ZM85.4694 63.07C85.4161 63.11 85.3528 63.1233 85.2794 63.11C85.2128 63.0967 85.1594 63.06 85.1194 63L84.4294 62C84.3894 61.94 84.3761 61.8767 84.3894 61.81C84.4028 61.7367 84.4394 61.6833 84.4994 61.65C84.5528 61.61 84.6128 61.5967 84.6794 61.61C84.7528 61.6233 84.8094 61.6567 84.8494 61.71L85.5394 62.72C85.5728 62.7733 85.5828 62.8367 85.5694 62.91C85.5561 62.9767 85.5228 63.03 85.4694 63.07ZM80.3294 61.65C80.2761 61.6967 80.2128 61.7167 80.1394 61.71C80.0728 61.6967 80.0194 61.6633 79.9794 61.61L79.4094 60.88C79.3628 60.8267 79.3428 60.7667 79.3494 60.7C79.3628 60.6333 79.3961 60.5767 79.4494 60.53C79.5028 60.4833 79.5628 60.4667 79.6294 60.48C79.7028 60.4867 79.7628 60.5167 79.8094 60.57L80.3694 61.3C80.4161 61.3533 80.4328 61.4167 80.4194 61.49C80.4128 61.5567 80.3828 61.61 80.3294 61.65ZM81.3594 67.9C81.3128 67.9467 81.2561 67.9667 81.1894 67.96C81.1228 67.9467 81.0661 67.9167 81.0194 67.87L80.3794 67.1C80.3394 67.0467 80.3228 66.99 80.3294 66.93C80.3361 66.8633 80.3628 66.8067 80.4094 66.76C80.4628 66.72 80.5194 66.7033 80.5794 66.71C80.6461 66.71 80.7028 66.7367 80.7494 66.79L81.3894 67.57C81.4361 67.6167 81.4561 67.6733 81.4494 67.74C81.4428 67.8067 81.4128 67.86 81.3594 67.9ZM92.2194 63.75C92.0861 63.7633 91.9961 63.7033 91.9494 63.57L91.3594 61.42C91.3394 61.3467 91.3528 61.2767 91.3994 61.21C91.4328 61.15 91.4928 61.1133 91.5794 61.1L94.7594 60.78C94.8328 60.78 94.9028 60.8067 94.9694 60.86C95.0228 60.92 95.0428 60.9933 95.0294 61.08L94.6594 63.3C94.6328 63.4267 94.5594 63.4967 94.4394 63.51L92.2194 63.75ZM87.7594 67.82C87.6994 67.86 87.6328 67.8733 87.5594 67.86C87.4928 67.8467 87.4428 67.81 87.4094 67.75C87.3694 67.69 87.3561 67.6267 87.3694 67.56C87.3828 67.4933 87.4194 67.44 87.4794 67.4L89.0394 66.39V64.26L87.8294 64.52C87.7628 64.5333 87.6994 64.5233 87.6394 64.49C87.5794 64.45 87.5428 64.3967 87.5294 64.33C87.5161 64.2633 87.5261 64.2 87.5594 64.14C87.5994 64.08 87.6528 64.0433 87.7194 64.03L89.0394 63.74V61.82C89.0394 61.7467 89.0628 61.6867 89.1094 61.64C89.1628 61.5933 89.2228 61.57 89.2894 61.57C89.3628 61.57 89.4228 61.5933 89.4694 61.64C89.5161 61.6867 89.5394 61.7467 89.5394 61.82V63.63L90.3294 63.45C90.3961 63.4367 90.4594 63.45 90.5194 63.49C90.5794 63.5233 90.6161 63.5733 90.6294 63.64C90.6428 63.7067 90.6294 63.77 90.5894 63.83C90.5561 63.89 90.5061 63.9267 90.4394 63.94L89.5394 64.14V66.06L90.4594 65.46C90.5128 65.4267 90.5728 65.4167 90.6394 65.43C90.7128 65.4433 90.7694 65.4767 90.8094 65.53C90.8428 65.59 90.8528 65.6567 90.8394 65.73C90.8261 65.7967 90.7894 65.8467 90.7294 65.88L87.7594 67.82ZM90.7194 66.89C90.6528 66.9167 90.5861 66.9233 90.5194 66.91C90.4594 66.89 90.4128 66.8467 90.3794 66.78C90.3528 66.72 90.3461 66.6567 90.3594 66.59C90.3794 66.5233 90.4228 66.4733 90.4894 66.44C90.9094 66.2267 91.3094 65.9767 91.6894 65.69C92.0761 65.3967 92.4061 65.0967 92.6794 64.79L90.7194 64.99C90.6528 64.9967 90.5928 64.9767 90.5394 64.93C90.4861 64.8833 90.4528 64.8267 90.4394 64.76C90.4328 64.6867 90.4528 64.6267 90.4994 64.58C90.5461 64.5267 90.6028 64.4967 90.6694 64.49L96.3394 63.91C96.4128 63.8967 96.4761 63.9133 96.5294 63.96C96.5828 64.0067 96.6128 64.0633 96.6194 64.13C96.6261 64.1967 96.6061 64.26 96.5594 64.32C96.5194 64.3733 96.4628 64.4033 96.3894 64.41L93.3894 64.72C93.0961 65.12 92.7128 65.5133 92.2394 65.9C91.7728 66.28 91.2661 66.61 90.7194 66.89ZM94.2994 69.8L93.0594 69.05C92.9994 69.0167 92.9594 68.9667 92.9394 68.9C92.9261 68.8333 92.9361 68.77 92.9694 68.71C93.0094 68.65 93.0628 68.6133 93.1294 68.6C93.1961 68.58 93.2594 68.5867 93.3194 68.62L94.3494 69.23C94.4628 69.03 94.5761 68.79 94.6894 68.51C94.8028 68.2233 94.9094 67.92 95.0094 67.6C95.1094 67.28 95.1961 66.9667 95.2694 66.66C95.3428 66.3467 95.3961 66.0633 95.4294 65.81L93.3894 65.96C93.3228 65.9667 93.2628 65.9467 93.2094 65.9C93.1561 65.8467 93.1261 65.7867 93.1194 65.72C93.1128 65.6533 93.1328 65.5933 93.1794 65.54C93.2261 65.4867 93.2828 65.4567 93.3494 65.45L95.6894 65.28C95.7694 65.28 95.8328 65.3033 95.8794 65.35C95.9328 65.4167 95.9594 65.4833 95.9594 65.55C95.9394 65.8433 95.8861 66.1833 95.7994 66.57C95.7194 66.9567 95.6161 67.35 95.4894 67.75C95.3694 68.15 95.2328 68.5233 95.0794 68.87C94.9328 69.2167 94.7861 69.5 94.6394 69.72C94.6061 69.7733 94.5561 69.8067 94.4894 69.82C94.4228 69.8333 94.3594 69.8267 94.2994 69.8ZM92.3794 63.23L94.1994 63.03L94.4794 61.32L91.9294 61.57L92.3794 63.23ZM90.8994 69.41C90.8328 69.4367 90.7661 69.44 90.6994 69.42C90.6394 69.4 90.5961 69.3567 90.5694 69.29C90.5428 69.2233 90.5394 69.1567 90.5594 69.09C90.5794 69.03 90.6228 68.9867 90.6894 68.96C90.9361 68.8467 91.2028 68.7 91.4894 68.52C91.7828 68.34 92.0694 68.1433 92.3494 67.93C92.6361 67.71 92.8994 67.4833 93.1394 67.25C93.3794 67.0167 93.5728 66.79 93.7194 66.57C93.7594 66.51 93.8128 66.4733 93.8794 66.46C93.9461 66.4467 94.0094 66.46 94.0694 66.5C94.1228 66.54 94.1561 66.5933 94.1694 66.66C94.1828 66.7267 94.1728 66.79 94.1394 66.85C93.9728 67.0967 93.7628 67.3467 93.5094 67.6C93.2561 67.8467 92.9761 68.0867 92.6694 68.32C92.3694 68.5467 92.0661 68.7567 91.7594 68.95C91.4528 69.1367 91.1661 69.29 90.8994 69.41ZM90.6494 68.22C90.5828 68.2467 90.5161 68.25 90.4494 68.23C90.3894 68.21 90.3428 68.1667 90.3094 68.1C90.2828 68.04 90.2794 67.9767 90.2994 67.91C90.3194 67.8433 90.3628 67.7933 90.4294 67.76C90.6828 67.6333 90.9528 67.4867 91.2394 67.32C91.5261 67.1467 91.7961 66.9633 92.0494 66.77C92.3094 66.57 92.5194 66.37 92.6794 66.17C92.7261 66.1167 92.7828 66.0867 92.8494 66.08C92.9228 66.0733 92.9861 66.0933 93.0394 66.14C93.0928 66.1867 93.1228 66.2467 93.1294 66.32C93.1361 66.3867 93.1161 66.4467 93.0694 66.5C92.8761 66.7267 92.6361 66.95 92.3494 67.17C92.0694 67.3833 91.7794 67.58 91.4794 67.76C91.1794 67.94 90.9028 68.0933 90.6494 68.22ZM92.8794 62.57C92.8128 62.5767 92.7494 62.56 92.6894 62.52C92.6361 62.4733 92.6061 62.4167 92.5994 62.35C92.5928 62.2767 92.6094 62.2133 92.6494 62.16C92.6961 62.1067 92.7528 62.0767 92.8194 62.07L93.6494 61.97C93.7228 61.9567 93.7861 61.9733 93.8394 62.02C93.8928 62.06 93.9228 62.1167 93.9294 62.19C93.9428 62.2567 93.9261 62.32 93.8794 62.38C93.8394 62.4333 93.7828 62.4633 93.7094 62.47L92.8794 62.57ZM100.979 69.57C100.919 69.6033 100.856 69.61 100.789 69.59C100.723 69.57 100.673 69.53 100.639 69.47C100.606 69.4033 100.599 69.3367 100.619 69.27C100.639 69.2033 100.679 69.1567 100.739 69.13C101.133 68.9167 101.526 68.6433 101.919 68.31C102.313 67.9767 102.683 67.6167 103.029 67.23C102.749 66.9633 102.509 66.73 102.309 66.53C102.109 66.3233 101.999 66.21 101.979 66.19C101.933 66.1367 101.909 66.0767 101.909 66.01C101.916 65.9367 101.943 65.8767 101.989 65.83C102.043 65.7833 102.103 65.76 102.169 65.76C102.243 65.76 102.303 65.7867 102.349 65.84C102.356 65.8467 102.456 65.95 102.649 66.15C102.843 66.3433 103.076 66.5767 103.349 66.85C103.556 66.5833 103.743 66.3167 103.909 66.05C104.083 65.7833 104.226 65.52 104.339 65.26L102.259 65.58C102.193 65.5867 102.129 65.57 102.069 65.53C102.016 65.49 101.983 65.4367 101.969 65.37C101.963 65.2967 101.979 65.2333 102.019 65.18C102.059 65.12 102.113 65.0867 102.179 65.08L104.709 64.69C104.803 64.6767 104.879 64.7067 104.939 64.78C104.993 64.86 105.006 64.9433 104.979 65.03C104.859 65.3767 104.689 65.7367 104.469 66.11C104.256 66.4767 104.006 66.84 103.719 67.2C103.939 67.4067 104.159 67.6033 104.379 67.79C104.599 67.9767 104.793 68.1267 104.959 68.24C105.099 68.3333 105.256 68.4267 105.429 68.52C105.603 68.6067 105.766 68.6867 105.919 68.76C106.079 68.8333 106.209 68.8933 106.309 68.94C106.416 68.98 106.469 69 106.469 69C106.536 69.0267 106.583 69.07 106.609 69.13C106.636 69.1967 106.636 69.2633 106.609 69.33C106.583 69.3967 106.536 69.4433 106.469 69.47C106.409 69.4967 106.346 69.4967 106.279 69.47C106.266 69.4633 106.169 69.42 105.989 69.34C105.809 69.26 105.596 69.16 105.349 69.04C105.109 68.92 104.886 68.7933 104.679 68.66C104.506 68.5467 104.306 68.3933 104.079 68.2C103.853 68 103.623 67.7933 103.389 67.58C103.029 67.9867 102.643 68.3633 102.229 68.71C101.816 69.0567 101.399 69.3433 100.979 69.57ZM98.9194 69C98.7861 69.0267 98.6928 68.9767 98.6394 68.85L97.9794 67.23C97.9528 67.17 97.9561 67.1 97.9894 67.02C98.0361 66.9533 98.0928 66.91 98.1594 66.89L100.569 66.39C100.663 66.37 100.739 66.39 100.799 66.45C100.859 66.4967 100.883 66.57 100.869 66.67L100.639 68.49C100.626 68.61 100.559 68.6833 100.439 68.71L98.9194 69ZM106.219 64.12C105.846 64.2067 105.526 64.24 105.259 64.22C104.999 64.1933 104.786 64.1367 104.619 64.05C104.453 63.9633 104.323 63.8667 104.229 63.76C103.796 63.2867 103.723 62.53 104.009 61.49L103.029 61.67C102.963 61.6767 102.899 61.6633 102.839 61.63C102.786 61.59 102.753 61.5367 102.739 61.47C102.726 61.3967 102.739 61.3333 102.779 61.28C102.819 61.22 102.873 61.1833 102.939 61.17L104.329 60.92C104.409 60.9 104.486 60.9267 104.559 61C104.626 61.08 104.643 61.1633 104.609 61.25C104.436 61.7567 104.346 62.1967 104.339 62.57C104.339 62.9433 104.426 63.2267 104.599 63.42C104.719 63.5467 104.863 63.6333 105.029 63.68C105.203 63.72 105.383 63.7333 105.569 63.72C105.763 63.7 105.939 63.67 106.099 63.63C106.173 63.61 106.239 63.62 106.299 63.66C106.359 63.6933 106.396 63.7433 106.409 63.81C106.423 63.8767 106.413 63.94 106.379 64C106.346 64.06 106.293 64.1 106.219 64.12ZM97.3294 63.67C97.2628 63.6767 97.1994 63.66 97.1394 63.62C97.0861 63.58 97.0528 63.5267 97.0394 63.46C97.0328 63.3933 97.0461 63.33 97.0794 63.27C97.1194 63.21 97.1728 63.1767 97.2394 63.17L100.809 62.52C100.883 62.5067 100.946 62.52 100.999 62.56C101.059 62.6 101.096 62.6533 101.109 62.72C101.123 62.7867 101.109 62.85 101.069 62.91C101.029 62.97 100.976 63.0067 100.909 63.02L97.3294 63.67ZM101.359 64.75C101.306 64.7833 101.243 64.7933 101.169 64.78C101.103 64.7667 101.049 64.7333 101.009 64.68C100.976 64.62 100.966 64.5567 100.979 64.49C100.993 64.4167 101.029 64.3633 101.089 64.33C101.516 64.0433 101.799 63.69 101.939 63.27C102.079 62.85 102.083 62.33 101.949 61.71C101.936 61.6367 101.946 61.5733 101.979 61.52C102.019 61.46 102.073 61.4233 102.139 61.41C102.213 61.3967 102.276 61.41 102.329 61.45C102.389 61.4833 102.426 61.5367 102.439 61.61C102.593 62.3367 102.579 62.9567 102.399 63.47C102.226 63.9767 101.879 64.4033 101.359 64.75ZM99.0294 68.47L100.159 68.25L100.329 66.95L98.5594 67.32L99.0294 68.47ZM99.5594 62.07L98.5894 61.12C98.5428 61.0667 98.5161 61.0067 98.5094 60.94C98.5094 60.8667 98.5328 60.8067 98.5794 60.76C98.6328 60.7067 98.6928 60.68 98.7594 60.68C98.8328 60.68 98.8928 60.7067 98.9394 60.76L99.9094 61.71C99.9628 61.7567 99.9894 61.8133 99.9894 61.88C99.9894 61.9467 99.9661 62.0067 99.9194 62.06C99.8728 62.1067 99.8128 62.1333 99.7394 62.14C99.6728 62.14 99.6128 62.1167 99.5594 62.07ZM98.9494 65.92C98.8828 65.9333 98.8194 65.92 98.7594 65.88C98.7061 65.84 98.6728 65.7867 98.6594 65.72C98.6461 65.6467 98.6594 65.5833 98.6994 65.53C98.7394 65.47 98.7928 65.4367 98.8594 65.43L100.179 65.18C100.253 65.1667 100.316 65.18 100.369 65.22C100.429 65.2533 100.463 65.3067 100.469 65.38C100.483 65.4467 100.469 65.51 100.429 65.57C100.396 65.6233 100.343 65.6567 100.269 65.67L98.9494 65.92ZM98.9494 64.71C98.8828 64.7233 98.8194 64.71 98.7594 64.67C98.7061 64.63 98.6728 64.5767 98.6594 64.51C98.6461 64.4433 98.6594 64.3833 98.6994 64.33C98.7394 64.27 98.7928 64.2333 98.8594 64.22L100.179 63.97C100.253 63.9567 100.316 63.97 100.369 64.01C100.429 64.0433 100.463 64.0967 100.469 64.17C100.483 64.2367 100.469 64.3 100.429 64.36C100.396 64.4133 100.343 64.4467 100.269 64.46L98.9494 64.71ZM113.459 69.86C113.393 69.86 113.333 69.8333 113.279 69.78C113.226 69.7333 113.199 69.6767 113.199 69.61V64.31L111.009 64.61C110.943 64.6167 110.879 64.6 110.819 64.56C110.766 64.5133 110.733 64.4567 110.719 64.39C110.713 64.3167 110.729 64.2533 110.769 64.2C110.816 64.1467 110.873 64.1167 110.939 64.11L113.199 63.8V60.95C113.199 60.8767 113.226 60.8167 113.279 60.77C113.333 60.7233 113.393 60.7 113.459 60.7C113.533 60.7 113.593 60.7233 113.639 60.77C113.686 60.8167 113.709 60.8767 113.709 60.95V63.73L115.839 63.44C115.913 63.4267 115.976 63.4433 116.029 63.49C116.089 63.53 116.123 63.5867 116.129 63.66C116.143 63.7267 116.126 63.7867 116.079 63.84C116.039 63.8933 115.983 63.9267 115.909 63.94L113.709 64.24V69.61C113.709 69.6767 113.686 69.7333 113.639 69.78C113.593 69.8333 113.533 69.86 113.459 69.86ZM108.969 69.28C108.829 69.3067 108.736 69.25 108.689 69.11L108.099 67.4C108.079 67.3333 108.086 67.2633 108.119 67.19C108.166 67.1167 108.223 67.0767 108.289 67.07L110.659 66.62C110.746 66.6067 110.819 66.63 110.879 66.69C110.946 66.7433 110.973 66.8133 110.959 66.9L110.719 68.81C110.699 68.9367 110.629 69.01 110.509 69.03L108.969 69.28ZM107.319 63.92C107.253 63.9333 107.189 63.92 107.129 63.88C107.069 63.84 107.033 63.7867 107.019 63.72C107.013 63.6467 107.026 63.5833 107.059 63.53C107.099 63.47 107.153 63.4333 107.219 63.42L110.709 62.76C110.783 62.7467 110.846 62.76 110.899 62.8C110.959 62.8333 110.996 62.8867 111.009 62.96C111.023 63.0267 111.009 63.09 110.969 63.15C110.936 63.21 110.883 63.2467 110.809 63.26L107.319 63.92ZM109.099 68.75L110.239 68.56L110.419 67.18L108.669 67.51L109.099 68.75ZM109.799 62.39C109.753 62.4367 109.693 62.46 109.619 62.46C109.553 62.4533 109.493 62.4267 109.439 62.38L108.579 61.48C108.533 61.4267 108.509 61.3667 108.509 61.3C108.516 61.2267 108.543 61.1667 108.589 61.12C108.643 61.0667 108.703 61.0433 108.769 61.05C108.836 61.05 108.893 61.0767 108.939 61.13L109.809 62.03C109.856 62.0767 109.879 62.1367 109.879 62.21C109.879 62.2767 109.853 62.3367 109.799 62.39ZM109.069 64.95C109.003 64.9633 108.939 64.95 108.879 64.91C108.819 64.87 108.783 64.8167 108.769 64.75C108.756 64.6767 108.769 64.6133 108.809 64.56C108.849 64.5 108.903 64.4633 108.969 64.45L110.019 64.25C110.086 64.2367 110.146 64.25 110.199 64.29C110.259 64.3233 110.296 64.3767 110.309 64.45C110.323 64.5167 110.309 64.58 110.269 64.64C110.236 64.6933 110.183 64.7267 110.109 64.74L109.069 64.95ZM109.069 66.14C109.003 66.1467 108.939 66.1333 108.879 66.1C108.819 66.06 108.783 66.0067 108.769 65.94C108.756 65.8667 108.769 65.8033 108.809 65.75C108.849 65.69 108.903 65.6533 108.969 65.64L110.019 65.44C110.086 65.4267 110.146 65.44 110.199 65.48C110.259 65.5133 110.296 65.5667 110.309 65.64C110.323 65.7067 110.309 65.77 110.269 65.83C110.236 65.8833 110.183 65.9167 110.109 65.93L109.069 66.14ZM124.359 60.79C124.433 60.7633 124.503 60.7667 124.569 60.8C124.636 60.8267 124.679 60.8733 124.699 60.94C124.726 61 124.726 61.0633 124.699 61.13C124.673 61.1833 124.579 61.2733 124.419 61.4C123.966 61.78 123.253 62.15 122.279 62.51C122.113 62.57 121.996 62.5867 121.929 62.56C121.823 62.5067 121.773 62.4267 121.779 62.32C121.786 62.2067 121.849 62.1267 121.969 62.08C123.029 61.7067 123.776 61.3167 124.209 60.91C124.283 60.85 124.333 60.81 124.359 60.79ZM120.059 61.27C120.173 61.21 120.273 61.23 120.359 61.33C120.419 61.3967 120.436 61.4733 120.409 61.56C120.396 61.6067 120.306 61.7 120.139 61.84C119.833 62.0867 119.609 62.2533 119.469 62.34C119.329 62.4267 119.033 62.5833 118.579 62.81L118.059 63.07H117.999C117.946 63.07 117.906 63.0633 117.879 63.05C117.826 63.0233 117.786 62.98 117.759 62.92C117.733 62.86 117.733 62.8 117.759 62.74C117.779 62.7 117.816 62.6633 117.869 62.63C117.923 62.5967 118.086 62.51 118.359 62.37C118.786 62.15 119.066 62 119.199 61.92C119.333 61.8333 119.536 61.68 119.809 61.46C119.943 61.3533 120.026 61.29 120.059 61.27ZM120.599 62.91C120.653 62.8967 120.709 62.91 120.769 62.95C120.836 62.9833 120.876 63.0333 120.889 63.1C120.896 63.12 120.849 63.46 120.749 64.12C120.649 64.78 120.596 65.1233 120.589 65.15C120.569 65.2167 120.526 65.2633 120.459 65.29C120.439 65.2967 120.186 65.3633 119.699 65.49C119.226 65.6167 118.969 65.68 118.929 65.68C118.829 65.68 118.753 65.6367 118.699 65.55C118.659 65.4833 118.659 65.41 118.699 65.33C118.733 65.2567 118.776 65.2133 118.829 65.2C118.856 65.2 119.076 65.1433 119.489 65.03C119.903 64.9167 120.113 64.86 120.119 64.86C120.126 64.86 120.163 64.6333 120.229 64.18C120.303 63.7267 120.339 63.4967 120.339 63.49C120.333 63.49 119.943 63.5867 119.169 63.78C118.396 63.9733 117.999 64.07 117.979 64.07C117.879 64.07 117.806 64.0233 117.759 63.93C117.726 63.8567 117.723 63.7867 117.749 63.72C117.776 63.6533 117.819 63.61 117.879 63.59C117.959 63.55 118.866 63.3233 120.599 62.91ZM121.859 63.04C121.939 63.0133 122.009 63.0167 122.069 63.05C122.129 63.0833 122.166 63.1367 122.179 63.21C122.199 63.2767 122.216 63.43 122.229 63.67C122.276 64.57 122.103 65.4433 121.709 66.29C121.596 66.53 121.473 66.75 121.339 66.95C121.319 66.9833 121.303 67.0133 121.289 67.04C121.256 67.1067 121.153 67.2467 120.979 67.46C120.886 67.5667 120.749 67.7067 120.569 67.88C120.389 68.0467 120.269 68.15 120.209 68.19C120.156 68.2233 120.096 68.23 120.029 68.21C119.956 68.1833 119.903 68.1433 119.869 68.09C119.836 68.03 119.829 67.9667 119.849 67.9C119.869 67.84 119.936 67.7633 120.049 67.67C120.129 67.6033 120.229 67.5133 120.349 67.4C120.616 67.1267 120.853 66.82 121.059 66.48C121.199 66.24 121.279 66.08 121.299 66C121.306 65.9733 121.326 65.92 121.359 65.84C121.533 65.4133 121.646 64.9633 121.699 64.49C121.746 64.11 121.749 63.75 121.709 63.41C121.696 63.3033 121.699 63.2233 121.719 63.17C121.753 63.11 121.799 63.0667 121.859 63.04ZM125.659 63.81C125.759 63.7967 125.836 63.8233 125.889 63.89C125.969 63.9767 125.983 64.07 125.929 64.17C125.896 64.23 125.846 64.27 125.779 64.29C125.759 64.2967 125.503 64.3367 125.009 64.41C124.523 64.4833 124.266 64.5233 124.239 64.53H124.209V67.2C124.209 68.9733 124.206 69.8733 124.199 69.9C124.193 69.9267 124.179 69.9533 124.159 69.98C124.113 70.04 124.053 70.07 123.979 70.07C123.906 70.0767 123.843 70.0533 123.789 70C123.783 70 123.776 69.9967 123.769 69.99C123.736 69.97 123.716 69.87 123.709 69.69C123.709 69.5167 123.709 68.9167 123.709 67.89C123.709 67.6167 123.709 67.4 123.709 67.24V64.61H123.679C123.646 64.6233 123.476 64.6533 123.169 64.7C122.869 64.74 122.713 64.76 122.699 64.76C122.633 64.76 122.573 64.7333 122.519 64.68C122.473 64.6267 122.449 64.5667 122.449 64.5C122.449 64.4533 122.463 64.41 122.489 64.37C122.523 64.3233 122.559 64.2933 122.599 64.28C122.619 64.2733 123.093 64.2 124.019 64.06C124.953 63.9133 125.499 63.83 125.659 63.81ZM117.969 64.37C118.009 64.3567 118.056 64.36 118.109 64.38C118.163 64.4 118.203 64.4267 118.229 64.46C118.263 64.5067 118.283 64.62 118.289 64.8C118.316 65.6467 118.173 66.49 117.859 67.33C117.599 68.05 117.279 68.6033 116.899 68.99C116.839 69.05 116.796 69.0867 116.769 69.1C116.743 69.1133 116.703 69.12 116.649 69.12C116.583 69.1133 116.526 69.0833 116.479 69.03C116.433 68.9833 116.413 68.9233 116.419 68.85C116.426 68.7967 116.466 68.73 116.539 68.65C117.019 68.1167 117.369 67.3933 117.589 66.48C117.716 65.9667 117.779 65.44 117.779 64.9C117.786 64.7 117.789 64.5833 117.789 64.55C117.796 64.51 117.816 64.4733 117.849 64.44C117.883 64.4067 117.923 64.3833 117.969 64.37Z" fill="black"/>
</svg>
