<svg width="1195" height="426" viewBox="0 0 1195 426" fill="none" xmlns="http://www.w3.org/2000/svg">
<path d="M651.989 0.574292L524.18 3.3527C463.308 8.82432 384.288 13.0739 311.236 20.1577C276.81 16.1515 187.675 12.6077 178.867 10.7202C167.856 8.36081 115.95 6.00143 82.9186 20.1577C49.8872 34.314 48.8661 42.9651 21.5748 70.4913C-0.258265 92.5122 -1.39665 126.079 0.763293 140.11C-1.0183 204.841 6.10803 337.867 48.8661 352.12C102.314 369.936 133.522 400.108 378.461 419.82C666.555 443.006 844.198 389.533 965.346 352.12C1086.49 314.706 1151.67 248.787 1158.8 232.753C1164.5 219.925 1190.99 140.796 1193.96 102.788C1199.65 48.9724 1146.65 29.0323 1119.44 25.7893H1055.47C1020.09 25.7893 974.2 39.2257 836.139 10.7202C753.207 -6.40271 692.971 2.65808 651.989 0.574292Z" fill="#AEC8CF"/>
</svg>
