<svg width="882" height="397" viewBox="0 0 882 397" fill="none" xmlns="http://www.w3.org/2000/svg">
<path d="M387.437 34.3032L480.867 26.5551C525.757 26.4591 583.76 23.8623 637.682 24.1953C662.398 17.9888 727.039 7.83595 733.282 5.50066C741.085 2.58156 778.7 -3.58706 804.115 6.05377C829.531 15.6946 831.092 23.109 853.586 44.7899C871.581 62.1347 875.581 91.1275 875.332 103.456C882.744 159.399 890.112 275.223 860.289 290.969C823.011 310.652 803.111 339.274 626.422 375.816C418.603 418.796 284.059 386.581 192.213 363.791C100.368 341.001 46.6292 289.066 39.92 275.739C34.5527 265.078 7.77058 198.623 2.01659 165.928C-7.21317 119.753 29.5354 98.2649 49.0633 93.2931L95.6993 88.2097C121.488 85.3987 156.209 93.3941 254.157 57.7261C312.994 36.3007 357.76 39.365 387.437 34.3032Z" fill="#C1BFBD" fill-opacity="0.75"/>
</svg>
