<svg width="616" height="370" viewBox="0 0 616 370" fill="none" xmlns="http://www.w3.org/2000/svg">
<path d="M499.998 36.2037L502.498 34.2037C505.298 32.2037 507.665 33.3704 508.498 34.2037L521.5 85.0288M499.998 36.2037L483.998 20.2037M499.998 36.2037L503.998 40.2037L516.417 91M483.998 20.2037L470.498 24.2037M483.998 20.2037L503.476 104.5M7.49821 350.704C25.8982 352.704 57.1649 352.87 70.4982 352.704C130.098 350.704 216.332 350.537 251.998 350.704C256.798 356.704 262.665 359.87 264.998 360.704L274.498 357.704L285.998 355.204L289.498 357.704L309.998 360.704L370.498 348.704L564.998 295.204V289.704L520.94 109.5M7.49821 350.704C5.49821 355.504 2.99821 358.37 5.49821 358.704H165.998L247.498 356.704L248.998 357.704L258.498 366.204L268.998 369.204H289.498H303.498L309.998 366.204L356.498 357.704L452.498 334.204L564.998 303.204C567.998 301.704 574.098 297.404 574.498 292.204L526.993 106.5M7.49821 350.704L30.4984 283.204L93.4998 31.5H97.4918M7.49821 350.704L97.4918 31.5M470.498 24.2037L467.498 10.7037C466.698 8.7037 464.165 8.87037 462.998 9.2037C430.198 20.4037 409.665 26.8704 403.498 28.7037C371.898 35.5037 336.665 51.2037 322.998 58.2037C290.598 74.2037 285.832 91.537 287.498 98.2037L115 10.7037L108.252 29.7037M470.498 24.2037L493.759 114M368.998 325.887C332.933 329.657 306.438 335.507 296.998 338.204C287.798 340.604 285.165 346.87 284.998 349.704H283.498C264.298 334.104 220.832 320.204 201.498 315.204C185.898 310.404 148.332 302.537 131.498 299.204C89.4982 290.804 66.1667 252.667 52 247.5L85 123L108.252 29.7037M368.998 325.887C373.048 325.464 377.218 325.067 381.498 324.704L543.498 277.704L507.867 123.5M368.998 325.887L532.998 275.704C533.832 275.37 535.398 274.404 534.998 273.204L498 129.5M97.4918 31.5L97.9982 29.7037H108.252" stroke="black"/>
<path d="M284.999 349.204C288.999 352.704 300.199 359.704 312.999 359.704M284.999 349.204C284.347 349.557 283.679 349.892 282.999 350.21M284.999 349.204C286.037 298.67 285.249 257.982 285.5 221.5M287.499 97.7036C287.263 113.48 286.848 131.721 286.448 152.5C286.448 152.5 286.673 149.688 286.448 164.5M256.999 355.704C261.97 355.704 273.66 354.574 282.999 350.21M26 294.204H30.9985C69.3319 298.037 150.499 306.704 168.499 310.704M168.499 310.704C175.332 312.037 191.499 315.504 201.499 318.704C207.236 320.042 215.561 322.263 224.999 325.209M168.499 310.704L152.999 308.704C140.599 307.104 101.832 303.037 83.9985 301.204C64.7985 299.204 41.3319 297.037 31.9985 296.204V294.704M282.999 350.21C267.02 339.827 243.8 331.078 224.999 325.209M32.4985 296.704L31.4985 298.704C35.4985 298.87 57.6985 300.504 114.499 305.704C129.665 306.707 172.999 312.013 224.999 325.209" stroke="black"/>
<path d="M33.9985 299.704V300.704C34.4899 300.74 34.99 300.777 35.4985 300.815M149.999 310.204C133.067 308.235 67.5861 303.197 35.4985 300.815M35.4985 300.815V302.704C35.7449 302.716 35.9931 302.728 36.2433 302.74M31.4985 299.704L29.9985 302.704M29.9985 302.704L36.2433 302.74M29.9985 302.704V304.204C52.7859 305.202 89.8323 307.469 126.999 311.032M36.2433 302.74C73.8282 304.604 155.161 310.869 209.398 322.123M30.4985 304.704L29.4985 305.704M126.999 311.032L29.4985 306.704V305.704M126.999 311.032C140.194 312.297 153.405 313.725 165.999 315.317M29.4985 305.704L29.9985 307.204L27.4985 308.704C28.3141 308.725 29.1478 308.748 29.9985 308.771M165.999 315.317C151.891 312.664 71.0451 309.894 29.9985 308.771M165.999 315.317C181.868 317.324 196.757 319.592 209.398 322.123M29.9985 308.771L27.4985 311.032C74.9318 311.702 177.718 314.858 209.398 322.123M209.398 322.123C215.093 323.263 220.332 324.456 224.999 325.704C220.127 324.458 214.902 323.265 209.398 322.123ZM28.9985 312.204V313.704C29.1641 313.701 29.3308 313.699 29.4985 313.697M227.499 326.204C209.622 323.293 190.165 321.018 170.499 319.252M280.499 350.704C273.007 346.066 255.894 337.61 234.499 331.693M29.4985 313.697L28.4985 314.7M29.4985 313.697C57.4433 313.344 114.812 314.253 170.499 319.252M28.4985 314.7L27.4985 315.704L26.4985 316.704L103.499 318.704C149.899 320.304 191.832 324.37 206.999 326.204C216.625 327.35 225.907 329.317 234.499 331.693M28.4985 314.7C54.3319 315.401 118.899 317.292 170.499 319.252M26.9985 317.204V318.704C62.8185 318.395 145.759 320.11 213.999 328.791M234.499 331.693C227.865 330.648 221.009 329.683 213.999 328.791M27.4985 319.204L25.9985 321.704C26.4818 321.68 26.9819 321.656 27.4985 321.633M213.999 328.791C127.252 320.225 54.5971 320.418 27.4985 321.633M27.4985 321.633L17.9985 338.204C18.6313 338.224 19.2987 338.244 19.9985 338.264M215.999 338.204C209.215 337.204 201.778 336.487 193.999 335.997M19.9985 338.264C36.812 338.757 72.3416 339.356 94.9985 338.204C115.125 336.287 158.196 333.74 193.999 335.997M19.9985 338.264L17.9985 341.204C19.0911 341.228 20.2634 341.253 21.4985 341.28M193.999 335.997C176.399 334.231 120.665 337.732 94.9985 339.704C74.9985 342.742 65.4985 342.204 64.4985 342.204C63.7562 342.204 37.4099 341.63 21.4985 341.28M21.4985 341.28L19.9985 348.204C20.4606 348.188 20.961 348.171 21.4985 348.152M215.999 341.28L195.499 339.704C167.099 338.442 114.999 342.178 92.4985 344.204C60.4257 346.495 32.7871 347.753 21.4985 348.152M21.4985 348.152L19.9985 350.704C38.9985 349.704 81.1985 347.504 97.9985 346.704C122.999 344.704 183.899 341.704 227.499 345.704M97.9985 350.704C103.499 350.704 163.499 346.704 243.499 348.204M24.4985 335.204C26.9985 335.204 61.9985 336.704 102.499 335.204L169.499 332.704M28.4985 331.704C33.9985 331.704 73.9985 334.204 112.499 331.704M28.4985 326.704C30.4985 326.704 83.9985 323.704 144.499 326.704M28.9985 328.704C35.4985 328.204 176.999 328.704 191.999 330.704" stroke="black"/>
<path d="M232.25 214.202C231.95 214.402 231.65 214.502 231.35 214.502C231.083 214.502 230.85 214.452 230.65 214.352C230.65 214.352 227.75 213.135 221.95 210.702C221.483 210.535 221.167 210.235 221 209.802C220.9 209.568 220.85 209.352 220.85 209.152C220.85 208.952 220.9 208.735 221 208.502C221.2 208.068 221.5 207.768 221.9 207.602C222.133 207.502 222.35 207.452 222.55 207.452C222.783 207.452 223 207.502 223.2 207.602L229.55 210.202V171.902L220.05 172.952V181.102C224.483 180.535 226.733 180.252 226.8 180.252C227.233 180.252 227.6 180.402 227.9 180.702C228.233 181.035 228.4 181.485 228.4 182.052C228.4 182.452 228.267 182.802 228 183.102C227.667 183.402 227.3 183.585 226.9 183.652C221.2 184.385 218.333 184.752 218.3 184.752C217.867 184.752 217.483 184.602 217.15 184.302C216.817 183.968 216.65 183.552 216.65 183.052V171.402C216.65 170.935 216.8 170.552 217.1 170.252C217.4 169.918 217.75 169.735 218.15 169.702C226.917 168.768 231.317 168.302 231.35 168.302C231.783 168.302 232.167 168.468 232.5 168.802C232.833 169.135 233 169.535 233 170.002V212.752C233 213.418 232.75 213.902 232.25 214.202ZM198.3 212.202C198.3 212.668 198.133 213.068 197.8 213.402C197.5 213.735 197.117 213.902 196.65 213.902C196.15 213.902 195.717 213.718 195.35 213.352C195.017 213.018 194.85 212.635 194.85 212.202V173.952C194.85 173.485 194.983 173.118 195.25 172.852C195.517 172.585 195.833 172.402 196.2 172.302L207.35 169.502C207.517 169.468 207.683 169.452 207.85 169.452C208.283 169.452 208.667 169.618 209 169.952C209.333 170.285 209.5 170.685 209.5 171.152V183.302C209.5 183.802 209.35 184.202 209.05 184.502C208.85 184.702 208.567 184.852 208.2 184.952L201.25 186.852C201.117 186.885 200.933 186.902 200.7 186.902C200.467 186.902 200.25 186.852 200.05 186.752C199.85 186.618 199.683 186.468 199.55 186.302C199.25 186.035 199.1 185.702 199.1 185.302C199.1 184.735 199.283 184.285 199.65 183.952C199.85 183.752 200.083 183.602 200.35 183.502L206.05 182.002V173.352L198.3 175.302V177.602L203.1 176.302C203.233 176.268 203.367 176.252 203.5 176.252C204 176.252 204.417 176.435 204.75 176.802C205.083 177.135 205.25 177.535 205.25 178.002C205.25 178.468 205.083 178.868 204.75 179.202C204.55 179.402 204.283 179.552 203.95 179.652L198.3 181.152V212.202ZM208.9 194.602L208.85 193.502C208.85 193.068 209 192.702 209.3 192.402C209.667 192.035 210.083 191.852 210.55 191.852C211.05 191.852 211.45 192.002 211.75 192.302C212.05 192.602 212.217 193.002 212.25 193.502C212.283 193.968 212.3 194.385 212.3 194.752C212.3 195.118 212.3 195.435 212.3 195.702L215.5 195.302V192.552C215.5 192.052 215.667 191.635 216 191.302C216.333 190.968 216.733 190.802 217.2 190.802C217.7 190.802 218.117 190.968 218.45 191.302C218.783 191.635 218.95 192.052 218.95 192.552V194.902C222.817 194.468 224.767 194.252 224.8 194.252C225.233 194.252 225.6 194.385 225.9 194.652C226.233 195.018 226.4 195.485 226.4 196.052C226.4 196.485 226.25 196.852 225.95 197.152C225.65 197.452 225.3 197.618 224.9 197.652L218.95 198.352V210.602C218.95 211.068 218.767 211.468 218.4 211.802C218.067 212.168 217.667 212.352 217.2 212.352C216.733 212.352 216.333 212.168 216 211.802C215.667 211.468 215.5 211.068 215.5 210.602V198.752L211.8 199.152C210.867 203.518 208.417 206.735 204.45 208.802C204.217 208.935 203.983 209.002 203.75 209.002C203.017 209.002 202.483 208.702 202.15 208.102C202.05 207.902 202 207.685 202 207.452C202 206.618 202.3 206.068 202.9 205.802C205.6 204.368 207.367 202.285 208.2 199.552C204.8 199.952 203.067 200.152 203 200.152C202.567 200.152 202.2 200.002 201.9 199.702C201.5 199.302 201.3 198.902 201.3 198.502C201.3 198.002 201.45 197.602 201.75 197.302C202.083 196.968 202.433 196.785 202.8 196.752L208.85 196.102C208.883 195.468 208.9 194.968 208.9 194.602ZM207.2 192.052C206.7 192.052 206.267 191.868 205.9 191.502C205.6 191.202 205.45 190.835 205.45 190.402C205.45 189.902 205.633 189.468 206 189.102C206.267 188.835 206.583 188.685 206.95 188.652C215.483 187.452 219.783 186.852 219.85 186.852C220.317 186.852 220.7 187.002 221 187.302C221.333 187.668 221.5 188.118 221.5 188.652C221.5 189.085 221.35 189.452 221.05 189.752C220.75 190.052 220.4 190.235 220 190.302C211.533 191.468 207.267 192.052 207.2 192.052ZM222.15 178.152C221.717 178.152 221.35 178.002 221.05 177.702C220.65 177.302 220.45 176.902 220.45 176.502C220.45 176.002 220.6 175.602 220.9 175.302C221.2 174.968 221.55 174.785 221.95 174.752C225.117 174.418 226.717 174.252 226.75 174.252C227.183 174.252 227.55 174.385 227.85 174.652C228.183 175.018 228.35 175.485 228.35 176.052C228.35 176.452 228.217 176.802 227.95 177.102C227.617 177.435 227.25 177.618 226.85 177.652C223.783 177.985 222.217 178.152 222.15 178.152ZM269.15 213.002C268.683 213.002 268.283 212.835 267.95 212.502C267.75 212.302 267.6 212.085 267.5 211.852L263.65 199.802C263.55 199.602 263.5 199.385 263.5 199.152C263.5 198.785 263.65 198.435 263.95 198.102C264.283 197.802 264.633 197.618 265 197.552L281.2 195.302C281.267 195.302 281.333 195.302 281.4 195.302C281.833 195.302 282.25 195.452 282.65 195.752C282.65 195.785 282.667 195.802 282.7 195.802C283 196.202 283.15 196.618 283.15 197.052C283.15 197.118 283.15 197.185 283.15 197.252C281.85 205.952 281.2 210.302 281.2 210.302C281.1 210.702 280.917 211.018 280.65 211.252C280.417 211.518 280.1 211.668 279.7 211.702C272.733 212.568 269.217 213.002 269.15 213.002ZM245.35 209.802C245.117 209.935 244.883 210.002 244.65 210.002C243.917 210.002 243.383 209.702 243.05 209.102C242.917 208.835 242.85 208.602 242.85 208.402C242.85 208.168 242.867 207.952 242.9 207.752C242.967 207.518 243.083 207.335 243.25 207.202C243.417 207.035 243.583 206.902 243.75 206.802C247.283 204.835 250.017 202.285 251.95 199.152C250.217 197.518 248.383 196.085 246.45 194.852C246.083 194.618 245.85 194.285 245.75 193.852C245.717 193.685 245.7 193.502 245.7 193.302C245.7 193.102 245.8 192.785 246 192.352C246.333 191.618 246.717 190.618 247.15 189.352L240.3 191.402C240.1 191.435 239.883 191.452 239.65 191.452C239.45 191.452 239.25 191.402 239.05 191.302C238.85 191.168 238.667 191.035 238.5 190.902C238.367 190.735 238.267 190.535 238.2 190.302C238.133 190.068 238.1 189.852 238.1 189.652C238.1 189.418 238.15 189.202 238.25 189.002C238.383 188.802 238.517 188.635 238.65 188.502C238.817 188.335 239.033 188.202 239.3 188.102L248.3 185.502C248.9 182.935 249.367 180.268 249.7 177.502C250.067 174.702 250.267 172.185 250.3 169.952C250.3 169.485 250.467 169.085 250.8 168.752C251.133 168.418 251.533 168.252 252 168.252C252 168.252 252.017 168.252 252.05 168.252C252.55 168.285 252.95 168.468 253.25 168.802C253.55 169.102 253.7 169.452 253.7 169.852C253.7 172.085 253.55 174.485 253.25 177.052C252.95 179.585 252.55 182.035 252.05 184.402L260.25 181.952C260.45 181.918 260.65 181.902 260.85 181.902C261.083 181.902 261.3 181.968 261.5 182.102C261.7 182.202 261.867 182.335 262 182.502C262.167 182.635 262.283 182.818 262.35 183.052C262.417 183.285 262.45 183.518 262.45 183.752C262.45 183.952 262.4 184.152 262.3 184.352C262.2 184.552 262.067 184.735 261.9 184.902C261.733 185.068 261.5 185.185 261.2 185.252L251.05 188.202C250.683 189.702 250.167 191.235 249.5 192.802C250.7 193.568 252.05 194.618 253.55 195.952C254.383 193.952 254.883 191.768 255.05 189.402C255.083 188.935 255.267 188.552 255.6 188.252C255.967 187.952 256.333 187.802 256.7 187.802C257.233 187.802 257.683 188.002 258.05 188.402C258.317 188.735 258.45 189.085 258.45 189.452C258.45 189.518 258.45 189.585 258.45 189.652C258.217 192.785 257.467 195.735 256.2 198.502C258.467 200.935 260.3 203.418 261.7 205.952C261.833 206.218 261.9 206.468 261.9 206.702C261.9 206.902 261.867 207.118 261.8 207.352C261.767 207.552 261.667 207.718 261.5 207.852C261.133 208.252 260.7 208.452 260.2 208.452C259.733 208.452 259.333 208.285 259 207.952C258.9 207.852 258.8 207.718 258.7 207.552C257.567 205.518 256.133 203.552 254.4 201.652C252.167 205.018 249.15 207.735 245.35 209.802ZM267.5 200.652L270.35 209.402L278 208.452L279.4 199.052L267.5 200.652ZM262.1 192.352C261.5 192.352 261.033 192.052 260.7 191.452C260.567 191.218 260.5 190.952 260.5 190.652C260.5 190.185 260.667 189.785 261 189.452C262.567 187.785 264 185.852 265.3 183.652C266.6 181.418 267.717 179.118 268.65 176.752C269.583 174.385 270.3 172.202 270.8 170.202C270.9 169.735 271.15 169.385 271.55 169.152C271.85 168.952 272.167 168.852 272.5 168.852C272.933 168.852 273.317 169.035 273.65 169.402C274.017 169.735 274.2 170.135 274.2 170.602C274.2 170.735 274.183 170.868 274.15 171.002C273.717 172.802 273.1 174.752 272.3 176.852C271.533 178.918 270.65 180.902 269.65 182.802C268.683 184.668 267.667 186.352 266.6 187.852L276.8 185.502C276.933 185.468 277.1 185.452 277.3 185.452C277.533 185.452 277.75 185.518 277.95 185.652C278.15 185.752 278.3 185.852 278.4 185.952C278.733 186.285 278.9 186.685 278.9 187.152C278.9 187.652 278.717 188.068 278.35 188.402C278.117 188.635 277.85 188.785 277.55 188.852L262.6 192.302C262.433 192.335 262.267 192.352 262.1 192.352ZM283.95 190.552C283.95 190.552 282.533 189.085 279.7 186.152C276.9 183.218 275.5 181.752 275.5 181.752C275.2 181.385 275.05 180.968 275.05 180.502C275.05 180.002 275.217 179.602 275.55 179.302C275.917 179.002 276.317 178.852 276.75 178.852C277.25 178.852 277.667 179.035 278 179.402L286.35 188.152C286.717 188.518 286.9 188.935 286.9 189.402C286.9 189.835 286.733 190.218 286.4 190.552C286.067 190.885 285.667 191.052 285.2 191.052C284.733 191.052 284.317 190.885 283.95 190.552ZM313.65 213.102C313.65 213.568 313.483 213.968 313.15 214.302C312.85 214.635 312.45 214.802 311.95 214.802C311.483 214.802 311.083 214.635 310.75 214.302C310.417 213.968 310.25 213.568 310.25 213.102V200.052C308.517 201.585 306.533 203.102 304.3 204.602C302.1 206.102 299.75 207.468 297.25 208.702C294.783 209.935 292.45 210.952 290.25 211.752C290.05 211.852 289.833 211.902 289.6 211.902C289.2 211.902 288.833 211.735 288.5 211.402C288.333 211.235 288.2 211.035 288.1 210.802C288 210.568 287.95 210.335 287.95 210.102C287.95 209.702 288.117 209.335 288.45 209.002C288.617 208.835 288.833 208.702 289.1 208.602C292.9 207.202 296.633 205.385 300.3 203.152C302.233 202.018 303.983 200.835 305.55 199.602C307.383 198.202 308.95 196.802 310.25 195.402V192.952L299.95 193.852L301.05 199.602C301.083 199.735 301.1 199.852 301.1 199.952C301.1 200.452 300.917 200.868 300.55 201.202C300.25 201.502 299.9 201.652 299.5 201.652C298.967 201.652 298.517 201.485 298.15 201.152C297.917 200.918 297.767 200.635 297.7 200.302L296.25 192.652C296.217 192.518 296.2 192.385 296.2 192.252C296.2 191.918 296.317 191.602 296.55 191.302C296.55 191.268 296.583 191.218 296.65 191.152C296.95 190.852 297.3 190.668 297.7 190.602C297.733 190.602 301.917 190.252 310.25 189.552V187.352C305.083 187.852 302.467 188.102 302.4 188.102C301.967 188.102 301.583 187.935 301.25 187.602C300.883 187.235 300.7 186.852 300.7 186.452C300.7 185.952 300.85 185.552 301.15 185.252C301.45 184.918 301.8 184.735 302.2 184.702L310.25 183.902V180.852C310.25 180.352 310.417 179.952 310.75 179.652C311.083 179.318 311.483 179.152 311.95 179.152C312.45 179.152 312.85 179.318 313.15 179.652C313.483 179.952 313.65 180.352 313.65 180.852V183.552C317.95 183.118 320.133 182.902 320.2 182.902C320.667 182.902 321.05 183.052 321.35 183.352C321.683 183.718 321.85 184.185 321.85 184.752C321.85 185.152 321.7 185.502 321.4 185.802C321.133 186.102 320.783 186.268 320.35 186.302L313.65 186.952V189.202C322.35 188.468 326.717 188.102 326.75 188.102C327.25 188.102 327.667 188.285 328 188.652C328.3 188.952 328.45 189.318 328.45 189.752C328.45 189.885 328.367 190.435 328.2 191.402C327.767 193.735 327.267 195.835 326.7 197.702C326.333 198.802 325.95 199.752 325.55 200.552C325.317 201.018 324.95 201.318 324.45 201.452C324.317 201.485 324.133 201.502 323.9 201.502C323.667 201.502 323.417 201.418 323.15 201.252L318.1 198.252C317.667 198.018 317.4 197.668 317.3 197.202C317.267 197.068 317.25 196.885 317.25 196.652C317.25 196.285 317.383 195.952 317.65 195.652C318.05 195.285 318.5 195.102 319 195.102C319.267 195.102 319.533 195.168 319.8 195.302L323.2 197.302C323.667 195.968 324.15 194.102 324.65 191.702L313.65 192.652V198.102L315.5 199.402C318 201.135 320.617 202.752 323.35 204.252C324.817 205.052 326.15 205.685 327.35 206.152C329.017 206.752 331.25 207.335 334.05 207.902L335.4 208.152C335.867 208.252 336.233 208.502 336.5 208.902C336.7 209.168 336.8 209.468 336.8 209.802C336.8 210.435 336.567 210.902 336.1 211.202C335.767 211.435 335.4 211.552 335 211.552C334.867 211.552 334.733 211.535 334.6 211.502C334.5 211.468 334.017 211.368 333.15 211.202C330.383 210.635 328.15 210.052 326.45 209.452C324.783 208.818 323.117 208.035 321.45 207.102C319.05 205.768 316.45 204.152 313.65 202.252V213.102ZM325.6 182.752C325 182.752 324.533 182.502 324.2 182.002C324.2 182.002 322.917 180.152 320.35 176.452C320.117 176.118 320 175.818 320 175.552C320 175.018 320.183 174.585 320.55 174.252C320.783 174.018 321.067 173.852 321.4 173.752C321.4 173.752 324.817 173.152 331.65 171.952C331.783 171.918 331.917 171.902 332.05 171.902C332.517 171.902 332.883 172.052 333.15 172.352C333.517 172.685 333.7 173.118 333.7 173.652C333.7 174.118 333.55 174.502 333.25 174.802C332.983 175.068 332.667 175.235 332.3 175.302L324.65 176.652L326.95 180.052C327.183 180.318 327.3 180.618 327.3 180.952C327.3 181.585 327.05 182.068 326.55 182.402C326.25 182.635 325.933 182.752 325.6 182.752ZM306.55 182.252C306.55 182.718 306.383 183.118 306.05 183.452C305.717 183.785 305.35 183.952 304.95 183.952C304.25 183.952 303.717 183.685 303.35 183.152L299.8 177.652C299.567 177.352 299.45 177.068 299.45 176.802C299.45 176.502 299.517 176.252 299.65 176.052C299.717 175.818 299.85 175.618 300.05 175.452C300.25 175.252 300.533 175.102 300.9 175.002C300.9 175.002 303.983 174.452 310.15 173.352C310.283 173.318 310.4 173.302 310.5 173.302C310.967 173.302 311.35 173.452 311.65 173.752C312.017 174.118 312.2 174.568 312.2 175.102C312.2 175.568 312.05 175.952 311.75 176.252C311.483 176.518 311.167 176.685 310.8 176.752L304.05 177.952L306.25 181.302C306.45 181.602 306.55 181.918 306.55 182.252ZM291.95 183.002C291.35 183.002 290.883 182.768 290.55 182.302C290.317 182.035 290.2 181.718 290.2 181.352C290.2 180.718 290.45 180.252 290.95 179.952C292.217 179.018 293.4 177.935 294.5 176.702C295.6 175.435 296.55 174.152 297.35 172.852C298.183 171.518 298.8 170.318 299.2 169.252C299.367 168.785 299.667 168.468 300.1 168.302C300.3 168.202 300.517 168.152 300.75 168.152C301.25 168.152 301.667 168.318 302 168.652C302.333 168.985 302.5 169.385 302.5 169.852C302.5 170.085 302.45 170.302 302.35 170.502C301.917 171.702 301.233 173.035 300.3 174.502C299.4 175.968 298.317 177.435 297.05 178.902C295.817 180.335 294.45 181.585 292.95 182.652C292.65 182.885 292.317 183.002 291.95 183.002ZM322.75 169.752C322.35 170.685 321.767 171.768 321 173.002C320.267 174.235 319.417 175.485 318.45 176.752C317.417 177.985 316.283 179.118 315.05 180.152C314.717 180.418 314.367 180.552 314 180.552C313.467 180.552 313.017 180.352 312.65 179.952C312.383 179.618 312.25 179.252 312.25 178.852C312.25 178.318 312.45 177.868 312.85 177.502C313.883 176.702 314.833 175.768 315.7 174.702C316.6 173.602 317.383 172.502 318.05 171.402C318.717 170.302 319.233 169.302 319.6 168.402C319.667 168.202 319.783 168.018 319.95 167.852C320.317 167.485 320.717 167.302 321.15 167.302C321.383 167.302 321.617 167.368 321.85 167.502C322.283 167.668 322.583 167.968 322.75 168.402C322.85 168.602 322.9 168.818 322.9 169.052C322.9 169.285 322.85 169.518 322.75 169.752ZM344.35 194.702C343.917 194.702 343.567 194.568 343.3 194.302C342.933 193.935 342.75 193.568 342.75 193.202C342.75 192.702 342.883 192.318 343.15 192.052C343.45 191.752 343.767 191.585 344.1 191.552L351.25 190.552V189.302C349.05 189.602 347.917 189.752 347.85 189.752C347.417 189.752 347.033 189.585 346.7 189.252C346.467 189.052 346.317 188.785 346.25 188.452C346.25 188.385 346.25 188.285 346.25 188.152C346.25 187.685 346.367 187.335 346.6 187.102C346.867 186.835 347.217 186.668 347.65 186.602L351.25 186.102V184.902C347.483 185.368 345.567 185.602 345.5 185.602C345.1 185.602 344.767 185.468 344.5 185.202C344.233 184.902 344.05 184.585 343.95 184.252C343.95 184.185 343.95 184.102 343.95 184.002C343.95 183.568 344.083 183.218 344.35 182.952C344.617 182.652 344.95 182.485 345.35 182.452L351.25 181.702V180.352C342.983 181.318 338.817 181.802 338.75 181.802C338.317 181.802 337.967 181.668 337.7 181.402C337.367 181.068 337.2 180.685 337.2 180.252C337.2 179.785 337.333 179.418 337.6 179.152C337.867 178.852 338.2 178.685 338.6 178.652L351.25 177.202V176.152C347.55 176.618 345.667 176.852 345.6 176.852C345.2 176.852 344.867 176.718 344.6 176.452C344.233 176.085 344.05 175.718 344.05 175.352C344.05 174.852 344.183 174.468 344.45 174.202C344.75 173.902 345.083 173.735 345.45 173.702L351.25 172.952V169.752C351.25 169.285 351.4 168.902 351.7 168.602C352 168.302 352.367 168.152 352.8 168.152C353.267 168.152 353.65 168.318 353.95 168.652C354.283 168.952 354.45 169.318 354.45 169.752V172.602C358.95 172.035 361.233 171.752 361.3 171.752C361.7 171.752 362.067 171.918 362.4 172.252C362.667 172.552 362.8 172.902 362.8 173.302C362.8 173.368 362.683 174.235 362.45 175.902C365.05 175.602 366.383 175.452 366.45 175.452C366.883 175.452 367.233 175.585 367.5 175.852C367.867 176.218 368.05 176.652 368.05 177.152C368.05 177.518 367.9 177.852 367.6 178.152C367.333 178.418 367 178.568 366.6 178.602L361.9 179.152L361.35 182.552C361.283 182.918 361.133 183.218 360.9 183.452C360.667 183.685 360.35 183.818 359.95 183.852L354.45 184.502V185.702C356.75 185.368 357.933 185.202 358 185.202C358.367 185.202 358.683 185.352 358.95 185.652C359.317 185.985 359.5 186.402 359.5 186.902C359.5 187.268 359.35 187.585 359.05 187.852C358.75 188.185 358.433 188.368 358.1 188.402L354.45 188.902V190.152C358.483 189.552 360.55 189.252 360.65 189.252C361.083 189.252 361.433 189.385 361.7 189.652C362.067 189.985 362.25 190.418 362.25 190.952C362.25 191.285 362.1 191.585 361.8 191.852C361.5 192.152 361.183 192.335 360.85 192.402L344.5 194.702C344.467 194.702 344.417 194.702 344.35 194.702ZM347.3 206.652C346.867 206.652 346.483 206.485 346.15 206.152C345.95 205.952 345.817 205.768 345.75 205.602L343.35 198.052C343.317 197.885 343.3 197.702 343.3 197.502C343.3 197.268 343.367 197.018 343.5 196.752C343.533 196.685 343.617 196.585 343.75 196.452C344.017 196.185 344.317 196.035 344.65 196.002L360.05 193.802C360.15 193.802 360.25 193.802 360.35 193.802C360.783 193.802 361.133 193.968 361.4 194.302C361.7 194.602 361.85 194.952 361.85 195.352C361.85 195.452 361.85 195.552 361.85 195.652L360.35 203.452C360.283 203.818 360.133 204.118 359.9 204.352C359.7 204.552 359.417 204.685 359.05 204.752L347.45 206.652C347.417 206.652 347.367 206.652 347.3 206.652ZM375.5 170.202C375.5 169.735 375.65 169.352 375.95 169.052C376.283 168.718 376.683 168.552 377.15 168.552C377.617 168.552 378 168.718 378.3 169.052C378.633 169.352 378.8 169.735 378.8 170.202V212.602C378.8 213.168 378.55 213.618 378.05 213.952C377.783 214.152 377.517 214.252 377.25 214.252C376.983 214.252 376.75 214.202 376.55 214.102L366.2 210.052C365.767 209.918 365.467 209.652 365.3 209.252C365.2 209.018 365.15 208.785 365.15 208.552C365.15 208.085 365.3 207.702 365.6 207.402C365.933 207.068 366.317 206.902 366.75 206.902C366.95 206.902 367.15 206.952 367.35 207.052L375.5 210.202V170.202ZM341.8 213.252C341.733 213.285 341.6 213.302 341.4 213.302C341.2 213.302 341 213.235 340.8 213.102C340.633 213.002 340.467 212.885 340.3 212.752C340.033 212.485 339.9 212.185 339.9 211.852C339.9 211.318 340.067 210.885 340.4 210.552C340.6 210.352 340.833 210.218 341.1 210.152L361.75 204.652C361.883 204.618 362.05 204.602 362.25 204.602C362.45 204.602 362.65 204.668 362.85 204.802C363.05 204.902 363.217 205.018 363.35 205.152C363.617 205.385 363.75 205.685 363.75 206.052C363.75 206.618 363.583 207.052 363.25 207.352C363.05 207.552 362.817 207.685 362.55 207.752L341.8 213.252ZM368.45 196.102C368.15 196.402 367.767 196.552 367.3 196.552C366.833 196.552 366.433 196.402 366.1 196.102C365.8 195.768 365.65 195.368 365.65 194.902V181.652C365.65 181.185 365.8 180.802 366.1 180.502C366.433 180.168 366.833 180.002 367.3 180.002C367.767 180.002 368.15 180.168 368.45 180.502C368.783 180.802 368.95 181.185 368.95 181.652V194.902C368.95 195.368 368.783 195.768 368.45 196.102ZM355.05 198.452C355.417 198.452 355.733 198.585 356 198.852C356.333 199.185 356.5 199.585 356.5 200.052C356.5 200.452 356.367 200.768 356.1 201.002C355.833 201.268 355.533 201.435 355.2 201.502L354.35 201.652V202.302L357.45 201.802L358.3 197.252L354.35 197.802V198.552C354.75 198.485 354.983 198.452 355.05 198.452ZM350.15 202.352C349.717 202.352 349.35 202.202 349.05 201.902C348.75 201.602 348.6 201.268 348.6 200.902C348.6 200.402 348.75 200.002 349.05 199.702C349.283 199.468 349.567 199.335 349.9 199.302L351.3 199.052V198.252L346.95 198.852L348.35 203.302L351.3 202.802V202.202C350.633 202.302 350.25 202.352 350.15 202.352ZM354.45 175.752V176.802L359.15 176.302L359.35 175.152L354.45 175.752ZM354.45 180.002V181.352L358.4 180.852L358.6 179.502L354.45 180.002Z" fill="#0082C5"/>
<path d="M500.5 126.573C499.7 128.173 497.833 129.24 497 129.573H496M500.5 126.573C499.7 126.573 494.5 121.24 492 118.573M500.5 126.573C504.167 123.073 512.8 115.073 518 111.073M492 118.573C490.8 118.573 489.5 120.573 489 121.573V124.073C489 124.473 482.333 129.907 479 132.573C478.6 134.573 474.833 142.073 473 145.573C475.667 143.907 482.1 140.373 486.5 139.573C488.667 136.907 493.4 131.173 495 129.573H496M492 118.573C492.4 117.373 496.5 113.073 498.5 111.073C500.9 109.473 505.167 103.407 507 100.573C507.09 100.741 507.184 100.908 507.28 101.073M518 111.073C515.581 109.783 510.165 106.027 507.28 101.073M518 111.073C518.5 111.073 519.6 110.873 520 110.073M520 110.073C533.5 96.4066 560.8 68.5733 562 66.5733M520 110.073C515.682 106.54 510.69 100.792 508.615 98.2163M562 66.5733L551 56.0733M562 66.5733C563.257 67.7733 563.857 67.74 564 67.5733L569 62.0733C566.6 59.2733 559 52.5733 555.5 49.5733L551 54.5733C550.833 54.9066 550.6 55.6733 551 56.0733M551 56.0733C548.6 57.2733 521.667 84.5733 508.5 98.0733C508.537 98.1198 508.575 98.1675 508.615 98.2163M562 65.5733L566.5 61.0733M559.5 63.0733L564 58.5733M558.5 62.0733L563 57.5733M558 60.5733L562 56.5733M555.5 59.0733L559.5 54.5733M489 123.573C489.667 124.74 492.4 127.573 496 129.573M556 49.5733C564 40.4066 583.8 18.9733 599 6.57331C600.667 4.90665 604.9 1.47331 608.5 1.07331C610.5 0.73998 614.6 1.37331 615 6.57331C615 8.07331 614.3 11.9733 611.5 15.5733M611.5 15.5733C611.082 16.1401 610.582 16.8008 610 17.5496M611.5 15.5733C610.812 14.8229 610.115 14.0953 609.422 13.3966M569 61.5733C589.76 41.9062 604.081 25.1684 610 17.5496M600.5 5.5733C602.047 6.69819 605.681 9.62621 609.422 13.3966M610 17.5496C609.5 16.7241 608.4 15.0733 608 15.0733M601.5 9.0733C600.87 8.40664 599.488 7.0733 599 7.0733M603 8.0733L601 9.5733M601 9.5733C602.5 10.24 605.9 12.2733 607.5 15.0733M601 9.5733C600.333 9.40664 599 9.6733 599 12.0733C599.153 12.1345 599.321 12.2072 599.5 12.291M607.5 15.0733C608.115 14.6222 609.36 13.6552 609.422 13.3966M607.5 15.0733C607.9 17.4733 605.667 17.74 604.5 17.5733M604.5 17.5733C604.137 15.0304 601.272 13.1198 599.5 12.291M604.5 17.5733C595.167 26.4066 576.4 44.3733 576 45.5733C574.667 47.4066 571.8 51.1733 571 51.5733C570.5 51.74 569.4 51.8733 569 51.0733L567 49.0733C566.833 48.4066 566.7 46.9733 567.5 46.5733C569.461 45.1047 573.405 42.1487 573.5 42.0733C574.7 41.2733 591.333 21.8851 599.5 12.291M507.28 101.073C507.43 100.002 507.907 97.9307 508.615 98.2163M505 121.573C504 120.907 501.9 119.373 501.5 118.573M506 120.573C505 119.907 502.9 118.373 502.5 117.573M507 119.573C506 118.907 503.9 117.373 503.5 116.573M508 118.573C507 117.907 504.9 116.373 504.5 115.573M509 117.573C508 116.907 505.9 115.373 505.5 114.573M510 116.573C509 115.907 506.9 114.373 506.5 113.573M511 115.573C510 114.907 507.9 113.373 507.5 112.573M512.115 114.573C511.115 113.907 509.015 112.373 508.615 111.573" stroke="black"/>
<circle cx="482" cy="135.573" r="1" fill="black"/>
</svg>
