<svg width="576" height="362" viewBox="0 0 576 362" fill="none" xmlns="http://www.w3.org/2000/svg">
<path d="M500.998 28.2037L503.498 26.2037C506.298 24.2037 508.665 25.3704 509.498 26.2037L531.5 107L575.498 284.204C575.098 289.404 568.998 293.704 565.998 295.204L453.498 326.204L357.498 349.704L310.998 358.204L304.498 361.204H290.498H269.998L259.498 358.204L249.998 349.704L248.498 348.704L166.998 350.704H6.4984C3.9984 350.37 -0.501601 348.504 1.4984 343.704L24.4984 276.204L44.4984 211.704L64.4984 146.704M500.998 28.2037L484.998 12.2037M500.998 28.2037L504.998 32.2037L524.5 116.5L565.998 281.704V287.204L371.498 340.704L310.998 352.704L290.498 349.704L286.998 347.204L275.498 349.704L265.998 352.704C263.665 351.87 257.798 348.704 252.998 342.704C217.332 342.537 131.098 342.704 71.4984 344.704C58.1651 344.87 26.8984 344.704 8.4984 342.704L40.9984 236.704C43.3317 229.37 51.2984 201.104 64.4984 146.704M484.998 12.2037L471.498 16.2037M484.998 12.2037L511.5 127L544.498 269.704L382.498 316.704C378.218 317.067 374.048 317.464 369.998 317.887M64.4984 146.704L93.9984 23.2037C94.1651 22.037 95.3984 20.1037 98.9984 21.7037C112.832 27.3704 147.698 40.3037 176.498 46.7037C196.332 50.037 246.498 63.4037 288.498 90.2037C286.832 83.537 291.598 66.2037 323.998 50.2037C337.665 43.2037 372.898 27.5037 404.498 20.7037C410.665 18.8704 431.198 12.4037 463.998 1.2037C465.165 0.87037 467.698 0.703704 468.498 2.7037L471.498 16.2037M64.4984 146.704L37.4984 265.204C51.6651 270.37 90.4984 282.804 132.498 291.204C149.332 294.537 186.898 302.404 202.498 307.204C221.832 312.204 265.298 326.104 284.498 341.704H285.998C286.165 338.87 288.798 332.604 297.998 330.204C307.438 327.507 333.933 321.657 369.998 317.887M471.498 16.2037L503 137.5L535.998 265.204C536.398 266.404 534.832 267.37 533.998 267.704L369.998 317.887" stroke="black"/>
<path d="M285.998 341.204C289.998 344.704 301.198 351.704 313.998 351.704M285.998 341.204C285.347 341.557 284.679 341.892 283.998 342.21M285.998 341.204C286.238 311.723 285.558 278.032 285.998 231.5V341.204ZM257.998 347.704C262.97 347.704 274.66 346.574 283.998 342.21M38.9984 266.704L31.9984 286.204C70.3317 290.037 151.498 298.704 169.498 302.704M169.498 302.704C176.332 304.037 192.498 307.504 202.498 310.704C208.236 312.042 216.56 314.263 225.998 317.209M169.498 302.704L153.998 300.704C141.598 299.104 102.832 295.037 84.9984 293.204C65.7984 291.204 42.3317 289.037 32.9984 288.204V286.704M283.998 342.21C268.019 331.827 244.8 323.078 225.998 317.209M33.4984 288.704L32.4984 290.704C36.4984 290.87 58.6984 292.504 115.498 297.704C130.665 298.707 173.998 304.013 225.998 317.209M288.498 89.7036C288.298 103.111 288.073 121.699 287.84 143L288.498 89.7036Z" stroke="black"/>
<path d="M34.9984 291.704V292.704C35.4898 292.74 35.9899 292.777 36.4984 292.815M150.998 302.204C134.067 300.235 68.586 295.197 36.4984 292.815M36.4984 292.815V294.704C36.7447 294.716 36.993 294.728 37.2432 294.74M32.4984 291.704L30.9984 294.704M30.9984 294.704L37.2432 294.74M30.9984 294.704V296.204C53.7858 297.202 90.8322 299.469 127.998 303.032M37.2432 294.74C74.8281 296.604 156.161 302.869 210.398 314.123M31.4984 296.704L30.4984 297.704M127.998 303.032L30.4984 298.704V297.704M127.998 303.032C141.194 304.297 154.405 305.725 166.998 307.317M30.4984 297.704L30.9984 299.204L28.4984 300.704C29.314 300.725 30.1477 300.748 30.9984 300.771M166.998 307.317C152.891 304.664 72.045 301.894 30.9984 300.771M166.998 307.317C182.868 309.324 197.757 311.592 210.398 314.123M30.9984 300.771L28.4984 303.032C75.9317 303.702 178.718 306.858 210.398 314.123M210.398 314.123C216.093 315.263 221.332 316.456 225.998 317.704C221.127 316.458 215.902 315.265 210.398 314.123ZM29.9984 304.204V305.704C30.164 305.701 30.3307 305.699 30.4984 305.697M228.498 318.204C210.622 315.293 191.165 313.018 171.498 311.252M281.498 342.704C274.007 338.066 256.894 329.61 235.498 323.693M30.4984 305.697L29.4984 306.7M30.4984 305.697C58.4432 305.344 115.812 306.253 171.498 311.252M29.4984 306.7L28.4984 307.704L27.4984 308.704L104.498 310.704C150.898 312.304 192.832 316.37 207.998 318.204C217.625 319.35 226.907 321.317 235.498 323.693M29.4984 306.7C55.3317 307.401 119.898 309.292 171.498 311.252M27.9984 309.204V310.704C63.8183 310.395 146.759 312.11 214.998 320.791M235.498 323.693C228.865 322.648 222.009 321.683 214.998 320.791M28.4984 311.204L26.9984 313.704C27.4817 313.68 27.9818 313.656 28.4984 313.633M214.998 320.791C128.252 312.225 55.597 312.418 28.4984 313.633M28.4984 313.633L18.9984 330.204C19.6311 330.224 20.2986 330.244 20.9984 330.264M216.998 330.204C210.215 329.204 202.778 328.487 194.998 327.997M20.9984 330.264C37.8119 330.757 73.3415 331.356 95.9984 330.204C116.125 328.287 159.196 325.74 194.998 327.997M20.9984 330.264L18.9984 333.204C20.091 333.228 21.2632 333.253 22.4984 333.28M194.998 327.997C177.398 326.231 121.665 329.732 95.9984 331.704C75.9984 334.742 66.4984 334.204 65.4984 334.204C64.756 334.204 38.4098 333.63 22.4984 333.28M22.4984 333.28L20.9984 340.204C21.4605 340.188 21.9609 340.171 22.4984 340.152M216.998 333.28L196.498 331.704C168.098 330.442 115.998 334.178 93.4984 336.204C61.4255 338.495 33.787 339.753 22.4984 340.152M22.4984 340.152L20.9984 342.704C39.9984 341.704 82.1984 339.504 98.9984 338.704C123.998 336.704 184.898 333.704 228.498 337.704M98.9984 342.704C104.498 342.704 164.498 338.704 244.498 340.204M25.4984 327.204C27.9984 327.204 62.9984 328.704 103.498 327.204L170.498 324.704M29.4984 323.704C34.9984 323.704 74.9984 326.204 113.498 323.704M29.4984 318.704C31.4984 318.704 84.9984 315.704 145.498 318.704M29.9984 320.704C36.4984 320.204 177.998 320.704 192.998 322.704" stroke="black"/>
<path d="M216.473 216.602C216.038 216.906 215.626 217.058 215.235 217.058C214.844 217.058 214.475 216.992 214.128 216.862C214.128 216.862 210.35 215.277 202.794 212.107C202.099 211.847 201.622 211.391 201.361 210.739C201.231 210.392 201.166 210.066 201.166 209.762C201.166 209.458 201.231 209.133 201.361 208.785C201.665 208.134 202.121 207.678 202.729 207.418C203.076 207.287 203.402 207.222 203.706 207.222C204.053 207.222 204.379 207.287 204.683 207.418L212.499 210.674V161.627L200.775 162.93V172.83C206.333 172.136 209.156 171.788 209.243 171.788C209.894 171.788 210.437 172.005 210.871 172.44C211.392 172.961 211.653 173.634 211.653 174.459C211.653 175.067 211.435 175.588 211.001 176.022C210.524 176.5 210.002 176.782 209.438 176.869C202.013 177.824 198.235 178.302 198.104 178.302C197.496 178.302 196.932 178.063 196.411 177.585C195.933 177.108 195.694 176.5 195.694 175.762V160.585C195.694 159.847 195.955 159.239 196.476 158.761C196.867 158.327 197.344 158.088 197.909 158.045C209.373 156.829 215.148 156.221 215.235 156.221C215.843 156.221 216.386 156.481 216.863 157.003C217.385 157.48 217.645 158.066 217.645 158.761V214.452C217.645 215.451 217.254 216.167 216.473 216.602ZM172.441 213.736C172.441 214.43 172.202 215.017 171.724 215.494C171.247 216.015 170.661 216.276 169.966 216.276C169.228 216.276 168.598 216.015 168.077 215.494C167.556 214.973 167.295 214.387 167.295 213.736V163.907C167.295 163.212 167.512 162.626 167.947 162.148C168.294 161.844 168.75 161.605 169.314 161.432L183.84 157.784C184.057 157.741 184.296 157.719 184.556 157.719C185.208 157.719 185.772 157.98 186.25 158.501C186.771 158.978 187.031 159.565 187.031 160.259V176.087C187.031 176.825 186.814 177.412 186.38 177.846C186.033 178.15 185.62 178.389 185.142 178.562L176.089 180.972C175.828 181.059 175.524 181.103 175.177 181.103C174.873 181.103 174.569 181.016 174.265 180.842C173.961 180.668 173.744 180.495 173.613 180.321C173.092 179.843 172.832 179.257 172.832 178.562C172.832 178.128 172.919 177.759 173.092 177.455C173.309 177.108 173.527 176.825 173.744 176.608C174.004 176.348 174.33 176.152 174.721 176.022L181.886 174.133V163.516L172.441 165.926V168.271C176.349 167.185 178.347 166.643 178.433 166.643C178.564 166.599 178.716 166.577 178.889 166.577C179.628 166.577 180.235 166.838 180.713 167.359C181.017 167.663 181.213 167.989 181.299 168.336C181.43 168.684 181.495 169.031 181.495 169.378C181.495 169.682 181.408 169.986 181.234 170.29C181.104 170.594 180.952 170.811 180.778 170.942C180.474 171.289 180.084 171.528 179.606 171.658L172.441 173.547V213.736ZM185.598 190.808L185.533 189.375C185.533 188.724 185.772 188.159 186.25 187.681C186.771 187.16 187.379 186.9 188.073 186.9C188.812 186.9 189.398 187.139 189.832 187.616C190.266 188.051 190.505 188.593 190.549 189.245C190.635 189.896 190.679 190.439 190.679 190.873C190.679 191.307 190.679 191.633 190.679 191.85L194.196 191.459V188.137C194.196 187.399 194.435 186.791 194.913 186.314C195.434 185.792 196.042 185.532 196.737 185.532C197.475 185.532 198.083 185.792 198.56 186.314C199.081 186.791 199.342 187.399 199.342 188.137V190.808C204.119 190.287 206.55 190.026 206.637 190.026C207.288 190.026 207.831 190.243 208.266 190.678C208.787 191.199 209.047 191.872 209.047 192.697C209.047 193.348 208.83 193.913 208.396 194.39C207.962 194.825 207.419 195.063 206.767 195.107L199.342 195.954V211.651C199.342 212.346 199.081 212.954 198.56 213.475C198.039 213.996 197.431 214.257 196.737 214.257C196.042 214.257 195.434 213.996 194.913 213.475C194.435 212.954 194.196 212.346 194.196 211.651V196.605L190.028 197.061C188.725 202.749 185.49 206.918 180.322 209.567C179.932 209.784 179.562 209.893 179.215 209.893C178.129 209.893 177.348 209.458 176.87 208.59C176.696 208.243 176.61 207.895 176.61 207.548C176.61 206.332 177.066 205.507 177.977 205.073C181.234 203.336 183.427 200.861 184.556 197.647C180.474 198.125 178.368 198.364 178.238 198.364C177.587 198.364 177 198.103 176.479 197.582C176.089 197.191 175.828 196.735 175.698 196.214C175.698 196.127 175.698 195.997 175.698 195.823C175.698 195.129 175.958 194.521 176.479 194C176.87 193.565 177.348 193.327 177.912 193.283L185.533 192.436C185.577 191.785 185.598 191.242 185.598 190.808ZM183.709 187.812C182.971 187.812 182.342 187.551 181.82 187.03C181.473 186.683 181.234 186.248 181.104 185.727C181.104 185.641 181.104 185.51 181.104 185.337C181.104 184.598 181.365 183.969 181.886 183.448C182.276 183.057 182.754 182.818 183.319 182.731L199.733 180.451C199.906 180.408 200.08 180.386 200.254 180.386C200.905 180.386 201.448 180.625 201.882 181.103C202.403 181.624 202.664 182.275 202.664 183.057C202.664 183.708 202.447 184.251 202.013 184.685C201.535 185.163 201.014 185.445 200.449 185.532L183.97 187.812C183.883 187.812 183.796 187.812 183.709 187.812ZM203.185 169.704C202.534 169.704 201.947 169.443 201.426 168.922C201.035 168.532 200.775 168.076 200.645 167.555C200.645 167.468 200.645 167.337 200.645 167.164C200.645 166.469 200.862 165.883 201.296 165.405C201.774 164.927 202.316 164.667 202.924 164.623C207.05 164.189 209.134 163.972 209.177 163.972C209.829 163.972 210.372 164.189 210.806 164.623C211.327 165.144 211.587 165.818 211.587 166.643C211.587 167.251 211.37 167.772 210.936 168.206C210.458 168.684 209.937 168.966 209.373 169.053C205.334 169.487 203.272 169.704 203.185 169.704ZM264.478 215.104C263.783 215.104 263.175 214.843 262.654 214.322C262.35 214.018 262.154 213.692 262.068 213.345L256.987 197.712C256.857 197.408 256.792 197.061 256.792 196.67C256.792 196.149 257.009 195.65 257.443 195.172C257.964 194.694 258.485 194.412 259.006 194.325C273.076 192.371 280.132 191.394 280.175 191.394C280.262 191.394 280.349 191.394 280.436 191.394C281.087 191.394 281.695 191.611 282.26 192.046C282.303 192.089 282.347 192.132 282.39 192.176C282.824 192.74 283.041 193.348 283.041 194C283.041 194.13 283.041 194.238 283.041 194.325C281.348 205.615 280.501 211.282 280.501 211.326C280.371 211.89 280.11 212.346 279.719 212.694C279.372 213.084 278.894 213.323 278.286 213.41C269.167 214.539 264.564 215.104 264.478 215.104ZM233.668 210.87C233.278 211.087 232.909 211.195 232.561 211.195C231.476 211.195 230.694 210.761 230.216 209.893C229.999 209.502 229.891 209.154 229.891 208.851C229.891 208.503 229.912 208.177 229.956 207.873C230.043 207.526 230.216 207.244 230.477 207.027C230.737 206.766 230.976 206.571 231.193 206.441C235.709 203.922 239.183 200.687 241.615 196.735C239.444 194.738 237.142 192.957 234.711 191.394C234.19 191.047 233.842 190.547 233.668 189.896C233.625 189.679 233.603 189.418 233.603 189.114C233.603 188.81 233.734 188.376 233.994 187.812C234.385 186.943 234.819 185.836 235.297 184.49L226.959 186.9C226.699 186.987 226.395 187.03 226.048 187.03C225.744 187.03 225.44 186.943 225.136 186.77C224.832 186.596 224.571 186.4 224.354 186.183C224.137 185.966 223.963 185.684 223.833 185.337C223.746 184.989 223.703 184.663 223.703 184.36C223.703 184.012 223.79 183.686 223.963 183.382C224.137 183.079 224.332 182.818 224.549 182.601C224.767 182.384 225.092 182.21 225.526 182.08L236.99 178.693C237.815 175.392 238.445 171.962 238.879 168.401C239.314 164.841 239.552 161.605 239.596 158.696C239.596 158.001 239.835 157.415 240.312 156.937C240.833 156.416 241.441 156.156 242.136 156.156C242.18 156.156 242.201 156.156 242.201 156.156C242.939 156.243 243.526 156.525 243.96 157.003C244.438 157.437 244.676 157.958 244.676 158.566C244.676 161.475 244.481 164.558 244.09 167.815C243.699 171.072 243.222 174.155 242.657 177.064L252.818 174.068C253.079 173.981 253.361 173.938 253.665 173.938C254.012 173.938 254.338 174.025 254.642 174.198C254.946 174.372 255.207 174.567 255.424 174.785C255.641 175.002 255.793 175.284 255.88 175.631C256.01 175.979 256.075 176.326 256.075 176.673C256.075 176.977 255.988 177.281 255.815 177.585C255.684 177.889 255.489 178.172 255.228 178.432C255.011 178.649 254.664 178.823 254.186 178.953L241.224 182.731C240.747 184.555 240.095 186.422 239.27 188.333C240.66 189.245 242.245 190.482 244.025 192.046C244.98 189.57 245.567 186.9 245.784 184.034C245.871 183.296 246.153 182.709 246.63 182.275C247.152 181.841 247.694 181.624 248.259 181.624C249.04 181.624 249.714 181.928 250.278 182.536C250.669 183.013 250.864 183.534 250.864 184.099C250.864 184.186 250.864 184.273 250.864 184.36C250.56 188.441 249.605 192.263 247.998 195.823C250.864 198.95 253.209 202.142 255.033 205.398C255.25 205.789 255.359 206.158 255.359 206.506C255.359 206.81 255.315 207.135 255.228 207.483C255.185 207.787 255.033 208.069 254.772 208.329C254.208 208.894 253.557 209.176 252.818 209.176C252.124 209.176 251.516 208.937 250.995 208.46C250.864 208.286 250.734 208.091 250.604 207.873C249.171 205.311 247.412 202.858 245.328 200.513C242.375 204.769 238.488 208.221 233.668 210.87ZM262.784 199.015L266.301 209.762L275.746 208.525L277.44 196.931L262.784 199.015ZM255.293 188.203C254.382 188.203 253.687 187.768 253.209 186.9C252.992 186.509 252.883 186.096 252.883 185.662C252.883 184.967 253.122 184.36 253.6 183.838C255.641 181.711 257.486 179.214 259.136 176.348C260.83 173.482 262.285 170.529 263.501 167.489C264.76 164.406 265.693 161.562 266.301 158.957C266.475 158.262 266.866 157.741 267.474 157.393C267.908 157.089 268.364 156.937 268.842 156.937C269.493 156.937 270.079 157.198 270.6 157.719C271.121 158.24 271.382 158.848 271.382 159.543C271.382 159.717 271.36 159.912 271.317 160.129C270.709 162.474 269.906 165.014 268.907 167.75C267.908 170.486 266.801 173.026 265.585 175.371C264.369 177.672 263.153 179.713 261.937 181.494L274.378 178.628C274.595 178.584 274.791 178.562 274.964 178.562C275.399 178.562 275.768 178.649 276.072 178.823C276.376 178.997 276.615 179.17 276.788 179.344C277.266 179.822 277.505 180.408 277.505 181.103C277.505 181.841 277.244 182.471 276.723 182.992C276.376 183.296 275.963 183.513 275.486 183.643L256.01 188.137C255.749 188.181 255.511 188.203 255.293 188.203ZM283.562 185.792C283.519 185.749 281.673 183.817 278.026 179.995C274.378 176.174 272.533 174.263 272.489 174.263C272.055 173.742 271.838 173.134 271.838 172.44C271.838 171.701 272.098 171.115 272.62 170.681C273.141 170.203 273.727 169.965 274.378 169.965C275.116 169.965 275.724 170.247 276.202 170.811L287.145 182.145C287.666 182.666 287.926 183.274 287.926 183.969C287.926 184.663 287.666 185.271 287.145 185.792C286.667 186.27 286.081 186.509 285.386 186.509C284.691 186.509 284.083 186.27 283.562 185.792ZM322.709 214.908C322.709 215.603 322.47 216.189 321.992 216.667C321.515 217.188 320.907 217.448 320.169 217.448C319.474 217.448 318.866 217.188 318.345 216.667C317.867 216.189 317.628 215.603 317.628 214.908V198.624C315.501 200.491 313.025 202.359 310.203 204.226C307.424 206.093 304.406 207.852 301.149 209.502C297.936 211.109 294.896 212.433 292.03 213.475C291.726 213.605 291.4 213.671 291.053 213.671C290.749 213.671 290.445 213.605 290.141 213.475C289.49 213.128 289.034 212.628 288.773 211.977C288.643 211.673 288.578 211.347 288.578 211C288.578 210.696 288.643 210.392 288.773 210.088C289.121 209.437 289.62 208.981 290.271 208.72C295.222 206.896 300.085 204.552 304.862 201.686C307.337 200.166 309.595 198.624 311.636 197.061C313.981 195.237 315.978 193.457 317.628 191.72V188.984L304.927 190.157L306.295 197.256C306.338 197.43 306.36 197.604 306.36 197.777C306.36 198.516 306.099 199.124 305.578 199.601C305.101 200.079 304.558 200.318 303.95 200.318C303.168 200.318 302.495 200.057 301.931 199.536C301.627 199.189 301.41 198.776 301.279 198.299C301.279 198.299 300.65 194.977 299.39 188.333C299.347 188.116 299.325 187.92 299.325 187.747C299.325 187.269 299.499 186.791 299.846 186.314C299.846 186.27 299.911 186.205 300.042 186.118C300.433 185.684 300.932 185.402 301.54 185.271C301.583 185.271 306.946 184.815 317.628 183.904V181.689C311.115 182.34 307.815 182.666 307.728 182.666C307.076 182.666 306.512 182.427 306.034 181.949C305.47 181.385 305.187 180.799 305.187 180.191C305.187 179.453 305.405 178.845 305.839 178.367C306.316 177.889 306.859 177.629 307.467 177.585L317.628 176.543V172.896C317.628 172.157 317.867 171.549 318.345 171.072C318.866 170.594 319.474 170.355 320.169 170.355C320.907 170.355 321.515 170.594 321.992 171.072C322.47 171.549 322.709 172.157 322.709 172.896V176.022C328.093 175.501 330.829 175.241 330.916 175.241C331.611 175.241 332.175 175.458 332.61 175.892C333.131 176.456 333.391 177.151 333.391 177.976C333.391 178.584 333.174 179.127 332.74 179.605C332.306 180.039 331.763 180.278 331.111 180.321L322.709 181.168V183.448C333.825 182.492 339.427 182.015 339.514 182.015C340.209 182.015 340.817 182.275 341.338 182.796C341.772 183.274 341.989 183.838 341.989 184.49C341.989 184.707 341.881 185.423 341.663 186.639C341.099 189.722 340.426 192.501 339.644 194.977C339.21 196.41 338.711 197.647 338.146 198.689C337.842 199.384 337.321 199.818 336.583 199.992C336.322 200.079 336.083 200.122 335.866 200.122C335.432 200.122 335.02 199.992 334.629 199.732L327.985 195.823C327.377 195.476 326.986 194.955 326.812 194.26C326.769 194.043 326.747 193.782 326.747 193.479C326.747 192.914 326.986 192.371 327.464 191.85C327.985 191.372 328.615 191.134 329.353 191.134C329.787 191.134 330.2 191.242 330.59 191.459L334.629 193.804C335.15 192.284 335.714 190.157 336.322 187.421L322.709 188.593V195.237L324.924 196.735C328.224 199.037 331.633 201.143 335.15 203.053C337.06 204.096 338.797 204.921 340.361 205.529C342.488 206.31 345.376 207.07 349.024 207.808L350.782 208.134C351.521 208.264 352.063 208.633 352.411 209.241C352.715 209.676 352.867 210.132 352.867 210.609C352.867 211.521 352.519 212.216 351.825 212.694C351.347 213.041 350.804 213.215 350.196 213.215C349.979 213.215 349.784 213.193 349.61 213.149C349.436 213.106 348.785 212.976 347.656 212.759C344.052 212.02 341.142 211.261 338.928 210.479C336.757 209.654 334.564 208.633 332.349 207.418C330.178 206.158 328.267 205.008 326.617 203.965C325.01 202.923 323.708 202.055 322.709 201.36V214.908ZM337.951 175.696C337.039 175.696 336.322 175.327 335.801 174.589L330.786 167.359C330.482 166.881 330.33 166.425 330.33 165.991C330.33 165.21 330.59 164.558 331.111 164.037C331.502 163.646 331.958 163.408 332.479 163.321L345.767 160.976C345.984 160.932 346.179 160.911 346.353 160.911C347.048 160.911 347.612 161.128 348.047 161.562C348.568 162.083 348.828 162.734 348.828 163.516C348.828 164.211 348.568 164.797 348.047 165.275C347.699 165.622 347.265 165.861 346.744 165.991L337.299 167.685L339.97 171.658C340.317 172.092 340.491 172.548 340.491 173.026C340.491 173.938 340.122 174.654 339.384 175.175C338.993 175.523 338.515 175.696 337.951 175.696ZM310.919 177.26C309.964 177.26 309.226 176.869 308.705 176.087L304.015 168.922C303.711 168.445 303.559 168.01 303.559 167.62C303.559 167.229 303.646 166.86 303.82 166.512C303.95 166.165 304.145 165.861 304.406 165.6C304.71 165.296 305.144 165.079 305.709 164.949L317.759 162.8C317.976 162.756 318.171 162.734 318.345 162.734C318.996 162.734 319.539 162.973 319.973 163.451C320.538 163.972 320.82 164.623 320.82 165.405C320.82 166.1 320.559 166.686 320.038 167.164C319.691 167.511 319.235 167.75 318.671 167.88L310.398 169.313L313.004 173.286C313.308 173.764 313.46 174.242 313.46 174.719C313.46 175.631 313.069 176.348 312.287 176.869C311.896 177.129 311.44 177.26 310.919 177.26ZM294.114 176.022C293.246 176.022 292.551 175.675 292.03 174.98C291.683 174.546 291.509 174.068 291.509 173.547C291.509 172.635 291.878 171.919 292.616 171.398C294.266 170.225 295.786 168.836 297.176 167.229C298.609 165.622 299.846 163.972 300.888 162.279C301.931 160.585 302.712 159.043 303.233 157.654C303.494 156.959 303.95 156.481 304.601 156.221C304.949 156.091 305.274 156.025 305.578 156.025C305.926 156.025 306.251 156.091 306.555 156.221C307.25 156.481 307.728 156.937 307.988 157.589C308.119 157.936 308.184 158.284 308.184 158.631C308.184 158.935 308.119 159.239 307.988 159.543C307.424 161.106 306.534 162.865 305.318 164.819C304.102 166.729 302.669 168.64 301.019 170.551C299.412 172.418 297.61 174.068 295.612 175.501C295.178 175.848 294.679 176.022 294.114 176.022ZM334.564 158.566C333.999 159.782 333.239 161.215 332.284 162.865C331.329 164.471 330.178 166.1 328.832 167.75C327.529 169.4 326.053 170.898 324.402 172.244C323.925 172.635 323.404 172.83 322.839 172.83C322.058 172.83 321.384 172.527 320.82 171.919C320.429 171.441 320.234 170.898 320.234 170.29C320.234 169.509 320.538 168.836 321.146 168.271C322.448 167.229 323.664 166.013 324.793 164.623C325.966 163.234 326.964 161.844 327.789 160.455C328.658 159.022 329.331 157.719 329.809 156.547C329.939 156.243 330.134 155.96 330.395 155.7C330.916 155.179 331.502 154.918 332.154 154.918C332.501 154.918 332.848 155.005 333.196 155.179C333.847 155.483 334.303 155.939 334.564 156.547C334.694 156.894 334.759 157.241 334.759 157.589C334.759 157.893 334.694 158.218 334.564 158.566ZM405.561 183.708C406.169 183.708 406.691 183.925 407.125 184.36C407.646 184.881 407.906 185.532 407.906 186.314C407.906 186.922 407.689 187.443 407.255 187.877C406.821 188.311 406.278 188.572 405.627 188.658C375.751 190.83 360.77 191.915 360.683 191.915C360.075 191.915 359.554 191.698 359.12 191.264C358.599 190.743 358.338 190.135 358.338 189.44C358.338 188.745 358.555 188.181 358.989 187.747C359.424 187.312 359.967 187.052 360.618 186.965L380.419 185.532V184.034C375.816 184.511 373.471 184.75 373.384 184.75C372.733 184.75 372.19 184.533 371.756 184.099C371.235 183.578 370.974 182.992 370.974 182.34C370.974 181.602 371.192 181.016 371.626 180.582C372.06 180.104 372.581 179.843 373.189 179.8L380.419 179.084V177.846C375.208 178.324 372.559 178.562 372.473 178.562C371.865 178.562 371.344 178.345 370.909 177.911C370.475 177.477 370.193 176.977 370.063 176.413C370.063 176.326 370.063 176.196 370.063 176.022C370.063 175.371 370.28 174.828 370.714 174.394C371.192 173.916 371.734 173.656 372.342 173.612L380.419 172.896V171.853C366.35 172.852 359.272 173.352 359.185 173.352C358.577 173.352 358.056 173.134 357.622 172.7C357.101 172.179 356.84 171.593 356.84 170.942C356.84 170.203 357.057 169.617 357.491 169.183C357.969 168.705 358.512 168.445 359.12 168.401L380.419 166.903V165.926C373.949 166.534 370.67 166.838 370.584 166.838C369.932 166.838 369.389 166.621 368.955 166.187C368.434 165.666 368.174 165.079 368.174 164.428C368.174 163.69 368.391 163.104 368.825 162.669C369.259 162.192 369.78 161.931 370.388 161.888L380.419 160.976V156.937C380.419 156.243 380.658 155.656 381.136 155.179C381.613 154.701 382.199 154.462 382.894 154.462C383.589 154.462 384.175 154.701 384.653 155.179C385.131 155.656 385.369 156.243 385.369 156.937V160.52C392.144 159.912 395.552 159.608 395.596 159.608C396.291 159.608 396.877 159.89 397.354 160.455C397.745 160.932 397.941 161.475 397.941 162.083C397.941 162.3 397.941 162.474 397.941 162.604L397.159 165.666C405.106 165.101 409.101 164.819 409.144 164.819C409.752 164.819 410.273 165.036 410.707 165.47C411.228 165.991 411.489 166.577 411.489 167.229C411.489 167.967 411.25 168.575 410.772 169.053C410.338 169.487 409.817 169.726 409.209 169.769C409.209 169.769 404.78 170.073 395.921 170.681C395.313 173.46 394.988 174.85 394.944 174.85C394.814 175.327 394.575 175.74 394.228 176.087C393.88 176.478 393.403 176.695 392.795 176.739L385.369 177.39V178.693C389.582 178.258 391.731 178.041 391.818 178.041C392.469 178.041 393.012 178.258 393.446 178.693C393.967 179.214 394.228 179.778 394.228 180.386C394.228 181.124 394.011 181.711 393.577 182.145C393.142 182.579 392.643 182.861 392.078 182.992C392.035 182.992 389.799 183.209 385.369 183.643V185.206C398.744 184.208 405.475 183.708 405.561 183.708ZM372.212 209.502C371.561 209.502 371.04 209.306 370.649 208.916C370.345 208.612 370.149 208.243 370.063 207.808C367.414 199.514 366.068 195.302 366.024 195.172C365.981 195.042 365.959 194.846 365.959 194.586C365.959 193.934 366.176 193.37 366.61 192.892C367.088 192.415 367.631 192.176 368.239 192.176C387.215 190.699 396.725 189.961 396.768 189.961C397.637 189.961 398.31 190.265 398.787 190.873C399.178 191.351 399.374 191.872 399.374 192.436C399.374 192.653 399.352 192.871 399.308 193.088C397.007 201.903 395.856 206.31 395.856 206.31C395.726 206.744 395.487 207.135 395.14 207.483C394.749 207.873 394.25 208.091 393.642 208.134C379.399 209.046 372.255 209.502 372.212 209.502ZM357.426 216.015C356.731 216.015 356.167 215.798 355.733 215.364C355.212 214.843 354.951 214.278 354.951 213.671C354.951 212.889 355.19 212.238 355.668 211.716C356.058 211.326 356.536 211.109 357.101 211.065C360.922 210.587 366.589 210.153 374.101 209.762C387.389 209.068 398.158 208.72 406.408 208.72C408.015 208.72 409.404 208.742 410.577 208.785C411.272 208.785 411.836 209.024 412.27 209.502C412.748 209.98 412.987 210.587 412.987 211.326C412.987 211.369 412.987 211.391 412.987 211.391C412.9 212.086 412.618 212.65 412.14 213.084C411.706 213.519 411.141 213.736 410.447 213.736C409.274 213.692 408.08 213.671 406.864 213.671C405.692 213.671 404.194 213.671 402.37 213.671C400.589 213.714 398.071 213.779 394.814 213.866C391.601 213.953 388.235 214.061 384.718 214.192C381.244 214.365 377.814 214.539 374.427 214.713C367.088 215.104 361.53 215.538 357.752 216.015C357.622 216.015 357.513 216.015 357.426 216.015ZM377.618 202.728C376.967 202.728 376.424 202.511 375.99 202.076C375.512 201.599 375.273 201.034 375.273 200.383C375.273 199.732 375.491 199.189 375.925 198.754C376.402 198.277 376.924 198.016 377.488 197.973L380.484 197.777V196.149L371.756 196.866L374.166 204.421L380.484 204.03V202.532C378.617 202.663 377.662 202.728 377.618 202.728ZM388.235 197.191C388.843 197.191 389.364 197.408 389.799 197.843C390.276 198.32 390.515 198.885 390.515 199.536C390.515 200.231 390.298 200.795 389.864 201.23C389.43 201.664 388.908 201.903 388.301 201.946L385.239 202.207V203.705L391.557 203.314L393.642 195.172L385.239 195.823V197.387C387.193 197.256 388.192 197.191 388.235 197.191ZM385.369 165.47V166.512L392.013 166.056L392.274 164.884L385.369 165.47ZM385.369 171.463V172.44L390.58 171.919L390.776 171.072L385.369 171.463Z" fill="#3E5764"/>
</svg>
