<svg width="576" height="362" viewBox="0 0 576 362" fill="none" xmlns="http://www.w3.org/2000/svg">
<path d="M500.998 28.2037L503.498 26.2037C506.298 24.2037 508.665 25.3704 509.498 26.2037L522.5 77.0281M500.998 28.2037L484.998 12.2037M500.998 28.2037L504.998 32.2037L517.418 83M484.998 12.2037L471.498 16.2037M484.998 12.2037L504.477 96.5M64.4984 146.704C51.2984 201.104 43.3317 229.37 40.9984 236.704L8.4984 342.704C26.8984 344.704 58.1651 344.87 71.4984 344.704C131.098 342.704 217.332 342.537 252.998 342.704C257.798 348.704 263.665 351.87 265.998 352.704L275.498 349.704L286.998 347.204L290.498 349.704L310.998 352.704L371.498 340.704L565.998 287.204V281.704L522 102M64.4984 146.704L93.9984 23.2037C94.1651 22.037 95.3984 20.1037 98.9984 21.7037C112.832 27.3704 147.698 40.3037 176.498 46.7037C196.332 50.037 246.498 63.4037 288.498 90.2037C286.832 83.537 291.598 66.2037 323.998 50.2037C337.665 43.2037 372.898 27.5037 404.498 20.7037C410.665 18.8704 431.198 12.4037 463.998 1.2037C465.165 0.87037 467.698 0.703704 468.498 2.7037L471.498 16.2037M64.4984 146.704L44.4984 211.704L24.4984 276.204L1.4984 343.704C-0.501601 348.504 3.9984 350.37 6.4984 350.704H166.998L248.498 348.704L249.998 349.704L259.498 358.204L269.998 361.204H290.498H304.498L310.998 358.204L357.498 349.704L453.498 326.204L565.998 295.204C568.998 293.704 575.098 289.404 575.498 284.204L528 98.5281M64.4984 146.704L37.4984 265.204C51.6651 270.37 90.4984 282.804 132.498 291.204C149.332 294.537 186.898 302.404 202.498 307.204C221.832 312.204 265.298 326.104 284.498 341.704H285.998C286.165 338.87 288.798 332.604 297.998 330.204C307.438 327.507 333.933 321.657 369.998 317.887M471.498 16.2037L494.888 106.5M369.998 317.887C374.048 317.464 378.218 317.067 382.498 316.704L544.498 269.704L508.867 115.5M369.998 317.887L533.998 267.704C534.832 267.37 536.398 266.404 535.998 265.204L499.681 125" stroke="black"/>
<path d="M285.998 341.204C289.998 344.704 301.198 351.704 313.998 351.704M285.998 341.204C285.346 341.557 284.678 341.892 283.998 342.21M285.998 341.204C287.036 290.67 286.249 249.982 286.5 213.5M288.498 89.7036C288.263 105.48 287.847 123.721 287.448 144.5C287.448 144.5 287.673 141.688 287.448 156.5M257.998 347.704C262.969 347.704 274.659 346.574 283.998 342.21M38.998 266.704L31.998 286.204C70.3314 290.037 151.498 298.704 169.498 302.704M169.498 302.704C176.331 304.037 192.498 307.504 202.498 310.704C208.235 312.042 216.56 314.263 225.998 317.209M169.498 302.704L153.998 300.704C141.598 299.104 102.831 295.037 84.998 293.204C65.798 291.204 42.3314 289.037 32.998 288.204V286.704M283.998 342.21C268.019 331.827 244.8 323.078 225.998 317.209M33.498 288.704L32.498 290.704C36.498 290.87 58.698 292.504 115.498 297.704C130.665 298.707 173.998 304.013 225.998 317.209" stroke="black"/>
<path d="M34.998 291.704V292.704C35.4894 292.74 35.9896 292.777 36.498 292.815M150.998 302.204C134.066 300.235 68.5856 295.197 36.498 292.815M36.498 292.815V294.704C36.7444 294.716 36.9926 294.728 37.2429 294.74M32.498 291.704L30.998 294.704M30.998 294.704L37.2429 294.74M30.998 294.704V296.204C53.7854 297.202 90.8318 299.469 127.998 303.032M37.2429 294.74C74.8277 296.604 156.161 302.869 210.398 314.123M31.498 296.704L30.498 297.704M127.998 303.032L30.498 298.704V297.704M127.998 303.032C141.194 304.297 154.405 305.725 166.998 307.317M30.498 297.704L30.998 299.204L28.498 300.704C29.3137 300.725 30.1473 300.748 30.998 300.771M166.998 307.317C152.89 304.664 72.0447 301.894 30.998 300.771M166.998 307.317C182.868 309.324 197.757 311.592 210.398 314.123M30.998 300.771L28.498 303.032C75.9313 303.702 178.718 306.858 210.398 314.123M210.398 314.123C216.093 315.263 221.331 316.456 225.998 317.704C221.126 316.458 215.902 315.265 210.398 314.123ZM29.998 304.204V305.704C30.1636 305.701 30.3303 305.699 30.498 305.697M228.498 318.204C210.621 315.293 191.164 313.018 171.498 311.252M281.498 342.704C274.006 338.066 256.893 329.61 235.498 323.693M30.498 305.697L29.498 306.7M30.498 305.697C58.4429 305.344 115.811 306.253 171.498 311.252M29.498 306.7L28.498 307.704L27.498 308.704L104.498 310.704C150.898 312.304 192.831 316.37 207.998 318.204C217.625 319.35 226.907 321.317 235.498 323.693M29.498 306.7C55.3314 307.401 119.898 309.292 171.498 311.252M27.998 309.204V310.704C63.818 310.395 146.758 312.11 214.998 320.791M235.498 323.693C228.865 322.648 222.009 321.683 214.998 320.791M28.498 311.204L26.998 313.704C27.4813 313.68 27.9814 313.656 28.498 313.633M214.998 320.791C128.252 312.225 55.5966 312.418 28.498 313.633M28.498 313.633L18.998 330.204C19.6308 330.224 20.2982 330.244 20.998 330.264M216.998 330.204C210.215 329.204 202.778 328.487 194.998 327.997M20.998 330.264C37.8115 330.757 73.3411 331.356 95.998 330.204C116.125 328.287 159.196 325.74 194.998 327.997M20.998 330.264L18.998 333.204C20.0906 333.228 21.2629 333.253 22.498 333.28M194.998 327.997C177.398 326.231 121.665 329.732 95.998 331.704C75.998 334.742 66.498 334.204 65.498 334.204C64.7557 334.204 38.4094 333.63 22.498 333.28M22.498 333.28L20.998 340.204C21.4601 340.188 21.9606 340.171 22.498 340.152M216.998 333.28L196.498 331.704C168.098 330.442 115.998 334.178 93.498 336.204C61.4252 338.495 33.7866 339.753 22.498 340.152M22.498 340.152L20.998 342.704C39.998 341.704 82.198 339.504 98.998 338.704C123.998 336.704 184.898 333.704 228.498 337.704M98.998 342.704C104.498 342.704 164.498 338.704 244.498 340.204M25.498 327.204C27.998 327.204 62.998 328.704 103.498 327.204L170.498 324.704M29.498 323.704C34.998 323.704 74.998 326.204 113.498 323.704M29.498 318.704C31.498 318.704 84.998 315.704 145.498 318.704M29.998 320.704C36.498 320.204 177.998 320.704 192.998 322.704" stroke="black"/>
<path d="M237.7 200.352C238.167 200.352 238.55 200.518 238.85 200.852C239.183 201.152 239.35 201.535 239.35 202.002C239.35 202.468 239.183 202.852 238.85 203.152C238.55 203.485 238.167 203.652 237.7 203.652C235.2 203.652 232.533 203.718 229.7 203.852C226.9 204.018 224.533 204.152 222.6 204.252C219.4 204.452 216.017 204.735 212.45 205.102C212.35 205.102 212.267 205.102 212.2 205.102C211.767 205.102 211.383 204.935 211.05 204.602C210.75 204.302 210.6 203.935 210.6 203.502V163.752C210.6 163.285 210.75 162.902 211.05 162.602C211.383 162.268 211.783 162.102 212.25 162.102C212.717 162.102 213.1 162.268 213.4 162.602C213.733 162.902 213.9 163.285 213.9 163.752V201.652C217.667 201.318 221.233 201.052 224.6 200.852C230.267 200.518 234.633 200.352 237.7 200.352ZM195.65 184.402C195.15 184.402 194.717 184.152 194.35 183.652C194.35 183.652 194.333 183.652 194.3 183.652C194.133 183.318 194.05 183.002 194.05 182.702C194.05 182.368 194.167 182.052 194.4 181.752L199.35 174.952L195.05 174.252C194.683 174.185 194.383 174.052 194.15 173.852C193.95 173.652 193.817 173.418 193.75 173.152C193.683 172.952 193.65 172.752 193.65 172.552C193.65 172.185 193.8 171.835 194.1 171.502C195.7 169.768 197.383 167.468 199.15 164.602C199.917 163.368 200.517 162.268 200.95 161.302C201.117 160.902 201.417 160.618 201.85 160.452C202.05 160.385 202.25 160.352 202.45 160.352C202.683 160.352 202.917 160.418 203.15 160.552C203.55 160.718 203.833 161.018 204 161.452C204.067 161.618 204.1 161.818 204.1 162.052C204.1 162.252 204.033 162.468 203.9 162.702C203.333 163.968 202.533 165.418 201.5 167.052C200.5 168.685 199.483 170.168 198.45 171.502L201.55 172.002L205.15 167.152C205.483 166.685 205.933 166.452 206.5 166.452C206.9 166.452 207.25 166.602 207.55 166.902C207.917 167.268 208.1 167.685 208.1 168.152C208.1 168.518 208 168.818 207.8 169.052L199.65 180.202L204 179.202C204.133 179.168 204.25 179.152 204.35 179.152C204.783 179.152 205.15 179.302 205.45 179.602C205.817 179.968 206 180.385 206 180.852C206 181.318 205.833 181.702 205.5 182.002C205.267 182.235 205 182.385 204.7 182.452L195.95 184.352C195.883 184.385 195.783 184.402 195.65 184.402ZM220.9 177.502L216.35 178.252C216.217 178.252 216.1 178.252 216 178.252C215.367 178.252 214.9 177.952 214.6 177.352C214.5 177.118 214.45 176.885 214.45 176.652C214.45 176.218 214.65 175.818 215.05 175.452C215.917 174.752 217.167 173.418 218.8 171.452L216.05 170.252C215.517 170.018 215.2 169.602 215.1 169.002C215.1 168.935 215.1 168.852 215.1 168.752C215.1 168.285 215.283 167.902 215.65 167.602C216.317 167.068 217.067 166.268 217.9 165.202C218.767 164.102 219.467 163.085 220 162.152C220.333 161.652 220.8 161.402 221.4 161.402C221.8 161.402 222.167 161.568 222.5 161.902C222.8 162.235 222.95 162.618 222.95 163.052C222.95 163.318 222.883 163.585 222.75 163.852C222.317 164.485 221.8 165.218 221.2 166.052C220.6 166.885 220.017 167.635 219.45 168.302L220.9 168.902C221.167 168.568 221.5 168.102 221.9 167.502C222.333 166.868 222.6 166.518 222.7 166.452C223 166.118 223.383 165.952 223.85 165.952C224.25 165.952 224.6 166.118 224.9 166.452C225.233 166.752 225.4 167.135 225.4 167.602C225.4 167.902 225.3 168.185 225.1 168.452C224.567 169.252 223.85 170.235 222.95 171.402C222.083 172.535 221.267 173.535 220.5 174.402C220.567 174.368 220.65 174.352 220.75 174.352C221.15 174.352 221.483 174.502 221.75 174.802C222.117 175.135 222.3 175.518 222.3 175.952C222.3 176.352 222.15 176.702 221.85 177.002C221.583 177.268 221.267 177.435 220.9 177.502ZM232.1 176.902L227.5 177.652C227.367 177.652 227.25 177.652 227.15 177.652C226.517 177.652 226.067 177.335 225.8 176.702C225.7 176.468 225.65 176.235 225.65 176.002C225.65 175.535 225.867 175.152 226.3 174.852C227.167 174.118 228.383 172.802 229.95 170.902L227 169.652C226.5 169.418 226.2 169.002 226.1 168.402C226.1 168.335 226.1 168.252 226.1 168.152C226.1 167.685 226.283 167.302 226.65 167.002C227.317 166.468 228.067 165.668 228.9 164.602C229.733 163.502 230.433 162.485 231 161.552C231.333 161.052 231.8 160.802 232.4 160.802C232.8 160.802 233.167 160.968 233.5 161.302C233.8 161.602 233.95 161.968 233.95 162.402C233.95 162.702 233.867 162.985 233.7 163.252C233.233 163.985 232.7 164.752 232.1 165.552C231.5 166.352 230.933 167.052 230.4 167.652L231.9 168.302C232.533 167.435 232.967 166.835 233.2 166.502C233.433 166.135 233.6 165.918 233.7 165.852C234 165.518 234.383 165.352 234.85 165.352C235.25 165.352 235.6 165.518 235.9 165.852C236.233 166.152 236.4 166.535 236.4 167.002C236.4 167.335 236.3 167.618 236.1 167.852C235.567 168.618 234.867 169.568 234 170.702C233.167 171.835 232.383 172.852 231.65 173.752C231.717 173.752 231.8 173.752 231.9 173.752C232.3 173.752 232.633 173.885 232.9 174.152C233.267 174.485 233.45 174.885 233.45 175.352C233.45 175.785 233.3 176.135 233 176.402C232.733 176.668 232.433 176.835 232.1 176.902ZM216.05 199.652C215.317 199.652 214.833 199.318 214.6 198.652C214.5 198.452 214.45 198.235 214.45 198.002C214.45 197.568 214.65 197.168 215.05 196.802C215.05 196.802 215.067 196.802 215.1 196.802C215.933 196.168 217.167 194.918 218.8 193.052L216.1 191.902C215.867 191.835 215.667 191.702 215.5 191.502C215.233 191.235 215.1 190.885 215.1 190.452C215.1 189.952 215.267 189.568 215.6 189.302C216.533 188.568 217.633 187.402 218.9 185.802C219.467 185.135 219.833 184.652 220 184.352C220.2 184.018 220.35 183.818 220.45 183.752C220.717 183.452 221.033 183.302 221.4 183.302C221.8 183.302 222.133 183.385 222.4 183.552C222.9 183.818 223.15 184.252 223.15 184.852C223.15 185.185 223.05 185.485 222.85 185.752C222.417 186.385 221.883 187.102 221.25 187.902C220.65 188.668 220.083 189.352 219.55 189.952L220.9 190.502C221.667 189.535 222.133 188.918 222.3 188.652C222.467 188.385 222.6 188.218 222.7 188.152C222.967 187.852 223.3 187.702 223.7 187.702C224.2 187.702 224.617 187.868 224.95 188.202C225.25 188.502 225.4 188.868 225.4 189.302C225.4 189.635 225.3 189.918 225.1 190.152C224.567 190.918 223.867 191.835 223 192.902C222.133 193.968 221.35 194.918 220.65 195.752C221.117 195.752 221.517 195.918 221.85 196.252C222.15 196.552 222.3 196.902 222.3 197.302C222.3 197.735 222.15 198.085 221.85 198.352C221.583 198.652 221.267 198.835 220.9 198.902L216.25 199.652C216.183 199.652 216.117 199.652 216.05 199.652ZM227.2 199.052C226.5 199.052 226.033 198.718 225.8 198.052C225.7 197.852 225.65 197.635 225.65 197.402C225.65 196.968 225.85 196.568 226.25 196.202C226.25 196.202 226.267 196.202 226.3 196.202C227.133 195.568 228.317 194.335 229.85 192.502L227.1 191.302C226.433 191.035 226.1 190.552 226.1 189.852C226.1 189.352 226.267 188.968 226.6 188.702C227.533 187.968 228.633 186.802 229.9 185.202C230.467 184.535 230.833 184.052 231 183.752C231.2 183.418 231.35 183.218 231.45 183.152C231.717 182.852 232.05 182.702 232.45 182.702C232.983 182.702 233.4 182.868 233.7 183.202C234 183.468 234.15 183.785 234.15 184.152C234.15 184.552 234.05 184.885 233.85 185.152C233.417 185.785 232.883 186.502 232.25 187.302C231.65 188.068 231.083 188.752 230.55 189.352L231.9 189.902C232.667 188.935 233.133 188.318 233.3 188.052C233.467 187.785 233.6 187.618 233.7 187.552C233.967 187.252 234.3 187.102 234.7 187.102C235.2 187.102 235.617 187.268 235.95 187.602C236.25 187.902 236.4 188.268 236.4 188.702C236.4 189.035 236.3 189.318 236.1 189.552C235.6 190.285 234.917 191.202 234.05 192.302C233.217 193.402 232.433 194.368 231.7 195.202C231.767 195.168 231.85 195.152 231.95 195.152C232.35 195.152 232.683 195.302 232.95 195.602C233.283 195.902 233.45 196.318 233.45 196.852C233.45 197.252 233.3 197.585 233 197.852C232.733 198.118 232.433 198.268 232.1 198.302L227.4 199.052C227.333 199.052 227.267 199.052 227.2 199.052ZM203.65 203.902C203.65 204.368 203.5 204.752 203.2 205.052C202.9 205.385 202.5 205.552 202 205.552C201.533 205.552 201.133 205.385 200.8 205.052C200.5 204.752 200.35 204.368 200.35 203.902V184.552C200.35 184.085 200.5 183.702 200.8 183.402C201.133 183.068 201.533 182.902 202 182.902C202.5 182.902 202.9 183.068 203.2 183.402C203.5 183.702 203.65 184.085 203.65 184.552V203.902ZM234.25 178.752C234.65 178.752 234.983 178.885 235.25 179.152C235.583 179.485 235.75 179.868 235.75 180.302C235.75 180.768 235.6 181.152 235.3 181.452C235.033 181.718 234.7 181.868 234.3 181.902C222.967 182.735 217.283 183.152 217.25 183.152C216.817 183.152 216.467 183.018 216.2 182.752C215.867 182.418 215.7 182.035 215.7 181.602C215.7 181.168 215.833 180.802 216.1 180.502C216.4 180.202 216.75 180.035 217.15 180.002C228.517 179.168 234.217 178.752 234.25 178.752ZM192.7 195.552C192.133 195.552 191.683 195.318 191.35 194.852C191.117 194.585 191 194.268 191 193.902C191 193.335 191.233 192.885 191.7 192.552C192.833 191.685 193.85 190.785 194.75 189.852C195.65 188.885 196.35 187.952 196.85 187.052C197.083 186.618 197.417 186.352 197.85 186.252C198.017 186.218 198.2 186.202 198.4 186.202C198.6 186.202 198.8 186.252 199 186.352C199.2 186.452 199.367 186.585 199.5 186.752C199.667 186.885 199.783 187.068 199.85 187.302C199.917 187.535 199.95 187.752 199.95 187.952C199.95 188.152 199.883 188.385 199.75 188.652C198.383 190.952 196.35 193.135 193.65 195.202C193.383 195.435 193.067 195.552 192.7 195.552ZM210.35 182.052C210.483 182.285 210.55 182.518 210.55 182.752C210.55 182.952 210.517 183.168 210.45 183.402C210.383 183.635 210.267 183.835 210.1 184.002C209.967 184.135 209.817 184.252 209.65 184.352C209.517 184.418 209.317 184.452 209.05 184.452C208.817 184.452 208.583 184.435 208.35 184.402C207.95 184.302 207.65 184.052 207.45 183.652L204.2 177.802C204.1 177.535 204.05 177.302 204.05 177.102C204.05 176.335 204.333 175.818 204.9 175.552C205.133 175.418 205.35 175.352 205.55 175.352C206.083 175.352 206.517 175.502 206.85 175.802C206.95 175.935 207.033 176.068 207.1 176.202L210.35 182.052ZM209.5 193.902C208.933 193.902 208.5 193.702 208.2 193.302C205.7 190.235 204.45 188.685 204.45 188.652C204.217 188.352 204.1 188.018 204.1 187.652C204.1 187.152 204.267 186.752 204.6 186.452C204.967 186.152 205.333 186.002 205.7 186.002C206.267 186.002 206.7 186.202 207 186.602L210.75 191.202C210.983 191.502 211.1 191.835 211.1 192.202C211.1 192.735 210.9 193.185 210.5 193.552C210.2 193.785 209.867 193.902 209.5 193.902ZM224.8 178.702C224.167 178.702 223.667 178.435 223.3 177.902C223.3 177.902 222.783 176.952 221.75 175.052C221.65 174.818 221.6 174.602 221.6 174.402C221.6 173.668 221.867 173.168 222.4 172.902C222.633 172.768 222.85 172.702 223.05 172.702C223.55 172.702 223.967 172.852 224.3 173.152C224.4 173.285 224.483 173.418 224.55 173.552L226.1 176.402C226.2 176.602 226.25 176.818 226.25 177.052C226.25 177.518 226.083 177.918 225.75 178.252C225.45 178.552 225.133 178.702 224.8 178.702ZM235.95 178.052C235.283 178.052 234.783 177.802 234.45 177.302C234.45 177.302 233.95 176.352 232.95 174.452C232.85 174.218 232.8 174.002 232.8 173.802C232.8 173.068 233.067 172.568 233.6 172.302C233.833 172.168 234.05 172.102 234.25 172.102C234.75 172.102 235.167 172.252 235.5 172.552C235.6 172.685 235.683 172.818 235.75 172.952L237.25 175.802C237.383 176.035 237.45 176.252 237.45 176.452C237.45 176.918 237.283 177.302 236.95 177.602C236.65 177.902 236.317 178.052 235.95 178.052ZM226.05 197.702C226.183 197.935 226.25 198.152 226.25 198.352C226.25 198.552 226.217 198.768 226.15 199.002C226.117 199.202 226.017 199.385 225.85 199.552C225.717 199.685 225.55 199.802 225.35 199.902C225.183 200.002 225 200.052 224.8 200.052C224.133 200.052 223.633 199.802 223.3 199.302C223.3 199.302 222.783 198.368 221.75 196.502C221.65 196.268 221.6 196.052 221.6 195.852C221.6 195.185 221.85 194.685 222.35 194.352C222.583 194.218 222.817 194.152 223.05 194.152C223.55 194.152 223.967 194.302 224.3 194.602C224.4 194.735 224.483 194.868 224.55 195.002L226.05 197.702ZM235.95 199.452C235.283 199.452 234.783 199.202 234.45 198.702C234.45 198.702 233.95 197.768 232.95 195.902C232.85 195.668 232.8 195.452 232.8 195.252C232.8 194.552 233.067 194.068 233.6 193.802C233.833 193.668 234.05 193.602 234.25 193.602C234.95 193.602 235.433 193.868 235.7 194.402L237.25 197.102C237.383 197.368 237.45 197.602 237.45 197.802C237.45 198.302 237.283 198.702 236.95 199.002C236.65 199.302 236.317 199.452 235.95 199.452ZM270.95 159.102C271.317 158.568 271.817 158.302 272.45 158.302C272.75 158.302 272.983 158.368 273.15 158.502C273.417 158.702 273.633 158.918 273.8 159.152C273.9 159.252 273.95 159.485 273.95 159.852C273.983 160.218 274 160.752 274 161.452V162.852C274.3 162.818 275.15 162.752 276.55 162.652C278.517 162.518 279.633 162.452 279.9 162.452C280.233 162.452 280.433 162.468 280.5 162.502C280.867 162.668 281.167 162.918 281.4 163.252C281.5 163.418 281.55 163.652 281.55 163.952C281.55 164.318 281.5 164.585 281.4 164.752C281.167 165.185 280.833 165.485 280.4 165.652C280.233 165.685 279.15 165.768 277.15 165.902C275.417 166.035 274.367 166.135 274 166.202V167.502C274.133 167.502 274.583 167.468 275.35 167.402C276.117 167.335 276.633 167.302 276.9 167.302C277.167 167.302 277.35 167.318 277.45 167.352C277.817 167.518 278.117 167.768 278.35 168.102C278.45 168.268 278.5 168.502 278.5 168.802C278.5 169.168 278.45 169.435 278.35 169.602C278.117 170.068 277.783 170.368 277.35 170.502C277.183 170.535 275.5 170.702 272.3 171.002C269.133 171.268 267.433 171.402 267.2 171.402C266.833 171.402 266.483 171.235 266.15 170.902C265.85 170.568 265.7 170.202 265.7 169.802C265.7 169.535 265.75 169.285 265.85 169.052C266.117 168.552 266.467 168.252 266.9 168.152C267.067 168.118 267.65 168.068 268.65 168.002C269.683 167.902 270.367 167.818 270.7 167.752V166.452C270.4 166.485 269.45 166.568 267.85 166.702C265.617 166.868 264.35 166.952 264.05 166.952C263.75 166.952 263.567 166.935 263.5 166.902C263.133 166.735 262.833 166.485 262.6 166.152C262.5 165.952 262.45 165.718 262.45 165.452C262.45 164.918 262.6 164.502 262.9 164.202C263.1 164.002 263.367 163.852 263.7 163.752C263.833 163.718 265 163.618 267.2 163.452C269.133 163.285 270.3 163.168 270.7 163.102V161.552L270.75 159.552C270.75 159.485 270.767 159.402 270.8 159.302C270.867 159.168 270.917 159.102 270.95 159.102ZM249.25 180.202C252.483 179.535 254.2 179.202 254.4 179.202C254.9 179.202 255.3 179.385 255.6 179.752C255.933 180.085 256.1 180.452 256.1 180.852C256.1 181.085 256.05 181.318 255.95 181.552C255.717 182.052 255.367 182.368 254.9 182.502C254.767 182.535 253.867 182.718 252.2 183.052C250.533 183.385 249.633 183.568 249.5 183.602C249.4 183.602 248.65 183.752 247.25 184.052C245.883 184.318 245.15 184.452 245.05 184.452C244.45 184.452 243.983 184.135 243.65 183.502C243.517 183.268 243.45 183.052 243.45 182.852C243.45 182.618 243.467 182.452 243.5 182.352C243.533 182.185 243.767 181.802 244.2 181.202C244.9 180.235 246.433 178.202 248.8 175.102C248.3 175.002 247.65 174.885 246.85 174.752C245.217 174.518 244.35 174.385 244.25 174.352C244.183 174.318 244.1 174.285 244 174.252C243.9 174.185 243.733 174.052 243.5 173.852C243.3 173.652 243.167 173.452 243.1 173.252C243.067 173.018 243.05 172.802 243.05 172.602C243.05 172.335 243.1 172.118 243.2 171.952C243.3 171.785 243.517 171.518 243.85 171.152C244.95 169.952 246.083 168.485 247.25 166.752C248.45 165.018 249.467 163.352 250.3 161.752C250.433 161.385 250.533 161.168 250.6 161.102C250.7 161.002 250.8 160.885 250.9 160.752C251.033 160.618 251.2 160.518 251.4 160.452C251.633 160.352 251.85 160.302 252.05 160.302C252.45 160.302 252.85 160.518 253.25 160.952C253.55 161.218 253.7 161.585 253.7 162.052C253.7 162.318 253.6 162.668 253.4 163.102C253.4 163.135 253.4 163.152 253.4 163.152C251.933 166.018 250.183 168.752 248.15 171.352C248.117 171.385 248.083 171.435 248.05 171.502C248.45 171.568 249.467 171.735 251.1 172.002C251.4 171.635 252.083 170.735 253.15 169.302C254.383 167.668 255.067 166.802 255.2 166.702C255.5 166.535 255.833 166.452 256.2 166.452C256.8 166.452 257.267 166.718 257.6 167.252C257.767 167.585 257.85 167.885 257.85 168.152C257.85 168.418 257.817 168.635 257.75 168.802C257.683 168.968 256.417 170.668 253.95 173.902C251.517 177.102 249.95 179.202 249.25 180.202ZM264.95 172.152C277.183 171.152 283.383 170.652 283.55 170.652C283.717 170.652 283.817 170.652 283.85 170.652C284.317 170.685 284.7 170.885 285 171.252C285.3 171.585 285.45 171.918 285.45 172.252C285.45 172.352 285.133 173.818 284.5 176.652C283.9 179.452 283.6 180.868 283.6 180.902C283.4 181.502 282.95 181.835 282.25 181.902C281.717 181.968 278.567 182.218 272.8 182.652C267.033 183.085 264.067 183.302 263.9 183.302C263.433 183.302 263.083 183.118 262.85 182.752C262.717 182.585 262.3 181.452 261.6 179.352C260.533 176.018 260 174.252 260 174.052C260 173.585 260.167 173.185 260.5 172.852C260.7 172.685 260.9 172.568 261.1 172.502C261.3 172.435 262.583 172.318 264.95 172.152ZM265.2 179.952C266.7 179.818 267.65 179.735 268.05 179.702V178.352C268.083 177.085 268.15 176.352 268.25 176.152C268.55 175.518 269.05 175.202 269.75 175.202C270.483 175.202 271 175.535 271.3 176.202C271.4 176.402 271.45 177.085 271.45 178.252V179.452C272.217 179.418 273.1 179.352 274.1 179.252V178.002C274.1 176.835 274.15 176.168 274.25 176.002C274.483 175.235 275 174.852 275.8 174.852C276.5 174.852 277.017 175.185 277.35 175.852C277.417 175.985 277.45 176.468 277.45 177.302C277.483 178.135 277.5 178.702 277.5 179.002C278.8 178.902 279.85 178.802 280.65 178.702C280.75 178.302 280.933 177.518 281.2 176.352C281.5 175.185 281.683 174.452 281.75 174.152C281.483 174.152 281.1 174.185 280.6 174.252C280.133 174.285 277.483 174.502 272.65 174.902C267.817 175.268 264.883 175.485 263.85 175.552C263.883 175.718 263.95 175.935 264.05 176.202C264.25 176.802 264.35 177.152 264.35 177.252C264.383 177.418 264.5 177.852 264.7 178.552C264.933 179.218 265.1 179.685 265.2 179.952ZM256.1 175.352C256.533 175.352 256.917 175.518 257.25 175.852C257.383 175.952 258.1 176.968 259.4 178.902C260.733 180.802 261.45 181.852 261.55 182.052C261.65 182.252 261.7 182.468 261.7 182.702C261.7 182.935 261.633 183.152 261.5 183.352C261.3 183.785 261 184.085 260.6 184.252C260.467 184.318 260.25 184.352 259.95 184.352C259.383 184.352 258.9 184.102 258.5 183.602C258.267 183.335 257.683 182.502 256.75 181.102C255.283 178.902 254.517 177.735 254.45 177.602C254.417 177.435 254.4 177.252 254.4 177.052C254.4 176.818 254.45 176.602 254.55 176.402C254.817 175.702 255.333 175.352 256.1 175.352ZM267.4 198.752C266.733 198.852 266.267 198.902 266 198.902C265.7 198.902 265.467 198.868 265.3 198.802C265.167 198.702 265.017 198.568 264.85 198.402C264.65 198.235 264.517 198.052 264.45 197.852C264.417 197.618 264.4 195.485 264.4 191.452C264.4 187.385 264.417 185.268 264.45 185.102C264.65 184.502 265.05 184.135 265.65 184.002C265.817 183.968 268.1 183.768 272.5 183.402C276.9 183.002 279.2 182.802 279.4 182.802C279.867 182.802 280.267 182.985 280.6 183.352C280.833 183.552 280.967 183.735 281 183.902C281.067 184.135 281.1 186.502 281.1 191.002C281.1 195.502 281.067 197.868 281 198.102C280.967 198.302 280.833 198.518 280.6 198.752C280.4 198.952 280.167 199.085 279.9 199.152H279C278.733 199.085 278.483 198.952 278.25 198.752C278.05 198.518 277.917 198.302 277.85 198.102C277.817 197.868 277.8 195.752 277.8 191.752V186.202L267.7 187.152V195.402C268.133 195.335 268.967 195.218 270.2 195.052C271.433 194.885 272.117 194.802 272.25 194.802C272.917 194.802 273.383 195.135 273.65 195.802C273.783 196.035 273.85 196.268 273.85 196.502C273.85 196.735 273.767 196.985 273.6 197.252C273.433 197.585 272.833 198.268 271.8 199.302C271.267 199.835 270.767 200.302 270.3 200.702C268.633 202.068 266.817 203.418 264.85 204.752C263.517 205.618 262.667 206.068 262.3 206.102C262.233 206.102 262.167 206.102 262.1 206.102C261.667 206.102 261.283 205.935 260.95 205.602C260.65 205.302 260.5 204.918 260.5 204.452C260.5 203.985 260.683 203.585 261.05 203.252C261.117 203.152 261.267 203.035 261.5 202.902C261.733 202.768 261.85 202.702 261.85 202.702C262.65 202.268 263.233 201.902 263.6 201.602C263.8 201.468 264.15 201.235 264.65 200.902C265.45 200.335 266.2 199.768 266.9 199.202L267.4 198.752ZM251.65 182.802C252.083 182.802 252.467 182.985 252.8 183.352C252.867 183.385 252.9 183.418 252.9 183.452C253.133 183.685 253.25 184.168 253.25 184.902C253.283 185.602 253.3 187.952 253.3 191.952V194.202C253.3 200.835 253.283 204.235 253.25 204.402C253.15 204.668 252.983 204.918 252.75 205.152C252.483 205.452 252.117 205.602 251.65 205.602C251.217 205.602 250.833 205.452 250.5 205.152C250.267 205.052 250.117 204.852 250.05 204.552C249.983 204.252 249.933 203.818 249.9 203.252C249.9 202.718 249.9 200.485 249.9 196.552V184.252C249.9 184.185 249.917 184.102 249.95 184.002L250.1 183.802C250.3 183.402 250.617 183.118 251.05 182.952C251.217 182.852 251.417 182.802 251.65 182.802ZM253.9 188.452C253.767 188.218 253.7 188.002 253.7 187.802C253.7 187.568 253.717 187.385 253.75 187.252C253.85 186.918 254.017 186.635 254.25 186.402C254.583 186.102 254.967 185.952 255.4 185.952C255.833 185.952 256.333 186.202 256.9 186.702C256.9 186.735 256.967 186.835 257.1 187.002C257.267 187.135 257.717 187.518 258.45 188.152C260.15 189.785 261.15 190.802 261.45 191.202C261.783 191.568 261.95 191.918 261.95 192.252C261.95 192.252 261.95 192.268 261.95 192.302C261.917 192.735 261.733 193.118 261.4 193.452C261.067 193.785 260.7 193.952 260.3 193.952C260.033 193.952 259.8 193.918 259.6 193.852C259.433 193.752 259.167 193.552 258.8 193.252C258.467 192.952 257.95 192.452 257.25 191.752C255.15 189.752 254.05 188.668 253.95 188.502C253.917 188.502 253.9 188.485 253.9 188.452ZM247.8 186.102C248.267 186.102 248.667 186.285 249 186.652C249.367 186.985 249.55 187.352 249.55 187.752C249.55 188.318 249.05 189.202 248.05 190.402C246.683 192.135 245.117 193.668 243.35 195.002C242.883 195.368 242.467 195.552 242.1 195.552C241.533 195.552 241.1 195.385 240.8 195.052C240.767 195.052 240.75 195.052 240.75 195.052C240.45 194.685 240.3 194.302 240.3 193.902C240.3 193.702 240.333 193.502 240.4 193.302C240.5 192.935 240.883 192.535 241.55 192.102C243.55 190.568 245.067 188.952 246.1 187.252C246.433 186.752 246.733 186.435 247 186.302C247.267 186.168 247.533 186.102 247.8 186.102ZM269.85 190.202C269.45 189.902 269.25 189.518 269.25 189.052C269.25 188.552 269.383 188.168 269.65 187.902C269.85 187.702 270.05 187.585 270.25 187.552C270.483 187.485 271.1 187.418 272.1 187.352C273.133 187.252 273.783 187.202 274.05 187.202C274.55 187.202 274.883 187.218 275.05 187.252C275.283 187.285 275.5 187.402 275.7 187.602C276 187.902 276.15 188.252 276.15 188.652C276.15 189.085 276.017 189.435 275.75 189.702C275.483 189.935 275.2 190.085 274.9 190.152C274.633 190.185 273.933 190.252 272.8 190.352C271.6 190.452 270.9 190.502 270.7 190.502C270.533 190.502 270.433 190.485 270.4 190.452C270.2 190.452 270.017 190.368 269.85 190.202ZM270.15 191.502C270.35 191.402 270.983 191.318 272.05 191.252C273.117 191.152 273.783 191.102 274.05 191.102C274.55 191.102 274.883 191.118 275.05 191.152C275.217 191.185 275.35 191.235 275.45 191.302C275.617 191.402 275.767 191.552 275.9 191.752C276.067 191.952 276.15 192.152 276.15 192.352C276.15 192.985 275.933 193.452 275.5 193.752L275.3 193.902C275.233 193.968 275.167 194.002 275.1 194.002C272.333 194.268 270.9 194.402 270.8 194.402C270.2 194.402 269.733 194.152 269.4 193.652C269.3 193.452 269.25 193.168 269.25 192.802C269.25 192.235 269.55 191.802 270.15 191.502ZM273.9 198.502C274.2 197.902 274.7 197.602 275.4 197.602C275.6 197.602 275.8 197.668 276 197.802C276.2 197.868 278.917 199.535 284.15 202.802C284.317 202.902 284.45 203.068 284.55 203.302C284.65 203.535 284.7 203.752 284.7 203.952C284.7 204.485 284.55 204.902 284.25 205.202C284.117 205.335 283.95 205.435 283.75 205.502C283.517 205.635 283.283 205.702 283.05 205.702C282.85 205.702 282.667 205.652 282.5 205.552C282.333 205.485 280.95 204.652 278.35 203.052C275.75 201.485 274.4 200.668 274.3 200.602C274.2 200.502 274.133 200.435 274.1 200.402C273.833 200.135 273.7 199.752 273.7 199.252C273.7 198.985 273.767 198.735 273.9 198.502ZM314.65 205.102C314.65 205.568 314.483 205.968 314.15 206.302C313.85 206.635 313.45 206.802 312.95 206.802C312.483 206.802 312.083 206.635 311.75 206.302C311.417 205.968 311.25 205.568 311.25 205.102V192.052C309.517 193.585 307.533 195.102 305.3 196.602C303.1 198.102 300.75 199.468 298.25 200.702C295.783 201.935 293.45 202.952 291.25 203.752C291.05 203.852 290.833 203.902 290.6 203.902C290.2 203.902 289.833 203.735 289.5 203.402C289.333 203.235 289.2 203.035 289.1 202.802C289 202.568 288.95 202.335 288.95 202.102C288.95 201.702 289.117 201.335 289.45 201.002C289.617 200.835 289.833 200.702 290.1 200.602C293.9 199.202 297.633 197.385 301.3 195.152C303.233 194.018 304.983 192.835 306.55 191.602C308.383 190.202 309.95 188.802 311.25 187.402V184.952L300.95 185.852L302.05 191.602C302.083 191.735 302.1 191.852 302.1 191.952C302.1 192.452 301.917 192.868 301.55 193.202C301.25 193.502 300.9 193.652 300.5 193.652C299.967 193.652 299.517 193.485 299.15 193.152C298.917 192.918 298.767 192.635 298.7 192.302L297.25 184.652C297.217 184.518 297.2 184.385 297.2 184.252C297.2 183.918 297.317 183.602 297.55 183.302C297.55 183.268 297.583 183.218 297.65 183.152C297.95 182.852 298.3 182.668 298.7 182.602C298.733 182.602 302.917 182.252 311.25 181.552V179.352C306.083 179.852 303.467 180.102 303.4 180.102C302.967 180.102 302.583 179.935 302.25 179.602C301.883 179.235 301.7 178.852 301.7 178.452C301.7 177.952 301.85 177.552 302.15 177.252C302.45 176.918 302.8 176.735 303.2 176.702L311.25 175.902V172.852C311.25 172.352 311.417 171.952 311.75 171.652C312.083 171.318 312.483 171.152 312.95 171.152C313.45 171.152 313.85 171.318 314.15 171.652C314.483 171.952 314.65 172.352 314.65 172.852V175.552C318.95 175.118 321.133 174.902 321.2 174.902C321.667 174.902 322.05 175.052 322.35 175.352C322.683 175.718 322.85 176.185 322.85 176.752C322.85 177.152 322.7 177.502 322.4 177.802C322.133 178.102 321.783 178.268 321.35 178.302L314.65 178.952V181.202C323.35 180.468 327.717 180.102 327.75 180.102C328.25 180.102 328.667 180.285 329 180.652C329.3 180.952 329.45 181.318 329.45 181.752C329.45 181.885 329.367 182.435 329.2 183.402C328.767 185.735 328.267 187.835 327.7 189.702C327.333 190.802 326.95 191.752 326.55 192.552C326.317 193.018 325.95 193.318 325.45 193.452C325.317 193.485 325.133 193.502 324.9 193.502C324.667 193.502 324.417 193.418 324.15 193.252L319.1 190.252C318.667 190.018 318.4 189.668 318.3 189.202C318.267 189.068 318.25 188.885 318.25 188.652C318.25 188.285 318.383 187.952 318.65 187.652C319.05 187.285 319.5 187.102 320 187.102C320.267 187.102 320.533 187.168 320.8 187.302L324.2 189.302C324.667 187.968 325.15 186.102 325.65 183.702L314.65 184.652V190.102L316.5 191.402C319 193.135 321.617 194.752 324.35 196.252C325.817 197.052 327.15 197.685 328.35 198.152C330.017 198.752 332.25 199.335 335.05 199.902L336.4 200.152C336.867 200.252 337.233 200.502 337.5 200.902C337.7 201.168 337.8 201.468 337.8 201.802C337.8 202.435 337.567 202.902 337.1 203.202C336.767 203.435 336.4 203.552 336 203.552C335.867 203.552 335.733 203.535 335.6 203.502C335.5 203.468 335.017 203.368 334.15 203.202C331.383 202.635 329.15 202.052 327.45 201.452C325.783 200.818 324.117 200.035 322.45 199.102C320.05 197.768 317.45 196.152 314.65 194.252V205.102ZM326.6 174.752C326 174.752 325.533 174.502 325.2 174.002C325.2 174.002 323.917 172.152 321.35 168.452C321.117 168.118 321 167.818 321 167.552C321 167.018 321.183 166.585 321.55 166.252C321.783 166.018 322.067 165.852 322.4 165.752C322.4 165.752 325.817 165.152 332.65 163.952C332.783 163.918 332.917 163.902 333.05 163.902C333.517 163.902 333.883 164.052 334.15 164.352C334.517 164.685 334.7 165.118 334.7 165.652C334.7 166.118 334.55 166.502 334.25 166.802C333.983 167.068 333.667 167.235 333.3 167.302L325.65 168.652L327.95 172.052C328.183 172.318 328.3 172.618 328.3 172.952C328.3 173.585 328.05 174.068 327.55 174.402C327.25 174.635 326.933 174.752 326.6 174.752ZM307.55 174.252C307.55 174.718 307.383 175.118 307.05 175.452C306.717 175.785 306.35 175.952 305.95 175.952C305.25 175.952 304.717 175.685 304.35 175.152L300.8 169.652C300.567 169.352 300.45 169.068 300.45 168.802C300.45 168.502 300.517 168.252 300.65 168.052C300.717 167.818 300.85 167.618 301.05 167.452C301.25 167.252 301.533 167.102 301.9 167.002C301.9 167.002 304.983 166.452 311.15 165.352C311.283 165.318 311.4 165.302 311.5 165.302C311.967 165.302 312.35 165.452 312.65 165.752C313.017 166.118 313.2 166.568 313.2 167.102C313.2 167.568 313.05 167.952 312.75 168.252C312.483 168.518 312.167 168.685 311.8 168.752L305.05 169.952L307.25 173.302C307.45 173.602 307.55 173.918 307.55 174.252ZM292.95 175.002C292.35 175.002 291.883 174.768 291.55 174.302C291.317 174.035 291.2 173.718 291.2 173.352C291.2 172.718 291.45 172.252 291.95 171.952C293.217 171.018 294.4 169.935 295.5 168.702C296.6 167.435 297.55 166.152 298.35 164.852C299.183 163.518 299.8 162.318 300.2 161.252C300.367 160.785 300.667 160.468 301.1 160.302C301.3 160.202 301.517 160.152 301.75 160.152C302.25 160.152 302.667 160.318 303 160.652C303.333 160.985 303.5 161.385 303.5 161.852C303.5 162.085 303.45 162.302 303.35 162.502C302.917 163.702 302.233 165.035 301.3 166.502C300.4 167.968 299.317 169.435 298.05 170.902C296.817 172.335 295.45 173.585 293.95 174.652C293.65 174.885 293.317 175.002 292.95 175.002ZM323.75 161.752C323.35 162.685 322.767 163.768 322 165.002C321.267 166.235 320.417 167.485 319.45 168.752C318.417 169.985 317.283 171.118 316.05 172.152C315.717 172.418 315.367 172.552 315 172.552C314.467 172.552 314.017 172.352 313.65 171.952C313.383 171.618 313.25 171.252 313.25 170.852C313.25 170.318 313.45 169.868 313.85 169.502C314.883 168.702 315.833 167.768 316.7 166.702C317.6 165.602 318.383 164.502 319.05 163.402C319.717 162.302 320.233 161.302 320.6 160.402C320.667 160.202 320.783 160.018 320.95 159.852C321.317 159.485 321.717 159.302 322.15 159.302C322.383 159.302 322.617 159.368 322.85 159.502C323.283 159.668 323.583 159.968 323.75 160.402C323.85 160.602 323.9 160.818 323.9 161.052C323.9 161.285 323.85 161.518 323.75 161.752ZM345.35 186.702C344.917 186.702 344.567 186.568 344.3 186.302C343.933 185.935 343.75 185.568 343.75 185.202C343.75 184.702 343.883 184.318 344.15 184.052C344.45 183.752 344.767 183.585 345.1 183.552L352.25 182.552V181.302C350.05 181.602 348.917 181.752 348.85 181.752C348.417 181.752 348.033 181.585 347.7 181.252C347.467 181.052 347.317 180.785 347.25 180.452C347.25 180.385 347.25 180.285 347.25 180.152C347.25 179.685 347.367 179.335 347.6 179.102C347.867 178.835 348.217 178.668 348.65 178.602L352.25 178.102V176.902C348.483 177.368 346.567 177.602 346.5 177.602C346.1 177.602 345.767 177.468 345.5 177.202C345.233 176.902 345.05 176.585 344.95 176.252C344.95 176.185 344.95 176.102 344.95 176.002C344.95 175.568 345.083 175.218 345.35 174.952C345.617 174.652 345.95 174.485 346.35 174.452L352.25 173.702V172.352C343.983 173.318 339.817 173.802 339.75 173.802C339.317 173.802 338.967 173.668 338.7 173.402C338.367 173.068 338.2 172.685 338.2 172.252C338.2 171.785 338.333 171.418 338.6 171.152C338.867 170.852 339.2 170.685 339.6 170.652L352.25 169.202V168.152C348.55 168.618 346.667 168.852 346.6 168.852C346.2 168.852 345.867 168.718 345.6 168.452C345.233 168.085 345.05 167.718 345.05 167.352C345.05 166.852 345.183 166.468 345.45 166.202C345.75 165.902 346.083 165.735 346.45 165.702L352.25 164.952V161.752C352.25 161.285 352.4 160.902 352.7 160.602C353 160.302 353.367 160.152 353.8 160.152C354.267 160.152 354.65 160.318 354.95 160.652C355.283 160.952 355.45 161.318 355.45 161.752V164.602C359.95 164.035 362.233 163.752 362.3 163.752C362.7 163.752 363.067 163.918 363.4 164.252C363.667 164.552 363.8 164.902 363.8 165.302C363.8 165.368 363.683 166.235 363.45 167.902C366.05 167.602 367.383 167.452 367.45 167.452C367.883 167.452 368.233 167.585 368.5 167.852C368.867 168.218 369.05 168.652 369.05 169.152C369.05 169.518 368.9 169.852 368.6 170.152C368.333 170.418 368 170.568 367.6 170.602L362.9 171.152L362.35 174.552C362.283 174.918 362.133 175.218 361.9 175.452C361.667 175.685 361.35 175.818 360.95 175.852L355.45 176.502V177.702C357.75 177.368 358.933 177.202 359 177.202C359.367 177.202 359.683 177.352 359.95 177.652C360.317 177.985 360.5 178.402 360.5 178.902C360.5 179.268 360.35 179.585 360.05 179.852C359.75 180.185 359.433 180.368 359.1 180.402L355.45 180.902V182.152C359.483 181.552 361.55 181.252 361.65 181.252C362.083 181.252 362.433 181.385 362.7 181.652C363.067 181.985 363.25 182.418 363.25 182.952C363.25 183.285 363.1 183.585 362.8 183.852C362.5 184.152 362.183 184.335 361.85 184.402L345.5 186.702C345.467 186.702 345.417 186.702 345.35 186.702ZM348.3 198.652C347.867 198.652 347.483 198.485 347.15 198.152C346.95 197.952 346.817 197.768 346.75 197.602L344.35 190.052C344.317 189.885 344.3 189.702 344.3 189.502C344.3 189.268 344.367 189.018 344.5 188.752C344.533 188.685 344.617 188.585 344.75 188.452C345.017 188.185 345.317 188.035 345.65 188.002L361.05 185.802C361.15 185.802 361.25 185.802 361.35 185.802C361.783 185.802 362.133 185.968 362.4 186.302C362.7 186.602 362.85 186.952 362.85 187.352C362.85 187.452 362.85 187.552 362.85 187.652L361.35 195.452C361.283 195.818 361.133 196.118 360.9 196.352C360.7 196.552 360.417 196.685 360.05 196.752L348.45 198.652C348.417 198.652 348.367 198.652 348.3 198.652ZM376.5 162.202C376.5 161.735 376.65 161.352 376.95 161.052C377.283 160.718 377.683 160.552 378.15 160.552C378.617 160.552 379 160.718 379.3 161.052C379.633 161.352 379.8 161.735 379.8 162.202V204.602C379.8 205.168 379.55 205.618 379.05 205.952C378.783 206.152 378.517 206.252 378.25 206.252C377.983 206.252 377.75 206.202 377.55 206.102L367.2 202.052C366.767 201.918 366.467 201.652 366.3 201.252C366.2 201.018 366.15 200.785 366.15 200.552C366.15 200.085 366.3 199.702 366.6 199.402C366.933 199.068 367.317 198.902 367.75 198.902C367.95 198.902 368.15 198.952 368.35 199.052L376.5 202.202V162.202ZM342.8 205.252C342.733 205.285 342.6 205.302 342.4 205.302C342.2 205.302 342 205.235 341.8 205.102C341.633 205.002 341.467 204.885 341.3 204.752C341.033 204.485 340.9 204.185 340.9 203.852C340.9 203.318 341.067 202.885 341.4 202.552C341.6 202.352 341.833 202.218 342.1 202.152L362.75 196.652C362.883 196.618 363.05 196.602 363.25 196.602C363.45 196.602 363.65 196.668 363.85 196.802C364.05 196.902 364.217 197.018 364.35 197.152C364.617 197.385 364.75 197.685 364.75 198.052C364.75 198.618 364.583 199.052 364.25 199.352C364.05 199.552 363.817 199.685 363.55 199.752L342.8 205.252ZM369.45 188.102C369.15 188.402 368.767 188.552 368.3 188.552C367.833 188.552 367.433 188.402 367.1 188.102C366.8 187.768 366.65 187.368 366.65 186.902V173.652C366.65 173.185 366.8 172.802 367.1 172.502C367.433 172.168 367.833 172.002 368.3 172.002C368.767 172.002 369.15 172.168 369.45 172.502C369.783 172.802 369.95 173.185 369.95 173.652V186.902C369.95 187.368 369.783 187.768 369.45 188.102ZM356.05 190.452C356.417 190.452 356.733 190.585 357 190.852C357.333 191.185 357.5 191.585 357.5 192.052C357.5 192.452 357.367 192.768 357.1 193.002C356.833 193.268 356.533 193.435 356.2 193.502L355.35 193.652V194.302L358.45 193.802L359.3 189.252L355.35 189.802V190.552C355.75 190.485 355.983 190.452 356.05 190.452ZM351.15 194.352C350.717 194.352 350.35 194.202 350.05 193.902C349.75 193.602 349.6 193.268 349.6 192.902C349.6 192.402 349.75 192.002 350.05 191.702C350.283 191.468 350.567 191.335 350.9 191.302L352.3 191.052V190.252L347.95 190.852L349.35 195.302L352.3 194.802V194.202C351.633 194.302 351.25 194.352 351.15 194.352ZM355.45 167.752V168.802L360.15 168.302L360.35 167.152L355.45 167.752ZM355.45 172.002V173.352L359.4 172.852L359.6 171.502L355.45 172.002Z" fill="#0082C5"/>
<path d="M460.5 161.573C459.7 163.173 457.833 164.24 457 164.573H456M460.5 161.573C459.7 161.573 454.5 156.24 452 153.573M460.5 161.573C464.167 158.073 472.8 150.073 478 146.073M452 153.573C450.8 153.573 449.5 155.573 449 156.573V159.073C449 159.473 442.333 164.907 439 167.573C438.6 169.573 434.833 177.073 433 180.573C435.667 178.907 442.1 175.373 446.5 174.573C448.667 171.907 453.4 166.173 455 164.573H456M452 153.573C452.4 152.373 456.5 148.073 458.5 146.073C460.9 144.473 465.167 138.407 467 135.573C467.09 135.741 467.184 135.908 467.28 136.073M478 146.073C475.581 144.783 470.165 141.027 467.28 136.073M478 146.073C478.5 146.073 479.6 145.873 480 145.073M480 145.073C493.5 131.407 520.8 103.573 522 101.573M480 145.073C475.682 141.54 470.69 135.792 468.615 133.216M522 101.573L511 91.0733M522 101.573C523.257 102.773 523.857 102.74 524 102.573L529 97.0733C526.6 94.2733 519 87.5733 515.5 84.5733L511 89.5733C510.833 89.9066 510.6 90.6733 511 91.0733M511 91.0733C508.6 92.2733 481.667 119.573 468.5 133.073C468.537 133.12 468.575 133.168 468.615 133.216M522 100.573L526.5 96.0733M519.5 98.0733L524 93.5733M518.5 97.0733L523 92.5733M518 95.5733L522 91.5733M515.5 94.0733L519.5 89.5733M449 158.573C449.667 159.74 452.4 162.573 456 164.573M516 84.5733C524 75.4066 543.8 53.9733 559 41.5733C560.667 39.9066 564.9 36.4733 568.5 36.0733C570.5 35.74 574.6 36.3733 575 41.5733C575 43.0733 574.3 46.9733 571.5 50.5733M571.5 50.5733C571.082 51.1401 570.582 51.8008 570 52.5496M571.5 50.5733C570.812 49.8229 570.115 49.0953 569.422 48.3966M529 96.5733C549.76 76.9062 564.081 60.1684 570 52.5496M560.5 40.5733C562.047 41.6982 565.681 44.6262 569.422 48.3966M570 52.5496C569.5 51.7241 568.4 50.0733 568 50.0733M561.5 44.0733C560.87 43.4066 559.488 42.0733 559 42.0733M563 43.0733L561 44.5733M561 44.5733C562.5 45.24 565.9 47.2733 567.5 50.0733M561 44.5733C560.333 44.4066 559 44.6733 559 47.0733C559.153 47.1345 559.321 47.2072 559.5 47.291M567.5 50.0733C568.115 49.6222 569.36 48.6552 569.422 48.3966M567.5 50.0733C567.9 52.4733 565.667 52.74 564.5 52.5733M564.5 52.5733C564.137 50.0304 561.272 48.1198 559.5 47.291M564.5 52.5733C555.167 61.4066 536.4 79.3733 536 80.5733C534.667 82.4066 531.8 86.1733 531 86.5733C530.5 86.74 529.4 86.8733 529 86.0733L527 84.0733C526.833 83.4066 526.7 81.9733 527.5 81.5733C529.461 80.1047 533.405 77.1487 533.5 77.0733C534.7 76.2733 551.333 56.8851 559.5 47.291M467.28 136.073C467.43 135.002 467.907 132.931 468.615 133.216M465 156.573C464 155.907 461.9 154.373 461.5 153.573M466 155.573C465 154.907 462.9 153.373 462.5 152.573M467 154.573C466 153.907 463.9 152.373 463.5 151.573M468 153.573C467 152.907 464.9 151.373 464.5 150.573M469 152.573C468 151.907 465.9 150.373 465.5 149.573M470 151.573C469 150.907 466.9 149.373 466.5 148.573M471 150.573C470 149.907 467.9 148.373 467.5 147.573M472.115 149.573C471.115 148.907 469.015 147.373 468.615 146.573" stroke="black"/>
<circle cx="442" cy="170.573" r="1" fill="black"/>
</svg>
