<svg width="576" height="362" viewBox="0 0 576 362" fill="none" xmlns="http://www.w3.org/2000/svg">
<path d="M500.998 28.2037L503.498 26.2037C506.298 24.2037 508.665 25.3704 509.498 26.2037L575.498 284.204C575.098 289.404 568.998 293.704 565.998 295.204L453.498 326.204L357.498 349.704L310.998 358.204L304.498 361.204H290.498H269.998L259.498 358.204L249.998 349.704L248.498 348.704L166.998 350.704H6.4984C3.9984 350.37 -0.501601 348.504 1.4984 343.704L24.4984 276.204L44.4984 211.704L64.4984 146.704M500.998 28.2037L484.998 12.2037M500.998 28.2037L504.998 32.2037L565.998 281.704V287.204L371.498 340.704L310.998 352.704L290.498 349.704L286.998 347.204L275.498 349.704L265.998 352.704C263.665 351.87 257.798 348.704 252.998 342.704C217.332 342.537 131.098 342.704 71.4984 344.704C58.1651 344.87 26.8984 344.704 8.4984 342.704L40.9984 236.704C43.3317 229.37 51.2984 201.104 64.4984 146.704M484.998 12.2037L471.498 16.2037M484.998 12.2037L544.498 269.704L382.498 316.704C378.218 317.067 374.048 317.464 369.998 317.887M64.4984 146.704L93.9984 23.2037C94.1651 22.037 95.3984 20.1037 98.9984 21.7037C112.832 27.3704 147.698 40.3037 176.498 46.7037C196.332 50.037 246.498 63.4037 288.498 90.2037C286.832 83.537 291.598 66.2037 323.998 50.2037C337.665 43.2037 372.898 27.5037 404.498 20.7037C410.665 18.8704 431.198 12.4037 463.998 1.2037C465.165 0.87037 467.698 0.703704 468.498 2.7037L471.498 16.2037M64.4984 146.704L37.4984 265.204C51.6651 270.37 90.4984 282.804 132.498 291.204C149.332 294.537 186.898 302.404 202.498 307.204C221.832 312.204 265.298 326.104 284.498 341.704H285.998C286.165 338.87 288.798 332.604 297.998 330.204C307.438 327.507 333.933 321.657 369.998 317.887M471.498 16.2037L535.998 265.204C536.398 266.404 534.832 267.37 533.998 267.704L369.998 317.887" stroke="black"/>
<path d="M285.999 341.204C289.999 344.704 301.199 351.704 313.999 351.704M285.999 341.204C285.347 341.557 284.679 341.892 283.999 342.21M285.999 341.204C287.037 290.67 286.249 249.982 286.5 213.5M288.499 89.7036C288.263 105.48 287.848 123.721 287.449 144.5C287.449 144.5 287.673 141.688 287.449 156.5M257.999 347.704C262.97 347.704 274.66 346.574 283.999 342.21M38.9985 266.704L31.9985 286.204C70.3319 290.037 151.499 298.704 169.499 302.704M169.499 302.704C176.332 304.037 192.499 307.504 202.499 310.704C208.236 312.042 216.561 314.263 225.999 317.209M169.499 302.704L153.999 300.704C141.599 299.104 102.832 295.037 84.9985 293.204C65.7985 291.204 42.3319 289.037 32.9985 288.204V286.704M283.999 342.21C268.02 331.827 244.8 323.078 225.999 317.209M33.4985 288.704L32.4985 290.704C36.4985 290.87 58.6985 292.504 115.499 297.704C130.665 298.707 173.999 304.013 225.999 317.209" stroke="black"/>
<path d="M34.9985 291.704V292.704C35.4899 292.74 35.99 292.777 36.4985 292.815M150.999 302.204C134.067 300.235 68.5861 295.197 36.4985 292.815M36.4985 292.815V294.704C36.7449 294.716 36.9931 294.728 37.2433 294.74M32.4985 291.704L30.9985 294.704M30.9985 294.704L37.2433 294.74M30.9985 294.704V296.204C53.7859 297.202 90.8323 299.469 127.999 303.032M37.2433 294.74C74.8282 296.604 156.161 302.869 210.398 314.123M31.4985 296.704L30.4985 297.704M127.999 303.032L30.4985 298.704V297.704M127.999 303.032C141.194 304.297 154.405 305.725 166.999 307.317M30.4985 297.704L30.9985 299.204L28.4985 300.704C29.3141 300.725 30.1478 300.748 30.9985 300.771M166.999 307.317C152.891 304.664 72.0451 301.894 30.9985 300.771M166.999 307.317C182.868 309.324 197.757 311.592 210.398 314.123M30.9985 300.771L28.4985 303.032C75.9318 303.702 178.718 306.858 210.398 314.123M210.398 314.123C216.093 315.263 221.332 316.456 225.999 317.704C221.127 316.458 215.902 315.265 210.398 314.123ZM29.9985 304.204V305.704C30.1641 305.701 30.3308 305.699 30.4985 305.697M228.499 318.204C210.622 315.293 191.165 313.018 171.499 311.252M281.499 342.704C274.007 338.066 256.894 329.61 235.499 323.693M30.4985 305.697L29.4985 306.7M30.4985 305.697C58.4433 305.344 115.812 306.253 171.499 311.252M29.4985 306.7L28.4985 307.704L27.4985 308.704L104.499 310.704C150.899 312.304 192.832 316.37 207.999 318.204C217.625 319.35 226.907 321.317 235.499 323.693M29.4985 306.7C55.3319 307.401 119.899 309.292 171.499 311.252M27.9985 309.204V310.704C63.8185 310.395 146.759 312.11 214.999 320.791M235.499 323.693C228.865 322.648 222.009 321.683 214.999 320.791M28.4985 311.204L26.9985 313.704C27.4818 313.68 27.9819 313.656 28.4985 313.633M214.999 320.791C128.252 312.225 55.5971 312.418 28.4985 313.633M28.4985 313.633L18.9985 330.204C19.6313 330.224 20.2987 330.244 20.9985 330.264M216.999 330.204C210.215 329.204 202.778 328.487 194.999 327.997M20.9985 330.264C37.812 330.757 73.3416 331.356 95.9985 330.204C116.125 328.287 159.196 325.74 194.999 327.997M20.9985 330.264L18.9985 333.204C20.0911 333.228 21.2634 333.253 22.4985 333.28M194.999 327.997C177.399 326.231 121.665 329.732 95.9985 331.704C75.9985 334.742 66.4985 334.204 65.4985 334.204C64.7562 334.204 38.4099 333.63 22.4985 333.28M22.4985 333.28L20.9985 340.204C21.4606 340.188 21.961 340.171 22.4985 340.152M216.999 333.28L196.499 331.704C168.099 330.442 115.999 334.178 93.4985 336.204C61.4257 338.495 33.7871 339.753 22.4985 340.152M22.4985 340.152L20.9985 342.704C39.9985 341.704 82.1985 339.504 98.9985 338.704C123.999 336.704 184.899 333.704 228.499 337.704M98.9985 342.704C104.499 342.704 164.499 338.704 244.499 340.204M25.4985 327.204C27.9985 327.204 62.9985 328.704 103.499 327.204L170.499 324.704M29.4985 323.704C34.9985 323.704 74.9985 326.204 113.499 323.704M29.4985 318.704C31.4985 318.704 84.9985 315.704 145.499 318.704M29.9985 320.704C36.4985 320.204 177.999 320.704 192.999 322.704" stroke="black"/>
<path d="M231.8 205.952L223.1 202.302C222.767 202.168 222.533 201.952 222.4 201.652C222.267 201.318 222.267 201.002 222.4 200.702C222.567 200.368 222.8 200.135 223.1 200.002C223.4 199.868 223.717 199.868 224.05 200.002L231 202.902V163.402L220.6 164.552V173.602L227.55 172.702C227.883 172.635 228.183 172.718 228.45 172.952C228.75 173.152 228.917 173.435 228.95 173.802C229.017 174.135 228.933 174.435 228.7 174.702C228.5 174.968 228.217 175.135 227.85 175.202L219.5 176.302C219.133 176.368 218.8 176.268 218.5 176.002C218.233 175.735 218.1 175.418 218.1 175.052V163.402C218.1 163.102 218.2 162.835 218.4 162.602C218.6 162.335 218.867 162.185 219.2 162.152L232.15 160.752C232.517 160.685 232.833 160.785 233.1 161.052C233.4 161.285 233.55 161.602 233.55 162.002V204.752C233.55 205.252 233.367 205.602 233 205.802C232.633 206.068 232.233 206.118 231.8 205.952ZM197.6 205.452C197.267 205.452 196.967 205.318 196.7 205.052C196.433 204.818 196.3 204.535 196.3 204.202V165.952C196.3 165.318 196.633 164.918 197.3 164.752L208.45 161.952C208.883 161.852 209.25 161.918 209.55 162.152C209.883 162.418 210.05 162.752 210.05 163.152V175.302C210.05 175.935 209.733 176.335 209.1 176.502L202.15 178.402C201.817 178.502 201.5 178.468 201.2 178.302C200.9 178.102 200.7 177.835 200.6 177.502C200.533 177.168 200.583 176.852 200.75 176.552C200.917 176.252 201.167 176.052 201.5 175.952L207.5 174.352V164.752L198.85 166.952V170.202L204.2 168.752C204.567 168.685 204.883 168.735 205.15 168.902C205.45 169.068 205.65 169.318 205.75 169.652C205.85 169.985 205.817 170.302 205.65 170.602C205.483 170.902 205.217 171.102 204.85 171.202L198.85 172.802V204.202C198.85 204.535 198.733 204.818 198.5 205.052C198.267 205.318 197.967 205.452 197.6 205.452ZM218.2 203.902C217.867 203.902 217.567 203.768 217.3 203.502C217.067 203.235 216.95 202.935 216.95 202.602V190.252L212.45 190.752C211.583 195.152 209.183 198.368 205.25 200.402C204.95 200.568 204.633 200.602 204.3 200.502C203.967 200.402 203.717 200.202 203.55 199.902C203.417 199.568 203.4 199.235 203.5 198.902C203.6 198.568 203.8 198.335 204.1 198.202C207.133 196.602 209.033 194.218 209.8 191.052L204.15 191.702C203.817 191.735 203.517 191.652 203.25 191.452C202.983 191.218 202.817 190.935 202.75 190.602C202.717 190.268 202.8 189.968 203 189.702C203.233 189.402 203.517 189.235 203.85 189.202L210.25 188.502C210.283 188.035 210.3 187.568 210.3 187.102C210.333 186.635 210.333 186.135 210.3 185.602C210.267 185.268 210.367 184.985 210.6 184.752C210.867 184.485 211.167 184.335 211.5 184.302C211.867 184.268 212.167 184.368 212.4 184.602C212.633 184.835 212.767 185.135 212.8 185.502C212.867 186.435 212.867 187.335 212.8 188.202L216.95 187.702V184.552C216.95 184.185 217.067 183.885 217.3 183.652C217.567 183.385 217.867 183.252 218.2 183.252C218.567 183.252 218.867 183.385 219.1 183.652C219.367 183.885 219.5 184.185 219.5 184.552V187.402L225.55 186.702C225.917 186.635 226.233 186.718 226.5 186.952C226.767 187.152 226.917 187.435 226.95 187.802C227.017 188.135 226.933 188.452 226.7 188.752C226.5 189.018 226.217 189.168 225.85 189.202L219.5 189.952V202.602C219.5 202.935 219.367 203.235 219.1 203.502C218.867 203.768 218.567 203.902 218.2 203.902ZM208.35 183.602C208.017 183.635 207.7 183.552 207.4 183.352C207.133 183.152 206.967 182.885 206.9 182.552C206.867 182.185 206.95 181.868 207.15 181.602C207.383 181.302 207.667 181.135 208 181.102L220.6 179.352C220.967 179.285 221.283 179.352 221.55 179.552C221.85 179.752 222.017 180.035 222.05 180.402C222.117 180.735 222.033 181.052 221.8 181.352C221.6 181.618 221.317 181.785 220.95 181.852L208.35 183.602ZM223.3 169.702C222.967 169.735 222.667 169.652 222.4 169.452C222.133 169.218 221.967 168.935 221.9 168.602C221.867 168.235 221.95 167.918 222.15 167.652C222.383 167.385 222.667 167.235 223 167.202L227.5 166.702C227.867 166.635 228.183 166.718 228.45 166.952C228.717 167.152 228.867 167.435 228.9 167.802C228.967 168.135 228.883 168.435 228.65 168.702C228.45 168.968 228.167 169.135 227.8 169.202L223.3 169.702ZM270.3 204.552C270 204.585 269.717 204.518 269.45 204.352C269.217 204.185 269.05 203.968 268.95 203.702L265.05 191.652C264.883 191.285 264.917 190.935 265.15 190.602C265.383 190.268 265.683 190.068 266.05 190.002L282.25 187.752C282.65 187.718 283.017 187.835 283.35 188.102C283.617 188.435 283.733 188.802 283.7 189.202L281.75 202.202C281.617 202.835 281.25 203.185 280.65 203.252L270.3 204.552ZM246.15 201.402C245.85 201.568 245.533 201.602 245.2 201.502C244.867 201.402 244.617 201.202 244.45 200.902C244.283 200.602 244.233 200.285 244.3 199.952C244.4 199.618 244.617 199.368 244.95 199.202C248.683 197.135 251.533 194.418 253.5 191.052C251.667 189.318 249.733 187.785 247.7 186.452C247.433 186.285 247.25 186.052 247.15 185.752C247.083 185.418 247.117 185.118 247.25 184.852C247.55 184.218 247.833 183.552 248.1 182.852C248.367 182.152 248.617 181.435 248.85 180.702L241.15 182.952C240.817 183.052 240.5 183.018 240.2 182.852C239.9 182.685 239.7 182.435 239.6 182.102C239.5 181.768 239.533 181.452 239.7 181.152C239.867 180.852 240.117 180.652 240.45 180.552L249.65 177.852C250.317 175.185 250.817 172.435 251.15 169.602C251.517 166.768 251.717 164.218 251.75 161.952C251.75 161.618 251.867 161.335 252.1 161.102C252.367 160.835 252.667 160.702 253 160.702C253.367 160.735 253.667 160.868 253.9 161.102C254.167 161.335 254.283 161.635 254.25 162.002C254.25 164.135 254.083 166.535 253.75 169.202C253.45 171.835 253.017 174.452 252.45 177.052L261.4 174.402C261.733 174.302 262.05 174.335 262.35 174.502C262.65 174.668 262.85 174.918 262.95 175.252C263.05 175.585 263.017 175.918 262.85 176.252C262.683 176.552 262.433 176.735 262.1 176.802L251.7 179.852C251.467 180.785 251.2 181.685 250.9 182.552C250.6 183.385 250.283 184.185 249.95 184.952C250.783 185.485 251.6 186.085 252.4 186.752C253.2 187.385 253.967 188.035 254.7 188.702C255.7 186.502 256.3 184.085 256.5 181.452C256.533 181.085 256.683 180.785 256.95 180.552C257.217 180.318 257.517 180.218 257.85 180.252C258.183 180.285 258.467 180.435 258.7 180.702C258.933 180.968 259.033 181.268 259 181.602C258.767 184.802 257.983 187.802 256.65 190.602C258.983 193.068 260.867 195.585 262.3 198.152C262.467 198.452 262.5 198.768 262.4 199.102C262.333 199.435 262.133 199.685 261.8 199.852C261.5 200.018 261.183 200.052 260.85 199.952C260.517 199.852 260.267 199.652 260.1 199.352C258.867 197.118 257.283 194.968 255.35 192.902C253.117 196.435 250.05 199.268 246.15 201.402ZM271.05 201.902L279.4 200.852L280.95 190.502L267.9 192.302L271.05 201.902ZM263.5 183.852C262.867 184.018 262.4 183.818 262.1 183.252C261.967 183.018 261.917 182.768 261.95 182.502C261.983 182.202 262.1 181.952 262.3 181.752C263.9 180.085 265.35 178.135 266.65 175.902C267.983 173.635 269.117 171.318 270.05 168.952C271.017 166.552 271.75 164.335 272.25 162.302C272.317 161.968 272.5 161.718 272.8 161.552C273.1 161.352 273.417 161.285 273.75 161.352C274.083 161.452 274.333 161.652 274.5 161.952C274.7 162.218 274.767 162.535 274.7 162.902C274.267 164.668 273.667 166.585 272.9 168.652C272.133 170.718 271.217 172.785 270.15 174.852C269.083 176.885 267.883 178.785 266.55 180.552L277.9 177.952C278.233 177.885 278.55 177.935 278.85 178.102C279.15 178.268 279.333 178.535 279.4 178.902C279.467 179.235 279.4 179.552 279.2 179.852C279.033 180.152 278.783 180.335 278.45 180.402L263.5 183.852ZM287.05 182.252C286.817 182.485 286.517 182.602 286.15 182.602C285.817 182.568 285.517 182.435 285.25 182.202L276.85 173.452C276.617 173.185 276.5 172.885 276.5 172.552C276.5 172.185 276.617 171.885 276.85 171.652C277.117 171.418 277.417 171.302 277.75 171.302C278.117 171.302 278.417 171.435 278.65 171.702L287.05 180.452C287.317 180.718 287.45 181.018 287.45 181.352C287.45 181.685 287.317 181.985 287.05 182.252ZM312.95 206.352C312.617 206.352 312.317 206.218 312.05 205.952C311.817 205.718 311.7 205.435 311.7 205.102V191.002C309.8 192.802 307.667 194.502 305.3 196.102C302.933 197.668 300.517 199.068 298.05 200.302C295.583 201.535 293.267 202.552 291.1 203.352C290.767 203.485 290.45 203.468 290.15 203.302C289.85 203.168 289.633 202.935 289.5 202.602C289.367 202.268 289.367 201.952 289.5 201.652C289.667 201.352 289.917 201.135 290.25 201.002C291.983 200.368 293.817 199.602 295.75 198.702C297.683 197.768 299.617 196.718 301.55 195.552C303.483 194.385 305.317 193.135 307.05 191.802C308.817 190.435 310.367 189.035 311.7 187.602V184.452L300.4 185.452L301.6 191.702C301.667 192.035 301.6 192.352 301.4 192.652C301.233 192.952 300.967 193.135 300.6 193.202C300.267 193.235 299.95 193.168 299.65 193.002C299.383 192.802 299.217 192.535 299.15 192.202L297.7 184.552C297.6 184.218 297.667 183.885 297.9 183.552C298.133 183.285 298.433 183.118 298.8 183.052L311.7 181.952V178.852L303.55 179.652C303.217 179.685 302.9 179.585 302.6 179.352C302.333 179.118 302.183 178.835 302.15 178.502C302.117 178.168 302.2 177.868 302.4 177.602C302.633 177.335 302.917 177.185 303.25 177.152L311.7 176.302V172.852C311.7 172.485 311.817 172.185 312.05 171.952C312.317 171.718 312.617 171.602 312.95 171.602C313.317 171.602 313.617 171.718 313.85 171.952C314.083 172.185 314.2 172.485 314.2 172.852V176.052L321.05 175.352C321.417 175.318 321.717 175.418 321.95 175.652C322.217 175.852 322.367 176.135 322.4 176.502C322.467 176.835 322.383 177.135 322.15 177.402C321.95 177.668 321.667 177.818 321.3 177.852L314.2 178.552V181.702L327.65 180.552C328.05 180.518 328.4 180.652 328.7 180.952C328.967 181.252 329.067 181.602 329 182.002C328.967 182.202 328.867 182.702 328.7 183.502C328.567 184.302 328.367 185.252 328.1 186.352C327.867 187.418 327.583 188.502 327.25 189.602C326.917 190.668 326.55 191.585 326.15 192.352C325.983 192.685 325.717 192.902 325.35 193.002C325.017 193.102 324.7 193.052 324.4 192.852L319.3 189.852C319 189.685 318.8 189.435 318.7 189.102C318.633 188.768 318.683 188.452 318.85 188.152C319.05 187.852 319.317 187.668 319.65 187.602C319.983 187.502 320.3 187.535 320.6 187.702L324.45 189.952C324.817 188.985 325.15 187.885 325.45 186.652C325.75 185.385 326 184.235 326.2 183.202L314.2 184.252V190.352C314.533 190.585 315.2 191.052 316.2 191.752C317.233 192.452 318.433 193.235 319.8 194.102C321.2 194.968 322.633 195.818 324.1 196.652C325.6 197.452 326.967 198.085 328.2 198.552C329.3 198.952 330.467 199.302 331.7 199.602C332.967 199.902 334.05 200.152 334.95 200.352C335.85 200.518 336.3 200.602 336.3 200.602C336.667 200.668 336.933 200.852 337.1 201.152C337.3 201.418 337.367 201.718 337.3 202.052C337.267 202.385 337.1 202.652 336.8 202.852C336.533 203.052 336.217 203.135 335.85 203.102C335.783 203.068 335.283 202.952 334.35 202.752C333.417 202.585 332.3 202.352 331 202.052C329.7 201.718 328.467 201.335 327.3 200.902C325.867 200.368 324.317 199.635 322.65 198.702C320.983 197.768 319.4 196.818 317.9 195.852C316.4 194.885 315.167 194.068 314.2 193.402V205.102C314.2 205.435 314.083 205.718 313.85 205.952C313.617 206.218 313.317 206.352 312.95 206.352ZM327.3 174.052C327 174.252 326.683 174.318 326.35 174.252C326.017 174.185 325.75 174.018 325.55 173.752L321.7 168.202C321.433 167.802 321.383 167.402 321.55 167.002C321.75 166.568 322.067 166.302 322.5 166.202L332.75 164.402C333.117 164.335 333.433 164.402 333.7 164.602C334 164.768 334.167 165.035 334.2 165.402C334.267 165.735 334.2 166.052 334 166.352C333.833 166.618 333.567 166.785 333.2 166.852L324.9 168.352L327.6 172.302C327.8 172.568 327.867 172.885 327.8 173.252C327.733 173.585 327.567 173.852 327.3 174.052ZM306.5 175.302C306.2 175.468 305.883 175.518 305.55 175.452C305.217 175.385 304.95 175.202 304.75 174.902L301.15 169.402C300.883 169.002 300.85 168.602 301.05 168.202C301.183 167.802 301.5 167.552 302 167.452L311.25 165.802C311.617 165.735 311.933 165.802 312.2 166.002C312.5 166.202 312.667 166.485 312.7 166.852C312.767 167.185 312.7 167.502 312.5 167.802C312.333 168.068 312.067 168.235 311.7 168.302L304.3 169.602L306.85 173.552C307.05 173.852 307.117 174.168 307.05 174.502C306.983 174.835 306.8 175.102 306.5 175.302ZM293.65 174.302C293.383 174.535 293.067 174.618 292.7 174.552C292.367 174.485 292.1 174.318 291.9 174.052C291.7 173.785 291.617 173.485 291.65 173.152C291.717 172.785 291.9 172.502 292.2 172.302C293.5 171.368 294.7 170.268 295.8 169.002C296.933 167.702 297.917 166.385 298.75 165.052C299.583 163.718 300.2 162.502 300.6 161.402C300.733 161.068 300.95 160.835 301.25 160.702C301.583 160.568 301.917 160.568 302.25 160.702C302.583 160.835 302.817 161.068 302.95 161.402C303.083 161.702 303.083 162.018 302.95 162.352C302.517 163.518 301.85 164.835 300.95 166.302C300.05 167.735 298.983 169.168 297.75 170.602C296.517 172.002 295.15 173.235 293.65 174.302ZM315.75 171.802C315.483 172.035 315.183 172.135 314.85 172.102C314.517 172.068 314.233 171.918 314 171.652C313.767 171.385 313.667 171.085 313.7 170.752C313.733 170.385 313.883 170.085 314.15 169.852C315.183 169.018 316.15 168.052 317.05 166.952C317.95 165.852 318.733 164.752 319.4 163.652C320.1 162.518 320.633 161.485 321 160.552C321.167 160.218 321.4 159.985 321.7 159.852C322.033 159.718 322.35 159.735 322.65 159.902C322.983 160.035 323.217 160.268 323.35 160.602C323.483 160.902 323.483 161.218 323.35 161.552C322.95 162.485 322.383 163.568 321.65 164.802C320.917 166.002 320.05 167.218 319.05 168.452C318.083 169.685 316.983 170.802 315.75 171.802ZM345.5 186.252C345.167 186.285 344.883 186.218 344.65 186.052C344.417 185.852 344.267 185.602 344.2 185.302C344.167 184.968 344.233 184.685 344.4 184.452C344.6 184.185 344.85 184.035 345.15 184.002L352.7 182.952V180.802L349 181.302C348.7 181.335 348.417 181.268 348.15 181.102C347.917 180.902 347.767 180.652 347.7 180.352C347.633 179.585 347.967 179.152 348.7 179.052L352.7 178.502V176.402L346.65 177.152C346.35 177.185 346.083 177.102 345.85 176.902C345.617 176.702 345.467 176.452 345.4 176.152C345.367 175.818 345.433 175.535 345.6 175.302C345.8 175.068 346.067 174.935 346.4 174.902L352.7 174.102V171.852L339.9 173.352C339.567 173.385 339.283 173.302 339.05 173.102C338.817 172.902 338.683 172.652 338.65 172.352C338.617 172.018 338.683 171.735 338.85 171.502C339.05 171.268 339.317 171.135 339.65 171.102L352.7 169.602V167.652L346.75 168.402C346.45 168.435 346.183 168.368 345.95 168.202C345.717 168.002 345.567 167.735 345.5 167.402C345.467 167.102 345.533 166.835 345.7 166.602C345.9 166.335 346.167 166.185 346.5 166.152L352.7 165.352V161.752C352.7 161.418 352.8 161.152 353 160.952C353.233 160.718 353.517 160.602 353.85 160.602C354.15 160.602 354.417 160.718 354.65 160.952C354.883 161.152 355 161.418 355 161.752V165.102L362.1 164.202C362.467 164.135 362.783 164.252 363.05 164.552C363.317 164.818 363.417 165.135 363.35 165.502L362.9 168.402L367.3 167.902C367.633 167.868 367.917 167.952 368.15 168.152C368.383 168.352 368.517 168.602 368.55 168.902C368.617 169.202 368.55 169.485 368.35 169.752C368.15 169.985 367.883 170.118 367.55 170.152L362.5 170.752L361.9 174.452C361.8 175.018 361.467 175.335 360.9 175.402L355 176.102V178.202L358.75 177.702C359.05 177.635 359.317 177.702 359.55 177.902C359.817 178.102 359.967 178.352 360 178.652C360.067 178.985 360 179.268 359.8 179.502C359.6 179.735 359.35 179.885 359.05 179.952L355 180.502V182.652L361.5 181.702C361.8 181.668 362.067 181.752 362.3 181.952C362.567 182.118 362.717 182.368 362.75 182.702C362.817 183.002 362.75 183.268 362.55 183.502C362.35 183.735 362.1 183.885 361.8 183.952L345.5 186.252ZM348.45 198.202C348.183 198.235 347.933 198.185 347.7 198.052C347.467 197.885 347.3 197.685 347.2 197.452L344.8 189.902C344.7 189.602 344.733 189.285 344.9 188.952C345.133 188.652 345.4 188.485 345.7 188.452L361.1 186.252C361.5 186.185 361.833 186.285 362.1 186.552C362.367 186.852 362.467 187.185 362.4 187.552L360.9 195.402C360.833 195.935 360.533 196.235 360 196.302L348.45 198.202ZM377.7 205.702L367.35 201.652C367.05 201.552 366.833 201.352 366.7 201.052C366.567 200.752 366.55 200.435 366.65 200.102C366.783 199.802 367 199.585 367.3 199.452C367.6 199.318 367.9 199.318 368.2 199.452L376.95 202.852V162.202C376.95 161.868 377.067 161.585 377.3 161.352C377.533 161.118 377.817 161.002 378.15 161.002C378.483 161.002 378.767 161.118 379 161.352C379.233 161.585 379.35 161.868 379.35 162.202V204.602C379.35 205.002 379.167 205.335 378.8 205.602C378.467 205.835 378.1 205.868 377.7 205.702ZM342.8 204.802C342.5 204.868 342.217 204.818 341.95 204.652C341.683 204.518 341.5 204.302 341.4 204.002C341.333 203.702 341.367 203.418 341.5 203.152C341.667 202.885 341.9 202.702 342.2 202.602L362.85 197.102C363.15 197.035 363.433 197.085 363.7 197.252C364 197.385 364.183 197.602 364.25 197.902C364.317 198.202 364.267 198.502 364.1 198.802C363.967 199.068 363.75 199.235 363.45 199.302L342.8 204.802ZM368.3 188.102C367.967 188.102 367.683 187.985 367.45 187.752C367.217 187.518 367.1 187.235 367.1 186.902V173.652C367.1 173.318 367.217 173.035 367.45 172.802C367.683 172.568 367.967 172.452 368.3 172.452C368.633 172.452 368.917 172.568 369.15 172.802C369.383 173.035 369.5 173.318 369.5 173.652V186.902C369.5 187.235 369.383 187.518 369.15 187.752C368.917 187.985 368.633 188.102 368.3 188.102ZM354.9 194.852L358.85 194.202L359.85 188.702L354.9 189.402V191.102L355.8 190.952C356.067 190.885 356.317 190.935 356.55 191.102C356.817 191.268 356.967 191.502 357 191.802C357.067 192.102 357.017 192.368 356.85 192.602C356.683 192.835 356.45 192.985 356.15 193.052L354.9 193.252V194.852ZM349.05 195.802L352.75 195.202V193.652L351.3 193.902C351 193.935 350.733 193.868 350.5 193.702C350.267 193.535 350.117 193.302 350.05 193.002C350.017 192.702 350.083 192.435 350.25 192.202C350.417 191.935 350.65 191.785 350.95 191.752L352.75 191.452V189.752L347.35 190.502L349.05 195.802ZM355 169.302L360.55 168.702L360.9 166.652L355 167.352V169.302ZM355 173.852L359.8 173.252L360.15 171.002L355 171.602V173.852Z" fill="#3E5764"/>
</svg>
