<svg width="575" height="362" viewBox="0 0 575 362" fill="none" xmlns="http://www.w3.org/2000/svg">
<path d="M499.998 28.2037L502.498 26.2037C505.298 24.2037 507.665 25.3704 508.498 26.2037L521.5 77.0288M499.998 28.2037L483.998 12.2037M499.998 28.2037L503.998 32.2037L516.349 82.7196M483.998 12.2037L470.498 16.2037M483.998 12.2037L503.5 96.6021M7.49821 342.704C25.8982 344.704 57.1649 344.87 70.4982 344.704C130.098 342.704 216.332 342.537 251.998 342.704C256.798 348.704 262.665 351.87 264.998 352.704L274.498 349.704L285.998 347.204L289.498 349.704L309.998 352.704L370.498 340.704L564.998 287.204V281.704L521.063 102M7.49821 342.704C5.49821 347.504 2.99821 350.37 5.49821 350.704H165.998L247.498 348.704L248.998 349.704L258.498 358.204L268.998 361.204H289.498H303.498L309.998 358.204L356.498 349.704L452.498 326.204L564.998 295.204C567.998 293.704 574.098 289.404 574.498 284.204L527 98.5288M7.49821 342.704L30.4984 275.204L93.4998 23.5H97.4918M7.49821 342.704L97.4918 23.5M470.498 16.2037L467.498 2.7037C466.698 0.703704 464.165 0.87037 462.998 1.2037C430.198 12.4037 409.665 18.8704 403.498 20.7037C371.898 27.5037 336.665 43.2037 322.998 50.2037C290.598 66.2037 285.832 83.537 287.498 90.2037L115 2.7037L108.252 21.7037M470.498 16.2037L493.82 106.238M368.998 317.887C332.933 321.657 306.438 327.507 296.998 330.204C287.798 332.604 285.165 338.87 284.998 341.704H283.498C264.298 326.104 220.832 312.204 201.498 307.204C185.898 302.404 148.332 294.537 131.498 291.204C89.4982 282.804 66.1667 244.667 52 239.5L85 115L108.252 21.7037M368.998 317.887C373.048 317.464 377.218 317.067 381.498 316.704L543.498 269.704L507.912 115.697M368.998 317.887L532.998 267.704C533.832 267.37 535.398 266.404 534.998 265.204L498.747 125.257M97.4918 23.5L97.9982 21.7037H108.252" stroke="black"/>
<path d="M284.999 341.204C288.999 344.704 300.199 351.704 312.999 351.704M284.999 341.204C284.347 341.557 283.679 341.892 282.999 342.21M284.999 341.204C286.037 290.67 285.249 249.982 285.5 213.5M287.499 89.7036C287.263 105.48 286.848 123.721 286.448 144.5C286.448 144.5 286.673 141.688 286.448 156.5M256.999 347.704C261.97 347.704 273.66 346.574 282.999 342.21M26 286.204H30.9985C69.3319 290.037 150.499 298.704 168.499 302.704M168.499 302.704C175.332 304.037 191.499 307.504 201.499 310.704C207.236 312.042 215.561 314.263 224.999 317.209M168.499 302.704L152.999 300.704C140.599 299.104 101.832 295.037 83.9985 293.204C64.7985 291.204 41.3319 289.037 31.9985 288.204V286.704M282.999 342.21C267.02 331.827 243.8 323.078 224.999 317.209M32.4985 288.704L31.4985 290.704C35.4985 290.87 57.6985 292.504 114.499 297.704C129.665 298.707 172.999 304.013 224.999 317.209" stroke="black"/>
<path d="M33.9985 291.704V292.704C34.4899 292.74 34.99 292.777 35.4985 292.815M149.999 302.204C133.067 300.235 67.5861 295.197 35.4985 292.815M35.4985 292.815V294.704C35.7449 294.716 35.9931 294.728 36.2433 294.74M31.4985 291.704L29.9985 294.704M29.9985 294.704L36.2433 294.74M29.9985 294.704V296.204C52.7859 297.202 89.8323 299.469 126.999 303.032M36.2433 294.74C73.8282 296.604 155.161 302.869 209.398 314.123M30.4985 296.704L29.4985 297.704M126.999 303.032L29.4985 298.704V297.704M126.999 303.032C140.194 304.297 153.405 305.725 165.999 307.317M29.4985 297.704L29.9985 299.204L27.4985 300.704C28.3141 300.725 29.1478 300.748 29.9985 300.771M165.999 307.317C151.891 304.664 71.0451 301.894 29.9985 300.771M165.999 307.317C181.868 309.324 196.757 311.592 209.398 314.123M29.9985 300.771L27.4985 303.032C74.9318 303.702 177.718 306.858 209.398 314.123M209.398 314.123C215.093 315.263 220.332 316.456 224.999 317.704C220.127 316.458 214.902 315.265 209.398 314.123ZM28.9985 304.204V305.704C29.1641 305.701 29.3308 305.699 29.4985 305.697M227.499 318.204C209.622 315.293 190.165 313.018 170.499 311.252M280.499 342.704C273.007 338.066 255.894 329.61 234.499 323.693M29.4985 305.697L28.4985 306.7M29.4985 305.697C57.4433 305.344 114.812 306.253 170.499 311.252M28.4985 306.7L27.4985 307.704L26.4985 308.704L103.499 310.704C149.899 312.304 191.832 316.37 206.999 318.204C216.625 319.35 225.907 321.317 234.499 323.693M28.4985 306.7C54.3319 307.401 118.899 309.292 170.499 311.252M26.9985 309.204V310.704C62.8185 310.395 145.759 312.11 213.999 320.791M234.499 323.693C227.865 322.648 221.009 321.683 213.999 320.791M27.4985 311.204L25.9985 313.704C26.4818 313.68 26.9819 313.656 27.4985 313.633M213.999 320.791C127.252 312.225 54.5971 312.418 27.4985 313.633M27.4985 313.633L17.9985 330.204C18.6313 330.224 19.2987 330.244 19.9985 330.264M215.999 330.204C209.215 329.204 201.778 328.487 193.999 327.997M19.9985 330.264C36.812 330.757 72.3416 331.356 94.9985 330.204C115.125 328.287 158.196 325.74 193.999 327.997M19.9985 330.264L17.9985 333.204C19.0911 333.228 20.2634 333.253 21.4985 333.28M193.999 327.997C176.399 326.231 120.665 329.732 94.9985 331.704C74.9985 334.742 65.4985 334.204 64.4985 334.204C63.7562 334.204 37.4099 333.63 21.4985 333.28M21.4985 333.28L19.9985 340.204C20.4606 340.188 20.961 340.171 21.4985 340.152M215.999 333.28L195.499 331.704C167.099 330.442 114.999 334.178 92.4985 336.204C60.4257 338.495 32.7871 339.753 21.4985 340.152M21.4985 340.152L19.9985 342.704C38.9985 341.704 81.1985 339.504 97.9985 338.704C122.999 336.704 183.899 333.704 227.499 337.704M97.9985 342.704C103.499 342.704 163.499 338.704 243.499 340.204M24.4985 327.204C26.9985 327.204 61.9985 328.704 102.499 327.204L169.499 324.704M28.4985 323.704C33.9985 323.704 73.9985 326.204 112.499 323.704M28.4985 318.704C30.4985 318.704 83.9985 315.704 144.499 318.704M28.9985 320.704C35.4985 320.204 176.999 320.704 191.999 322.704" stroke="black"/>
<path d="M236.7 200.352C237.167 200.352 237.55 200.518 237.85 200.852C238.183 201.152 238.35 201.535 238.35 202.002C238.35 202.468 238.183 202.852 237.85 203.152C237.55 203.485 237.167 203.652 236.7 203.652C234.2 203.652 231.533 203.718 228.7 203.852C225.9 204.018 223.533 204.152 221.6 204.252C218.4 204.452 215.017 204.735 211.45 205.102C211.35 205.102 211.267 205.102 211.2 205.102C210.767 205.102 210.383 204.935 210.05 204.602C209.75 204.302 209.6 203.935 209.6 203.502V163.752C209.6 163.285 209.75 162.902 210.05 162.602C210.383 162.268 210.783 162.102 211.25 162.102C211.717 162.102 212.1 162.268 212.4 162.602C212.733 162.902 212.9 163.285 212.9 163.752V201.652C216.667 201.318 220.233 201.052 223.6 200.852C229.267 200.518 233.633 200.352 236.7 200.352ZM194.65 184.402C194.15 184.402 193.717 184.152 193.35 183.652C193.35 183.652 193.333 183.652 193.3 183.652C193.133 183.318 193.05 183.002 193.05 182.702C193.05 182.368 193.167 182.052 193.4 181.752L198.35 174.952L194.05 174.252C193.683 174.185 193.383 174.052 193.15 173.852C192.95 173.652 192.817 173.418 192.75 173.152C192.683 172.952 192.65 172.752 192.65 172.552C192.65 172.185 192.8 171.835 193.1 171.502C194.7 169.768 196.383 167.468 198.15 164.602C198.917 163.368 199.517 162.268 199.95 161.302C200.117 160.902 200.417 160.618 200.85 160.452C201.05 160.385 201.25 160.352 201.45 160.352C201.683 160.352 201.917 160.418 202.15 160.552C202.55 160.718 202.833 161.018 203 161.452C203.067 161.618 203.1 161.818 203.1 162.052C203.1 162.252 203.033 162.468 202.9 162.702C202.333 163.968 201.533 165.418 200.5 167.052C199.5 168.685 198.483 170.168 197.45 171.502L200.55 172.002L204.15 167.152C204.483 166.685 204.933 166.452 205.5 166.452C205.9 166.452 206.25 166.602 206.55 166.902C206.917 167.268 207.1 167.685 207.1 168.152C207.1 168.518 207 168.818 206.8 169.052L198.65 180.202L203 179.202C203.133 179.168 203.25 179.152 203.35 179.152C203.783 179.152 204.15 179.302 204.45 179.602C204.817 179.968 205 180.385 205 180.852C205 181.318 204.833 181.702 204.5 182.002C204.267 182.235 204 182.385 203.7 182.452L194.95 184.352C194.883 184.385 194.783 184.402 194.65 184.402ZM219.9 177.502L215.35 178.252C215.217 178.252 215.1 178.252 215 178.252C214.367 178.252 213.9 177.952 213.6 177.352C213.5 177.118 213.45 176.885 213.45 176.652C213.45 176.218 213.65 175.818 214.05 175.452C214.917 174.752 216.167 173.418 217.8 171.452L215.05 170.252C214.517 170.018 214.2 169.602 214.1 169.002C214.1 168.935 214.1 168.852 214.1 168.752C214.1 168.285 214.283 167.902 214.65 167.602C215.317 167.068 216.067 166.268 216.9 165.202C217.767 164.102 218.467 163.085 219 162.152C219.333 161.652 219.8 161.402 220.4 161.402C220.8 161.402 221.167 161.568 221.5 161.902C221.8 162.235 221.95 162.618 221.95 163.052C221.95 163.318 221.883 163.585 221.75 163.852C221.317 164.485 220.8 165.218 220.2 166.052C219.6 166.885 219.017 167.635 218.45 168.302L219.9 168.902C220.167 168.568 220.5 168.102 220.9 167.502C221.333 166.868 221.6 166.518 221.7 166.452C222 166.118 222.383 165.952 222.85 165.952C223.25 165.952 223.6 166.118 223.9 166.452C224.233 166.752 224.4 167.135 224.4 167.602C224.4 167.902 224.3 168.185 224.1 168.452C223.567 169.252 222.85 170.235 221.95 171.402C221.083 172.535 220.267 173.535 219.5 174.402C219.567 174.368 219.65 174.352 219.75 174.352C220.15 174.352 220.483 174.502 220.75 174.802C221.117 175.135 221.3 175.518 221.3 175.952C221.3 176.352 221.15 176.702 220.85 177.002C220.583 177.268 220.267 177.435 219.9 177.502ZM231.1 176.902L226.5 177.652C226.367 177.652 226.25 177.652 226.15 177.652C225.517 177.652 225.067 177.335 224.8 176.702C224.7 176.468 224.65 176.235 224.65 176.002C224.65 175.535 224.867 175.152 225.3 174.852C226.167 174.118 227.383 172.802 228.95 170.902L226 169.652C225.5 169.418 225.2 169.002 225.1 168.402C225.1 168.335 225.1 168.252 225.1 168.152C225.1 167.685 225.283 167.302 225.65 167.002C226.317 166.468 227.067 165.668 227.9 164.602C228.733 163.502 229.433 162.485 230 161.552C230.333 161.052 230.8 160.802 231.4 160.802C231.8 160.802 232.167 160.968 232.5 161.302C232.8 161.602 232.95 161.968 232.95 162.402C232.95 162.702 232.867 162.985 232.7 163.252C232.233 163.985 231.7 164.752 231.1 165.552C230.5 166.352 229.933 167.052 229.4 167.652L230.9 168.302C231.533 167.435 231.967 166.835 232.2 166.502C232.433 166.135 232.6 165.918 232.7 165.852C233 165.518 233.383 165.352 233.85 165.352C234.25 165.352 234.6 165.518 234.9 165.852C235.233 166.152 235.4 166.535 235.4 167.002C235.4 167.335 235.3 167.618 235.1 167.852C234.567 168.618 233.867 169.568 233 170.702C232.167 171.835 231.383 172.852 230.65 173.752C230.717 173.752 230.8 173.752 230.9 173.752C231.3 173.752 231.633 173.885 231.9 174.152C232.267 174.485 232.45 174.885 232.45 175.352C232.45 175.785 232.3 176.135 232 176.402C231.733 176.668 231.433 176.835 231.1 176.902ZM215.05 199.652C214.317 199.652 213.833 199.318 213.6 198.652C213.5 198.452 213.45 198.235 213.45 198.002C213.45 197.568 213.65 197.168 214.05 196.802C214.05 196.802 214.067 196.802 214.1 196.802C214.933 196.168 216.167 194.918 217.8 193.052L215.1 191.902C214.867 191.835 214.667 191.702 214.5 191.502C214.233 191.235 214.1 190.885 214.1 190.452C214.1 189.952 214.267 189.568 214.6 189.302C215.533 188.568 216.633 187.402 217.9 185.802C218.467 185.135 218.833 184.652 219 184.352C219.2 184.018 219.35 183.818 219.45 183.752C219.717 183.452 220.033 183.302 220.4 183.302C220.8 183.302 221.133 183.385 221.4 183.552C221.9 183.818 222.15 184.252 222.15 184.852C222.15 185.185 222.05 185.485 221.85 185.752C221.417 186.385 220.883 187.102 220.25 187.902C219.65 188.668 219.083 189.352 218.55 189.952L219.9 190.502C220.667 189.535 221.133 188.918 221.3 188.652C221.467 188.385 221.6 188.218 221.7 188.152C221.967 187.852 222.3 187.702 222.7 187.702C223.2 187.702 223.617 187.868 223.95 188.202C224.25 188.502 224.4 188.868 224.4 189.302C224.4 189.635 224.3 189.918 224.1 190.152C223.567 190.918 222.867 191.835 222 192.902C221.133 193.968 220.35 194.918 219.65 195.752C220.117 195.752 220.517 195.918 220.85 196.252C221.15 196.552 221.3 196.902 221.3 197.302C221.3 197.735 221.15 198.085 220.85 198.352C220.583 198.652 220.267 198.835 219.9 198.902L215.25 199.652C215.183 199.652 215.117 199.652 215.05 199.652ZM226.2 199.052C225.5 199.052 225.033 198.718 224.8 198.052C224.7 197.852 224.65 197.635 224.65 197.402C224.65 196.968 224.85 196.568 225.25 196.202C225.25 196.202 225.267 196.202 225.3 196.202C226.133 195.568 227.317 194.335 228.85 192.502L226.1 191.302C225.433 191.035 225.1 190.552 225.1 189.852C225.1 189.352 225.267 188.968 225.6 188.702C226.533 187.968 227.633 186.802 228.9 185.202C229.467 184.535 229.833 184.052 230 183.752C230.2 183.418 230.35 183.218 230.45 183.152C230.717 182.852 231.05 182.702 231.45 182.702C231.983 182.702 232.4 182.868 232.7 183.202C233 183.468 233.15 183.785 233.15 184.152C233.15 184.552 233.05 184.885 232.85 185.152C232.417 185.785 231.883 186.502 231.25 187.302C230.65 188.068 230.083 188.752 229.55 189.352L230.9 189.902C231.667 188.935 232.133 188.318 232.3 188.052C232.467 187.785 232.6 187.618 232.7 187.552C232.967 187.252 233.3 187.102 233.7 187.102C234.2 187.102 234.617 187.268 234.95 187.602C235.25 187.902 235.4 188.268 235.4 188.702C235.4 189.035 235.3 189.318 235.1 189.552C234.6 190.285 233.917 191.202 233.05 192.302C232.217 193.402 231.433 194.368 230.7 195.202C230.767 195.168 230.85 195.152 230.95 195.152C231.35 195.152 231.683 195.302 231.95 195.602C232.283 195.902 232.45 196.318 232.45 196.852C232.45 197.252 232.3 197.585 232 197.852C231.733 198.118 231.433 198.268 231.1 198.302L226.4 199.052C226.333 199.052 226.267 199.052 226.2 199.052ZM202.65 203.902C202.65 204.368 202.5 204.752 202.2 205.052C201.9 205.385 201.5 205.552 201 205.552C200.533 205.552 200.133 205.385 199.8 205.052C199.5 204.752 199.35 204.368 199.35 203.902V184.552C199.35 184.085 199.5 183.702 199.8 183.402C200.133 183.068 200.533 182.902 201 182.902C201.5 182.902 201.9 183.068 202.2 183.402C202.5 183.702 202.65 184.085 202.65 184.552V203.902ZM233.25 178.752C233.65 178.752 233.983 178.885 234.25 179.152C234.583 179.485 234.75 179.868 234.75 180.302C234.75 180.768 234.6 181.152 234.3 181.452C234.033 181.718 233.7 181.868 233.3 181.902C221.967 182.735 216.283 183.152 216.25 183.152C215.817 183.152 215.467 183.018 215.2 182.752C214.867 182.418 214.7 182.035 214.7 181.602C214.7 181.168 214.833 180.802 215.1 180.502C215.4 180.202 215.75 180.035 216.15 180.002C227.517 179.168 233.217 178.752 233.25 178.752ZM191.7 195.552C191.133 195.552 190.683 195.318 190.35 194.852C190.117 194.585 190 194.268 190 193.902C190 193.335 190.233 192.885 190.7 192.552C191.833 191.685 192.85 190.785 193.75 189.852C194.65 188.885 195.35 187.952 195.85 187.052C196.083 186.618 196.417 186.352 196.85 186.252C197.017 186.218 197.2 186.202 197.4 186.202C197.6 186.202 197.8 186.252 198 186.352C198.2 186.452 198.367 186.585 198.5 186.752C198.667 186.885 198.783 187.068 198.85 187.302C198.917 187.535 198.95 187.752 198.95 187.952C198.95 188.152 198.883 188.385 198.75 188.652C197.383 190.952 195.35 193.135 192.65 195.202C192.383 195.435 192.067 195.552 191.7 195.552ZM209.35 182.052C209.483 182.285 209.55 182.518 209.55 182.752C209.55 182.952 209.517 183.168 209.45 183.402C209.383 183.635 209.267 183.835 209.1 184.002C208.967 184.135 208.817 184.252 208.65 184.352C208.517 184.418 208.317 184.452 208.05 184.452C207.817 184.452 207.583 184.435 207.35 184.402C206.95 184.302 206.65 184.052 206.45 183.652L203.2 177.802C203.1 177.535 203.05 177.302 203.05 177.102C203.05 176.335 203.333 175.818 203.9 175.552C204.133 175.418 204.35 175.352 204.55 175.352C205.083 175.352 205.517 175.502 205.85 175.802C205.95 175.935 206.033 176.068 206.1 176.202L209.35 182.052ZM208.5 193.902C207.933 193.902 207.5 193.702 207.2 193.302C204.7 190.235 203.45 188.685 203.45 188.652C203.217 188.352 203.1 188.018 203.1 187.652C203.1 187.152 203.267 186.752 203.6 186.452C203.967 186.152 204.333 186.002 204.7 186.002C205.267 186.002 205.7 186.202 206 186.602L209.75 191.202C209.983 191.502 210.1 191.835 210.1 192.202C210.1 192.735 209.9 193.185 209.5 193.552C209.2 193.785 208.867 193.902 208.5 193.902ZM223.8 178.702C223.167 178.702 222.667 178.435 222.3 177.902C222.3 177.902 221.783 176.952 220.75 175.052C220.65 174.818 220.6 174.602 220.6 174.402C220.6 173.668 220.867 173.168 221.4 172.902C221.633 172.768 221.85 172.702 222.05 172.702C222.55 172.702 222.967 172.852 223.3 173.152C223.4 173.285 223.483 173.418 223.55 173.552L225.1 176.402C225.2 176.602 225.25 176.818 225.25 177.052C225.25 177.518 225.083 177.918 224.75 178.252C224.45 178.552 224.133 178.702 223.8 178.702ZM234.95 178.052C234.283 178.052 233.783 177.802 233.45 177.302C233.45 177.302 232.95 176.352 231.95 174.452C231.85 174.218 231.8 174.002 231.8 173.802C231.8 173.068 232.067 172.568 232.6 172.302C232.833 172.168 233.05 172.102 233.25 172.102C233.75 172.102 234.167 172.252 234.5 172.552C234.6 172.685 234.683 172.818 234.75 172.952L236.25 175.802C236.383 176.035 236.45 176.252 236.45 176.452C236.45 176.918 236.283 177.302 235.95 177.602C235.65 177.902 235.317 178.052 234.95 178.052ZM225.05 197.702C225.183 197.935 225.25 198.152 225.25 198.352C225.25 198.552 225.217 198.768 225.15 199.002C225.117 199.202 225.017 199.385 224.85 199.552C224.717 199.685 224.55 199.802 224.35 199.902C224.183 200.002 224 200.052 223.8 200.052C223.133 200.052 222.633 199.802 222.3 199.302C222.3 199.302 221.783 198.368 220.75 196.502C220.65 196.268 220.6 196.052 220.6 195.852C220.6 195.185 220.85 194.685 221.35 194.352C221.583 194.218 221.817 194.152 222.05 194.152C222.55 194.152 222.967 194.302 223.3 194.602C223.4 194.735 223.483 194.868 223.55 195.002L225.05 197.702ZM234.95 199.452C234.283 199.452 233.783 199.202 233.45 198.702C233.45 198.702 232.95 197.768 231.95 195.902C231.85 195.668 231.8 195.452 231.8 195.252C231.8 194.552 232.067 194.068 232.6 193.802C232.833 193.668 233.05 193.602 233.25 193.602C233.95 193.602 234.433 193.868 234.7 194.402L236.25 197.102C236.383 197.368 236.45 197.602 236.45 197.802C236.45 198.302 236.283 198.702 235.95 199.002C235.65 199.302 235.317 199.452 234.95 199.452ZM269.95 159.102C270.317 158.568 270.817 158.302 271.45 158.302C271.75 158.302 271.983 158.368 272.15 158.502C272.417 158.702 272.633 158.918 272.8 159.152C272.9 159.252 272.95 159.485 272.95 159.852C272.983 160.218 273 160.752 273 161.452V162.852C273.3 162.818 274.15 162.752 275.55 162.652C277.517 162.518 278.633 162.452 278.9 162.452C279.233 162.452 279.433 162.468 279.5 162.502C279.867 162.668 280.167 162.918 280.4 163.252C280.5 163.418 280.55 163.652 280.55 163.952C280.55 164.318 280.5 164.585 280.4 164.752C280.167 165.185 279.833 165.485 279.4 165.652C279.233 165.685 278.15 165.768 276.15 165.902C274.417 166.035 273.367 166.135 273 166.202V167.502C273.133 167.502 273.583 167.468 274.35 167.402C275.117 167.335 275.633 167.302 275.9 167.302C276.167 167.302 276.35 167.318 276.45 167.352C276.817 167.518 277.117 167.768 277.35 168.102C277.45 168.268 277.5 168.502 277.5 168.802C277.5 169.168 277.45 169.435 277.35 169.602C277.117 170.068 276.783 170.368 276.35 170.502C276.183 170.535 274.5 170.702 271.3 171.002C268.133 171.268 266.433 171.402 266.2 171.402C265.833 171.402 265.483 171.235 265.15 170.902C264.85 170.568 264.7 170.202 264.7 169.802C264.7 169.535 264.75 169.285 264.85 169.052C265.117 168.552 265.467 168.252 265.9 168.152C266.067 168.118 266.65 168.068 267.65 168.002C268.683 167.902 269.367 167.818 269.7 167.752V166.452C269.4 166.485 268.45 166.568 266.85 166.702C264.617 166.868 263.35 166.952 263.05 166.952C262.75 166.952 262.567 166.935 262.5 166.902C262.133 166.735 261.833 166.485 261.6 166.152C261.5 165.952 261.45 165.718 261.45 165.452C261.45 164.918 261.6 164.502 261.9 164.202C262.1 164.002 262.367 163.852 262.7 163.752C262.833 163.718 264 163.618 266.2 163.452C268.133 163.285 269.3 163.168 269.7 163.102V161.552L269.75 159.552C269.75 159.485 269.767 159.402 269.8 159.302C269.867 159.168 269.917 159.102 269.95 159.102ZM248.25 180.202C251.483 179.535 253.2 179.202 253.4 179.202C253.9 179.202 254.3 179.385 254.6 179.752C254.933 180.085 255.1 180.452 255.1 180.852C255.1 181.085 255.05 181.318 254.95 181.552C254.717 182.052 254.367 182.368 253.9 182.502C253.767 182.535 252.867 182.718 251.2 183.052C249.533 183.385 248.633 183.568 248.5 183.602C248.4 183.602 247.65 183.752 246.25 184.052C244.883 184.318 244.15 184.452 244.05 184.452C243.45 184.452 242.983 184.135 242.65 183.502C242.517 183.268 242.45 183.052 242.45 182.852C242.45 182.618 242.467 182.452 242.5 182.352C242.533 182.185 242.767 181.802 243.2 181.202C243.9 180.235 245.433 178.202 247.8 175.102C247.3 175.002 246.65 174.885 245.85 174.752C244.217 174.518 243.35 174.385 243.25 174.352C243.183 174.318 243.1 174.285 243 174.252C242.9 174.185 242.733 174.052 242.5 173.852C242.3 173.652 242.167 173.452 242.1 173.252C242.067 173.018 242.05 172.802 242.05 172.602C242.05 172.335 242.1 172.118 242.2 171.952C242.3 171.785 242.517 171.518 242.85 171.152C243.95 169.952 245.083 168.485 246.25 166.752C247.45 165.018 248.467 163.352 249.3 161.752C249.433 161.385 249.533 161.168 249.6 161.102C249.7 161.002 249.8 160.885 249.9 160.752C250.033 160.618 250.2 160.518 250.4 160.452C250.633 160.352 250.85 160.302 251.05 160.302C251.45 160.302 251.85 160.518 252.25 160.952C252.55 161.218 252.7 161.585 252.7 162.052C252.7 162.318 252.6 162.668 252.4 163.102C252.4 163.135 252.4 163.152 252.4 163.152C250.933 166.018 249.183 168.752 247.15 171.352C247.117 171.385 247.083 171.435 247.05 171.502C247.45 171.568 248.467 171.735 250.1 172.002C250.4 171.635 251.083 170.735 252.15 169.302C253.383 167.668 254.067 166.802 254.2 166.702C254.5 166.535 254.833 166.452 255.2 166.452C255.8 166.452 256.267 166.718 256.6 167.252C256.767 167.585 256.85 167.885 256.85 168.152C256.85 168.418 256.817 168.635 256.75 168.802C256.683 168.968 255.417 170.668 252.95 173.902C250.517 177.102 248.95 179.202 248.25 180.202ZM263.95 172.152C276.183 171.152 282.383 170.652 282.55 170.652C282.717 170.652 282.817 170.652 282.85 170.652C283.317 170.685 283.7 170.885 284 171.252C284.3 171.585 284.45 171.918 284.45 172.252C284.45 172.352 284.133 173.818 283.5 176.652C282.9 179.452 282.6 180.868 282.6 180.902C282.4 181.502 281.95 181.835 281.25 181.902C280.717 181.968 277.567 182.218 271.8 182.652C266.033 183.085 263.067 183.302 262.9 183.302C262.433 183.302 262.083 183.118 261.85 182.752C261.717 182.585 261.3 181.452 260.6 179.352C259.533 176.018 259 174.252 259 174.052C259 173.585 259.167 173.185 259.5 172.852C259.7 172.685 259.9 172.568 260.1 172.502C260.3 172.435 261.583 172.318 263.95 172.152ZM264.2 179.952C265.7 179.818 266.65 179.735 267.05 179.702V178.352C267.083 177.085 267.15 176.352 267.25 176.152C267.55 175.518 268.05 175.202 268.75 175.202C269.483 175.202 270 175.535 270.3 176.202C270.4 176.402 270.45 177.085 270.45 178.252V179.452C271.217 179.418 272.1 179.352 273.1 179.252V178.002C273.1 176.835 273.15 176.168 273.25 176.002C273.483 175.235 274 174.852 274.8 174.852C275.5 174.852 276.017 175.185 276.35 175.852C276.417 175.985 276.45 176.468 276.45 177.302C276.483 178.135 276.5 178.702 276.5 179.002C277.8 178.902 278.85 178.802 279.65 178.702C279.75 178.302 279.933 177.518 280.2 176.352C280.5 175.185 280.683 174.452 280.75 174.152C280.483 174.152 280.1 174.185 279.6 174.252C279.133 174.285 276.483 174.502 271.65 174.902C266.817 175.268 263.883 175.485 262.85 175.552C262.883 175.718 262.95 175.935 263.05 176.202C263.25 176.802 263.35 177.152 263.35 177.252C263.383 177.418 263.5 177.852 263.7 178.552C263.933 179.218 264.1 179.685 264.2 179.952ZM255.1 175.352C255.533 175.352 255.917 175.518 256.25 175.852C256.383 175.952 257.1 176.968 258.4 178.902C259.733 180.802 260.45 181.852 260.55 182.052C260.65 182.252 260.7 182.468 260.7 182.702C260.7 182.935 260.633 183.152 260.5 183.352C260.3 183.785 260 184.085 259.6 184.252C259.467 184.318 259.25 184.352 258.95 184.352C258.383 184.352 257.9 184.102 257.5 183.602C257.267 183.335 256.683 182.502 255.75 181.102C254.283 178.902 253.517 177.735 253.45 177.602C253.417 177.435 253.4 177.252 253.4 177.052C253.4 176.818 253.45 176.602 253.55 176.402C253.817 175.702 254.333 175.352 255.1 175.352ZM266.4 198.752C265.733 198.852 265.267 198.902 265 198.902C264.7 198.902 264.467 198.868 264.3 198.802C264.167 198.702 264.017 198.568 263.85 198.402C263.65 198.235 263.517 198.052 263.45 197.852C263.417 197.618 263.4 195.485 263.4 191.452C263.4 187.385 263.417 185.268 263.45 185.102C263.65 184.502 264.05 184.135 264.65 184.002C264.817 183.968 267.1 183.768 271.5 183.402C275.9 183.002 278.2 182.802 278.4 182.802C278.867 182.802 279.267 182.985 279.6 183.352C279.833 183.552 279.967 183.735 280 183.902C280.067 184.135 280.1 186.502 280.1 191.002C280.1 195.502 280.067 197.868 280 198.102C279.967 198.302 279.833 198.518 279.6 198.752C279.4 198.952 279.167 199.085 278.9 199.152H278C277.733 199.085 277.483 198.952 277.25 198.752C277.05 198.518 276.917 198.302 276.85 198.102C276.817 197.868 276.8 195.752 276.8 191.752V186.202L266.7 187.152V195.402C267.133 195.335 267.967 195.218 269.2 195.052C270.433 194.885 271.117 194.802 271.25 194.802C271.917 194.802 272.383 195.135 272.65 195.802C272.783 196.035 272.85 196.268 272.85 196.502C272.85 196.735 272.767 196.985 272.6 197.252C272.433 197.585 271.833 198.268 270.8 199.302C270.267 199.835 269.767 200.302 269.3 200.702C267.633 202.068 265.817 203.418 263.85 204.752C262.517 205.618 261.667 206.068 261.3 206.102C261.233 206.102 261.167 206.102 261.1 206.102C260.667 206.102 260.283 205.935 259.95 205.602C259.65 205.302 259.5 204.918 259.5 204.452C259.5 203.985 259.683 203.585 260.05 203.252C260.117 203.152 260.267 203.035 260.5 202.902C260.733 202.768 260.85 202.702 260.85 202.702C261.65 202.268 262.233 201.902 262.6 201.602C262.8 201.468 263.15 201.235 263.65 200.902C264.45 200.335 265.2 199.768 265.9 199.202L266.4 198.752ZM250.65 182.802C251.083 182.802 251.467 182.985 251.8 183.352C251.867 183.385 251.9 183.418 251.9 183.452C252.133 183.685 252.25 184.168 252.25 184.902C252.283 185.602 252.3 187.952 252.3 191.952V194.202C252.3 200.835 252.283 204.235 252.25 204.402C252.15 204.668 251.983 204.918 251.75 205.152C251.483 205.452 251.117 205.602 250.65 205.602C250.217 205.602 249.833 205.452 249.5 205.152C249.267 205.052 249.117 204.852 249.05 204.552C248.983 204.252 248.933 203.818 248.9 203.252C248.9 202.718 248.9 200.485 248.9 196.552V184.252C248.9 184.185 248.917 184.102 248.95 184.002L249.1 183.802C249.3 183.402 249.617 183.118 250.05 182.952C250.217 182.852 250.417 182.802 250.65 182.802ZM252.9 188.452C252.767 188.218 252.7 188.002 252.7 187.802C252.7 187.568 252.717 187.385 252.75 187.252C252.85 186.918 253.017 186.635 253.25 186.402C253.583 186.102 253.967 185.952 254.4 185.952C254.833 185.952 255.333 186.202 255.9 186.702C255.9 186.735 255.967 186.835 256.1 187.002C256.267 187.135 256.717 187.518 257.45 188.152C259.15 189.785 260.15 190.802 260.45 191.202C260.783 191.568 260.95 191.918 260.95 192.252C260.95 192.252 260.95 192.268 260.95 192.302C260.917 192.735 260.733 193.118 260.4 193.452C260.067 193.785 259.7 193.952 259.3 193.952C259.033 193.952 258.8 193.918 258.6 193.852C258.433 193.752 258.167 193.552 257.8 193.252C257.467 192.952 256.95 192.452 256.25 191.752C254.15 189.752 253.05 188.668 252.95 188.502C252.917 188.502 252.9 188.485 252.9 188.452ZM246.8 186.102C247.267 186.102 247.667 186.285 248 186.652C248.367 186.985 248.55 187.352 248.55 187.752C248.55 188.318 248.05 189.202 247.05 190.402C245.683 192.135 244.117 193.668 242.35 195.002C241.883 195.368 241.467 195.552 241.1 195.552C240.533 195.552 240.1 195.385 239.8 195.052C239.767 195.052 239.75 195.052 239.75 195.052C239.45 194.685 239.3 194.302 239.3 193.902C239.3 193.702 239.333 193.502 239.4 193.302C239.5 192.935 239.883 192.535 240.55 192.102C242.55 190.568 244.067 188.952 245.1 187.252C245.433 186.752 245.733 186.435 246 186.302C246.267 186.168 246.533 186.102 246.8 186.102ZM268.85 190.202C268.45 189.902 268.25 189.518 268.25 189.052C268.25 188.552 268.383 188.168 268.65 187.902C268.85 187.702 269.05 187.585 269.25 187.552C269.483 187.485 270.1 187.418 271.1 187.352C272.133 187.252 272.783 187.202 273.05 187.202C273.55 187.202 273.883 187.218 274.05 187.252C274.283 187.285 274.5 187.402 274.7 187.602C275 187.902 275.15 188.252 275.15 188.652C275.15 189.085 275.017 189.435 274.75 189.702C274.483 189.935 274.2 190.085 273.9 190.152C273.633 190.185 272.933 190.252 271.8 190.352C270.6 190.452 269.9 190.502 269.7 190.502C269.533 190.502 269.433 190.485 269.4 190.452C269.2 190.452 269.017 190.368 268.85 190.202ZM269.15 191.502C269.35 191.402 269.983 191.318 271.05 191.252C272.117 191.152 272.783 191.102 273.05 191.102C273.55 191.102 273.883 191.118 274.05 191.152C274.217 191.185 274.35 191.235 274.45 191.302C274.617 191.402 274.767 191.552 274.9 191.752C275.067 191.952 275.15 192.152 275.15 192.352C275.15 192.985 274.933 193.452 274.5 193.752L274.3 193.902C274.233 193.968 274.167 194.002 274.1 194.002C271.333 194.268 269.9 194.402 269.8 194.402C269.2 194.402 268.733 194.152 268.4 193.652C268.3 193.452 268.25 193.168 268.25 192.802C268.25 192.235 268.55 191.802 269.15 191.502ZM272.9 198.502C273.2 197.902 273.7 197.602 274.4 197.602C274.6 197.602 274.8 197.668 275 197.802C275.2 197.868 277.917 199.535 283.15 202.802C283.317 202.902 283.45 203.068 283.55 203.302C283.65 203.535 283.7 203.752 283.7 203.952C283.7 204.485 283.55 204.902 283.25 205.202C283.117 205.335 282.95 205.435 282.75 205.502C282.517 205.635 282.283 205.702 282.05 205.702C281.85 205.702 281.667 205.652 281.5 205.552C281.333 205.485 279.95 204.652 277.35 203.052C274.75 201.485 273.4 200.668 273.3 200.602C273.2 200.502 273.133 200.435 273.1 200.402C272.833 200.135 272.7 199.752 272.7 199.252C272.7 198.985 272.767 198.735 272.9 198.502ZM313.65 205.102C313.65 205.568 313.483 205.968 313.15 206.302C312.85 206.635 312.45 206.802 311.95 206.802C311.483 206.802 311.083 206.635 310.75 206.302C310.417 205.968 310.25 205.568 310.25 205.102V192.052C308.517 193.585 306.533 195.102 304.3 196.602C302.1 198.102 299.75 199.468 297.25 200.702C294.783 201.935 292.45 202.952 290.25 203.752C290.05 203.852 289.833 203.902 289.6 203.902C289.2 203.902 288.833 203.735 288.5 203.402C288.333 203.235 288.2 203.035 288.1 202.802C288 202.568 287.95 202.335 287.95 202.102C287.95 201.702 288.117 201.335 288.45 201.002C288.617 200.835 288.833 200.702 289.1 200.602C292.9 199.202 296.633 197.385 300.3 195.152C302.233 194.018 303.983 192.835 305.55 191.602C307.383 190.202 308.95 188.802 310.25 187.402V184.952L299.95 185.852L301.05 191.602C301.083 191.735 301.1 191.852 301.1 191.952C301.1 192.452 300.917 192.868 300.55 193.202C300.25 193.502 299.9 193.652 299.5 193.652C298.967 193.652 298.517 193.485 298.15 193.152C297.917 192.918 297.767 192.635 297.7 192.302L296.25 184.652C296.217 184.518 296.2 184.385 296.2 184.252C296.2 183.918 296.317 183.602 296.55 183.302C296.55 183.268 296.583 183.218 296.65 183.152C296.95 182.852 297.3 182.668 297.7 182.602C297.733 182.602 301.917 182.252 310.25 181.552V179.352C305.083 179.852 302.467 180.102 302.4 180.102C301.967 180.102 301.583 179.935 301.25 179.602C300.883 179.235 300.7 178.852 300.7 178.452C300.7 177.952 300.85 177.552 301.15 177.252C301.45 176.918 301.8 176.735 302.2 176.702L310.25 175.902V172.852C310.25 172.352 310.417 171.952 310.75 171.652C311.083 171.318 311.483 171.152 311.95 171.152C312.45 171.152 312.85 171.318 313.15 171.652C313.483 171.952 313.65 172.352 313.65 172.852V175.552C317.95 175.118 320.133 174.902 320.2 174.902C320.667 174.902 321.05 175.052 321.35 175.352C321.683 175.718 321.85 176.185 321.85 176.752C321.85 177.152 321.7 177.502 321.4 177.802C321.133 178.102 320.783 178.268 320.35 178.302L313.65 178.952V181.202C322.35 180.468 326.717 180.102 326.75 180.102C327.25 180.102 327.667 180.285 328 180.652C328.3 180.952 328.45 181.318 328.45 181.752C328.45 181.885 328.367 182.435 328.2 183.402C327.767 185.735 327.267 187.835 326.7 189.702C326.333 190.802 325.95 191.752 325.55 192.552C325.317 193.018 324.95 193.318 324.45 193.452C324.317 193.485 324.133 193.502 323.9 193.502C323.667 193.502 323.417 193.418 323.15 193.252L318.1 190.252C317.667 190.018 317.4 189.668 317.3 189.202C317.267 189.068 317.25 188.885 317.25 188.652C317.25 188.285 317.383 187.952 317.65 187.652C318.05 187.285 318.5 187.102 319 187.102C319.267 187.102 319.533 187.168 319.8 187.302L323.2 189.302C323.667 187.968 324.15 186.102 324.65 183.702L313.65 184.652V190.102L315.5 191.402C318 193.135 320.617 194.752 323.35 196.252C324.817 197.052 326.15 197.685 327.35 198.152C329.017 198.752 331.25 199.335 334.05 199.902L335.4 200.152C335.867 200.252 336.233 200.502 336.5 200.902C336.7 201.168 336.8 201.468 336.8 201.802C336.8 202.435 336.567 202.902 336.1 203.202C335.767 203.435 335.4 203.552 335 203.552C334.867 203.552 334.733 203.535 334.6 203.502C334.5 203.468 334.017 203.368 333.15 203.202C330.383 202.635 328.15 202.052 326.45 201.452C324.783 200.818 323.117 200.035 321.45 199.102C319.05 197.768 316.45 196.152 313.65 194.252V205.102ZM325.6 174.752C325 174.752 324.533 174.502 324.2 174.002C324.2 174.002 322.917 172.152 320.35 168.452C320.117 168.118 320 167.818 320 167.552C320 167.018 320.183 166.585 320.55 166.252C320.783 166.018 321.067 165.852 321.4 165.752C321.4 165.752 324.817 165.152 331.65 163.952C331.783 163.918 331.917 163.902 332.05 163.902C332.517 163.902 332.883 164.052 333.15 164.352C333.517 164.685 333.7 165.118 333.7 165.652C333.7 166.118 333.55 166.502 333.25 166.802C332.983 167.068 332.667 167.235 332.3 167.302L324.65 168.652L326.95 172.052C327.183 172.318 327.3 172.618 327.3 172.952C327.3 173.585 327.05 174.068 326.55 174.402C326.25 174.635 325.933 174.752 325.6 174.752ZM306.55 174.252C306.55 174.718 306.383 175.118 306.05 175.452C305.717 175.785 305.35 175.952 304.95 175.952C304.25 175.952 303.717 175.685 303.35 175.152L299.8 169.652C299.567 169.352 299.45 169.068 299.45 168.802C299.45 168.502 299.517 168.252 299.65 168.052C299.717 167.818 299.85 167.618 300.05 167.452C300.25 167.252 300.533 167.102 300.9 167.002C300.9 167.002 303.983 166.452 310.15 165.352C310.283 165.318 310.4 165.302 310.5 165.302C310.967 165.302 311.35 165.452 311.65 165.752C312.017 166.118 312.2 166.568 312.2 167.102C312.2 167.568 312.05 167.952 311.75 168.252C311.483 168.518 311.167 168.685 310.8 168.752L304.05 169.952L306.25 173.302C306.45 173.602 306.55 173.918 306.55 174.252ZM291.95 175.002C291.35 175.002 290.883 174.768 290.55 174.302C290.317 174.035 290.2 173.718 290.2 173.352C290.2 172.718 290.45 172.252 290.95 171.952C292.217 171.018 293.4 169.935 294.5 168.702C295.6 167.435 296.55 166.152 297.35 164.852C298.183 163.518 298.8 162.318 299.2 161.252C299.367 160.785 299.667 160.468 300.1 160.302C300.3 160.202 300.517 160.152 300.75 160.152C301.25 160.152 301.667 160.318 302 160.652C302.333 160.985 302.5 161.385 302.5 161.852C302.5 162.085 302.45 162.302 302.35 162.502C301.917 163.702 301.233 165.035 300.3 166.502C299.4 167.968 298.317 169.435 297.05 170.902C295.817 172.335 294.45 173.585 292.95 174.652C292.65 174.885 292.317 175.002 291.95 175.002ZM322.75 161.752C322.35 162.685 321.767 163.768 321 165.002C320.267 166.235 319.417 167.485 318.45 168.752C317.417 169.985 316.283 171.118 315.05 172.152C314.717 172.418 314.367 172.552 314 172.552C313.467 172.552 313.017 172.352 312.65 171.952C312.383 171.618 312.25 171.252 312.25 170.852C312.25 170.318 312.45 169.868 312.85 169.502C313.883 168.702 314.833 167.768 315.7 166.702C316.6 165.602 317.383 164.502 318.05 163.402C318.717 162.302 319.233 161.302 319.6 160.402C319.667 160.202 319.783 160.018 319.95 159.852C320.317 159.485 320.717 159.302 321.15 159.302C321.383 159.302 321.617 159.368 321.85 159.502C322.283 159.668 322.583 159.968 322.75 160.402C322.85 160.602 322.9 160.818 322.9 161.052C322.9 161.285 322.85 161.518 322.75 161.752ZM344.35 186.702C343.917 186.702 343.567 186.568 343.3 186.302C342.933 185.935 342.75 185.568 342.75 185.202C342.75 184.702 342.883 184.318 343.15 184.052C343.45 183.752 343.767 183.585 344.1 183.552L351.25 182.552V181.302C349.05 181.602 347.917 181.752 347.85 181.752C347.417 181.752 347.033 181.585 346.7 181.252C346.467 181.052 346.317 180.785 346.25 180.452C346.25 180.385 346.25 180.285 346.25 180.152C346.25 179.685 346.367 179.335 346.6 179.102C346.867 178.835 347.217 178.668 347.65 178.602L351.25 178.102V176.902C347.483 177.368 345.567 177.602 345.5 177.602C345.1 177.602 344.767 177.468 344.5 177.202C344.233 176.902 344.05 176.585 343.95 176.252C343.95 176.185 343.95 176.102 343.95 176.002C343.95 175.568 344.083 175.218 344.35 174.952C344.617 174.652 344.95 174.485 345.35 174.452L351.25 173.702V172.352C342.983 173.318 338.817 173.802 338.75 173.802C338.317 173.802 337.967 173.668 337.7 173.402C337.367 173.068 337.2 172.685 337.2 172.252C337.2 171.785 337.333 171.418 337.6 171.152C337.867 170.852 338.2 170.685 338.6 170.652L351.25 169.202V168.152C347.55 168.618 345.667 168.852 345.6 168.852C345.2 168.852 344.867 168.718 344.6 168.452C344.233 168.085 344.05 167.718 344.05 167.352C344.05 166.852 344.183 166.468 344.45 166.202C344.75 165.902 345.083 165.735 345.45 165.702L351.25 164.952V161.752C351.25 161.285 351.4 160.902 351.7 160.602C352 160.302 352.367 160.152 352.8 160.152C353.267 160.152 353.65 160.318 353.95 160.652C354.283 160.952 354.45 161.318 354.45 161.752V164.602C358.95 164.035 361.233 163.752 361.3 163.752C361.7 163.752 362.067 163.918 362.4 164.252C362.667 164.552 362.8 164.902 362.8 165.302C362.8 165.368 362.683 166.235 362.45 167.902C365.05 167.602 366.383 167.452 366.45 167.452C366.883 167.452 367.233 167.585 367.5 167.852C367.867 168.218 368.05 168.652 368.05 169.152C368.05 169.518 367.9 169.852 367.6 170.152C367.333 170.418 367 170.568 366.6 170.602L361.9 171.152L361.35 174.552C361.283 174.918 361.133 175.218 360.9 175.452C360.667 175.685 360.35 175.818 359.95 175.852L354.45 176.502V177.702C356.75 177.368 357.933 177.202 358 177.202C358.367 177.202 358.683 177.352 358.95 177.652C359.317 177.985 359.5 178.402 359.5 178.902C359.5 179.268 359.35 179.585 359.05 179.852C358.75 180.185 358.433 180.368 358.1 180.402L354.45 180.902V182.152C358.483 181.552 360.55 181.252 360.65 181.252C361.083 181.252 361.433 181.385 361.7 181.652C362.067 181.985 362.25 182.418 362.25 182.952C362.25 183.285 362.1 183.585 361.8 183.852C361.5 184.152 361.183 184.335 360.85 184.402L344.5 186.702C344.467 186.702 344.417 186.702 344.35 186.702ZM347.3 198.652C346.867 198.652 346.483 198.485 346.15 198.152C345.95 197.952 345.817 197.768 345.75 197.602L343.35 190.052C343.317 189.885 343.3 189.702 343.3 189.502C343.3 189.268 343.367 189.018 343.5 188.752C343.533 188.685 343.617 188.585 343.75 188.452C344.017 188.185 344.317 188.035 344.65 188.002L360.05 185.802C360.15 185.802 360.25 185.802 360.35 185.802C360.783 185.802 361.133 185.968 361.4 186.302C361.7 186.602 361.85 186.952 361.85 187.352C361.85 187.452 361.85 187.552 361.85 187.652L360.35 195.452C360.283 195.818 360.133 196.118 359.9 196.352C359.7 196.552 359.417 196.685 359.05 196.752L347.45 198.652C347.417 198.652 347.367 198.652 347.3 198.652ZM375.5 162.202C375.5 161.735 375.65 161.352 375.95 161.052C376.283 160.718 376.683 160.552 377.15 160.552C377.617 160.552 378 160.718 378.3 161.052C378.633 161.352 378.8 161.735 378.8 162.202V204.602C378.8 205.168 378.55 205.618 378.05 205.952C377.783 206.152 377.517 206.252 377.25 206.252C376.983 206.252 376.75 206.202 376.55 206.102L366.2 202.052C365.767 201.918 365.467 201.652 365.3 201.252C365.2 201.018 365.15 200.785 365.15 200.552C365.15 200.085 365.3 199.702 365.6 199.402C365.933 199.068 366.317 198.902 366.75 198.902C366.95 198.902 367.15 198.952 367.35 199.052L375.5 202.202V162.202ZM341.8 205.252C341.733 205.285 341.6 205.302 341.4 205.302C341.2 205.302 341 205.235 340.8 205.102C340.633 205.002 340.467 204.885 340.3 204.752C340.033 204.485 339.9 204.185 339.9 203.852C339.9 203.318 340.067 202.885 340.4 202.552C340.6 202.352 340.833 202.218 341.1 202.152L361.75 196.652C361.883 196.618 362.05 196.602 362.25 196.602C362.45 196.602 362.65 196.668 362.85 196.802C363.05 196.902 363.217 197.018 363.35 197.152C363.617 197.385 363.75 197.685 363.75 198.052C363.75 198.618 363.583 199.052 363.25 199.352C363.05 199.552 362.817 199.685 362.55 199.752L341.8 205.252ZM368.45 188.102C368.15 188.402 367.767 188.552 367.3 188.552C366.833 188.552 366.433 188.402 366.1 188.102C365.8 187.768 365.65 187.368 365.65 186.902V173.652C365.65 173.185 365.8 172.802 366.1 172.502C366.433 172.168 366.833 172.002 367.3 172.002C367.767 172.002 368.15 172.168 368.45 172.502C368.783 172.802 368.95 173.185 368.95 173.652V186.902C368.95 187.368 368.783 187.768 368.45 188.102ZM355.05 190.452C355.417 190.452 355.733 190.585 356 190.852C356.333 191.185 356.5 191.585 356.5 192.052C356.5 192.452 356.367 192.768 356.1 193.002C355.833 193.268 355.533 193.435 355.2 193.502L354.35 193.652V194.302L357.45 193.802L358.3 189.252L354.35 189.802V190.552C354.75 190.485 354.983 190.452 355.05 190.452ZM350.15 194.352C349.717 194.352 349.35 194.202 349.05 193.902C348.75 193.602 348.6 193.268 348.6 192.902C348.6 192.402 348.75 192.002 349.05 191.702C349.283 191.468 349.567 191.335 349.9 191.302L351.3 191.052V190.252L346.95 190.852L348.35 195.302L351.3 194.802V194.202C350.633 194.302 350.25 194.352 350.15 194.352ZM354.45 167.752V168.802L359.15 168.302L359.35 167.152L354.45 167.752ZM354.45 172.002V173.352L358.4 172.852L358.6 171.502L354.45 172.002Z" fill="#0082C5"/>
<path d="M459.5 161.573C458.7 163.173 456.833 164.24 456 164.573H455M459.5 161.573C458.7 161.573 453.5 156.24 451 153.573M459.5 161.573C463.167 158.073 471.8 150.073 477 146.073M451 153.573C449.8 153.573 448.5 155.573 448 156.573V159.073C448 159.473 441.333 164.907 438 167.573C437.6 169.573 433.833 177.073 432 180.573C434.667 178.907 441.1 175.373 445.5 174.573C447.667 171.907 452.4 166.173 454 164.573H455M451 153.573C451.4 152.373 455.5 148.073 457.5 146.073C459.9 144.473 464.167 138.407 466 135.573C466.09 135.741 466.184 135.908 466.28 136.073M477 146.073C474.581 144.783 469.165 141.027 466.28 136.073M477 146.073C477.5 146.073 478.6 145.873 479 145.073M479 145.073C492.5 131.407 519.8 103.573 521 101.573M479 145.073C474.682 141.54 469.69 135.792 467.615 133.216M521 101.573L510 91.0733M521 101.573C522.257 102.773 522.857 102.74 523 102.573L528 97.0733C525.6 94.2733 518 87.5733 514.5 84.5733L510 89.5733C509.833 89.9066 509.6 90.6733 510 91.0733M510 91.0733C507.6 92.2733 480.667 119.573 467.5 133.073C467.537 133.12 467.575 133.168 467.615 133.216M521 100.573L525.5 96.0733M518.5 98.0733L523 93.5733M517.5 97.0733L522 92.5733M517 95.5733L521 91.5733M514.5 94.0733L518.5 89.5733M448 158.573C448.667 159.74 451.4 162.573 455 164.573M515 84.5733C523 75.4066 542.8 53.9733 558 41.5733C559.667 39.9066 563.9 36.4733 567.5 36.0733C569.5 35.74 573.6 36.3733 574 41.5733C574 43.0733 573.3 46.9733 570.5 50.5733M570.5 50.5733C570.082 51.1401 569.582 51.8008 569 52.5496M570.5 50.5733C569.812 49.8229 569.115 49.0953 568.422 48.3966M528 96.5733C548.76 76.9062 563.081 60.1684 569 52.5496M559.5 40.5733C561.047 41.6982 564.681 44.6262 568.422 48.3966M569 52.5496C568.5 51.7241 567.4 50.0733 567 50.0733M560.5 44.0733C559.87 43.4066 558.488 42.0733 558 42.0733M562 43.0733L560 44.5733M560 44.5733C561.5 45.24 564.9 47.2733 566.5 50.0733M560 44.5733C559.333 44.4066 558 44.6733 558 47.0733C558.153 47.1345 558.321 47.2072 558.5 47.291M566.5 50.0733C567.115 49.6222 568.36 48.6552 568.422 48.3966M566.5 50.0733C566.9 52.4733 564.667 52.74 563.5 52.5733M563.5 52.5733C563.137 50.0304 560.272 48.1198 558.5 47.291M563.5 52.5733C554.167 61.4066 535.4 79.3733 535 80.5733C533.667 82.4066 530.8 86.1733 530 86.5733C529.5 86.74 528.4 86.8733 528 86.0733L526 84.0733C525.833 83.4066 525.7 81.9733 526.5 81.5733C528.461 80.1047 532.405 77.1487 532.5 77.0733C533.7 76.2733 550.333 56.8851 558.5 47.291M466.28 136.073C466.43 135.002 466.907 132.931 467.615 133.216M464 156.573C463 155.907 460.9 154.373 460.5 153.573M465 155.573C464 154.907 461.9 153.373 461.5 152.573M466 154.573C465 153.907 462.9 152.373 462.5 151.573M467 153.573C466 152.907 463.9 151.373 463.5 150.573M468 152.573C467 151.907 464.9 150.373 464.5 149.573M469 151.573C468 150.907 465.9 149.373 465.5 148.573M470 150.573C469 149.907 466.9 148.373 466.5 147.573M471.115 149.573C470.115 148.907 468.015 147.373 467.615 146.573" stroke="black"/>
<circle cx="441" cy="170.573" r="1" fill="black"/>
</svg>
