<svg width="576" height="362" viewBox="0 0 576 362" fill="none" xmlns="http://www.w3.org/2000/svg">
<path d="M500.998 28.2037L503.498 26.2037C506.298 24.2037 508.665 25.3704 509.498 26.2037L522.5 77.0281M500.998 28.2037L484.998 12.2037M500.998 28.2037L504.998 32.2037L517.418 83M484.998 12.2037L471.498 16.2037M484.998 12.2037L504.477 96.5M64.4984 146.704C51.2984 201.104 43.3317 229.37 40.9984 236.704L8.4984 342.704C26.8984 344.704 58.1651 344.87 71.4984 344.704C131.098 342.704 217.332 342.537 252.998 342.704C257.798 348.704 263.665 351.87 265.998 352.704L275.498 349.704L286.998 347.204L290.498 349.704L310.998 352.704L371.498 340.704L565.998 287.204V281.704L522 102M64.4984 146.704L93.9984 23.2037C94.1651 22.037 95.3984 20.1037 98.9984 21.7037C112.832 27.3704 147.698 40.3037 176.498 46.7037C196.332 50.037 246.498 63.4037 288.498 90.2037C286.832 83.537 291.598 66.2037 323.998 50.2037C337.665 43.2037 372.898 27.5037 404.498 20.7037C410.665 18.8704 431.198 12.4037 463.998 1.2037C465.165 0.87037 467.698 0.703704 468.498 2.7037L471.498 16.2037M64.4984 146.704L44.4984 211.704L24.4984 276.204L1.4984 343.704C-0.501601 348.504 3.9984 350.37 6.4984 350.704H166.998L248.498 348.704L249.998 349.704L259.498 358.204L269.998 361.204H290.498H304.498L310.998 358.204L357.498 349.704L453.498 326.204L565.998 295.204C568.998 293.704 575.098 289.404 575.498 284.204L528 98.5281M64.4984 146.704L37.4984 265.204C51.6651 270.37 90.4984 282.804 132.498 291.204C149.332 294.537 186.898 302.404 202.498 307.204C221.832 312.204 265.298 326.104 284.498 341.704H285.998C286.165 338.87 288.798 332.604 297.998 330.204C307.438 327.507 333.933 321.657 369.998 317.887M471.498 16.2037L494.888 106.5M369.998 317.887C374.048 317.464 378.218 317.067 382.498 316.704L544.498 269.704L508.867 115.5M369.998 317.887L533.998 267.704C534.832 267.37 536.398 266.404 535.998 265.204L499.681 125" stroke="black"/>
<path d="M285.998 341.204C289.998 344.704 301.198 351.704 313.998 351.704M285.998 341.204C285.346 341.557 284.678 341.892 283.998 342.21M285.998 341.204C287.036 290.67 286.249 249.982 286.5 213.5M288.498 89.7036C288.263 105.48 287.847 123.721 287.448 144.5C287.448 144.5 287.673 141.688 287.448 156.5M257.998 347.704C262.969 347.704 274.659 346.574 283.998 342.21M38.998 266.704L31.998 286.204C70.3314 290.037 151.498 298.704 169.498 302.704M169.498 302.704C176.331 304.037 192.498 307.504 202.498 310.704C208.235 312.042 216.56 314.263 225.998 317.209M169.498 302.704L153.998 300.704C141.598 299.104 102.831 295.037 84.998 293.204C65.798 291.204 42.3314 289.037 32.998 288.204V286.704M283.998 342.21C268.019 331.827 244.8 323.078 225.998 317.209M33.498 288.704L32.498 290.704C36.498 290.87 58.698 292.504 115.498 297.704C130.665 298.707 173.998 304.013 225.998 317.209" stroke="black"/>
<path d="M34.998 291.704V292.704C35.4894 292.74 35.9896 292.777 36.498 292.815M150.998 302.204C134.066 300.235 68.5856 295.197 36.498 292.815M36.498 292.815V294.704C36.7444 294.716 36.9926 294.728 37.2429 294.74M32.498 291.704L30.998 294.704M30.998 294.704L37.2429 294.74M30.998 294.704V296.204C53.7854 297.202 90.8318 299.469 127.998 303.032M37.2429 294.74C74.8277 296.604 156.161 302.869 210.398 314.123M31.498 296.704L30.498 297.704M127.998 303.032L30.498 298.704V297.704M127.998 303.032C141.194 304.297 154.405 305.725 166.998 307.317M30.498 297.704L30.998 299.204L28.498 300.704C29.3137 300.725 30.1473 300.748 30.998 300.771M166.998 307.317C152.89 304.664 72.0447 301.894 30.998 300.771M166.998 307.317C182.868 309.324 197.757 311.592 210.398 314.123M30.998 300.771L28.498 303.032C75.9313 303.702 178.718 306.858 210.398 314.123M210.398 314.123C216.093 315.263 221.331 316.456 225.998 317.704C221.126 316.458 215.902 315.265 210.398 314.123ZM29.998 304.204V305.704C30.1636 305.701 30.3303 305.699 30.498 305.697M228.498 318.204C210.621 315.293 191.164 313.018 171.498 311.252M281.498 342.704C274.006 338.066 256.893 329.61 235.498 323.693M30.498 305.697L29.498 306.7M30.498 305.697C58.4429 305.344 115.811 306.253 171.498 311.252M29.498 306.7L28.498 307.704L27.498 308.704L104.498 310.704C150.898 312.304 192.831 316.37 207.998 318.204C217.625 319.35 226.907 321.317 235.498 323.693M29.498 306.7C55.3314 307.401 119.898 309.292 171.498 311.252M27.998 309.204V310.704C63.818 310.395 146.758 312.11 214.998 320.791M235.498 323.693C228.865 322.648 222.009 321.683 214.998 320.791M28.498 311.204L26.998 313.704C27.4813 313.68 27.9814 313.656 28.498 313.633M214.998 320.791C128.252 312.225 55.5966 312.418 28.498 313.633M28.498 313.633L18.998 330.204C19.6308 330.224 20.2982 330.244 20.998 330.264M216.998 330.204C210.215 329.204 202.778 328.487 194.998 327.997M20.998 330.264C37.8115 330.757 73.3411 331.356 95.998 330.204C116.125 328.287 159.196 325.74 194.998 327.997M20.998 330.264L18.998 333.204C20.0906 333.228 21.2629 333.253 22.498 333.28M194.998 327.997C177.398 326.231 121.665 329.732 95.998 331.704C75.998 334.742 66.498 334.204 65.498 334.204C64.7557 334.204 38.4094 333.63 22.498 333.28M22.498 333.28L20.998 340.204C21.4601 340.188 21.9606 340.171 22.498 340.152M216.998 333.28L196.498 331.704C168.098 330.442 115.998 334.178 93.498 336.204C61.4252 338.495 33.7866 339.753 22.498 340.152M22.498 340.152L20.998 342.704C39.998 341.704 82.198 339.504 98.998 338.704C123.998 336.704 184.898 333.704 228.498 337.704M98.998 342.704C104.498 342.704 164.498 338.704 244.498 340.204M25.498 327.204C27.998 327.204 62.998 328.704 103.498 327.204L170.498 324.704M29.498 323.704C34.998 323.704 74.998 326.204 113.498 323.704M29.498 318.704C31.498 318.704 84.998 315.704 145.498 318.704M29.998 320.704C36.498 320.204 177.998 320.704 192.998 322.704" stroke="black"/>
<path d="M233.25 206.202C232.95 206.402 232.65 206.502 232.35 206.502C232.083 206.502 231.85 206.452 231.65 206.352C231.65 206.352 228.75 205.135 222.95 202.702C222.483 202.535 222.167 202.235 222 201.802C221.9 201.568 221.85 201.352 221.85 201.152C221.85 200.952 221.9 200.735 222 200.502C222.2 200.068 222.5 199.768 222.9 199.602C223.133 199.502 223.35 199.452 223.55 199.452C223.783 199.452 224 199.502 224.2 199.602L230.55 202.202V163.902L221.05 164.952V173.102C225.483 172.535 227.733 172.252 227.8 172.252C228.233 172.252 228.6 172.402 228.9 172.702C229.233 173.035 229.4 173.485 229.4 174.052C229.4 174.452 229.267 174.802 229 175.102C228.667 175.402 228.3 175.585 227.9 175.652C222.2 176.385 219.333 176.752 219.3 176.752C218.867 176.752 218.483 176.602 218.15 176.302C217.817 175.968 217.65 175.552 217.65 175.052V163.402C217.65 162.935 217.8 162.552 218.1 162.252C218.4 161.918 218.75 161.735 219.15 161.702C227.917 160.768 232.317 160.302 232.35 160.302C232.783 160.302 233.167 160.468 233.5 160.802C233.833 161.135 234 161.535 234 162.002V204.752C234 205.418 233.75 205.902 233.25 206.202ZM199.3 204.202C199.3 204.668 199.133 205.068 198.8 205.402C198.5 205.735 198.117 205.902 197.65 205.902C197.15 205.902 196.717 205.718 196.35 205.352C196.017 205.018 195.85 204.635 195.85 204.202V165.952C195.85 165.485 195.983 165.118 196.25 164.852C196.517 164.585 196.833 164.402 197.2 164.302L208.35 161.502C208.517 161.468 208.683 161.452 208.85 161.452C209.283 161.452 209.667 161.618 210 161.952C210.333 162.285 210.5 162.685 210.5 163.152V175.302C210.5 175.802 210.35 176.202 210.05 176.502C209.85 176.702 209.567 176.852 209.2 176.952L202.25 178.852C202.117 178.885 201.933 178.902 201.7 178.902C201.467 178.902 201.25 178.852 201.05 178.752C200.85 178.618 200.683 178.468 200.55 178.302C200.25 178.035 200.1 177.702 200.1 177.302C200.1 176.735 200.283 176.285 200.65 175.952C200.85 175.752 201.083 175.602 201.35 175.502L207.05 174.002V165.352L199.3 167.302V169.602L204.1 168.302C204.233 168.268 204.367 168.252 204.5 168.252C205 168.252 205.417 168.435 205.75 168.802C206.083 169.135 206.25 169.535 206.25 170.002C206.25 170.468 206.083 170.868 205.75 171.202C205.55 171.402 205.283 171.552 204.95 171.652L199.3 173.152V204.202ZM209.9 186.602L209.85 185.502C209.85 185.068 210 184.702 210.3 184.402C210.667 184.035 211.083 183.852 211.55 183.852C212.05 183.852 212.45 184.002 212.75 184.302C213.05 184.602 213.217 185.002 213.25 185.502C213.283 185.968 213.3 186.385 213.3 186.752C213.3 187.118 213.3 187.435 213.3 187.702L216.5 187.302V184.552C216.5 184.052 216.667 183.635 217 183.302C217.333 182.968 217.733 182.802 218.2 182.802C218.7 182.802 219.117 182.968 219.45 183.302C219.783 183.635 219.95 184.052 219.95 184.552V186.902C223.817 186.468 225.767 186.252 225.8 186.252C226.233 186.252 226.6 186.385 226.9 186.652C227.233 187.018 227.4 187.485 227.4 188.052C227.4 188.485 227.25 188.852 226.95 189.152C226.65 189.452 226.3 189.618 225.9 189.652L219.95 190.352V202.602C219.95 203.068 219.767 203.468 219.4 203.802C219.067 204.168 218.667 204.352 218.2 204.352C217.733 204.352 217.333 204.168 217 203.802C216.667 203.468 216.5 203.068 216.5 202.602V190.752L212.8 191.152C211.867 195.518 209.417 198.735 205.45 200.802C205.217 200.935 204.983 201.002 204.75 201.002C204.017 201.002 203.483 200.702 203.15 200.102C203.05 199.902 203 199.685 203 199.452C203 198.618 203.3 198.068 203.9 197.802C206.6 196.368 208.367 194.285 209.2 191.552C205.8 191.952 204.067 192.152 204 192.152C203.567 192.152 203.2 192.002 202.9 191.702C202.5 191.302 202.3 190.902 202.3 190.502C202.3 190.002 202.45 189.602 202.75 189.302C203.083 188.968 203.433 188.785 203.8 188.752L209.85 188.102C209.883 187.468 209.9 186.968 209.9 186.602ZM208.2 184.052C207.7 184.052 207.267 183.868 206.9 183.502C206.6 183.202 206.45 182.835 206.45 182.402C206.45 181.902 206.633 181.468 207 181.102C207.267 180.835 207.583 180.685 207.95 180.652C216.483 179.452 220.783 178.852 220.85 178.852C221.317 178.852 221.7 179.002 222 179.302C222.333 179.668 222.5 180.118 222.5 180.652C222.5 181.085 222.35 181.452 222.05 181.752C221.75 182.052 221.4 182.235 221 182.302C212.533 183.468 208.267 184.052 208.2 184.052ZM223.15 170.152C222.717 170.152 222.35 170.002 222.05 169.702C221.65 169.302 221.45 168.902 221.45 168.502C221.45 168.002 221.6 167.602 221.9 167.302C222.2 166.968 222.55 166.785 222.95 166.752C226.117 166.418 227.717 166.252 227.75 166.252C228.183 166.252 228.55 166.385 228.85 166.652C229.183 167.018 229.35 167.485 229.35 168.052C229.35 168.452 229.217 168.802 228.95 169.102C228.617 169.435 228.25 169.618 227.85 169.652C224.783 169.985 223.217 170.152 223.15 170.152ZM270.15 205.002C269.683 205.002 269.283 204.835 268.95 204.502C268.75 204.302 268.6 204.085 268.5 203.852L264.65 191.802C264.55 191.602 264.5 191.385 264.5 191.152C264.5 190.785 264.65 190.435 264.95 190.102C265.283 189.802 265.633 189.618 266 189.552L282.2 187.302C282.267 187.302 282.333 187.302 282.4 187.302C282.833 187.302 283.25 187.452 283.65 187.752C283.65 187.785 283.667 187.802 283.7 187.802C284 188.202 284.15 188.618 284.15 189.052C284.15 189.118 284.15 189.185 284.15 189.252C282.85 197.952 282.2 202.302 282.2 202.302C282.1 202.702 281.917 203.018 281.65 203.252C281.417 203.518 281.1 203.668 280.7 203.702C273.733 204.568 270.217 205.002 270.15 205.002ZM246.35 201.802C246.117 201.935 245.883 202.002 245.65 202.002C244.917 202.002 244.383 201.702 244.05 201.102C243.917 200.835 243.85 200.602 243.85 200.402C243.85 200.168 243.867 199.952 243.9 199.752C243.967 199.518 244.083 199.335 244.25 199.202C244.417 199.035 244.583 198.902 244.75 198.802C248.283 196.835 251.017 194.285 252.95 191.152C251.217 189.518 249.383 188.085 247.45 186.852C247.083 186.618 246.85 186.285 246.75 185.852C246.717 185.685 246.7 185.502 246.7 185.302C246.7 185.102 246.8 184.785 247 184.352C247.333 183.618 247.717 182.618 248.15 181.352L241.3 183.402C241.1 183.435 240.883 183.452 240.65 183.452C240.45 183.452 240.25 183.402 240.05 183.302C239.85 183.168 239.667 183.035 239.5 182.902C239.367 182.735 239.267 182.535 239.2 182.302C239.133 182.068 239.1 181.852 239.1 181.652C239.1 181.418 239.15 181.202 239.25 181.002C239.383 180.802 239.517 180.635 239.65 180.502C239.817 180.335 240.033 180.202 240.3 180.102L249.3 177.502C249.9 174.935 250.367 172.268 250.7 169.502C251.067 166.702 251.267 164.185 251.3 161.952C251.3 161.485 251.467 161.085 251.8 160.752C252.133 160.418 252.533 160.252 253 160.252C253 160.252 253.017 160.252 253.05 160.252C253.55 160.285 253.95 160.468 254.25 160.802C254.55 161.102 254.7 161.452 254.7 161.852C254.7 164.085 254.55 166.485 254.25 169.052C253.95 171.585 253.55 174.035 253.05 176.402L261.25 173.952C261.45 173.918 261.65 173.902 261.85 173.902C262.083 173.902 262.3 173.968 262.5 174.102C262.7 174.202 262.867 174.335 263 174.502C263.167 174.635 263.283 174.818 263.35 175.052C263.417 175.285 263.45 175.518 263.45 175.752C263.45 175.952 263.4 176.152 263.3 176.352C263.2 176.552 263.067 176.735 262.9 176.902C262.733 177.068 262.5 177.185 262.2 177.252L252.05 180.202C251.683 181.702 251.167 183.235 250.5 184.802C251.7 185.568 253.05 186.618 254.55 187.952C255.383 185.952 255.883 183.768 256.05 181.402C256.083 180.935 256.267 180.552 256.6 180.252C256.967 179.952 257.333 179.802 257.7 179.802C258.233 179.802 258.683 180.002 259.05 180.402C259.317 180.735 259.45 181.085 259.45 181.452C259.45 181.518 259.45 181.585 259.45 181.652C259.217 184.785 258.467 187.735 257.2 190.502C259.467 192.935 261.3 195.418 262.7 197.952C262.833 198.218 262.9 198.468 262.9 198.702C262.9 198.902 262.867 199.118 262.8 199.352C262.767 199.552 262.667 199.718 262.5 199.852C262.133 200.252 261.7 200.452 261.2 200.452C260.733 200.452 260.333 200.285 260 199.952C259.9 199.852 259.8 199.718 259.7 199.552C258.567 197.518 257.133 195.552 255.4 193.652C253.167 197.018 250.15 199.735 246.35 201.802ZM268.5 192.652L271.35 201.402L279 200.452L280.4 191.052L268.5 192.652ZM263.1 184.352C262.5 184.352 262.033 184.052 261.7 183.452C261.567 183.218 261.5 182.952 261.5 182.652C261.5 182.185 261.667 181.785 262 181.452C263.567 179.785 265 177.852 266.3 175.652C267.6 173.418 268.717 171.118 269.65 168.752C270.583 166.385 271.3 164.202 271.8 162.202C271.9 161.735 272.15 161.385 272.55 161.152C272.85 160.952 273.167 160.852 273.5 160.852C273.933 160.852 274.317 161.035 274.65 161.402C275.017 161.735 275.2 162.135 275.2 162.602C275.2 162.735 275.183 162.868 275.15 163.002C274.717 164.802 274.1 166.752 273.3 168.852C272.533 170.918 271.65 172.902 270.65 174.802C269.683 176.668 268.667 178.352 267.6 179.852L277.8 177.502C277.933 177.468 278.1 177.452 278.3 177.452C278.533 177.452 278.75 177.518 278.95 177.652C279.15 177.752 279.3 177.852 279.4 177.952C279.733 178.285 279.9 178.685 279.9 179.152C279.9 179.652 279.717 180.068 279.35 180.402C279.117 180.635 278.85 180.785 278.55 180.852L263.6 184.302C263.433 184.335 263.267 184.352 263.1 184.352ZM284.95 182.552C284.95 182.552 283.533 181.085 280.7 178.152C277.9 175.218 276.5 173.752 276.5 173.752C276.2 173.385 276.05 172.968 276.05 172.502C276.05 172.002 276.217 171.602 276.55 171.302C276.917 171.002 277.317 170.852 277.75 170.852C278.25 170.852 278.667 171.035 279 171.402L287.35 180.152C287.717 180.518 287.9 180.935 287.9 181.402C287.9 181.835 287.733 182.218 287.4 182.552C287.067 182.885 286.667 183.052 286.2 183.052C285.733 183.052 285.317 182.885 284.95 182.552ZM314.65 205.102C314.65 205.568 314.483 205.968 314.15 206.302C313.85 206.635 313.45 206.802 312.95 206.802C312.483 206.802 312.083 206.635 311.75 206.302C311.417 205.968 311.25 205.568 311.25 205.102V192.052C309.517 193.585 307.533 195.102 305.3 196.602C303.1 198.102 300.75 199.468 298.25 200.702C295.783 201.935 293.45 202.952 291.25 203.752C291.05 203.852 290.833 203.902 290.6 203.902C290.2 203.902 289.833 203.735 289.5 203.402C289.333 203.235 289.2 203.035 289.1 202.802C289 202.568 288.95 202.335 288.95 202.102C288.95 201.702 289.117 201.335 289.45 201.002C289.617 200.835 289.833 200.702 290.1 200.602C293.9 199.202 297.633 197.385 301.3 195.152C303.233 194.018 304.983 192.835 306.55 191.602C308.383 190.202 309.95 188.802 311.25 187.402V184.952L300.95 185.852L302.05 191.602C302.083 191.735 302.1 191.852 302.1 191.952C302.1 192.452 301.917 192.868 301.55 193.202C301.25 193.502 300.9 193.652 300.5 193.652C299.967 193.652 299.517 193.485 299.15 193.152C298.917 192.918 298.767 192.635 298.7 192.302L297.25 184.652C297.217 184.518 297.2 184.385 297.2 184.252C297.2 183.918 297.317 183.602 297.55 183.302C297.55 183.268 297.583 183.218 297.65 183.152C297.95 182.852 298.3 182.668 298.7 182.602C298.733 182.602 302.917 182.252 311.25 181.552V179.352C306.083 179.852 303.467 180.102 303.4 180.102C302.967 180.102 302.583 179.935 302.25 179.602C301.883 179.235 301.7 178.852 301.7 178.452C301.7 177.952 301.85 177.552 302.15 177.252C302.45 176.918 302.8 176.735 303.2 176.702L311.25 175.902V172.852C311.25 172.352 311.417 171.952 311.75 171.652C312.083 171.318 312.483 171.152 312.95 171.152C313.45 171.152 313.85 171.318 314.15 171.652C314.483 171.952 314.65 172.352 314.65 172.852V175.552C318.95 175.118 321.133 174.902 321.2 174.902C321.667 174.902 322.05 175.052 322.35 175.352C322.683 175.718 322.85 176.185 322.85 176.752C322.85 177.152 322.7 177.502 322.4 177.802C322.133 178.102 321.783 178.268 321.35 178.302L314.65 178.952V181.202C323.35 180.468 327.717 180.102 327.75 180.102C328.25 180.102 328.667 180.285 329 180.652C329.3 180.952 329.45 181.318 329.45 181.752C329.45 181.885 329.367 182.435 329.2 183.402C328.767 185.735 328.267 187.835 327.7 189.702C327.333 190.802 326.95 191.752 326.55 192.552C326.317 193.018 325.95 193.318 325.45 193.452C325.317 193.485 325.133 193.502 324.9 193.502C324.667 193.502 324.417 193.418 324.15 193.252L319.1 190.252C318.667 190.018 318.4 189.668 318.3 189.202C318.267 189.068 318.25 188.885 318.25 188.652C318.25 188.285 318.383 187.952 318.65 187.652C319.05 187.285 319.5 187.102 320 187.102C320.267 187.102 320.533 187.168 320.8 187.302L324.2 189.302C324.667 187.968 325.15 186.102 325.65 183.702L314.65 184.652V190.102L316.5 191.402C319 193.135 321.617 194.752 324.35 196.252C325.817 197.052 327.15 197.685 328.35 198.152C330.017 198.752 332.25 199.335 335.05 199.902L336.4 200.152C336.867 200.252 337.233 200.502 337.5 200.902C337.7 201.168 337.8 201.468 337.8 201.802C337.8 202.435 337.567 202.902 337.1 203.202C336.767 203.435 336.4 203.552 336 203.552C335.867 203.552 335.733 203.535 335.6 203.502C335.5 203.468 335.017 203.368 334.15 203.202C331.383 202.635 329.15 202.052 327.45 201.452C325.783 200.818 324.117 200.035 322.45 199.102C320.05 197.768 317.45 196.152 314.65 194.252V205.102ZM326.6 174.752C326 174.752 325.533 174.502 325.2 174.002C325.2 174.002 323.917 172.152 321.35 168.452C321.117 168.118 321 167.818 321 167.552C321 167.018 321.183 166.585 321.55 166.252C321.783 166.018 322.067 165.852 322.4 165.752C322.4 165.752 325.817 165.152 332.65 163.952C332.783 163.918 332.917 163.902 333.05 163.902C333.517 163.902 333.883 164.052 334.15 164.352C334.517 164.685 334.7 165.118 334.7 165.652C334.7 166.118 334.55 166.502 334.25 166.802C333.983 167.068 333.667 167.235 333.3 167.302L325.65 168.652L327.95 172.052C328.183 172.318 328.3 172.618 328.3 172.952C328.3 173.585 328.05 174.068 327.55 174.402C327.25 174.635 326.933 174.752 326.6 174.752ZM307.55 174.252C307.55 174.718 307.383 175.118 307.05 175.452C306.717 175.785 306.35 175.952 305.95 175.952C305.25 175.952 304.717 175.685 304.35 175.152L300.8 169.652C300.567 169.352 300.45 169.068 300.45 168.802C300.45 168.502 300.517 168.252 300.65 168.052C300.717 167.818 300.85 167.618 301.05 167.452C301.25 167.252 301.533 167.102 301.9 167.002C301.9 167.002 304.983 166.452 311.15 165.352C311.283 165.318 311.4 165.302 311.5 165.302C311.967 165.302 312.35 165.452 312.65 165.752C313.017 166.118 313.2 166.568 313.2 167.102C313.2 167.568 313.05 167.952 312.75 168.252C312.483 168.518 312.167 168.685 311.8 168.752L305.05 169.952L307.25 173.302C307.45 173.602 307.55 173.918 307.55 174.252ZM292.95 175.002C292.35 175.002 291.883 174.768 291.55 174.302C291.317 174.035 291.2 173.718 291.2 173.352C291.2 172.718 291.45 172.252 291.95 171.952C293.217 171.018 294.4 169.935 295.5 168.702C296.6 167.435 297.55 166.152 298.35 164.852C299.183 163.518 299.8 162.318 300.2 161.252C300.367 160.785 300.667 160.468 301.1 160.302C301.3 160.202 301.517 160.152 301.75 160.152C302.25 160.152 302.667 160.318 303 160.652C303.333 160.985 303.5 161.385 303.5 161.852C303.5 162.085 303.45 162.302 303.35 162.502C302.917 163.702 302.233 165.035 301.3 166.502C300.4 167.968 299.317 169.435 298.05 170.902C296.817 172.335 295.45 173.585 293.95 174.652C293.65 174.885 293.317 175.002 292.95 175.002ZM323.75 161.752C323.35 162.685 322.767 163.768 322 165.002C321.267 166.235 320.417 167.485 319.45 168.752C318.417 169.985 317.283 171.118 316.05 172.152C315.717 172.418 315.367 172.552 315 172.552C314.467 172.552 314.017 172.352 313.65 171.952C313.383 171.618 313.25 171.252 313.25 170.852C313.25 170.318 313.45 169.868 313.85 169.502C314.883 168.702 315.833 167.768 316.7 166.702C317.6 165.602 318.383 164.502 319.05 163.402C319.717 162.302 320.233 161.302 320.6 160.402C320.667 160.202 320.783 160.018 320.95 159.852C321.317 159.485 321.717 159.302 322.15 159.302C322.383 159.302 322.617 159.368 322.85 159.502C323.283 159.668 323.583 159.968 323.75 160.402C323.85 160.602 323.9 160.818 323.9 161.052C323.9 161.285 323.85 161.518 323.75 161.752ZM345.35 186.702C344.917 186.702 344.567 186.568 344.3 186.302C343.933 185.935 343.75 185.568 343.75 185.202C343.75 184.702 343.883 184.318 344.15 184.052C344.45 183.752 344.767 183.585 345.1 183.552L352.25 182.552V181.302C350.05 181.602 348.917 181.752 348.85 181.752C348.417 181.752 348.033 181.585 347.7 181.252C347.467 181.052 347.317 180.785 347.25 180.452C347.25 180.385 347.25 180.285 347.25 180.152C347.25 179.685 347.367 179.335 347.6 179.102C347.867 178.835 348.217 178.668 348.65 178.602L352.25 178.102V176.902C348.483 177.368 346.567 177.602 346.5 177.602C346.1 177.602 345.767 177.468 345.5 177.202C345.233 176.902 345.05 176.585 344.95 176.252C344.95 176.185 344.95 176.102 344.95 176.002C344.95 175.568 345.083 175.218 345.35 174.952C345.617 174.652 345.95 174.485 346.35 174.452L352.25 173.702V172.352C343.983 173.318 339.817 173.802 339.75 173.802C339.317 173.802 338.967 173.668 338.7 173.402C338.367 173.068 338.2 172.685 338.2 172.252C338.2 171.785 338.333 171.418 338.6 171.152C338.867 170.852 339.2 170.685 339.6 170.652L352.25 169.202V168.152C348.55 168.618 346.667 168.852 346.6 168.852C346.2 168.852 345.867 168.718 345.6 168.452C345.233 168.085 345.05 167.718 345.05 167.352C345.05 166.852 345.183 166.468 345.45 166.202C345.75 165.902 346.083 165.735 346.45 165.702L352.25 164.952V161.752C352.25 161.285 352.4 160.902 352.7 160.602C353 160.302 353.367 160.152 353.8 160.152C354.267 160.152 354.65 160.318 354.95 160.652C355.283 160.952 355.45 161.318 355.45 161.752V164.602C359.95 164.035 362.233 163.752 362.3 163.752C362.7 163.752 363.067 163.918 363.4 164.252C363.667 164.552 363.8 164.902 363.8 165.302C363.8 165.368 363.683 166.235 363.45 167.902C366.05 167.602 367.383 167.452 367.45 167.452C367.883 167.452 368.233 167.585 368.5 167.852C368.867 168.218 369.05 168.652 369.05 169.152C369.05 169.518 368.9 169.852 368.6 170.152C368.333 170.418 368 170.568 367.6 170.602L362.9 171.152L362.35 174.552C362.283 174.918 362.133 175.218 361.9 175.452C361.667 175.685 361.35 175.818 360.95 175.852L355.45 176.502V177.702C357.75 177.368 358.933 177.202 359 177.202C359.367 177.202 359.683 177.352 359.95 177.652C360.317 177.985 360.5 178.402 360.5 178.902C360.5 179.268 360.35 179.585 360.05 179.852C359.75 180.185 359.433 180.368 359.1 180.402L355.45 180.902V182.152C359.483 181.552 361.55 181.252 361.65 181.252C362.083 181.252 362.433 181.385 362.7 181.652C363.067 181.985 363.25 182.418 363.25 182.952C363.25 183.285 363.1 183.585 362.8 183.852C362.5 184.152 362.183 184.335 361.85 184.402L345.5 186.702C345.467 186.702 345.417 186.702 345.35 186.702ZM348.3 198.652C347.867 198.652 347.483 198.485 347.15 198.152C346.95 197.952 346.817 197.768 346.75 197.602L344.35 190.052C344.317 189.885 344.3 189.702 344.3 189.502C344.3 189.268 344.367 189.018 344.5 188.752C344.533 188.685 344.617 188.585 344.75 188.452C345.017 188.185 345.317 188.035 345.65 188.002L361.05 185.802C361.15 185.802 361.25 185.802 361.35 185.802C361.783 185.802 362.133 185.968 362.4 186.302C362.7 186.602 362.85 186.952 362.85 187.352C362.85 187.452 362.85 187.552 362.85 187.652L361.35 195.452C361.283 195.818 361.133 196.118 360.9 196.352C360.7 196.552 360.417 196.685 360.05 196.752L348.45 198.652C348.417 198.652 348.367 198.652 348.3 198.652ZM376.5 162.202C376.5 161.735 376.65 161.352 376.95 161.052C377.283 160.718 377.683 160.552 378.15 160.552C378.617 160.552 379 160.718 379.3 161.052C379.633 161.352 379.8 161.735 379.8 162.202V204.602C379.8 205.168 379.55 205.618 379.05 205.952C378.783 206.152 378.517 206.252 378.25 206.252C377.983 206.252 377.75 206.202 377.55 206.102L367.2 202.052C366.767 201.918 366.467 201.652 366.3 201.252C366.2 201.018 366.15 200.785 366.15 200.552C366.15 200.085 366.3 199.702 366.6 199.402C366.933 199.068 367.317 198.902 367.75 198.902C367.95 198.902 368.15 198.952 368.35 199.052L376.5 202.202V162.202ZM342.8 205.252C342.733 205.285 342.6 205.302 342.4 205.302C342.2 205.302 342 205.235 341.8 205.102C341.633 205.002 341.467 204.885 341.3 204.752C341.033 204.485 340.9 204.185 340.9 203.852C340.9 203.318 341.067 202.885 341.4 202.552C341.6 202.352 341.833 202.218 342.1 202.152L362.75 196.652C362.883 196.618 363.05 196.602 363.25 196.602C363.45 196.602 363.65 196.668 363.85 196.802C364.05 196.902 364.217 197.018 364.35 197.152C364.617 197.385 364.75 197.685 364.75 198.052C364.75 198.618 364.583 199.052 364.25 199.352C364.05 199.552 363.817 199.685 363.55 199.752L342.8 205.252ZM369.45 188.102C369.15 188.402 368.767 188.552 368.3 188.552C367.833 188.552 367.433 188.402 367.1 188.102C366.8 187.768 366.65 187.368 366.65 186.902V173.652C366.65 173.185 366.8 172.802 367.1 172.502C367.433 172.168 367.833 172.002 368.3 172.002C368.767 172.002 369.15 172.168 369.45 172.502C369.783 172.802 369.95 173.185 369.95 173.652V186.902C369.95 187.368 369.783 187.768 369.45 188.102ZM356.05 190.452C356.417 190.452 356.733 190.585 357 190.852C357.333 191.185 357.5 191.585 357.5 192.052C357.5 192.452 357.367 192.768 357.1 193.002C356.833 193.268 356.533 193.435 356.2 193.502L355.35 193.652V194.302L358.45 193.802L359.3 189.252L355.35 189.802V190.552C355.75 190.485 355.983 190.452 356.05 190.452ZM351.15 194.352C350.717 194.352 350.35 194.202 350.05 193.902C349.75 193.602 349.6 193.268 349.6 192.902C349.6 192.402 349.75 192.002 350.05 191.702C350.283 191.468 350.567 191.335 350.9 191.302L352.3 191.052V190.252L347.95 190.852L349.35 195.302L352.3 194.802V194.202C351.633 194.302 351.25 194.352 351.15 194.352ZM355.45 167.752V168.802L360.15 168.302L360.35 167.152L355.45 167.752ZM355.45 172.002V173.352L359.4 172.852L359.6 171.502L355.45 172.002Z" fill="#0082C5"/>
<path d="M460.5 161.573C459.7 163.173 457.833 164.24 457 164.573H456M460.5 161.573C459.7 161.573 454.5 156.24 452 153.573M460.5 161.573C464.167 158.073 472.8 150.073 478 146.073M452 153.573C450.8 153.573 449.5 155.573 449 156.573V159.073C449 159.473 442.333 164.907 439 167.573C438.6 169.573 434.833 177.073 433 180.573C435.667 178.907 442.1 175.373 446.5 174.573C448.667 171.907 453.4 166.173 455 164.573H456M452 153.573C452.4 152.373 456.5 148.073 458.5 146.073C460.9 144.473 465.167 138.407 467 135.573C467.09 135.741 467.184 135.908 467.28 136.073M478 146.073C475.581 144.783 470.165 141.027 467.28 136.073M478 146.073C478.5 146.073 479.6 145.873 480 145.073M480 145.073C493.5 131.407 520.8 103.573 522 101.573M480 145.073C475.682 141.54 470.69 135.792 468.615 133.216M522 101.573L511 91.0733M522 101.573C523.257 102.773 523.857 102.74 524 102.573L529 97.0733C526.6 94.2733 519 87.5733 515.5 84.5733L511 89.5733C510.833 89.9066 510.6 90.6733 511 91.0733M511 91.0733C508.6 92.2733 481.667 119.573 468.5 133.073C468.537 133.12 468.575 133.168 468.615 133.216M522 100.573L526.5 96.0733M519.5 98.0733L524 93.5733M518.5 97.0733L523 92.5733M518 95.5733L522 91.5733M515.5 94.0733L519.5 89.5733M449 158.573C449.667 159.74 452.4 162.573 456 164.573M516 84.5733C524 75.4066 543.8 53.9733 559 41.5733C560.667 39.9066 564.9 36.4733 568.5 36.0733C570.5 35.74 574.6 36.3733 575 41.5733C575 43.0733 574.3 46.9733 571.5 50.5733M571.5 50.5733C571.082 51.1401 570.582 51.8008 570 52.5496M571.5 50.5733C570.812 49.8229 570.115 49.0953 569.422 48.3966M529 96.5733C549.76 76.9062 564.081 60.1684 570 52.5496M560.5 40.5733C562.047 41.6982 565.681 44.6262 569.422 48.3966M570 52.5496C569.5 51.7241 568.4 50.0733 568 50.0733M561.5 44.0733C560.87 43.4066 559.488 42.0733 559 42.0733M563 43.0733L561 44.5733M561 44.5733C562.5 45.24 565.9 47.2733 567.5 50.0733M561 44.5733C560.333 44.4066 559 44.6733 559 47.0733C559.153 47.1345 559.321 47.2072 559.5 47.291M567.5 50.0733C568.115 49.6222 569.36 48.6552 569.422 48.3966M567.5 50.0733C567.9 52.4733 565.667 52.74 564.5 52.5733M564.5 52.5733C564.137 50.0304 561.272 48.1198 559.5 47.291M564.5 52.5733C555.167 61.4066 536.4 79.3733 536 80.5733C534.667 82.4066 531.8 86.1733 531 86.5733C530.5 86.74 529.4 86.8733 529 86.0733L527 84.0733C526.833 83.4066 526.7 81.9733 527.5 81.5733C529.461 80.1047 533.405 77.1487 533.5 77.0733C534.7 76.2733 551.333 56.8851 559.5 47.291M467.28 136.073C467.43 135.002 467.907 132.931 468.615 133.216M465 156.573C464 155.907 461.9 154.373 461.5 153.573M466 155.573C465 154.907 462.9 153.373 462.5 152.573M467 154.573C466 153.907 463.9 152.373 463.5 151.573M468 153.573C467 152.907 464.9 151.373 464.5 150.573M469 152.573C468 151.907 465.9 150.373 465.5 149.573M470 151.573C469 150.907 466.9 149.373 466.5 148.573M471 150.573C470 149.907 467.9 148.373 467.5 147.573M472.115 149.573C471.115 148.907 469.015 147.373 468.615 146.573" stroke="black"/>
<circle cx="442" cy="170.573" r="1" fill="black"/>
</svg>
