<svg width="576" height="362" viewBox="0 0 576 362" fill="none" xmlns="http://www.w3.org/2000/svg">
<path d="M500.998 28.2037L503.498 26.2037C506.298 24.2037 508.665 25.3704 509.498 26.2037L575.498 284.204C575.098 289.404 568.998 293.704 565.998 295.204L453.498 326.204L357.498 349.704L310.998 358.204L304.498 361.204H290.498H269.998L259.498 358.204L249.998 349.704L248.498 348.704L166.998 350.704H6.4984C3.9984 350.37 -0.501601 348.504 1.4984 343.704L24.4984 276.204L44.4984 211.704L64.4984 146.704M500.998 28.2037L484.998 12.2037M500.998 28.2037L504.998 32.2037L565.998 281.704V287.204L371.498 340.704L310.998 352.704L290.498 349.704L286.998 347.204L275.498 349.704L265.998 352.704C263.665 351.87 257.798 348.704 252.998 342.704C217.332 342.537 131.098 342.704 71.4984 344.704C58.1651 344.87 26.8984 344.704 8.4984 342.704L40.9984 236.704C43.3317 229.37 51.2984 201.104 64.4984 146.704M484.998 12.2037L471.498 16.2037M484.998 12.2037L544.498 269.704L382.498 316.704C378.218 317.067 374.048 317.464 369.998 317.887M64.4984 146.704L93.9984 23.2037C94.1651 22.037 95.3984 20.1037 98.9984 21.7037C112.832 27.3704 147.698 40.3037 176.498 46.7037C196.332 50.037 246.498 63.4037 288.498 90.2037C286.832 83.537 291.598 66.2037 323.998 50.2037C337.665 43.2037 372.898 27.5037 404.498 20.7037C410.665 18.8704 431.198 12.4037 463.998 1.2037C465.165 0.87037 467.698 0.703704 468.498 2.7037L471.498 16.2037M64.4984 146.704L37.4984 265.204C51.6651 270.37 90.4984 282.804 132.498 291.204C149.332 294.537 186.898 302.404 202.498 307.204C221.832 312.204 265.298 326.104 284.498 341.704H285.998C286.165 338.87 288.798 332.604 297.998 330.204C307.438 327.507 333.933 321.657 369.998 317.887M471.498 16.2037L535.998 265.204C536.398 266.404 534.832 267.37 533.998 267.704L369.998 317.887" stroke="black"/>
<path d="M285.999 341.204C289.999 344.704 301.199 351.704 313.999 351.704M285.999 341.204C285.347 341.557 284.679 341.892 283.999 342.21M285.999 341.204C287.037 290.67 286.249 249.982 286.5 213.5M288.499 89.7036C288.263 105.48 287.848 123.721 287.449 144.5C287.449 144.5 287.673 141.688 287.449 156.5M257.999 347.704C262.97 347.704 274.66 346.574 283.999 342.21M38.9985 266.704L31.9985 286.204C70.3319 290.037 151.499 298.704 169.499 302.704M169.499 302.704C176.332 304.037 192.499 307.504 202.499 310.704C208.236 312.042 216.561 314.263 225.999 317.209M169.499 302.704L153.999 300.704C141.599 299.104 102.832 295.037 84.9985 293.204C65.7985 291.204 42.3319 289.037 32.9985 288.204V286.704M283.999 342.21C268.02 331.827 244.8 323.078 225.999 317.209M33.4985 288.704L32.4985 290.704C36.4985 290.87 58.6985 292.504 115.499 297.704C130.665 298.707 173.999 304.013 225.999 317.209" stroke="black"/>
<path d="M34.9985 291.704V292.704C35.4899 292.74 35.99 292.777 36.4985 292.815M150.999 302.204C134.067 300.235 68.5861 295.197 36.4985 292.815M36.4985 292.815V294.704C36.7449 294.716 36.9931 294.728 37.2433 294.74M32.4985 291.704L30.9985 294.704M30.9985 294.704L37.2433 294.74M30.9985 294.704V296.204C53.7859 297.202 90.8323 299.469 127.999 303.032M37.2433 294.74C74.8282 296.604 156.161 302.869 210.398 314.123M31.4985 296.704L30.4985 297.704M127.999 303.032L30.4985 298.704V297.704M127.999 303.032C141.194 304.297 154.405 305.725 166.999 307.317M30.4985 297.704L30.9985 299.204L28.4985 300.704C29.3141 300.725 30.1478 300.748 30.9985 300.771M166.999 307.317C152.891 304.664 72.0451 301.894 30.9985 300.771M166.999 307.317C182.868 309.324 197.757 311.592 210.398 314.123M30.9985 300.771L28.4985 303.032C75.9318 303.702 178.718 306.858 210.398 314.123M210.398 314.123C216.093 315.263 221.332 316.456 225.999 317.704C221.127 316.458 215.902 315.265 210.398 314.123ZM29.9985 304.204V305.704C30.1641 305.701 30.3308 305.699 30.4985 305.697M228.499 318.204C210.622 315.293 191.165 313.018 171.499 311.252M281.499 342.704C274.007 338.066 256.894 329.61 235.499 323.693M30.4985 305.697L29.4985 306.7M30.4985 305.697C58.4433 305.344 115.812 306.253 171.499 311.252M29.4985 306.7L28.4985 307.704L27.4985 308.704L104.499 310.704C150.899 312.304 192.832 316.37 207.999 318.204C217.625 319.35 226.907 321.317 235.499 323.693M29.4985 306.7C55.3319 307.401 119.899 309.292 171.499 311.252M27.9985 309.204V310.704C63.8185 310.395 146.759 312.11 214.999 320.791M235.499 323.693C228.865 322.648 222.009 321.683 214.999 320.791M28.4985 311.204L26.9985 313.704C27.4818 313.68 27.9819 313.656 28.4985 313.633M214.999 320.791C128.252 312.225 55.5971 312.418 28.4985 313.633M28.4985 313.633L18.9985 330.204C19.6313 330.224 20.2987 330.244 20.9985 330.264M216.999 330.204C210.215 329.204 202.778 328.487 194.999 327.997M20.9985 330.264C37.812 330.757 73.3416 331.356 95.9985 330.204C116.125 328.287 159.196 325.74 194.999 327.997M20.9985 330.264L18.9985 333.204C20.0911 333.228 21.2634 333.253 22.4985 333.28M194.999 327.997C177.399 326.231 121.665 329.732 95.9985 331.704C75.9985 334.742 66.4985 334.204 65.4985 334.204C64.7562 334.204 38.4099 333.63 22.4985 333.28M22.4985 333.28L20.9985 340.204C21.4606 340.188 21.961 340.171 22.4985 340.152M216.999 333.28L196.499 331.704C168.099 330.442 115.999 334.178 93.4985 336.204C61.4257 338.495 33.7871 339.753 22.4985 340.152M22.4985 340.152L20.9985 342.704C39.9985 341.704 82.1985 339.504 98.9985 338.704C123.999 336.704 184.899 333.704 228.499 337.704M98.9985 342.704C104.499 342.704 164.499 338.704 244.499 340.204M25.4985 327.204C27.9985 327.204 62.9985 328.704 103.499 327.204L170.499 324.704M29.4985 323.704C34.9985 323.704 74.9985 326.204 113.499 323.704M29.4985 318.704C31.4985 318.704 84.9985 315.704 145.499 318.704M29.9985 320.704C36.4985 320.204 177.999 320.704 192.999 322.704" stroke="black"/>
<path d="M212.4 204.652C212.033 204.718 211.717 204.618 211.45 204.352C211.183 204.152 211.05 203.868 211.05 203.502V163.752C211.05 163.418 211.167 163.135 211.4 162.902C211.633 162.668 211.917 162.552 212.25 162.552C212.583 162.552 212.867 162.668 213.1 162.902C213.333 163.135 213.45 163.418 213.45 163.752V202.152C215.217 201.985 217.2 201.818 219.4 201.652C221.633 201.485 223.9 201.335 226.2 201.202C228.5 201.068 230.65 200.968 232.65 200.902C234.683 200.835 236.367 200.802 237.7 200.802C238.033 200.802 238.317 200.918 238.55 201.152C238.783 201.385 238.9 201.668 238.9 202.002C238.9 202.335 238.783 202.618 238.55 202.852C238.317 203.085 238.033 203.202 237.7 203.202C236.567 203.202 235.183 203.218 233.55 203.252C231.917 203.318 230.15 203.402 228.25 203.502C226.383 203.602 224.483 203.702 222.55 203.802C220.617 203.935 218.767 204.068 217 204.202C215.267 204.368 213.733 204.518 212.4 204.652ZM195.95 183.902C195.45 184.002 195.033 183.835 194.7 183.402C194.4 182.902 194.417 182.435 194.75 182.002L200.15 174.652L195.1 173.802C194.6 173.735 194.3 173.468 194.2 173.002C194.033 172.568 194.117 172.168 194.45 171.802C195.317 170.868 196.183 169.785 197.05 168.552C197.95 167.318 198.783 166.085 199.55 164.852C200.317 163.585 200.917 162.468 201.35 161.502C201.483 161.202 201.7 161.002 202 160.902C202.333 160.768 202.65 160.785 202.95 160.952C203.25 161.085 203.45 161.302 203.55 161.602C203.683 161.902 203.667 162.202 203.5 162.502C202.933 163.768 202.1 165.268 201 167.002C199.933 168.735 198.8 170.335 197.6 171.802L201.75 172.502L205.5 167.402C205.7 167.135 205.967 166.985 206.3 166.952C206.633 166.885 206.917 166.952 207.15 167.152C207.417 167.352 207.567 167.618 207.6 167.952C207.667 168.252 207.617 168.535 207.45 168.802L198.55 180.902L204.1 179.652C204.433 179.585 204.733 179.652 205 179.852C205.267 180.018 205.433 180.268 205.5 180.602C205.567 180.902 205.517 181.202 205.35 181.502C205.183 181.768 204.933 181.935 204.6 182.002L195.95 183.902ZM216.25 177.802C215.683 177.902 215.267 177.685 215 177.152C214.767 176.652 214.883 176.202 215.35 175.802C215.85 175.402 216.483 174.785 217.25 173.952C218.017 173.118 218.783 172.235 219.55 171.302L216.25 169.852C215.85 169.685 215.617 169.385 215.55 168.952C215.483 168.552 215.617 168.218 215.95 167.952C216.617 167.385 217.383 166.552 218.25 165.452C219.117 164.352 219.833 163.335 220.4 162.402C220.567 162.135 220.8 161.968 221.1 161.902C221.433 161.835 221.717 161.885 221.95 162.052C222.217 162.218 222.383 162.452 222.45 162.752C222.55 163.052 222.517 163.335 222.35 163.602C221.95 164.235 221.417 165.018 220.75 165.952C220.083 166.852 219.4 167.685 218.7 168.452L221.05 169.452C221.417 168.985 221.75 168.535 222.05 168.102C222.35 167.668 222.617 167.285 222.85 166.952C223.017 166.685 223.25 166.518 223.55 166.452C223.883 166.385 224.167 166.435 224.4 166.602C224.667 166.768 224.833 167.018 224.9 167.352C224.967 167.652 224.917 167.935 224.75 168.202C224.217 169.002 223.433 170.052 222.4 171.352C221.4 172.652 220.383 173.868 219.35 175.002L220.5 174.852C220.8 174.785 221.083 174.852 221.35 175.052C221.617 175.218 221.767 175.452 221.8 175.752C221.867 176.085 221.8 176.368 221.6 176.602C221.4 176.835 221.15 176.985 220.85 177.052L216.25 177.802ZM227.4 177.202C226.833 177.302 226.433 177.085 226.2 176.552C225.967 175.985 226.083 175.535 226.55 175.202C227.05 174.802 227.667 174.185 228.4 173.352C229.167 172.518 229.917 171.635 230.65 170.702L227.2 169.252C226.833 169.085 226.617 168.785 226.55 168.352C226.483 167.952 226.617 167.618 226.95 167.352C227.617 166.785 228.367 165.952 229.2 164.852C230.067 163.752 230.8 162.735 231.4 161.802C231.567 161.535 231.8 161.368 232.1 161.302C232.433 161.235 232.717 161.285 232.95 161.452C233.217 161.618 233.383 161.852 233.45 162.152C233.517 162.452 233.467 162.735 233.3 163.002C232.867 163.735 232.317 164.552 231.65 165.452C230.983 166.318 230.317 167.102 229.65 167.802L232.05 168.852C232.417 168.352 232.75 167.902 233.05 167.502C233.35 167.068 233.617 166.685 233.85 166.352C234.017 166.085 234.25 165.918 234.55 165.852C234.883 165.785 235.167 165.835 235.4 166.002C235.667 166.168 235.833 166.418 235.9 166.752C235.967 167.052 235.917 167.335 235.75 167.602C235.217 168.368 234.45 169.402 233.45 170.702C232.483 172.002 231.5 173.235 230.5 174.402L231.65 174.202C231.983 174.135 232.267 174.202 232.5 174.402C232.767 174.602 232.917 174.852 232.95 175.152C233.017 175.485 232.95 175.768 232.75 176.002C232.583 176.235 232.35 176.385 232.05 176.452L227.4 177.202ZM216.25 199.202C215.617 199.268 215.2 199.035 215 198.502C214.767 198.002 214.883 197.552 215.35 197.152C215.85 196.785 216.483 196.202 217.25 195.402C218.017 194.602 218.783 193.752 219.55 192.852L216.25 191.502C215.85 191.335 215.617 191.035 215.55 190.602C215.483 190.202 215.617 189.868 215.95 189.602C216.45 189.202 216.983 188.685 217.55 188.052C218.15 187.418 218.717 186.768 219.25 186.102C219.817 185.402 220.267 184.785 220.6 184.252C220.767 183.985 221 183.835 221.3 183.802C221.633 183.735 221.933 183.785 222.2 183.952C222.467 184.085 222.617 184.318 222.65 184.652C222.717 184.952 222.667 185.235 222.5 185.502C222.067 186.135 221.5 186.885 220.8 187.752C220.133 188.618 219.45 189.402 218.75 190.102L221.05 191.052C221.417 190.585 221.75 190.152 222.05 189.752C222.383 189.318 222.65 188.952 222.85 188.652C223.017 188.385 223.25 188.235 223.55 188.202C223.883 188.135 224.167 188.185 224.4 188.352C224.667 188.518 224.833 188.752 224.9 189.052C224.967 189.352 224.917 189.635 224.75 189.902C224.217 190.668 223.45 191.668 222.45 192.902C221.45 194.135 220.45 195.302 219.45 196.402L220.5 196.202C220.8 196.168 221.083 196.252 221.35 196.452C221.617 196.618 221.767 196.852 221.8 197.152C221.867 197.485 221.8 197.768 221.6 198.002C221.4 198.235 221.15 198.385 220.85 198.452L216.25 199.202ZM227.4 198.602C226.8 198.668 226.4 198.435 226.2 197.902C225.967 197.402 226.083 196.952 226.55 196.552C227.05 196.185 227.667 195.618 228.4 194.852C229.133 194.052 229.867 193.202 230.6 192.302L227.25 190.902C226.85 190.735 226.617 190.452 226.55 190.052C226.483 189.618 226.617 189.268 226.95 189.002C227.45 188.602 227.983 188.085 228.55 187.452C229.15 186.818 229.717 186.168 230.25 185.502C230.817 184.802 231.267 184.185 231.6 183.652C231.767 183.385 232 183.235 232.3 183.202C232.633 183.135 232.933 183.185 233.2 183.352C233.467 183.518 233.617 183.752 233.65 184.052C233.717 184.352 233.667 184.635 233.5 184.902C233.067 185.535 232.5 186.285 231.8 187.152C231.133 188.018 230.45 188.802 229.75 189.502L232.05 190.452C232.417 189.985 232.75 189.552 233.05 189.152C233.383 188.718 233.65 188.352 233.85 188.052C234.017 187.785 234.25 187.635 234.55 187.602C234.883 187.535 235.167 187.585 235.4 187.752C235.667 187.918 235.833 188.152 235.9 188.452C235.967 188.752 235.917 189.035 235.75 189.302C235.25 190.035 234.5 191.035 233.5 192.302C232.533 193.535 231.55 194.702 230.55 195.802L231.7 195.652C232 195.585 232.267 195.652 232.5 195.852C232.767 196.018 232.917 196.268 232.95 196.602C233.017 196.902 232.95 197.185 232.75 197.452C232.583 197.685 232.35 197.818 232.05 197.852L227.4 198.602ZM202 205.102C201.667 205.102 201.383 204.985 201.15 204.752C200.917 204.518 200.8 204.235 200.8 203.902V184.552C200.8 184.218 200.917 183.935 201.15 183.702C201.383 183.468 201.667 183.352 202 183.352C202.367 183.352 202.65 183.468 202.85 183.702C203.083 183.935 203.2 184.218 203.2 184.552V203.902C203.2 204.235 203.083 204.518 202.85 204.752C202.65 204.985 202.367 205.102 202 205.102ZM217.4 182.702C217.067 182.735 216.783 182.652 216.55 182.452C216.317 182.252 216.183 182.002 216.15 181.702C216.117 181.368 216.2 181.085 216.4 180.852C216.633 180.618 216.9 180.485 217.2 180.452L234.1 179.202C234.4 179.168 234.667 179.252 234.9 179.452C235.133 179.652 235.267 179.918 235.3 180.252C235.333 180.552 235.25 180.818 235.05 181.052C234.85 181.285 234.583 181.418 234.25 181.452L217.4 182.702ZM193.4 194.852C193.133 195.052 192.833 195.135 192.5 195.102C192.167 195.035 191.9 194.868 191.7 194.602C191.5 194.335 191.417 194.035 191.45 193.702C191.517 193.368 191.683 193.102 191.95 192.902C193.117 192.035 194.15 191.118 195.05 190.152C195.983 189.152 196.717 188.185 197.25 187.252C197.417 186.952 197.65 186.768 197.95 186.702C198.283 186.602 198.6 186.635 198.9 186.802C199.167 186.935 199.35 187.168 199.45 187.502C199.55 187.835 199.517 188.135 199.35 188.402C198.017 190.668 196.033 192.818 193.4 194.852ZM209.5 183.902C209.2 184.035 208.883 184.068 208.55 184.002C208.25 183.902 208.017 183.718 207.85 183.452L204.6 177.602C204.467 177.302 204.433 176.985 204.5 176.652C204.6 176.318 204.8 176.085 205.1 175.952C205.367 175.785 205.667 175.752 206 175.852C206.333 175.952 206.567 176.135 206.7 176.402L209.95 182.252C210.117 182.552 210.15 182.868 210.05 183.202C209.95 183.502 209.767 183.735 209.5 183.902ZM210.2 193.202C209.967 193.402 209.683 193.485 209.35 193.452C209.017 193.418 208.75 193.268 208.55 193.002L204.8 188.402C204.6 188.135 204.517 187.852 204.55 187.552C204.583 187.218 204.717 186.952 204.95 186.752C205.217 186.518 205.517 186.418 205.85 186.452C206.183 186.485 206.45 186.635 206.65 186.902L210.4 191.502C210.6 191.735 210.683 192.018 210.65 192.352C210.617 192.685 210.467 192.968 210.2 193.202ZM225.2 178.152C224.933 178.285 224.65 178.302 224.35 178.202C224.083 178.102 223.867 177.918 223.7 177.652L222.15 174.852C222.017 174.585 221.983 174.302 222.05 174.002C222.15 173.668 222.333 173.435 222.6 173.302C222.867 173.135 223.15 173.102 223.45 173.202C223.783 173.302 224.017 173.485 224.15 173.752L225.7 176.602C225.833 176.868 225.85 177.152 225.75 177.452C225.65 177.752 225.467 177.985 225.2 178.152ZM236.4 177.502C236.133 177.635 235.85 177.668 235.55 177.602C235.25 177.502 235.017 177.318 234.85 177.052L233.35 174.252C233.217 173.985 233.183 173.702 233.25 173.402C233.35 173.068 233.533 172.835 233.8 172.702C234.067 172.535 234.35 172.502 234.65 172.602C234.983 172.702 235.217 172.885 235.35 173.152L236.85 176.002C237.017 176.268 237.05 176.552 236.95 176.852C236.85 177.118 236.667 177.335 236.4 177.502ZM225.25 199.452C224.983 199.618 224.7 199.668 224.4 199.602C224.1 199.502 223.867 199.318 223.7 199.052L222.15 196.302C222.017 196.035 221.983 195.752 222.05 195.452C222.15 195.152 222.333 194.918 222.6 194.752C222.867 194.585 223.15 194.552 223.45 194.652C223.783 194.752 224.017 194.935 224.15 195.202L225.65 197.952C225.817 198.185 225.85 198.452 225.75 198.752C225.683 199.052 225.517 199.285 225.25 199.452ZM236.4 198.902C236.133 199.035 235.85 199.068 235.55 199.002C235.25 198.902 235.017 198.718 234.85 198.452L233.35 195.702C233.217 195.435 233.183 195.152 233.25 194.852C233.35 194.552 233.533 194.335 233.8 194.202C234.067 194.035 234.35 194.002 234.65 194.102C234.95 194.168 235.167 194.335 235.3 194.602L236.85 197.352C237.017 197.618 237.05 197.902 236.95 198.202C236.85 198.502 236.667 198.735 236.4 198.902ZM271.95 158.852C272.283 158.718 272.617 158.735 272.95 158.902C273.15 159.035 273.317 159.202 273.45 159.402C273.517 159.535 273.55 160.218 273.55 161.452V163.352H273.8C273.933 163.318 275.017 163.235 277.05 163.102C279.083 162.935 280.167 162.868 280.3 162.902C280.6 163.035 280.833 163.235 281 163.502C281.033 163.602 281.05 163.768 281.05 164.002C281.083 164.202 281.067 164.385 281 164.552C280.833 164.885 280.583 165.102 280.25 165.202C280.15 165.235 279.1 165.318 277.1 165.452C275.167 165.618 274.083 165.718 273.85 165.752H273.55V166.902V168.002H273.75C273.85 167.968 274.417 167.918 275.45 167.852C276.517 167.752 277.117 167.718 277.25 167.752C277.55 167.885 277.783 168.085 277.95 168.352C277.983 168.452 278 168.618 278 168.852C278.033 169.052 278.017 169.235 277.95 169.402C277.783 169.735 277.533 169.952 277.2 170.052C277.1 170.085 275.467 170.252 272.3 170.552C269.133 170.818 267.45 170.952 267.25 170.952C267.05 170.952 266.85 170.885 266.65 170.752C266.45 170.585 266.3 170.385 266.2 170.152C266.1 169.852 266.133 169.535 266.3 169.202C266.467 168.868 266.7 168.668 267 168.602C267.133 168.568 267.767 168.502 268.9 168.402C270.033 168.302 270.7 168.235 270.9 168.202H271.15V167.052V165.952H270.95C270.817 165.985 269.6 166.102 267.3 166.302C265.033 166.468 263.833 166.535 263.7 166.502C263.4 166.368 263.167 166.168 263 165.902C262.867 165.602 262.85 165.285 262.95 164.952C263.083 164.552 263.367 164.302 263.8 164.202C263.9 164.168 265.05 164.068 267.25 163.902C269.45 163.702 270.65 163.585 270.85 163.552H271.15V161.552L271.2 159.552L271.3 159.352C271.467 159.118 271.683 158.952 271.95 158.852ZM251.65 160.852C252.083 160.685 252.5 160.802 252.9 161.202C253.133 161.402 253.25 161.685 253.25 162.052C253.25 162.252 253.167 162.552 253 162.952C251.533 165.785 249.8 168.485 247.8 171.052C247.4 171.552 247.25 171.802 247.35 171.802C247.583 171.868 248.3 172.002 249.5 172.202C250.7 172.402 251.3 172.502 251.3 172.502C251.333 172.468 252 171.585 253.3 169.852C254.6 168.118 255.317 167.202 255.45 167.102C255.717 166.935 256.017 166.868 256.35 166.902C256.717 166.968 257 167.168 257.2 167.502C257.433 167.902 257.483 168.268 257.35 168.602C257.283 168.735 255.733 170.818 252.7 174.852C249.667 178.852 248.15 180.852 248.15 180.852C248.183 180.852 249.183 180.652 251.15 180.252C253.117 179.852 254.2 179.652 254.4 179.652C254.767 179.652 255.067 179.785 255.3 180.052C255.667 180.452 255.733 180.902 255.5 181.402C255.367 181.735 255.133 181.952 254.8 182.052C254.667 182.085 253.783 182.268 252.15 182.602C250.55 182.935 249.717 183.102 249.65 183.102C249.55 183.102 248.767 183.252 247.3 183.552C245.867 183.852 245.117 184.002 245.05 184.002C244.617 184.002 244.283 183.768 244.05 183.302C243.883 183.002 243.85 182.702 243.95 182.402C243.983 182.268 244.933 180.952 246.8 178.452L249.6 174.752H249.45C249.317 174.718 248.467 174.568 246.9 174.302C245.3 174.068 244.433 173.935 244.3 173.902C244.167 173.835 244.017 173.718 243.85 173.552C243.683 173.385 243.583 173.235 243.55 173.102C243.45 172.735 243.467 172.418 243.6 172.152C243.667 172.052 243.867 171.818 244.2 171.452C245.3 170.252 246.45 168.768 247.65 167.002C248.85 165.235 249.867 163.552 250.7 161.952C250.833 161.618 250.933 161.418 251 161.352C251.167 161.118 251.383 160.952 251.65 160.852ZM276 171.702C280.967 171.302 283.567 171.102 283.8 171.102C284.167 171.135 284.467 171.285 284.7 171.552C284.9 171.785 285 172.018 285 172.252C285 172.285 284.7 173.685 284.1 176.452C283.5 179.185 283.183 180.618 283.15 180.752C283.017 181.152 282.733 181.385 282.3 181.452C282.233 181.485 279.183 181.735 273.15 182.202C267.15 182.635 264.067 182.852 263.9 182.852C263.6 182.852 263.367 182.735 263.2 182.502C263.1 182.368 262.617 180.968 261.75 178.302C260.883 175.635 260.45 174.218 260.45 174.052C260.45 173.785 260.533 173.552 260.7 173.352C260.867 173.118 261.067 172.968 261.3 172.902C261.4 172.868 262.633 172.768 265 172.602C266.633 172.468 270.3 172.168 276 171.702ZM282.3 173.752C282.3 173.685 282.267 173.652 282.2 173.652C282.133 173.652 281.7 173.685 280.9 173.752C280.233 173.818 277.1 174.068 271.5 174.502C266.033 174.935 263.283 175.168 263.25 175.202C263.25 175.202 263.35 175.535 263.55 176.202C263.783 176.868 263.9 177.235 263.9 177.302C263.9 177.335 264.05 177.852 264.35 178.852C264.683 179.852 264.85 180.368 264.85 180.402C264.883 180.402 265.45 180.368 266.55 180.302C267.683 180.202 268.3 180.135 268.4 180.102H268.5V178.352C268.533 177.152 268.583 176.485 268.65 176.352C268.883 175.885 269.25 175.652 269.75 175.652C270.283 175.652 270.667 175.902 270.9 176.402C270.967 176.535 271 177.152 271 178.252V179.902H271.2C271.333 179.902 271.917 179.868 272.95 179.802C274.017 179.702 274.55 179.652 274.55 179.652C274.55 179.652 274.55 179.102 274.55 178.002C274.55 176.902 274.583 176.285 274.65 176.152C274.817 175.618 275.167 175.335 275.7 175.302C276.267 175.268 276.683 175.518 276.95 176.052C276.983 176.152 277 176.752 277 177.852C277.033 178.918 277.083 179.452 277.15 179.452C277.25 179.452 277.917 179.402 279.15 179.302C280.383 179.202 281 179.152 281 179.152C281.033 179.118 281.25 178.235 281.65 176.502C282.05 174.768 282.267 173.852 282.3 173.752ZM255.9 175.802C256.3 175.735 256.65 175.852 256.95 176.152C257.05 176.252 257.75 177.252 259.05 179.152C260.35 181.052 261.033 182.068 261.1 182.202C261.267 182.535 261.267 182.868 261.1 183.202C260.933 183.502 260.7 183.718 260.4 183.852C260.3 183.885 260.15 183.902 259.95 183.902C259.517 183.902 259.15 183.702 258.85 183.302C258.65 183.068 257.95 182.068 256.75 180.302C255.55 178.502 254.933 177.552 254.9 177.452C254.8 177.152 254.817 176.852 254.95 176.552C255.117 176.118 255.433 175.868 255.9 175.802ZM265.75 184.452C265.883 184.418 268.133 184.218 272.5 183.852C276.9 183.452 279.183 183.252 279.35 183.252C279.517 183.252 279.667 183.285 279.8 183.352C279.967 183.385 280.133 183.485 280.3 183.652C280.467 183.818 280.567 183.968 280.6 184.102C280.633 184.235 280.65 186.535 280.65 191.002C280.65 195.468 280.633 197.785 280.6 197.952C280.567 198.085 280.467 198.235 280.3 198.402C280.133 198.568 279.967 198.668 279.8 198.702C279.567 198.768 279.333 198.768 279.1 198.702C278.933 198.668 278.767 198.568 278.6 198.402C278.433 198.235 278.333 198.085 278.3 197.952C278.267 197.785 278.25 195.718 278.25 191.752V185.752H277.95C277.75 185.785 276.017 185.952 272.75 186.252C269.483 186.518 267.75 186.668 267.55 186.702H267.25V191.302V195.902H267.4C267.7 195.835 268.55 195.718 269.95 195.552C271.383 195.352 272.15 195.252 272.25 195.252C272.717 195.252 273.05 195.502 273.25 196.002C273.417 196.335 273.417 196.652 273.25 196.952C273.117 197.218 272.7 197.718 272 198.452C271.3 199.185 270.633 199.818 270 200.352C268.367 201.718 266.567 203.052 264.6 204.352C263.333 205.185 262.55 205.618 262.25 205.652C261.883 205.685 261.567 205.568 261.3 205.302C261.067 205.102 260.95 204.835 260.95 204.502C260.95 204.135 261.083 203.818 261.35 203.552C261.483 203.452 261.717 203.302 262.05 203.102C262.883 202.668 263.5 202.285 263.9 201.952C264.067 201.818 264.4 201.585 264.9 201.252C265.7 200.685 266.467 200.118 267.2 199.552C267.467 199.318 267.717 199.102 267.95 198.902C268.217 198.668 268.433 198.485 268.6 198.352C268.767 198.218 268.833 198.152 268.8 198.152C268.8 198.118 268.367 198.168 267.5 198.302C266.4 198.435 265.767 198.468 265.6 198.402C265.233 198.235 265 197.985 264.9 197.652C264.867 197.518 264.85 195.452 264.85 191.452C264.85 187.452 264.867 185.385 264.9 185.252C265.033 184.818 265.317 184.552 265.75 184.452ZM251.2 183.352C251.7 183.185 252.133 183.285 252.5 183.652C252.5 183.685 252.517 183.718 252.55 183.752C252.717 183.852 252.8 184.252 252.8 184.952C252.833 185.618 252.85 187.952 252.85 191.952C252.85 192.918 252.85 193.668 252.85 194.202C252.85 200.802 252.833 204.152 252.8 204.252C252.767 204.385 252.7 204.518 252.6 204.652C252.367 204.952 252.067 205.102 251.7 205.102C251.333 205.135 251.017 205.018 250.75 204.752C250.717 204.752 250.683 204.735 250.65 204.702C250.483 204.568 250.383 204.152 250.35 203.452C250.35 202.785 250.35 200.485 250.35 196.552C250.35 195.552 250.35 194.768 250.35 194.202V184.252L250.5 184.002C250.633 183.702 250.867 183.485 251.2 183.352ZM255.2 186.402C255.6 186.335 256.067 186.552 256.6 187.052C256.9 187.352 257.767 188.168 259.2 189.502C260.333 190.602 261 191.285 261.2 191.552C261.4 191.785 261.5 192.018 261.5 192.252C261.467 192.585 261.333 192.868 261.1 193.102C260.7 193.502 260.233 193.585 259.7 193.352C259.533 193.285 258.817 192.652 257.55 191.452C255.483 189.452 254.4 188.385 254.3 188.252C254.167 187.985 254.133 187.685 254.2 187.352C254.267 187.118 254.383 186.918 254.55 186.752C254.75 186.552 254.967 186.435 255.2 186.402ZM247.2 186.702C247.733 186.468 248.217 186.552 248.65 186.952C249.083 187.318 249.183 187.752 248.95 188.252C248.75 188.718 248.333 189.335 247.7 190.102C246.367 191.835 244.817 193.352 243.05 194.652C242.65 194.985 242.3 195.135 242 195.102C241.633 195.102 241.333 194.985 241.1 194.752C240.8 194.385 240.7 193.985 240.8 193.552C240.9 193.218 241.233 192.852 241.8 192.452C243.867 190.885 245.433 189.235 246.5 187.502C246.767 187.068 247 186.802 247.2 186.702ZM272.4 187.752C274.067 187.618 275 187.618 275.2 187.752C275.467 187.952 275.617 188.218 275.65 188.552C275.717 188.852 275.633 189.135 275.4 189.402C275.233 189.568 275.033 189.668 274.8 189.702C274.567 189.735 273.883 189.802 272.75 189.902C271.35 190.002 270.583 190.052 270.45 190.052C270.35 190.018 270.233 189.952 270.1 189.852C269.767 189.585 269.633 189.235 269.7 188.802C269.8 188.335 270.05 188.052 270.45 187.952C270.583 187.918 271.233 187.852 272.4 187.752ZM272.4 191.652C274.067 191.518 275 191.518 275.2 191.652C275.333 191.752 275.45 191.868 275.55 192.002C275.683 192.202 275.717 192.452 275.65 192.752C275.583 193.018 275.45 193.235 275.25 193.402L275.05 193.552L273 193.752C271.6 193.885 270.817 193.952 270.65 193.952C270.283 193.918 270 193.735 269.8 193.402C269.733 193.235 269.7 193.035 269.7 192.802C269.733 192.402 269.917 192.118 270.25 191.952C270.45 191.852 271.167 191.752 272.4 191.652ZM275.05 198.102C275.35 198.035 275.6 198.068 275.8 198.202C275.933 198.235 277.283 199.052 279.85 200.652C282.45 202.252 283.8 203.085 283.9 203.152C284 203.218 284.083 203.335 284.15 203.502C284.283 203.768 284.3 204.068 284.2 204.402C284.1 204.768 283.9 205.002 283.6 205.102C283.267 205.268 282.95 205.285 282.65 205.152C282.55 205.118 281.2 204.302 278.6 202.702C276 201.102 274.633 200.252 274.5 200.152C274.267 199.985 274.15 199.685 274.15 199.252C274.15 199.052 274.2 198.868 274.3 198.702C274.467 198.368 274.717 198.168 275.05 198.102ZM312.95 206.352C312.617 206.352 312.317 206.218 312.05 205.952C311.817 205.718 311.7 205.435 311.7 205.102V191.002C309.8 192.802 307.667 194.502 305.3 196.102C302.933 197.668 300.517 199.068 298.05 200.302C295.583 201.535 293.267 202.552 291.1 203.352C290.767 203.485 290.45 203.468 290.15 203.302C289.85 203.168 289.633 202.935 289.5 202.602C289.367 202.268 289.367 201.952 289.5 201.652C289.667 201.352 289.917 201.135 290.25 201.002C291.983 200.368 293.817 199.602 295.75 198.702C297.683 197.768 299.617 196.718 301.55 195.552C303.483 194.385 305.317 193.135 307.05 191.802C308.817 190.435 310.367 189.035 311.7 187.602V184.452L300.4 185.452L301.6 191.702C301.667 192.035 301.6 192.352 301.4 192.652C301.233 192.952 300.967 193.135 300.6 193.202C300.267 193.235 299.95 193.168 299.65 193.002C299.383 192.802 299.217 192.535 299.15 192.202L297.7 184.552C297.6 184.218 297.667 183.885 297.9 183.552C298.133 183.285 298.433 183.118 298.8 183.052L311.7 181.952V178.852L303.55 179.652C303.217 179.685 302.9 179.585 302.6 179.352C302.333 179.118 302.183 178.835 302.15 178.502C302.117 178.168 302.2 177.868 302.4 177.602C302.633 177.335 302.917 177.185 303.25 177.152L311.7 176.302V172.852C311.7 172.485 311.817 172.185 312.05 171.952C312.317 171.718 312.617 171.602 312.95 171.602C313.317 171.602 313.617 171.718 313.85 171.952C314.083 172.185 314.2 172.485 314.2 172.852V176.052L321.05 175.352C321.417 175.318 321.717 175.418 321.95 175.652C322.217 175.852 322.367 176.135 322.4 176.502C322.467 176.835 322.383 177.135 322.15 177.402C321.95 177.668 321.667 177.818 321.3 177.852L314.2 178.552V181.702L327.65 180.552C328.05 180.518 328.4 180.652 328.7 180.952C328.967 181.252 329.067 181.602 329 182.002C328.967 182.202 328.867 182.702 328.7 183.502C328.567 184.302 328.367 185.252 328.1 186.352C327.867 187.418 327.583 188.502 327.25 189.602C326.917 190.668 326.55 191.585 326.15 192.352C325.983 192.685 325.717 192.902 325.35 193.002C325.017 193.102 324.7 193.052 324.4 192.852L319.3 189.852C319 189.685 318.8 189.435 318.7 189.102C318.633 188.768 318.683 188.452 318.85 188.152C319.05 187.852 319.317 187.668 319.65 187.602C319.983 187.502 320.3 187.535 320.6 187.702L324.45 189.952C324.817 188.985 325.15 187.885 325.45 186.652C325.75 185.385 326 184.235 326.2 183.202L314.2 184.252V190.352C314.533 190.585 315.2 191.052 316.2 191.752C317.233 192.452 318.433 193.235 319.8 194.102C321.2 194.968 322.633 195.818 324.1 196.652C325.6 197.452 326.967 198.085 328.2 198.552C329.3 198.952 330.467 199.302 331.7 199.602C332.967 199.902 334.05 200.152 334.95 200.352C335.85 200.518 336.3 200.602 336.3 200.602C336.667 200.668 336.933 200.852 337.1 201.152C337.3 201.418 337.367 201.718 337.3 202.052C337.267 202.385 337.1 202.652 336.8 202.852C336.533 203.052 336.217 203.135 335.85 203.102C335.783 203.068 335.283 202.952 334.35 202.752C333.417 202.585 332.3 202.352 331 202.052C329.7 201.718 328.467 201.335 327.3 200.902C325.867 200.368 324.317 199.635 322.65 198.702C320.983 197.768 319.4 196.818 317.9 195.852C316.4 194.885 315.167 194.068 314.2 193.402V205.102C314.2 205.435 314.083 205.718 313.85 205.952C313.617 206.218 313.317 206.352 312.95 206.352ZM327.3 174.052C327 174.252 326.683 174.318 326.35 174.252C326.017 174.185 325.75 174.018 325.55 173.752L321.7 168.202C321.433 167.802 321.383 167.402 321.55 167.002C321.75 166.568 322.067 166.302 322.5 166.202L332.75 164.402C333.117 164.335 333.433 164.402 333.7 164.602C334 164.768 334.167 165.035 334.2 165.402C334.267 165.735 334.2 166.052 334 166.352C333.833 166.618 333.567 166.785 333.2 166.852L324.9 168.352L327.6 172.302C327.8 172.568 327.867 172.885 327.8 173.252C327.733 173.585 327.567 173.852 327.3 174.052ZM306.5 175.302C306.2 175.468 305.883 175.518 305.55 175.452C305.217 175.385 304.95 175.202 304.75 174.902L301.15 169.402C300.883 169.002 300.85 168.602 301.05 168.202C301.183 167.802 301.5 167.552 302 167.452L311.25 165.802C311.617 165.735 311.933 165.802 312.2 166.002C312.5 166.202 312.667 166.485 312.7 166.852C312.767 167.185 312.7 167.502 312.5 167.802C312.333 168.068 312.067 168.235 311.7 168.302L304.3 169.602L306.85 173.552C307.05 173.852 307.117 174.168 307.05 174.502C306.983 174.835 306.8 175.102 306.5 175.302ZM293.65 174.302C293.383 174.535 293.067 174.618 292.7 174.552C292.367 174.485 292.1 174.318 291.9 174.052C291.7 173.785 291.617 173.485 291.65 173.152C291.717 172.785 291.9 172.502 292.2 172.302C293.5 171.368 294.7 170.268 295.8 169.002C296.933 167.702 297.917 166.385 298.75 165.052C299.583 163.718 300.2 162.502 300.6 161.402C300.733 161.068 300.95 160.835 301.25 160.702C301.583 160.568 301.917 160.568 302.25 160.702C302.583 160.835 302.817 161.068 302.95 161.402C303.083 161.702 303.083 162.018 302.95 162.352C302.517 163.518 301.85 164.835 300.95 166.302C300.05 167.735 298.983 169.168 297.75 170.602C296.517 172.002 295.15 173.235 293.65 174.302ZM315.75 171.802C315.483 172.035 315.183 172.135 314.85 172.102C314.517 172.068 314.233 171.918 314 171.652C313.767 171.385 313.667 171.085 313.7 170.752C313.733 170.385 313.883 170.085 314.15 169.852C315.183 169.018 316.15 168.052 317.05 166.952C317.95 165.852 318.733 164.752 319.4 163.652C320.1 162.518 320.633 161.485 321 160.552C321.167 160.218 321.4 159.985 321.7 159.852C322.033 159.718 322.35 159.735 322.65 159.902C322.983 160.035 323.217 160.268 323.35 160.602C323.483 160.902 323.483 161.218 323.35 161.552C322.95 162.485 322.383 163.568 321.65 164.802C320.917 166.002 320.05 167.218 319.05 168.452C318.083 169.685 316.983 170.802 315.75 171.802ZM345.5 186.252C345.167 186.285 344.883 186.218 344.65 186.052C344.417 185.852 344.267 185.602 344.2 185.302C344.167 184.968 344.233 184.685 344.4 184.452C344.6 184.185 344.85 184.035 345.15 184.002L352.7 182.952V180.802L349 181.302C348.7 181.335 348.417 181.268 348.15 181.102C347.917 180.902 347.767 180.652 347.7 180.352C347.633 179.585 347.967 179.152 348.7 179.052L352.7 178.502V176.402L346.65 177.152C346.35 177.185 346.083 177.102 345.85 176.902C345.617 176.702 345.467 176.452 345.4 176.152C345.367 175.818 345.433 175.535 345.6 175.302C345.8 175.068 346.067 174.935 346.4 174.902L352.7 174.102V171.852L339.9 173.352C339.567 173.385 339.283 173.302 339.05 173.102C338.817 172.902 338.683 172.652 338.65 172.352C338.617 172.018 338.683 171.735 338.85 171.502C339.05 171.268 339.317 171.135 339.65 171.102L352.7 169.602V167.652L346.75 168.402C346.45 168.435 346.183 168.368 345.95 168.202C345.717 168.002 345.567 167.735 345.5 167.402C345.467 167.102 345.533 166.835 345.7 166.602C345.9 166.335 346.167 166.185 346.5 166.152L352.7 165.352V161.752C352.7 161.418 352.8 161.152 353 160.952C353.233 160.718 353.517 160.602 353.85 160.602C354.15 160.602 354.417 160.718 354.65 160.952C354.883 161.152 355 161.418 355 161.752V165.102L362.1 164.202C362.467 164.135 362.783 164.252 363.05 164.552C363.317 164.818 363.417 165.135 363.35 165.502L362.9 168.402L367.3 167.902C367.633 167.868 367.917 167.952 368.15 168.152C368.383 168.352 368.517 168.602 368.55 168.902C368.617 169.202 368.55 169.485 368.35 169.752C368.15 169.985 367.883 170.118 367.55 170.152L362.5 170.752L361.9 174.452C361.8 175.018 361.467 175.335 360.9 175.402L355 176.102V178.202L358.75 177.702C359.05 177.635 359.317 177.702 359.55 177.902C359.817 178.102 359.967 178.352 360 178.652C360.067 178.985 360 179.268 359.8 179.502C359.6 179.735 359.35 179.885 359.05 179.952L355 180.502V182.652L361.5 181.702C361.8 181.668 362.067 181.752 362.3 181.952C362.567 182.118 362.717 182.368 362.75 182.702C362.817 183.002 362.75 183.268 362.55 183.502C362.35 183.735 362.1 183.885 361.8 183.952L345.5 186.252ZM348.45 198.202C348.183 198.235 347.933 198.185 347.7 198.052C347.467 197.885 347.3 197.685 347.2 197.452L344.8 189.902C344.7 189.602 344.733 189.285 344.9 188.952C345.133 188.652 345.4 188.485 345.7 188.452L361.1 186.252C361.5 186.185 361.833 186.285 362.1 186.552C362.367 186.852 362.467 187.185 362.4 187.552L360.9 195.402C360.833 195.935 360.533 196.235 360 196.302L348.45 198.202ZM377.7 205.702L367.35 201.652C367.05 201.552 366.833 201.352 366.7 201.052C366.567 200.752 366.55 200.435 366.65 200.102C366.783 199.802 367 199.585 367.3 199.452C367.6 199.318 367.9 199.318 368.2 199.452L376.95 202.852V162.202C376.95 161.868 377.067 161.585 377.3 161.352C377.533 161.118 377.817 161.002 378.15 161.002C378.483 161.002 378.767 161.118 379 161.352C379.233 161.585 379.35 161.868 379.35 162.202V204.602C379.35 205.002 379.167 205.335 378.8 205.602C378.467 205.835 378.1 205.868 377.7 205.702ZM342.8 204.802C342.5 204.868 342.217 204.818 341.95 204.652C341.683 204.518 341.5 204.302 341.4 204.002C341.333 203.702 341.367 203.418 341.5 203.152C341.667 202.885 341.9 202.702 342.2 202.602L362.85 197.102C363.15 197.035 363.433 197.085 363.7 197.252C364 197.385 364.183 197.602 364.25 197.902C364.317 198.202 364.267 198.502 364.1 198.802C363.967 199.068 363.75 199.235 363.45 199.302L342.8 204.802ZM368.3 188.102C367.967 188.102 367.683 187.985 367.45 187.752C367.217 187.518 367.1 187.235 367.1 186.902V173.652C367.1 173.318 367.217 173.035 367.45 172.802C367.683 172.568 367.967 172.452 368.3 172.452C368.633 172.452 368.917 172.568 369.15 172.802C369.383 173.035 369.5 173.318 369.5 173.652V186.902C369.5 187.235 369.383 187.518 369.15 187.752C368.917 187.985 368.633 188.102 368.3 188.102ZM354.9 194.852L358.85 194.202L359.85 188.702L354.9 189.402V191.102L355.8 190.952C356.067 190.885 356.317 190.935 356.55 191.102C356.817 191.268 356.967 191.502 357 191.802C357.067 192.102 357.017 192.368 356.85 192.602C356.683 192.835 356.45 192.985 356.15 193.052L354.9 193.252V194.852ZM349.05 195.802L352.75 195.202V193.652L351.3 193.902C351 193.935 350.733 193.868 350.5 193.702C350.267 193.535 350.117 193.302 350.05 193.002C350.017 192.702 350.083 192.435 350.25 192.202C350.417 191.935 350.65 191.785 350.95 191.752L352.75 191.452V189.752L347.35 190.502L349.05 195.802ZM355 169.302L360.55 168.702L360.9 166.652L355 167.352V169.302ZM355 173.852L359.8 173.252L360.15 171.002L355 171.602V173.852Z" fill="#3E5764"/>
</svg>
