<svg width="595" height="375" viewBox="0 0 595 375" fill="none" xmlns="http://www.w3.org/2000/svg">
<path d="M499.998 41.2037L502.498 39.2037C505.298 37.2037 507.665 38.3704 508.498 39.2037L521.5 90.0288M499.998 41.2037L483.998 25.2037M499.998 41.2037L503.998 45.2037L516.417 96M483.998 25.2037L470.498 29.2037M483.998 25.2037L503.5 109.602M7.49821 355.704C25.8982 357.704 57.1649 357.87 70.4982 357.704C130.098 355.704 216.332 355.537 251.998 355.704C256.798 361.704 262.665 364.87 264.998 365.704L274.498 362.704L285.998 360.204L289.498 362.704L309.998 365.704L370.498 353.704L564.998 300.204V294.704L521 115M7.49821 355.704C5.49821 360.504 2.99821 363.37 5.49821 363.704H165.998L247.498 361.704L248.998 362.704L258.498 371.204L268.998 374.204H289.498H303.498L309.998 371.204L356.498 362.704L452.498 339.204L564.998 308.204C567.998 306.704 574.098 302.404 574.498 297.204L526.993 111.5M7.49821 355.704L30.4984 288.204L93.4998 36.5H97.4918M7.49821 355.704L97.4918 36.5M470.498 29.2037L467.498 15.7037C466.698 13.7037 464.165 13.8704 462.998 14.2037C430.198 25.4037 409.665 31.8704 403.498 33.7037C371.898 40.5037 336.665 56.2037 322.998 63.2037C290.598 79.2037 285.832 96.537 287.498 103.204C287.498 103.204 226.5 91 221.5 63.2037C216.5 35.4074 177.5 1 177.5 1L155.264 63.2037M470.498 29.2037L493.888 119.5M368.998 330.887C332.933 334.657 306.438 340.507 296.998 343.204C287.798 345.604 285.165 351.87 284.998 354.704H283.498C264.298 339.104 220.832 325.204 201.498 320.204C185.898 315.404 148.332 307.537 131.498 304.204C89.4982 295.804 112.665 227.167 98.4982 222L155.264 63.2037M368.998 330.887C373.048 330.464 377.218 330.067 381.498 329.704L543.498 282.704L507.867 128.5M368.998 330.887L532.998 280.704C533.832 280.37 535.398 279.404 534.998 278.204L498.81 138.5M97.4918 36.5C97.4918 36.5 113.5 37.5 125 47C136.5 56.5 137.509 53.7037 155.264 63.2037" stroke="black"/>
<path d="M284.999 354.204C288.999 357.704 300.199 364.704 312.999 364.704M284.999 354.204C284.347 354.557 283.679 354.892 282.999 355.21M284.999 354.204C286.037 303.67 285.249 262.982 285.5 226.5M287.499 102.704C287.263 118.48 286.848 136.721 286.448 157.5C286.448 157.5 286.673 154.688 286.448 169.5M256.999 360.704C261.97 360.704 273.66 359.574 282.999 355.21M26 299.204H30.9985C69.3319 303.037 150.499 311.704 168.499 315.704M168.499 315.704C175.332 317.037 191.499 320.504 201.499 323.704C207.236 325.042 215.561 327.263 224.999 330.209M168.499 315.704L152.999 313.704C140.599 312.104 101.832 308.037 83.9985 306.204C64.7985 304.204 41.3319 302.037 31.9985 301.204V299.704M282.999 355.21C267.02 344.827 243.8 336.078 224.999 330.209M32.4985 301.704L31.4985 303.704C35.4985 303.87 57.6985 305.504 114.499 310.704C129.665 311.707 172.999 317.013 224.999 330.209" stroke="black"/>
<path d="M33.9985 304.704V305.704C34.4899 305.74 34.99 305.777 35.4985 305.815M149.999 315.204C133.067 313.235 67.5861 308.197 35.4985 305.815M35.4985 305.815V307.704C35.7449 307.716 35.9931 307.728 36.2433 307.74M31.4985 304.704L29.9985 307.704M29.9985 307.704L36.2433 307.74M29.9985 307.704V309.204C52.7859 310.202 89.8323 312.469 126.999 316.032M36.2433 307.74C73.8282 309.604 155.161 315.869 209.398 327.123M30.4985 309.704L29.4985 310.704M126.999 316.032L29.4985 311.704V310.704M126.999 316.032C140.194 317.297 153.405 318.725 165.999 320.317M29.4985 310.704L29.9985 312.204L27.4985 313.704C28.3141 313.725 29.1478 313.748 29.9985 313.771M165.999 320.317C151.891 317.664 71.0451 314.894 29.9985 313.771M165.999 320.317C181.868 322.324 196.757 324.592 209.398 327.123M29.9985 313.771L27.4985 316.032C74.9318 316.702 177.718 319.858 209.398 327.123M209.398 327.123C215.093 328.263 220.332 329.456 224.999 330.704C220.127 329.458 214.902 328.265 209.398 327.123ZM28.9985 317.204V318.704C29.1641 318.701 29.3308 318.699 29.4985 318.697M227.499 331.204C209.622 328.293 190.165 326.018 170.499 324.252M280.499 355.704C273.007 351.066 255.894 342.61 234.499 336.693M29.4985 318.697L28.4985 319.7M29.4985 318.697C57.4433 318.344 114.812 319.253 170.499 324.252M28.4985 319.7L27.4985 320.704L26.4985 321.704L103.499 323.704C149.899 325.304 191.832 329.37 206.999 331.204C216.625 332.35 225.907 334.317 234.499 336.693M28.4985 319.7C54.3319 320.401 118.899 322.292 170.499 324.252M26.9985 322.204V323.704C62.8185 323.395 145.759 325.11 213.999 333.791M234.499 336.693C227.865 335.648 221.009 334.683 213.999 333.791M27.4985 324.204L25.9985 326.704C26.4818 326.68 26.9819 326.656 27.4985 326.633M213.999 333.791C127.252 325.225 54.5971 325.418 27.4985 326.633M27.4985 326.633L17.9985 343.204C18.6313 343.224 19.2987 343.244 19.9985 343.264M215.999 343.204C209.215 342.204 201.778 341.487 193.999 340.997M19.9985 343.264C36.812 343.757 72.3416 344.356 94.9985 343.204C115.125 341.287 158.196 338.74 193.999 340.997M19.9985 343.264L17.9985 346.204C19.0911 346.228 20.2634 346.253 21.4985 346.28M193.999 340.997C176.399 339.231 120.665 342.732 94.9985 344.704C74.9985 347.742 65.4985 347.204 64.4985 347.204C63.7562 347.204 37.4099 346.63 21.4985 346.28M21.4985 346.28L19.9985 353.204C20.4606 353.188 20.961 353.171 21.4985 353.152M215.999 346.28L195.499 344.704C167.099 343.442 114.999 347.178 92.4985 349.204C60.4257 351.495 32.7871 352.753 21.4985 353.152M21.4985 353.152L19.9985 355.704C38.9985 354.704 81.1985 352.504 97.9985 351.704C122.999 349.704 183.899 346.704 227.499 350.704M97.9985 355.704C103.499 355.704 163.499 351.704 243.499 353.204M24.4985 340.204C26.9985 340.204 61.9985 341.704 102.499 340.204L169.499 337.704M28.4985 336.704C33.9985 336.704 73.9985 339.204 112.499 336.704M28.4985 331.704C30.4985 331.704 83.9985 328.704 144.499 331.704M28.9985 333.704C35.4985 333.204 176.999 333.704 191.999 335.704" stroke="black"/>
<path d="M232.25 219.202C231.95 219.402 231.65 219.502 231.35 219.502C231.083 219.502 230.85 219.452 230.65 219.352C230.65 219.352 227.75 218.135 221.95 215.702C221.483 215.535 221.167 215.235 221 214.802C220.9 214.568 220.85 214.352 220.85 214.152C220.85 213.952 220.9 213.735 221 213.502C221.2 213.068 221.5 212.768 221.9 212.602C222.133 212.502 222.35 212.452 222.55 212.452C222.783 212.452 223 212.502 223.2 212.602L229.55 215.202V176.902L220.05 177.952V186.102C224.483 185.535 226.733 185.252 226.8 185.252C227.233 185.252 227.6 185.402 227.9 185.702C228.233 186.035 228.4 186.485 228.4 187.052C228.4 187.452 228.267 187.802 228 188.102C227.667 188.402 227.3 188.585 226.9 188.652C221.2 189.385 218.333 189.752 218.3 189.752C217.867 189.752 217.483 189.602 217.15 189.302C216.817 188.968 216.65 188.552 216.65 188.052V176.402C216.65 175.935 216.8 175.552 217.1 175.252C217.4 174.918 217.75 174.735 218.15 174.702C226.917 173.768 231.317 173.302 231.35 173.302C231.783 173.302 232.167 173.468 232.5 173.802C232.833 174.135 233 174.535 233 175.002V217.752C233 218.418 232.75 218.902 232.25 219.202ZM198.3 217.202C198.3 217.668 198.133 218.068 197.8 218.402C197.5 218.735 197.117 218.902 196.65 218.902C196.15 218.902 195.717 218.718 195.35 218.352C195.017 218.018 194.85 217.635 194.85 217.202V178.952C194.85 178.485 194.983 178.118 195.25 177.852C195.517 177.585 195.833 177.402 196.2 177.302L207.35 174.502C207.517 174.468 207.683 174.452 207.85 174.452C208.283 174.452 208.667 174.618 209 174.952C209.333 175.285 209.5 175.685 209.5 176.152V188.302C209.5 188.802 209.35 189.202 209.05 189.502C208.85 189.702 208.567 189.852 208.2 189.952L201.25 191.852C201.117 191.885 200.933 191.902 200.7 191.902C200.467 191.902 200.25 191.852 200.05 191.752C199.85 191.618 199.683 191.468 199.55 191.302C199.25 191.035 199.1 190.702 199.1 190.302C199.1 189.735 199.283 189.285 199.65 188.952C199.85 188.752 200.083 188.602 200.35 188.502L206.05 187.002V178.352L198.3 180.302V182.602L203.1 181.302C203.233 181.268 203.367 181.252 203.5 181.252C204 181.252 204.417 181.435 204.75 181.802C205.083 182.135 205.25 182.535 205.25 183.002C205.25 183.468 205.083 183.868 204.75 184.202C204.55 184.402 204.283 184.552 203.95 184.652L198.3 186.152V217.202ZM208.9 199.602L208.85 198.502C208.85 198.068 209 197.702 209.3 197.402C209.667 197.035 210.083 196.852 210.55 196.852C211.05 196.852 211.45 197.002 211.75 197.302C212.05 197.602 212.217 198.002 212.25 198.502C212.283 198.968 212.3 199.385 212.3 199.752C212.3 200.118 212.3 200.435 212.3 200.702L215.5 200.302V197.552C215.5 197.052 215.667 196.635 216 196.302C216.333 195.968 216.733 195.802 217.2 195.802C217.7 195.802 218.117 195.968 218.45 196.302C218.783 196.635 218.95 197.052 218.95 197.552V199.902C222.817 199.468 224.767 199.252 224.8 199.252C225.233 199.252 225.6 199.385 225.9 199.652C226.233 200.018 226.4 200.485 226.4 201.052C226.4 201.485 226.25 201.852 225.95 202.152C225.65 202.452 225.3 202.618 224.9 202.652L218.95 203.352V215.602C218.95 216.068 218.767 216.468 218.4 216.802C218.067 217.168 217.667 217.352 217.2 217.352C216.733 217.352 216.333 217.168 216 216.802C215.667 216.468 215.5 216.068 215.5 215.602V203.752L211.8 204.152C210.867 208.518 208.417 211.735 204.45 213.802C204.217 213.935 203.983 214.002 203.75 214.002C203.017 214.002 202.483 213.702 202.15 213.102C202.05 212.902 202 212.685 202 212.452C202 211.618 202.3 211.068 202.9 210.802C205.6 209.368 207.367 207.285 208.2 204.552C204.8 204.952 203.067 205.152 203 205.152C202.567 205.152 202.2 205.002 201.9 204.702C201.5 204.302 201.3 203.902 201.3 203.502C201.3 203.002 201.45 202.602 201.75 202.302C202.083 201.968 202.433 201.785 202.8 201.752L208.85 201.102C208.883 200.468 208.9 199.968 208.9 199.602ZM207.2 197.052C206.7 197.052 206.267 196.868 205.9 196.502C205.6 196.202 205.45 195.835 205.45 195.402C205.45 194.902 205.633 194.468 206 194.102C206.267 193.835 206.583 193.685 206.95 193.652C215.483 192.452 219.783 191.852 219.85 191.852C220.317 191.852 220.7 192.002 221 192.302C221.333 192.668 221.5 193.118 221.5 193.652C221.5 194.085 221.35 194.452 221.05 194.752C220.75 195.052 220.4 195.235 220 195.302C211.533 196.468 207.267 197.052 207.2 197.052ZM222.15 183.152C221.717 183.152 221.35 183.002 221.05 182.702C220.65 182.302 220.45 181.902 220.45 181.502C220.45 181.002 220.6 180.602 220.9 180.302C221.2 179.968 221.55 179.785 221.95 179.752C225.117 179.418 226.717 179.252 226.75 179.252C227.183 179.252 227.55 179.385 227.85 179.652C228.183 180.018 228.35 180.485 228.35 181.052C228.35 181.452 228.217 181.802 227.95 182.102C227.617 182.435 227.25 182.618 226.85 182.652C223.783 182.985 222.217 183.152 222.15 183.152ZM269.15 218.002C268.683 218.002 268.283 217.835 267.95 217.502C267.75 217.302 267.6 217.085 267.5 216.852L263.65 204.802C263.55 204.602 263.5 204.385 263.5 204.152C263.5 203.785 263.65 203.435 263.95 203.102C264.283 202.802 264.633 202.618 265 202.552L281.2 200.302C281.267 200.302 281.333 200.302 281.4 200.302C281.833 200.302 282.25 200.452 282.65 200.752C282.65 200.785 282.667 200.802 282.7 200.802C283 201.202 283.15 201.618 283.15 202.052C283.15 202.118 283.15 202.185 283.15 202.252C281.85 210.952 281.2 215.302 281.2 215.302C281.1 215.702 280.917 216.018 280.65 216.252C280.417 216.518 280.1 216.668 279.7 216.702C272.733 217.568 269.217 218.002 269.15 218.002ZM245.35 214.802C245.117 214.935 244.883 215.002 244.65 215.002C243.917 215.002 243.383 214.702 243.05 214.102C242.917 213.835 242.85 213.602 242.85 213.402C242.85 213.168 242.867 212.952 242.9 212.752C242.967 212.518 243.083 212.335 243.25 212.202C243.417 212.035 243.583 211.902 243.75 211.802C247.283 209.835 250.017 207.285 251.95 204.152C250.217 202.518 248.383 201.085 246.45 199.852C246.083 199.618 245.85 199.285 245.75 198.852C245.717 198.685 245.7 198.502 245.7 198.302C245.7 198.102 245.8 197.785 246 197.352C246.333 196.618 246.717 195.618 247.15 194.352L240.3 196.402C240.1 196.435 239.883 196.452 239.65 196.452C239.45 196.452 239.25 196.402 239.05 196.302C238.85 196.168 238.667 196.035 238.5 195.902C238.367 195.735 238.267 195.535 238.2 195.302C238.133 195.068 238.1 194.852 238.1 194.652C238.1 194.418 238.15 194.202 238.25 194.002C238.383 193.802 238.517 193.635 238.65 193.502C238.817 193.335 239.033 193.202 239.3 193.102L248.3 190.502C248.9 187.935 249.367 185.268 249.7 182.502C250.067 179.702 250.267 177.185 250.3 174.952C250.3 174.485 250.467 174.085 250.8 173.752C251.133 173.418 251.533 173.252 252 173.252C252 173.252 252.017 173.252 252.05 173.252C252.55 173.285 252.95 173.468 253.25 173.802C253.55 174.102 253.7 174.452 253.7 174.852C253.7 177.085 253.55 179.485 253.25 182.052C252.95 184.585 252.55 187.035 252.05 189.402L260.25 186.952C260.45 186.918 260.65 186.902 260.85 186.902C261.083 186.902 261.3 186.968 261.5 187.102C261.7 187.202 261.867 187.335 262 187.502C262.167 187.635 262.283 187.818 262.35 188.052C262.417 188.285 262.45 188.518 262.45 188.752C262.45 188.952 262.4 189.152 262.3 189.352C262.2 189.552 262.067 189.735 261.9 189.902C261.733 190.068 261.5 190.185 261.2 190.252L251.05 193.202C250.683 194.702 250.167 196.235 249.5 197.802C250.7 198.568 252.05 199.618 253.55 200.952C254.383 198.952 254.883 196.768 255.05 194.402C255.083 193.935 255.267 193.552 255.6 193.252C255.967 192.952 256.333 192.802 256.7 192.802C257.233 192.802 257.683 193.002 258.05 193.402C258.317 193.735 258.45 194.085 258.45 194.452C258.45 194.518 258.45 194.585 258.45 194.652C258.217 197.785 257.467 200.735 256.2 203.502C258.467 205.935 260.3 208.418 261.7 210.952C261.833 211.218 261.9 211.468 261.9 211.702C261.9 211.902 261.867 212.118 261.8 212.352C261.767 212.552 261.667 212.718 261.5 212.852C261.133 213.252 260.7 213.452 260.2 213.452C259.733 213.452 259.333 213.285 259 212.952C258.9 212.852 258.8 212.718 258.7 212.552C257.567 210.518 256.133 208.552 254.4 206.652C252.167 210.018 249.15 212.735 245.35 214.802ZM267.5 205.652L270.35 214.402L278 213.452L279.4 204.052L267.5 205.652ZM262.1 197.352C261.5 197.352 261.033 197.052 260.7 196.452C260.567 196.218 260.5 195.952 260.5 195.652C260.5 195.185 260.667 194.785 261 194.452C262.567 192.785 264 190.852 265.3 188.652C266.6 186.418 267.717 184.118 268.65 181.752C269.583 179.385 270.3 177.202 270.8 175.202C270.9 174.735 271.15 174.385 271.55 174.152C271.85 173.952 272.167 173.852 272.5 173.852C272.933 173.852 273.317 174.035 273.65 174.402C274.017 174.735 274.2 175.135 274.2 175.602C274.2 175.735 274.183 175.868 274.15 176.002C273.717 177.802 273.1 179.752 272.3 181.852C271.533 183.918 270.65 185.902 269.65 187.802C268.683 189.668 267.667 191.352 266.6 192.852L276.8 190.502C276.933 190.468 277.1 190.452 277.3 190.452C277.533 190.452 277.75 190.518 277.95 190.652C278.15 190.752 278.3 190.852 278.4 190.952C278.733 191.285 278.9 191.685 278.9 192.152C278.9 192.652 278.717 193.068 278.35 193.402C278.117 193.635 277.85 193.785 277.55 193.852L262.6 197.302C262.433 197.335 262.267 197.352 262.1 197.352ZM283.95 195.552C283.95 195.552 282.533 194.085 279.7 191.152C276.9 188.218 275.5 186.752 275.5 186.752C275.2 186.385 275.05 185.968 275.05 185.502C275.05 185.002 275.217 184.602 275.55 184.302C275.917 184.002 276.317 183.852 276.75 183.852C277.25 183.852 277.667 184.035 278 184.402L286.35 193.152C286.717 193.518 286.9 193.935 286.9 194.402C286.9 194.835 286.733 195.218 286.4 195.552C286.067 195.885 285.667 196.052 285.2 196.052C284.733 196.052 284.317 195.885 283.95 195.552ZM313.65 218.102C313.65 218.568 313.483 218.968 313.15 219.302C312.85 219.635 312.45 219.802 311.95 219.802C311.483 219.802 311.083 219.635 310.75 219.302C310.417 218.968 310.25 218.568 310.25 218.102V205.052C308.517 206.585 306.533 208.102 304.3 209.602C302.1 211.102 299.75 212.468 297.25 213.702C294.783 214.935 292.45 215.952 290.25 216.752C290.05 216.852 289.833 216.902 289.6 216.902C289.2 216.902 288.833 216.735 288.5 216.402C288.333 216.235 288.2 216.035 288.1 215.802C288 215.568 287.95 215.335 287.95 215.102C287.95 214.702 288.117 214.335 288.45 214.002C288.617 213.835 288.833 213.702 289.1 213.602C292.9 212.202 296.633 210.385 300.3 208.152C302.233 207.018 303.983 205.835 305.55 204.602C307.383 203.202 308.95 201.802 310.25 200.402V197.952L299.95 198.852L301.05 204.602C301.083 204.735 301.1 204.852 301.1 204.952C301.1 205.452 300.917 205.868 300.55 206.202C300.25 206.502 299.9 206.652 299.5 206.652C298.967 206.652 298.517 206.485 298.15 206.152C297.917 205.918 297.767 205.635 297.7 205.302L296.25 197.652C296.217 197.518 296.2 197.385 296.2 197.252C296.2 196.918 296.317 196.602 296.55 196.302C296.55 196.268 296.583 196.218 296.65 196.152C296.95 195.852 297.3 195.668 297.7 195.602C297.733 195.602 301.917 195.252 310.25 194.552V192.352C305.083 192.852 302.467 193.102 302.4 193.102C301.967 193.102 301.583 192.935 301.25 192.602C300.883 192.235 300.7 191.852 300.7 191.452C300.7 190.952 300.85 190.552 301.15 190.252C301.45 189.918 301.8 189.735 302.2 189.702L310.25 188.902V185.852C310.25 185.352 310.417 184.952 310.75 184.652C311.083 184.318 311.483 184.152 311.95 184.152C312.45 184.152 312.85 184.318 313.15 184.652C313.483 184.952 313.65 185.352 313.65 185.852V188.552C317.95 188.118 320.133 187.902 320.2 187.902C320.667 187.902 321.05 188.052 321.35 188.352C321.683 188.718 321.85 189.185 321.85 189.752C321.85 190.152 321.7 190.502 321.4 190.802C321.133 191.102 320.783 191.268 320.35 191.302L313.65 191.952V194.202C322.35 193.468 326.717 193.102 326.75 193.102C327.25 193.102 327.667 193.285 328 193.652C328.3 193.952 328.45 194.318 328.45 194.752C328.45 194.885 328.367 195.435 328.2 196.402C327.767 198.735 327.267 200.835 326.7 202.702C326.333 203.802 325.95 204.752 325.55 205.552C325.317 206.018 324.95 206.318 324.45 206.452C324.317 206.485 324.133 206.502 323.9 206.502C323.667 206.502 323.417 206.418 323.15 206.252L318.1 203.252C317.667 203.018 317.4 202.668 317.3 202.202C317.267 202.068 317.25 201.885 317.25 201.652C317.25 201.285 317.383 200.952 317.65 200.652C318.05 200.285 318.5 200.102 319 200.102C319.267 200.102 319.533 200.168 319.8 200.302L323.2 202.302C323.667 200.968 324.15 199.102 324.65 196.702L313.65 197.652V203.102L315.5 204.402C318 206.135 320.617 207.752 323.35 209.252C324.817 210.052 326.15 210.685 327.35 211.152C329.017 211.752 331.25 212.335 334.05 212.902L335.4 213.152C335.867 213.252 336.233 213.502 336.5 213.902C336.7 214.168 336.8 214.468 336.8 214.802C336.8 215.435 336.567 215.902 336.1 216.202C335.767 216.435 335.4 216.552 335 216.552C334.867 216.552 334.733 216.535 334.6 216.502C334.5 216.468 334.017 216.368 333.15 216.202C330.383 215.635 328.15 215.052 326.45 214.452C324.783 213.818 323.117 213.035 321.45 212.102C319.05 210.768 316.45 209.152 313.65 207.252V218.102ZM325.6 187.752C325 187.752 324.533 187.502 324.2 187.002C324.2 187.002 322.917 185.152 320.35 181.452C320.117 181.118 320 180.818 320 180.552C320 180.018 320.183 179.585 320.55 179.252C320.783 179.018 321.067 178.852 321.4 178.752C321.4 178.752 324.817 178.152 331.65 176.952C331.783 176.918 331.917 176.902 332.05 176.902C332.517 176.902 332.883 177.052 333.15 177.352C333.517 177.685 333.7 178.118 333.7 178.652C333.7 179.118 333.55 179.502 333.25 179.802C332.983 180.068 332.667 180.235 332.3 180.302L324.65 181.652L326.95 185.052C327.183 185.318 327.3 185.618 327.3 185.952C327.3 186.585 327.05 187.068 326.55 187.402C326.25 187.635 325.933 187.752 325.6 187.752ZM306.55 187.252C306.55 187.718 306.383 188.118 306.05 188.452C305.717 188.785 305.35 188.952 304.95 188.952C304.25 188.952 303.717 188.685 303.35 188.152L299.8 182.652C299.567 182.352 299.45 182.068 299.45 181.802C299.45 181.502 299.517 181.252 299.65 181.052C299.717 180.818 299.85 180.618 300.05 180.452C300.25 180.252 300.533 180.102 300.9 180.002C300.9 180.002 303.983 179.452 310.15 178.352C310.283 178.318 310.4 178.302 310.5 178.302C310.967 178.302 311.35 178.452 311.65 178.752C312.017 179.118 312.2 179.568 312.2 180.102C312.2 180.568 312.05 180.952 311.75 181.252C311.483 181.518 311.167 181.685 310.8 181.752L304.05 182.952L306.25 186.302C306.45 186.602 306.55 186.918 306.55 187.252ZM291.95 188.002C291.35 188.002 290.883 187.768 290.55 187.302C290.317 187.035 290.2 186.718 290.2 186.352C290.2 185.718 290.45 185.252 290.95 184.952C292.217 184.018 293.4 182.935 294.5 181.702C295.6 180.435 296.55 179.152 297.35 177.852C298.183 176.518 298.8 175.318 299.2 174.252C299.367 173.785 299.667 173.468 300.1 173.302C300.3 173.202 300.517 173.152 300.75 173.152C301.25 173.152 301.667 173.318 302 173.652C302.333 173.985 302.5 174.385 302.5 174.852C302.5 175.085 302.45 175.302 302.35 175.502C301.917 176.702 301.233 178.035 300.3 179.502C299.4 180.968 298.317 182.435 297.05 183.902C295.817 185.335 294.45 186.585 292.95 187.652C292.65 187.885 292.317 188.002 291.95 188.002ZM322.75 174.752C322.35 175.685 321.767 176.768 321 178.002C320.267 179.235 319.417 180.485 318.45 181.752C317.417 182.985 316.283 184.118 315.05 185.152C314.717 185.418 314.367 185.552 314 185.552C313.467 185.552 313.017 185.352 312.65 184.952C312.383 184.618 312.25 184.252 312.25 183.852C312.25 183.318 312.45 182.868 312.85 182.502C313.883 181.702 314.833 180.768 315.7 179.702C316.6 178.602 317.383 177.502 318.05 176.402C318.717 175.302 319.233 174.302 319.6 173.402C319.667 173.202 319.783 173.018 319.95 172.852C320.317 172.485 320.717 172.302 321.15 172.302C321.383 172.302 321.617 172.368 321.85 172.502C322.283 172.668 322.583 172.968 322.75 173.402C322.85 173.602 322.9 173.818 322.9 174.052C322.9 174.285 322.85 174.518 322.75 174.752ZM344.35 199.702C343.917 199.702 343.567 199.568 343.3 199.302C342.933 198.935 342.75 198.568 342.75 198.202C342.75 197.702 342.883 197.318 343.15 197.052C343.45 196.752 343.767 196.585 344.1 196.552L351.25 195.552V194.302C349.05 194.602 347.917 194.752 347.85 194.752C347.417 194.752 347.033 194.585 346.7 194.252C346.467 194.052 346.317 193.785 346.25 193.452C346.25 193.385 346.25 193.285 346.25 193.152C346.25 192.685 346.367 192.335 346.6 192.102C346.867 191.835 347.217 191.668 347.65 191.602L351.25 191.102V189.902C347.483 190.368 345.567 190.602 345.5 190.602C345.1 190.602 344.767 190.468 344.5 190.202C344.233 189.902 344.05 189.585 343.95 189.252C343.95 189.185 343.95 189.102 343.95 189.002C343.95 188.568 344.083 188.218 344.35 187.952C344.617 187.652 344.95 187.485 345.35 187.452L351.25 186.702V185.352C342.983 186.318 338.817 186.802 338.75 186.802C338.317 186.802 337.967 186.668 337.7 186.402C337.367 186.068 337.2 185.685 337.2 185.252C337.2 184.785 337.333 184.418 337.6 184.152C337.867 183.852 338.2 183.685 338.6 183.652L351.25 182.202V181.152C347.55 181.618 345.667 181.852 345.6 181.852C345.2 181.852 344.867 181.718 344.6 181.452C344.233 181.085 344.05 180.718 344.05 180.352C344.05 179.852 344.183 179.468 344.45 179.202C344.75 178.902 345.083 178.735 345.45 178.702L351.25 177.952V174.752C351.25 174.285 351.4 173.902 351.7 173.602C352 173.302 352.367 173.152 352.8 173.152C353.267 173.152 353.65 173.318 353.95 173.652C354.283 173.952 354.45 174.318 354.45 174.752V177.602C358.95 177.035 361.233 176.752 361.3 176.752C361.7 176.752 362.067 176.918 362.4 177.252C362.667 177.552 362.8 177.902 362.8 178.302C362.8 178.368 362.683 179.235 362.45 180.902C365.05 180.602 366.383 180.452 366.45 180.452C366.883 180.452 367.233 180.585 367.5 180.852C367.867 181.218 368.05 181.652 368.05 182.152C368.05 182.518 367.9 182.852 367.6 183.152C367.333 183.418 367 183.568 366.6 183.602L361.9 184.152L361.35 187.552C361.283 187.918 361.133 188.218 360.9 188.452C360.667 188.685 360.35 188.818 359.95 188.852L354.45 189.502V190.702C356.75 190.368 357.933 190.202 358 190.202C358.367 190.202 358.683 190.352 358.95 190.652C359.317 190.985 359.5 191.402 359.5 191.902C359.5 192.268 359.35 192.585 359.05 192.852C358.75 193.185 358.433 193.368 358.1 193.402L354.45 193.902V195.152C358.483 194.552 360.55 194.252 360.65 194.252C361.083 194.252 361.433 194.385 361.7 194.652C362.067 194.985 362.25 195.418 362.25 195.952C362.25 196.285 362.1 196.585 361.8 196.852C361.5 197.152 361.183 197.335 360.85 197.402L344.5 199.702C344.467 199.702 344.417 199.702 344.35 199.702ZM347.3 211.652C346.867 211.652 346.483 211.485 346.15 211.152C345.95 210.952 345.817 210.768 345.75 210.602L343.35 203.052C343.317 202.885 343.3 202.702 343.3 202.502C343.3 202.268 343.367 202.018 343.5 201.752C343.533 201.685 343.617 201.585 343.75 201.452C344.017 201.185 344.317 201.035 344.65 201.002L360.05 198.802C360.15 198.802 360.25 198.802 360.35 198.802C360.783 198.802 361.133 198.968 361.4 199.302C361.7 199.602 361.85 199.952 361.85 200.352C361.85 200.452 361.85 200.552 361.85 200.652L360.35 208.452C360.283 208.818 360.133 209.118 359.9 209.352C359.7 209.552 359.417 209.685 359.05 209.752L347.45 211.652C347.417 211.652 347.367 211.652 347.3 211.652ZM375.5 175.202C375.5 174.735 375.65 174.352 375.95 174.052C376.283 173.718 376.683 173.552 377.15 173.552C377.617 173.552 378 173.718 378.3 174.052C378.633 174.352 378.8 174.735 378.8 175.202V217.602C378.8 218.168 378.55 218.618 378.05 218.952C377.783 219.152 377.517 219.252 377.25 219.252C376.983 219.252 376.75 219.202 376.55 219.102L366.2 215.052C365.767 214.918 365.467 214.652 365.3 214.252C365.2 214.018 365.15 213.785 365.15 213.552C365.15 213.085 365.3 212.702 365.6 212.402C365.933 212.068 366.317 211.902 366.75 211.902C366.95 211.902 367.15 211.952 367.35 212.052L375.5 215.202V175.202ZM341.8 218.252C341.733 218.285 341.6 218.302 341.4 218.302C341.2 218.302 341 218.235 340.8 218.102C340.633 218.002 340.467 217.885 340.3 217.752C340.033 217.485 339.9 217.185 339.9 216.852C339.9 216.318 340.067 215.885 340.4 215.552C340.6 215.352 340.833 215.218 341.1 215.152L361.75 209.652C361.883 209.618 362.05 209.602 362.25 209.602C362.45 209.602 362.65 209.668 362.85 209.802C363.05 209.902 363.217 210.018 363.35 210.152C363.617 210.385 363.75 210.685 363.75 211.052C363.75 211.618 363.583 212.052 363.25 212.352C363.05 212.552 362.817 212.685 362.55 212.752L341.8 218.252ZM368.45 201.102C368.15 201.402 367.767 201.552 367.3 201.552C366.833 201.552 366.433 201.402 366.1 201.102C365.8 200.768 365.65 200.368 365.65 199.902V186.652C365.65 186.185 365.8 185.802 366.1 185.502C366.433 185.168 366.833 185.002 367.3 185.002C367.767 185.002 368.15 185.168 368.45 185.502C368.783 185.802 368.95 186.185 368.95 186.652V199.902C368.95 200.368 368.783 200.768 368.45 201.102ZM355.05 203.452C355.417 203.452 355.733 203.585 356 203.852C356.333 204.185 356.5 204.585 356.5 205.052C356.5 205.452 356.367 205.768 356.1 206.002C355.833 206.268 355.533 206.435 355.2 206.502L354.35 206.652V207.302L357.45 206.802L358.3 202.252L354.35 202.802V203.552C354.75 203.485 354.983 203.452 355.05 203.452ZM350.15 207.352C349.717 207.352 349.35 207.202 349.05 206.902C348.75 206.602 348.6 206.268 348.6 205.902C348.6 205.402 348.75 205.002 349.05 204.702C349.283 204.468 349.567 204.335 349.9 204.302L351.3 204.052V203.252L346.95 203.852L348.35 208.302L351.3 207.802V207.202C350.633 207.302 350.25 207.352 350.15 207.352ZM354.45 180.752V181.802L359.15 181.302L359.35 180.152L354.45 180.752ZM354.45 185.002V186.352L358.4 185.852L358.6 184.502L354.45 185.002Z" fill="#0082C5"/>
<path d="M479.5 153.573C478.7 155.173 476.833 156.24 476 156.573H475M479.5 153.573C478.7 153.573 473.5 148.24 471 145.573M479.5 153.573C483.167 150.073 491.8 142.073 497 138.073M471 145.573C469.8 145.573 468.5 147.573 468 148.573V151.073C468 151.473 461.333 156.907 458 159.573C457.6 161.573 453.833 169.073 452 172.573C454.667 170.907 461.1 167.373 465.5 166.573C467.667 163.907 472.4 158.173 474 156.573H475M471 145.573C471.4 144.373 475.5 140.073 477.5 138.073C479.9 136.473 484.167 130.407 486 127.573C486.09 127.741 486.184 127.908 486.28 128.073M497 138.073C494.581 136.783 489.165 133.027 486.28 128.073M497 138.073C497.5 138.073 498.6 137.873 499 137.073M499 137.073C512.5 123.407 539.8 95.5733 541 93.5733M499 137.073C494.682 133.54 489.69 127.792 487.615 125.216M541 93.5733L530 83.0733M541 93.5733C542.257 94.7733 542.857 94.74 543 94.5733L548 89.0733C545.6 86.2733 538 79.5733 534.5 76.5733L530 81.5733C529.833 81.9066 529.6 82.6733 530 83.0733M530 83.0733C527.6 84.2733 500.667 111.573 487.5 125.073C487.537 125.12 487.575 125.168 487.615 125.216M541 92.5733L545.5 88.0733M538.5 90.0733L543 85.5733M537.5 89.0733L542 84.5733M537 87.5733L541 83.5733M534.5 86.0733L538.5 81.5733M468 150.573C468.667 151.74 471.4 154.573 475 156.573M535 76.5733C543 67.4066 562.8 45.9733 578 33.5733C579.667 31.9066 583.9 28.4733 587.5 28.0733C589.5 27.74 593.6 28.3733 594 33.5733C594 35.0733 593.3 38.9733 590.5 42.5733M590.5 42.5733C590.082 43.1401 589.582 43.8008 589 44.5496M590.5 42.5733C589.812 41.8229 589.115 41.0953 588.422 40.3966M548 88.5733C568.76 68.9062 583.081 52.1684 589 44.5496M579.5 32.5733C581.047 33.6982 584.681 36.6262 588.422 40.3966M589 44.5496C588.5 43.7241 587.4 42.0733 587 42.0733M580.5 36.0733C579.87 35.4066 578.488 34.0733 578 34.0733M582 35.0733L580 36.5733M580 36.5733C581.5 37.24 584.9 39.2733 586.5 42.0733M580 36.5733C579.333 36.4066 578 36.6733 578 39.0733C578.153 39.1345 578.321 39.2072 578.5 39.291M586.5 42.0733C587.115 41.6222 588.36 40.6552 588.422 40.3966M586.5 42.0733C586.9 44.4733 584.667 44.74 583.5 44.5733M583.5 44.5733C583.137 42.0304 580.272 40.1198 578.5 39.291M583.5 44.5733C574.167 53.4066 555.4 71.3733 555 72.5733C553.667 74.4066 550.8 78.1733 550 78.5733C549.5 78.74 548.4 78.8733 548 78.0733L546 76.0733C545.833 75.4066 545.7 73.9733 546.5 73.5733C548.461 72.1047 552.405 69.1487 552.5 69.0733C553.7 68.2733 570.333 48.8851 578.5 39.291M486.28 128.073C486.43 127.002 486.907 124.931 487.615 125.216M484 148.573C483 147.907 480.9 146.373 480.5 145.573M485 147.573C484 146.907 481.9 145.373 481.5 144.573M486 146.573C485 145.907 482.9 144.373 482.5 143.573M487 145.573C486 144.907 483.9 143.373 483.5 142.573M488 144.573C487 143.907 484.9 142.373 484.5 141.573M489 143.573C488 142.907 485.9 141.373 485.5 140.573M490 142.573C489 141.907 486.9 140.373 486.5 139.573M491.115 141.573C490.115 140.907 488.015 139.373 487.615 138.573" stroke="black"/>
<circle cx="461" cy="162.573" r="1" fill="black"/>
</svg>
