<svg width="575" height="362" viewBox="0 0 575 362" fill="none" xmlns="http://www.w3.org/2000/svg">
<path d="M499.998 28.2037L502.498 26.2037C505.298 24.2037 507.665 25.3704 508.498 26.2037L521.5 77.0288M499.998 28.2037L483.998 12.2037M499.998 28.2037L503.998 32.2037L516.349 82.7196M483.998 12.2037L470.498 16.2037M483.998 12.2037L503.5 96.6021M7.49821 342.704C25.8982 344.704 57.1649 344.87 70.4982 344.704C130.098 342.704 216.332 342.537 251.998 342.704C256.798 348.704 262.665 351.87 264.998 352.704L274.498 349.704L285.998 347.204L289.498 349.704L309.998 352.704L370.498 340.704L564.998 287.204V281.704L521.063 102M7.49821 342.704C5.49821 347.504 2.99821 350.37 5.49821 350.704H165.998L247.498 348.704L248.998 349.704L258.498 358.204L268.998 361.204H289.498H303.498L309.998 358.204L356.498 349.704L452.498 326.204L564.998 295.204C567.998 293.704 574.098 289.404 574.498 284.204L527 98.5288M7.49821 342.704L30.4984 275.204L93.4998 23.5H97.4918M7.49821 342.704L97.4918 23.5M470.498 16.2037L467.498 2.7037C466.698 0.703704 464.165 0.87037 462.998 1.2037C430.198 12.4037 409.665 18.8704 403.498 20.7037C371.898 27.5037 336.665 43.2037 322.998 50.2037C290.598 66.2037 285.832 83.537 287.498 90.2037L115 2.7037L108.252 21.7037M470.498 16.2037L493.82 106.238M368.998 317.887C332.933 321.657 306.438 327.507 296.998 330.204C287.798 332.604 285.165 338.87 284.998 341.704H283.498C264.298 326.104 220.832 312.204 201.498 307.204C185.898 302.404 148.332 294.537 131.498 291.204C89.4982 282.804 66.1667 244.667 52 239.5L85 115L108.252 21.7037M368.998 317.887C373.048 317.464 377.218 317.067 381.498 316.704L543.498 269.704L507.912 115.697M368.998 317.887L532.998 267.704C533.832 267.37 535.398 266.404 534.998 265.204L498.747 125.257M97.4918 23.5L97.9982 21.7037H108.252" stroke="black"/>
<path d="M284.999 341.204C288.999 344.704 300.199 351.704 312.999 351.704M284.999 341.204C284.347 341.557 283.679 341.892 282.999 342.21M284.999 341.204C286.037 290.67 285.249 249.982 285.5 213.5M287.499 89.7036C287.263 105.48 286.848 123.721 286.448 144.5C286.448 144.5 286.673 141.688 286.448 156.5M256.999 347.704C261.97 347.704 273.66 346.574 282.999 342.21M26 286.204H30.9985C69.3319 290.037 150.499 298.704 168.499 302.704M168.499 302.704C175.332 304.037 191.499 307.504 201.499 310.704C207.236 312.042 215.561 314.263 224.999 317.209M168.499 302.704L152.999 300.704C140.599 299.104 101.832 295.037 83.9985 293.204C64.7985 291.204 41.3319 289.037 31.9985 288.204V286.704M282.999 342.21C267.02 331.827 243.8 323.078 224.999 317.209M32.4985 288.704L31.4985 290.704C35.4985 290.87 57.6985 292.504 114.499 297.704C129.665 298.707 172.999 304.013 224.999 317.209" stroke="black"/>
<path d="M33.9985 291.704V292.704C34.4899 292.74 34.99 292.777 35.4985 292.815M149.999 302.204C133.067 300.235 67.5861 295.197 35.4985 292.815M35.4985 292.815V294.704C35.7449 294.716 35.9931 294.728 36.2433 294.74M31.4985 291.704L29.9985 294.704M29.9985 294.704L36.2433 294.74M29.9985 294.704V296.204C52.7859 297.202 89.8323 299.469 126.999 303.032M36.2433 294.74C73.8282 296.604 155.161 302.869 209.398 314.123M30.4985 296.704L29.4985 297.704M126.999 303.032L29.4985 298.704V297.704M126.999 303.032C140.194 304.297 153.405 305.725 165.999 307.317M29.4985 297.704L29.9985 299.204L27.4985 300.704C28.3141 300.725 29.1478 300.748 29.9985 300.771M165.999 307.317C151.891 304.664 71.0451 301.894 29.9985 300.771M165.999 307.317C181.868 309.324 196.757 311.592 209.398 314.123M29.9985 300.771L27.4985 303.032C74.9318 303.702 177.718 306.858 209.398 314.123M209.398 314.123C215.093 315.263 220.332 316.456 224.999 317.704C220.127 316.458 214.902 315.265 209.398 314.123ZM28.9985 304.204V305.704C29.1641 305.701 29.3308 305.699 29.4985 305.697M227.499 318.204C209.622 315.293 190.165 313.018 170.499 311.252M280.499 342.704C273.007 338.066 255.894 329.61 234.499 323.693M29.4985 305.697L28.4985 306.7M29.4985 305.697C57.4433 305.344 114.812 306.253 170.499 311.252M28.4985 306.7L27.4985 307.704L26.4985 308.704L103.499 310.704C149.899 312.304 191.832 316.37 206.999 318.204C216.625 319.35 225.907 321.317 234.499 323.693M28.4985 306.7C54.3319 307.401 118.899 309.292 170.499 311.252M26.9985 309.204V310.704C62.8185 310.395 145.759 312.11 213.999 320.791M234.499 323.693C227.865 322.648 221.009 321.683 213.999 320.791M27.4985 311.204L25.9985 313.704C26.4818 313.68 26.9819 313.656 27.4985 313.633M213.999 320.791C127.252 312.225 54.5971 312.418 27.4985 313.633M27.4985 313.633L17.9985 330.204C18.6313 330.224 19.2987 330.244 19.9985 330.264M215.999 330.204C209.215 329.204 201.778 328.487 193.999 327.997M19.9985 330.264C36.812 330.757 72.3416 331.356 94.9985 330.204C115.125 328.287 158.196 325.74 193.999 327.997M19.9985 330.264L17.9985 333.204C19.0911 333.228 20.2634 333.253 21.4985 333.28M193.999 327.997C176.399 326.231 120.665 329.732 94.9985 331.704C74.9985 334.742 65.4985 334.204 64.4985 334.204C63.7562 334.204 37.4099 333.63 21.4985 333.28M21.4985 333.28L19.9985 340.204C20.4606 340.188 20.961 340.171 21.4985 340.152M215.999 333.28L195.499 331.704C167.099 330.442 114.999 334.178 92.4985 336.204C60.4257 338.495 32.7871 339.753 21.4985 340.152M21.4985 340.152L19.9985 342.704C38.9985 341.704 81.1985 339.504 97.9985 338.704C122.999 336.704 183.899 333.704 227.499 337.704M97.9985 342.704C103.499 342.704 163.499 338.704 243.499 340.204M24.4985 327.204C26.9985 327.204 61.9985 328.704 102.499 327.204L169.499 324.704M28.4985 323.704C33.9985 323.704 73.9985 326.204 112.499 323.704M28.4985 318.704C30.4985 318.704 83.9985 315.704 144.499 318.704M28.9985 320.704C35.4985 320.204 176.999 320.704 191.999 322.704" stroke="black"/>
<path d="M232.25 206.202C231.95 206.402 231.65 206.502 231.35 206.502C231.083 206.502 230.85 206.452 230.65 206.352C230.65 206.352 227.75 205.135 221.95 202.702C221.483 202.535 221.167 202.235 221 201.802C220.9 201.568 220.85 201.352 220.85 201.152C220.85 200.952 220.9 200.735 221 200.502C221.2 200.068 221.5 199.768 221.9 199.602C222.133 199.502 222.35 199.452 222.55 199.452C222.783 199.452 223 199.502 223.2 199.602L229.55 202.202V163.902L220.05 164.952V173.102C224.483 172.535 226.733 172.252 226.8 172.252C227.233 172.252 227.6 172.402 227.9 172.702C228.233 173.035 228.4 173.485 228.4 174.052C228.4 174.452 228.267 174.802 228 175.102C227.667 175.402 227.3 175.585 226.9 175.652C221.2 176.385 218.333 176.752 218.3 176.752C217.867 176.752 217.483 176.602 217.15 176.302C216.817 175.968 216.65 175.552 216.65 175.052V163.402C216.65 162.935 216.8 162.552 217.1 162.252C217.4 161.918 217.75 161.735 218.15 161.702C226.917 160.768 231.317 160.302 231.35 160.302C231.783 160.302 232.167 160.468 232.5 160.802C232.833 161.135 233 161.535 233 162.002V204.752C233 205.418 232.75 205.902 232.25 206.202ZM198.3 204.202C198.3 204.668 198.133 205.068 197.8 205.402C197.5 205.735 197.117 205.902 196.65 205.902C196.15 205.902 195.717 205.718 195.35 205.352C195.017 205.018 194.85 204.635 194.85 204.202V165.952C194.85 165.485 194.983 165.118 195.25 164.852C195.517 164.585 195.833 164.402 196.2 164.302L207.35 161.502C207.517 161.468 207.683 161.452 207.85 161.452C208.283 161.452 208.667 161.618 209 161.952C209.333 162.285 209.5 162.685 209.5 163.152V175.302C209.5 175.802 209.35 176.202 209.05 176.502C208.85 176.702 208.567 176.852 208.2 176.952L201.25 178.852C201.117 178.885 200.933 178.902 200.7 178.902C200.467 178.902 200.25 178.852 200.05 178.752C199.85 178.618 199.683 178.468 199.55 178.302C199.25 178.035 199.1 177.702 199.1 177.302C199.1 176.735 199.283 176.285 199.65 175.952C199.85 175.752 200.083 175.602 200.35 175.502L206.05 174.002V165.352L198.3 167.302V169.602L203.1 168.302C203.233 168.268 203.367 168.252 203.5 168.252C204 168.252 204.417 168.435 204.75 168.802C205.083 169.135 205.25 169.535 205.25 170.002C205.25 170.468 205.083 170.868 204.75 171.202C204.55 171.402 204.283 171.552 203.95 171.652L198.3 173.152V204.202ZM208.9 186.602L208.85 185.502C208.85 185.068 209 184.702 209.3 184.402C209.667 184.035 210.083 183.852 210.55 183.852C211.05 183.852 211.45 184.002 211.75 184.302C212.05 184.602 212.217 185.002 212.25 185.502C212.283 185.968 212.3 186.385 212.3 186.752C212.3 187.118 212.3 187.435 212.3 187.702L215.5 187.302V184.552C215.5 184.052 215.667 183.635 216 183.302C216.333 182.968 216.733 182.802 217.2 182.802C217.7 182.802 218.117 182.968 218.45 183.302C218.783 183.635 218.95 184.052 218.95 184.552V186.902C222.817 186.468 224.767 186.252 224.8 186.252C225.233 186.252 225.6 186.385 225.9 186.652C226.233 187.018 226.4 187.485 226.4 188.052C226.4 188.485 226.25 188.852 225.95 189.152C225.65 189.452 225.3 189.618 224.9 189.652L218.95 190.352V202.602C218.95 203.068 218.767 203.468 218.4 203.802C218.067 204.168 217.667 204.352 217.2 204.352C216.733 204.352 216.333 204.168 216 203.802C215.667 203.468 215.5 203.068 215.5 202.602V190.752L211.8 191.152C210.867 195.518 208.417 198.735 204.45 200.802C204.217 200.935 203.983 201.002 203.75 201.002C203.017 201.002 202.483 200.702 202.15 200.102C202.05 199.902 202 199.685 202 199.452C202 198.618 202.3 198.068 202.9 197.802C205.6 196.368 207.367 194.285 208.2 191.552C204.8 191.952 203.067 192.152 203 192.152C202.567 192.152 202.2 192.002 201.9 191.702C201.5 191.302 201.3 190.902 201.3 190.502C201.3 190.002 201.45 189.602 201.75 189.302C202.083 188.968 202.433 188.785 202.8 188.752L208.85 188.102C208.883 187.468 208.9 186.968 208.9 186.602ZM207.2 184.052C206.7 184.052 206.267 183.868 205.9 183.502C205.6 183.202 205.45 182.835 205.45 182.402C205.45 181.902 205.633 181.468 206 181.102C206.267 180.835 206.583 180.685 206.95 180.652C215.483 179.452 219.783 178.852 219.85 178.852C220.317 178.852 220.7 179.002 221 179.302C221.333 179.668 221.5 180.118 221.5 180.652C221.5 181.085 221.35 181.452 221.05 181.752C220.75 182.052 220.4 182.235 220 182.302C211.533 183.468 207.267 184.052 207.2 184.052ZM222.15 170.152C221.717 170.152 221.35 170.002 221.05 169.702C220.65 169.302 220.45 168.902 220.45 168.502C220.45 168.002 220.6 167.602 220.9 167.302C221.2 166.968 221.55 166.785 221.95 166.752C225.117 166.418 226.717 166.252 226.75 166.252C227.183 166.252 227.55 166.385 227.85 166.652C228.183 167.018 228.35 167.485 228.35 168.052C228.35 168.452 228.217 168.802 227.95 169.102C227.617 169.435 227.25 169.618 226.85 169.652C223.783 169.985 222.217 170.152 222.15 170.152ZM269.15 205.002C268.683 205.002 268.283 204.835 267.95 204.502C267.75 204.302 267.6 204.085 267.5 203.852L263.65 191.802C263.55 191.602 263.5 191.385 263.5 191.152C263.5 190.785 263.65 190.435 263.95 190.102C264.283 189.802 264.633 189.618 265 189.552L281.2 187.302C281.267 187.302 281.333 187.302 281.4 187.302C281.833 187.302 282.25 187.452 282.65 187.752C282.65 187.785 282.667 187.802 282.7 187.802C283 188.202 283.15 188.618 283.15 189.052C283.15 189.118 283.15 189.185 283.15 189.252C281.85 197.952 281.2 202.302 281.2 202.302C281.1 202.702 280.917 203.018 280.65 203.252C280.417 203.518 280.1 203.668 279.7 203.702C272.733 204.568 269.217 205.002 269.15 205.002ZM245.35 201.802C245.117 201.935 244.883 202.002 244.65 202.002C243.917 202.002 243.383 201.702 243.05 201.102C242.917 200.835 242.85 200.602 242.85 200.402C242.85 200.168 242.867 199.952 242.9 199.752C242.967 199.518 243.083 199.335 243.25 199.202C243.417 199.035 243.583 198.902 243.75 198.802C247.283 196.835 250.017 194.285 251.95 191.152C250.217 189.518 248.383 188.085 246.45 186.852C246.083 186.618 245.85 186.285 245.75 185.852C245.717 185.685 245.7 185.502 245.7 185.302C245.7 185.102 245.8 184.785 246 184.352C246.333 183.618 246.717 182.618 247.15 181.352L240.3 183.402C240.1 183.435 239.883 183.452 239.65 183.452C239.45 183.452 239.25 183.402 239.05 183.302C238.85 183.168 238.667 183.035 238.5 182.902C238.367 182.735 238.267 182.535 238.2 182.302C238.133 182.068 238.1 181.852 238.1 181.652C238.1 181.418 238.15 181.202 238.25 181.002C238.383 180.802 238.517 180.635 238.65 180.502C238.817 180.335 239.033 180.202 239.3 180.102L248.3 177.502C248.9 174.935 249.367 172.268 249.7 169.502C250.067 166.702 250.267 164.185 250.3 161.952C250.3 161.485 250.467 161.085 250.8 160.752C251.133 160.418 251.533 160.252 252 160.252C252 160.252 252.017 160.252 252.05 160.252C252.55 160.285 252.95 160.468 253.25 160.802C253.55 161.102 253.7 161.452 253.7 161.852C253.7 164.085 253.55 166.485 253.25 169.052C252.95 171.585 252.55 174.035 252.05 176.402L260.25 173.952C260.45 173.918 260.65 173.902 260.85 173.902C261.083 173.902 261.3 173.968 261.5 174.102C261.7 174.202 261.867 174.335 262 174.502C262.167 174.635 262.283 174.818 262.35 175.052C262.417 175.285 262.45 175.518 262.45 175.752C262.45 175.952 262.4 176.152 262.3 176.352C262.2 176.552 262.067 176.735 261.9 176.902C261.733 177.068 261.5 177.185 261.2 177.252L251.05 180.202C250.683 181.702 250.167 183.235 249.5 184.802C250.7 185.568 252.05 186.618 253.55 187.952C254.383 185.952 254.883 183.768 255.05 181.402C255.083 180.935 255.267 180.552 255.6 180.252C255.967 179.952 256.333 179.802 256.7 179.802C257.233 179.802 257.683 180.002 258.05 180.402C258.317 180.735 258.45 181.085 258.45 181.452C258.45 181.518 258.45 181.585 258.45 181.652C258.217 184.785 257.467 187.735 256.2 190.502C258.467 192.935 260.3 195.418 261.7 197.952C261.833 198.218 261.9 198.468 261.9 198.702C261.9 198.902 261.867 199.118 261.8 199.352C261.767 199.552 261.667 199.718 261.5 199.852C261.133 200.252 260.7 200.452 260.2 200.452C259.733 200.452 259.333 200.285 259 199.952C258.9 199.852 258.8 199.718 258.7 199.552C257.567 197.518 256.133 195.552 254.4 193.652C252.167 197.018 249.15 199.735 245.35 201.802ZM267.5 192.652L270.35 201.402L278 200.452L279.4 191.052L267.5 192.652ZM262.1 184.352C261.5 184.352 261.033 184.052 260.7 183.452C260.567 183.218 260.5 182.952 260.5 182.652C260.5 182.185 260.667 181.785 261 181.452C262.567 179.785 264 177.852 265.3 175.652C266.6 173.418 267.717 171.118 268.65 168.752C269.583 166.385 270.3 164.202 270.8 162.202C270.9 161.735 271.15 161.385 271.55 161.152C271.85 160.952 272.167 160.852 272.5 160.852C272.933 160.852 273.317 161.035 273.65 161.402C274.017 161.735 274.2 162.135 274.2 162.602C274.2 162.735 274.183 162.868 274.15 163.002C273.717 164.802 273.1 166.752 272.3 168.852C271.533 170.918 270.65 172.902 269.65 174.802C268.683 176.668 267.667 178.352 266.6 179.852L276.8 177.502C276.933 177.468 277.1 177.452 277.3 177.452C277.533 177.452 277.75 177.518 277.95 177.652C278.15 177.752 278.3 177.852 278.4 177.952C278.733 178.285 278.9 178.685 278.9 179.152C278.9 179.652 278.717 180.068 278.35 180.402C278.117 180.635 277.85 180.785 277.55 180.852L262.6 184.302C262.433 184.335 262.267 184.352 262.1 184.352ZM283.95 182.552C283.95 182.552 282.533 181.085 279.7 178.152C276.9 175.218 275.5 173.752 275.5 173.752C275.2 173.385 275.05 172.968 275.05 172.502C275.05 172.002 275.217 171.602 275.55 171.302C275.917 171.002 276.317 170.852 276.75 170.852C277.25 170.852 277.667 171.035 278 171.402L286.35 180.152C286.717 180.518 286.9 180.935 286.9 181.402C286.9 181.835 286.733 182.218 286.4 182.552C286.067 182.885 285.667 183.052 285.2 183.052C284.733 183.052 284.317 182.885 283.95 182.552ZM313.65 205.102C313.65 205.568 313.483 205.968 313.15 206.302C312.85 206.635 312.45 206.802 311.95 206.802C311.483 206.802 311.083 206.635 310.75 206.302C310.417 205.968 310.25 205.568 310.25 205.102V192.052C308.517 193.585 306.533 195.102 304.3 196.602C302.1 198.102 299.75 199.468 297.25 200.702C294.783 201.935 292.45 202.952 290.25 203.752C290.05 203.852 289.833 203.902 289.6 203.902C289.2 203.902 288.833 203.735 288.5 203.402C288.333 203.235 288.2 203.035 288.1 202.802C288 202.568 287.95 202.335 287.95 202.102C287.95 201.702 288.117 201.335 288.45 201.002C288.617 200.835 288.833 200.702 289.1 200.602C292.9 199.202 296.633 197.385 300.3 195.152C302.233 194.018 303.983 192.835 305.55 191.602C307.383 190.202 308.95 188.802 310.25 187.402V184.952L299.95 185.852L301.05 191.602C301.083 191.735 301.1 191.852 301.1 191.952C301.1 192.452 300.917 192.868 300.55 193.202C300.25 193.502 299.9 193.652 299.5 193.652C298.967 193.652 298.517 193.485 298.15 193.152C297.917 192.918 297.767 192.635 297.7 192.302L296.25 184.652C296.217 184.518 296.2 184.385 296.2 184.252C296.2 183.918 296.317 183.602 296.55 183.302C296.55 183.268 296.583 183.218 296.65 183.152C296.95 182.852 297.3 182.668 297.7 182.602C297.733 182.602 301.917 182.252 310.25 181.552V179.352C305.083 179.852 302.467 180.102 302.4 180.102C301.967 180.102 301.583 179.935 301.25 179.602C300.883 179.235 300.7 178.852 300.7 178.452C300.7 177.952 300.85 177.552 301.15 177.252C301.45 176.918 301.8 176.735 302.2 176.702L310.25 175.902V172.852C310.25 172.352 310.417 171.952 310.75 171.652C311.083 171.318 311.483 171.152 311.95 171.152C312.45 171.152 312.85 171.318 313.15 171.652C313.483 171.952 313.65 172.352 313.65 172.852V175.552C317.95 175.118 320.133 174.902 320.2 174.902C320.667 174.902 321.05 175.052 321.35 175.352C321.683 175.718 321.85 176.185 321.85 176.752C321.85 177.152 321.7 177.502 321.4 177.802C321.133 178.102 320.783 178.268 320.35 178.302L313.65 178.952V181.202C322.35 180.468 326.717 180.102 326.75 180.102C327.25 180.102 327.667 180.285 328 180.652C328.3 180.952 328.45 181.318 328.45 181.752C328.45 181.885 328.367 182.435 328.2 183.402C327.767 185.735 327.267 187.835 326.7 189.702C326.333 190.802 325.95 191.752 325.55 192.552C325.317 193.018 324.95 193.318 324.45 193.452C324.317 193.485 324.133 193.502 323.9 193.502C323.667 193.502 323.417 193.418 323.15 193.252L318.1 190.252C317.667 190.018 317.4 189.668 317.3 189.202C317.267 189.068 317.25 188.885 317.25 188.652C317.25 188.285 317.383 187.952 317.65 187.652C318.05 187.285 318.5 187.102 319 187.102C319.267 187.102 319.533 187.168 319.8 187.302L323.2 189.302C323.667 187.968 324.15 186.102 324.65 183.702L313.65 184.652V190.102L315.5 191.402C318 193.135 320.617 194.752 323.35 196.252C324.817 197.052 326.15 197.685 327.35 198.152C329.017 198.752 331.25 199.335 334.05 199.902L335.4 200.152C335.867 200.252 336.233 200.502 336.5 200.902C336.7 201.168 336.8 201.468 336.8 201.802C336.8 202.435 336.567 202.902 336.1 203.202C335.767 203.435 335.4 203.552 335 203.552C334.867 203.552 334.733 203.535 334.6 203.502C334.5 203.468 334.017 203.368 333.15 203.202C330.383 202.635 328.15 202.052 326.45 201.452C324.783 200.818 323.117 200.035 321.45 199.102C319.05 197.768 316.45 196.152 313.65 194.252V205.102ZM325.6 174.752C325 174.752 324.533 174.502 324.2 174.002C324.2 174.002 322.917 172.152 320.35 168.452C320.117 168.118 320 167.818 320 167.552C320 167.018 320.183 166.585 320.55 166.252C320.783 166.018 321.067 165.852 321.4 165.752C321.4 165.752 324.817 165.152 331.65 163.952C331.783 163.918 331.917 163.902 332.05 163.902C332.517 163.902 332.883 164.052 333.15 164.352C333.517 164.685 333.7 165.118 333.7 165.652C333.7 166.118 333.55 166.502 333.25 166.802C332.983 167.068 332.667 167.235 332.3 167.302L324.65 168.652L326.95 172.052C327.183 172.318 327.3 172.618 327.3 172.952C327.3 173.585 327.05 174.068 326.55 174.402C326.25 174.635 325.933 174.752 325.6 174.752ZM306.55 174.252C306.55 174.718 306.383 175.118 306.05 175.452C305.717 175.785 305.35 175.952 304.95 175.952C304.25 175.952 303.717 175.685 303.35 175.152L299.8 169.652C299.567 169.352 299.45 169.068 299.45 168.802C299.45 168.502 299.517 168.252 299.65 168.052C299.717 167.818 299.85 167.618 300.05 167.452C300.25 167.252 300.533 167.102 300.9 167.002C300.9 167.002 303.983 166.452 310.15 165.352C310.283 165.318 310.4 165.302 310.5 165.302C310.967 165.302 311.35 165.452 311.65 165.752C312.017 166.118 312.2 166.568 312.2 167.102C312.2 167.568 312.05 167.952 311.75 168.252C311.483 168.518 311.167 168.685 310.8 168.752L304.05 169.952L306.25 173.302C306.45 173.602 306.55 173.918 306.55 174.252ZM291.95 175.002C291.35 175.002 290.883 174.768 290.55 174.302C290.317 174.035 290.2 173.718 290.2 173.352C290.2 172.718 290.45 172.252 290.95 171.952C292.217 171.018 293.4 169.935 294.5 168.702C295.6 167.435 296.55 166.152 297.35 164.852C298.183 163.518 298.8 162.318 299.2 161.252C299.367 160.785 299.667 160.468 300.1 160.302C300.3 160.202 300.517 160.152 300.75 160.152C301.25 160.152 301.667 160.318 302 160.652C302.333 160.985 302.5 161.385 302.5 161.852C302.5 162.085 302.45 162.302 302.35 162.502C301.917 163.702 301.233 165.035 300.3 166.502C299.4 167.968 298.317 169.435 297.05 170.902C295.817 172.335 294.45 173.585 292.95 174.652C292.65 174.885 292.317 175.002 291.95 175.002ZM322.75 161.752C322.35 162.685 321.767 163.768 321 165.002C320.267 166.235 319.417 167.485 318.45 168.752C317.417 169.985 316.283 171.118 315.05 172.152C314.717 172.418 314.367 172.552 314 172.552C313.467 172.552 313.017 172.352 312.65 171.952C312.383 171.618 312.25 171.252 312.25 170.852C312.25 170.318 312.45 169.868 312.85 169.502C313.883 168.702 314.833 167.768 315.7 166.702C316.6 165.602 317.383 164.502 318.05 163.402C318.717 162.302 319.233 161.302 319.6 160.402C319.667 160.202 319.783 160.018 319.95 159.852C320.317 159.485 320.717 159.302 321.15 159.302C321.383 159.302 321.617 159.368 321.85 159.502C322.283 159.668 322.583 159.968 322.75 160.402C322.85 160.602 322.9 160.818 322.9 161.052C322.9 161.285 322.85 161.518 322.75 161.752ZM344.35 186.702C343.917 186.702 343.567 186.568 343.3 186.302C342.933 185.935 342.75 185.568 342.75 185.202C342.75 184.702 342.883 184.318 343.15 184.052C343.45 183.752 343.767 183.585 344.1 183.552L351.25 182.552V181.302C349.05 181.602 347.917 181.752 347.85 181.752C347.417 181.752 347.033 181.585 346.7 181.252C346.467 181.052 346.317 180.785 346.25 180.452C346.25 180.385 346.25 180.285 346.25 180.152C346.25 179.685 346.367 179.335 346.6 179.102C346.867 178.835 347.217 178.668 347.65 178.602L351.25 178.102V176.902C347.483 177.368 345.567 177.602 345.5 177.602C345.1 177.602 344.767 177.468 344.5 177.202C344.233 176.902 344.05 176.585 343.95 176.252C343.95 176.185 343.95 176.102 343.95 176.002C343.95 175.568 344.083 175.218 344.35 174.952C344.617 174.652 344.95 174.485 345.35 174.452L351.25 173.702V172.352C342.983 173.318 338.817 173.802 338.75 173.802C338.317 173.802 337.967 173.668 337.7 173.402C337.367 173.068 337.2 172.685 337.2 172.252C337.2 171.785 337.333 171.418 337.6 171.152C337.867 170.852 338.2 170.685 338.6 170.652L351.25 169.202V168.152C347.55 168.618 345.667 168.852 345.6 168.852C345.2 168.852 344.867 168.718 344.6 168.452C344.233 168.085 344.05 167.718 344.05 167.352C344.05 166.852 344.183 166.468 344.45 166.202C344.75 165.902 345.083 165.735 345.45 165.702L351.25 164.952V161.752C351.25 161.285 351.4 160.902 351.7 160.602C352 160.302 352.367 160.152 352.8 160.152C353.267 160.152 353.65 160.318 353.95 160.652C354.283 160.952 354.45 161.318 354.45 161.752V164.602C358.95 164.035 361.233 163.752 361.3 163.752C361.7 163.752 362.067 163.918 362.4 164.252C362.667 164.552 362.8 164.902 362.8 165.302C362.8 165.368 362.683 166.235 362.45 167.902C365.05 167.602 366.383 167.452 366.45 167.452C366.883 167.452 367.233 167.585 367.5 167.852C367.867 168.218 368.05 168.652 368.05 169.152C368.05 169.518 367.9 169.852 367.6 170.152C367.333 170.418 367 170.568 366.6 170.602L361.9 171.152L361.35 174.552C361.283 174.918 361.133 175.218 360.9 175.452C360.667 175.685 360.35 175.818 359.95 175.852L354.45 176.502V177.702C356.75 177.368 357.933 177.202 358 177.202C358.367 177.202 358.683 177.352 358.95 177.652C359.317 177.985 359.5 178.402 359.5 178.902C359.5 179.268 359.35 179.585 359.05 179.852C358.75 180.185 358.433 180.368 358.1 180.402L354.45 180.902V182.152C358.483 181.552 360.55 181.252 360.65 181.252C361.083 181.252 361.433 181.385 361.7 181.652C362.067 181.985 362.25 182.418 362.25 182.952C362.25 183.285 362.1 183.585 361.8 183.852C361.5 184.152 361.183 184.335 360.85 184.402L344.5 186.702C344.467 186.702 344.417 186.702 344.35 186.702ZM347.3 198.652C346.867 198.652 346.483 198.485 346.15 198.152C345.95 197.952 345.817 197.768 345.75 197.602L343.35 190.052C343.317 189.885 343.3 189.702 343.3 189.502C343.3 189.268 343.367 189.018 343.5 188.752C343.533 188.685 343.617 188.585 343.75 188.452C344.017 188.185 344.317 188.035 344.65 188.002L360.05 185.802C360.15 185.802 360.25 185.802 360.35 185.802C360.783 185.802 361.133 185.968 361.4 186.302C361.7 186.602 361.85 186.952 361.85 187.352C361.85 187.452 361.85 187.552 361.85 187.652L360.35 195.452C360.283 195.818 360.133 196.118 359.9 196.352C359.7 196.552 359.417 196.685 359.05 196.752L347.45 198.652C347.417 198.652 347.367 198.652 347.3 198.652ZM375.5 162.202C375.5 161.735 375.65 161.352 375.95 161.052C376.283 160.718 376.683 160.552 377.15 160.552C377.617 160.552 378 160.718 378.3 161.052C378.633 161.352 378.8 161.735 378.8 162.202V204.602C378.8 205.168 378.55 205.618 378.05 205.952C377.783 206.152 377.517 206.252 377.25 206.252C376.983 206.252 376.75 206.202 376.55 206.102L366.2 202.052C365.767 201.918 365.467 201.652 365.3 201.252C365.2 201.018 365.15 200.785 365.15 200.552C365.15 200.085 365.3 199.702 365.6 199.402C365.933 199.068 366.317 198.902 366.75 198.902C366.95 198.902 367.15 198.952 367.35 199.052L375.5 202.202V162.202ZM341.8 205.252C341.733 205.285 341.6 205.302 341.4 205.302C341.2 205.302 341 205.235 340.8 205.102C340.633 205.002 340.467 204.885 340.3 204.752C340.033 204.485 339.9 204.185 339.9 203.852C339.9 203.318 340.067 202.885 340.4 202.552C340.6 202.352 340.833 202.218 341.1 202.152L361.75 196.652C361.883 196.618 362.05 196.602 362.25 196.602C362.45 196.602 362.65 196.668 362.85 196.802C363.05 196.902 363.217 197.018 363.35 197.152C363.617 197.385 363.75 197.685 363.75 198.052C363.75 198.618 363.583 199.052 363.25 199.352C363.05 199.552 362.817 199.685 362.55 199.752L341.8 205.252ZM368.45 188.102C368.15 188.402 367.767 188.552 367.3 188.552C366.833 188.552 366.433 188.402 366.1 188.102C365.8 187.768 365.65 187.368 365.65 186.902V173.652C365.65 173.185 365.8 172.802 366.1 172.502C366.433 172.168 366.833 172.002 367.3 172.002C367.767 172.002 368.15 172.168 368.45 172.502C368.783 172.802 368.95 173.185 368.95 173.652V186.902C368.95 187.368 368.783 187.768 368.45 188.102ZM355.05 190.452C355.417 190.452 355.733 190.585 356 190.852C356.333 191.185 356.5 191.585 356.5 192.052C356.5 192.452 356.367 192.768 356.1 193.002C355.833 193.268 355.533 193.435 355.2 193.502L354.35 193.652V194.302L357.45 193.802L358.3 189.252L354.35 189.802V190.552C354.75 190.485 354.983 190.452 355.05 190.452ZM350.15 194.352C349.717 194.352 349.35 194.202 349.05 193.902C348.75 193.602 348.6 193.268 348.6 192.902C348.6 192.402 348.75 192.002 349.05 191.702C349.283 191.468 349.567 191.335 349.9 191.302L351.3 191.052V190.252L346.95 190.852L348.35 195.302L351.3 194.802V194.202C350.633 194.302 350.25 194.352 350.15 194.352ZM354.45 167.752V168.802L359.15 168.302L359.35 167.152L354.45 167.752ZM354.45 172.002V173.352L358.4 172.852L358.6 171.502L354.45 172.002Z" fill="#0082C5"/>
<path d="M459.5 161.573C458.7 163.173 456.833 164.24 456 164.573H455M459.5 161.573C458.7 161.573 453.5 156.24 451 153.573M459.5 161.573C463.167 158.073 471.8 150.073 477 146.073M451 153.573C449.8 153.573 448.5 155.573 448 156.573V159.073C448 159.473 441.333 164.907 438 167.573C437.6 169.573 433.833 177.073 432 180.573C434.667 178.907 441.1 175.373 445.5 174.573C447.667 171.907 452.4 166.173 454 164.573H455M451 153.573C451.4 152.373 455.5 148.073 457.5 146.073C459.9 144.473 464.167 138.407 466 135.573C466.09 135.741 466.184 135.908 466.28 136.073M477 146.073C474.581 144.783 469.165 141.027 466.28 136.073M477 146.073C477.5 146.073 478.6 145.873 479 145.073M479 145.073C492.5 131.407 519.8 103.573 521 101.573M479 145.073C474.682 141.54 469.69 135.792 467.615 133.216M521 101.573L510 91.0733M521 101.573C522.257 102.773 522.857 102.74 523 102.573L528 97.0733C525.6 94.2733 518 87.5733 514.5 84.5733L510 89.5733C509.833 89.9066 509.6 90.6733 510 91.0733M510 91.0733C507.6 92.2733 480.667 119.573 467.5 133.073C467.537 133.12 467.575 133.168 467.615 133.216M521 100.573L525.5 96.0733M518.5 98.0733L523 93.5733M517.5 97.0733L522 92.5733M517 95.5733L521 91.5733M514.5 94.0733L518.5 89.5733M448 158.573C448.667 159.74 451.4 162.573 455 164.573M515 84.5733C523 75.4066 542.8 53.9733 558 41.5733C559.667 39.9066 563.9 36.4733 567.5 36.0733C569.5 35.74 573.6 36.3733 574 41.5733C574 43.0733 573.3 46.9733 570.5 50.5733M570.5 50.5733C570.082 51.1401 569.582 51.8008 569 52.5496M570.5 50.5733C569.812 49.8229 569.115 49.0953 568.422 48.3966M528 96.5733C548.76 76.9062 563.081 60.1684 569 52.5496M559.5 40.5733C561.047 41.6982 564.681 44.6262 568.422 48.3966M569 52.5496C568.5 51.7241 567.4 50.0733 567 50.0733M560.5 44.0733C559.87 43.4066 558.488 42.0733 558 42.0733M562 43.0733L560 44.5733M560 44.5733C561.5 45.24 564.9 47.2733 566.5 50.0733M560 44.5733C559.333 44.4066 558 44.6733 558 47.0733C558.153 47.1345 558.321 47.2072 558.5 47.291M566.5 50.0733C567.115 49.6222 568.36 48.6552 568.422 48.3966M566.5 50.0733C566.9 52.4733 564.667 52.74 563.5 52.5733M563.5 52.5733C563.137 50.0304 560.272 48.1198 558.5 47.291M563.5 52.5733C554.167 61.4066 535.4 79.3733 535 80.5733C533.667 82.4066 530.8 86.1733 530 86.5733C529.5 86.74 528.4 86.8733 528 86.0733L526 84.0733C525.833 83.4066 525.7 81.9733 526.5 81.5733C528.461 80.1047 532.405 77.1487 532.5 77.0733C533.7 76.2733 550.333 56.8851 558.5 47.291M466.28 136.073C466.43 135.002 466.907 132.931 467.615 133.216M464 156.573C463 155.907 460.9 154.373 460.5 153.573M465 155.573C464 154.907 461.9 153.373 461.5 152.573M466 154.573C465 153.907 462.9 152.373 462.5 151.573M467 153.573C466 152.907 463.9 151.373 463.5 150.573M468 152.573C467 151.907 464.9 150.373 464.5 149.573M469 151.573C468 150.907 465.9 149.373 465.5 148.573M470 150.573C469 149.907 466.9 148.373 466.5 147.573M471.115 149.573C470.115 148.907 468.015 147.373 467.615 146.573" stroke="black"/>
<circle cx="441" cy="170.573" r="1" fill="black"/>
</svg>
