<svg width="616" height="370" viewBox="0 0 616 370" fill="none" xmlns="http://www.w3.org/2000/svg">
<path d="M499.998 36.2037L502.498 34.2037C505.298 32.2037 507.665 33.3704 508.498 34.2037L521.5 85.0288M499.998 36.2037L483.998 20.2037M499.998 36.2037L503.998 40.2037L516.417 91M483.998 20.2037L470.498 24.2037M483.998 20.2037L503.476 104.5M7.49821 350.704C25.8982 352.704 57.1649 352.87 70.4982 352.704C130.098 350.704 216.332 350.537 251.998 350.704C256.798 356.704 262.665 359.87 264.998 360.704L274.498 357.704L285.998 355.204L289.498 357.704L309.998 360.704L370.498 348.704L564.998 295.204V289.704L520.94 109.5M7.49821 350.704C5.49821 355.504 2.99821 358.37 5.49821 358.704H165.998L247.498 356.704L248.998 357.704L258.498 366.204L268.998 369.204H289.498H303.498L309.998 366.204L356.498 357.704L452.498 334.204L564.998 303.204C567.998 301.704 574.098 297.404 574.498 292.204L526.993 106.5M7.49821 350.704L30.4984 283.204L93.4998 31.5H97.4918M7.49821 350.704L97.4918 31.5M470.498 24.2037L467.498 10.7037C466.698 8.7037 464.165 8.87037 462.998 9.2037C430.198 20.4037 409.665 26.8704 403.498 28.7037C371.898 35.5037 336.665 51.2037 322.998 58.2037C290.598 74.2037 285.832 91.537 287.498 98.2037L115 10.7037L108.252 29.7037M470.498 24.2037L493.759 114M368.998 325.887C332.933 329.657 306.438 335.507 296.998 338.204C287.798 340.604 285.165 346.87 284.998 349.704H283.498C264.298 334.104 220.832 320.204 201.498 315.204C185.898 310.404 148.332 302.537 131.498 299.204C89.4982 290.804 66.1667 252.667 52 247.5L85 123L108.252 29.7037M368.998 325.887C373.048 325.464 377.218 325.067 381.498 324.704L543.498 277.704L507.867 123.5M368.998 325.887L532.998 275.704C533.832 275.37 535.398 274.404 534.998 273.204L498 129.5M97.4918 31.5L97.9982 29.7037H108.252" stroke="black"/>
<path d="M284.999 349.204C288.999 352.704 300.199 359.704 312.999 359.704M284.999 349.204C284.347 349.557 283.679 349.892 282.999 350.21M284.999 349.204C286.037 298.67 285.249 257.982 285.5 221.5M287.499 97.7036C287.263 113.48 286.848 131.721 286.448 152.5C286.448 152.5 286.673 149.688 286.448 164.5M256.999 355.704C261.97 355.704 273.66 354.574 282.999 350.21M26 294.204H30.9985C69.3319 298.037 150.499 306.704 168.499 310.704M168.499 310.704C175.332 312.037 191.499 315.504 201.499 318.704C207.236 320.042 215.561 322.263 224.999 325.209M168.499 310.704L152.999 308.704C140.599 307.104 101.832 303.037 83.9985 301.204C64.7985 299.204 41.3319 297.037 31.9985 296.204V294.704M282.999 350.21C267.02 339.827 243.8 331.078 224.999 325.209M32.4985 296.704L31.4985 298.704C35.4985 298.87 57.6985 300.504 114.499 305.704C129.665 306.707 172.999 312.013 224.999 325.209" stroke="black"/>
<path d="M33.9985 299.704V300.704C34.4899 300.74 34.99 300.777 35.4985 300.815M149.999 310.204C133.067 308.235 67.5861 303.197 35.4985 300.815M35.4985 300.815V302.704C35.7449 302.716 35.9931 302.728 36.2433 302.74M31.4985 299.704L29.9985 302.704M29.9985 302.704L36.2433 302.74M29.9985 302.704V304.204C52.7859 305.202 89.8323 307.469 126.999 311.032M36.2433 302.74C73.8282 304.604 155.161 310.869 209.398 322.123M30.4985 304.704L29.4985 305.704M126.999 311.032L29.4985 306.704V305.704M126.999 311.032C140.194 312.297 153.405 313.725 165.999 315.317M29.4985 305.704L29.9985 307.204L27.4985 308.704C28.3141 308.725 29.1478 308.748 29.9985 308.771M165.999 315.317C151.891 312.664 71.0451 309.894 29.9985 308.771M165.999 315.317C181.868 317.324 196.757 319.592 209.398 322.123M29.9985 308.771L27.4985 311.032C74.9318 311.702 177.718 314.858 209.398 322.123M209.398 322.123C215.093 323.263 220.332 324.456 224.999 325.704C220.127 324.458 214.902 323.265 209.398 322.123ZM28.9985 312.204V313.704C29.1641 313.701 29.3308 313.699 29.4985 313.697M227.499 326.204C209.622 323.293 190.165 321.018 170.499 319.252M280.499 350.704C273.007 346.066 255.894 337.61 234.499 331.693M29.4985 313.697L28.4985 314.7M29.4985 313.697C57.4433 313.344 114.812 314.253 170.499 319.252M28.4985 314.7L27.4985 315.704L26.4985 316.704L103.499 318.704C149.899 320.304 191.832 324.37 206.999 326.204C216.625 327.35 225.907 329.317 234.499 331.693M28.4985 314.7C54.3319 315.401 118.899 317.292 170.499 319.252M26.9985 317.204V318.704C62.8185 318.395 145.759 320.11 213.999 328.791M234.499 331.693C227.865 330.648 221.009 329.683 213.999 328.791M27.4985 319.204L25.9985 321.704C26.4818 321.68 26.9819 321.656 27.4985 321.633M213.999 328.791C127.252 320.225 54.5971 320.418 27.4985 321.633M27.4985 321.633L17.9985 338.204C18.6313 338.224 19.2987 338.244 19.9985 338.264M215.999 338.204C209.215 337.204 201.778 336.487 193.999 335.997M19.9985 338.264C36.812 338.757 72.3416 339.356 94.9985 338.204C115.125 336.287 158.196 333.74 193.999 335.997M19.9985 338.264L17.9985 341.204C19.0911 341.228 20.2634 341.253 21.4985 341.28M193.999 335.997C176.399 334.231 120.665 337.732 94.9985 339.704C74.9985 342.742 65.4985 342.204 64.4985 342.204C63.7562 342.204 37.4099 341.63 21.4985 341.28M21.4985 341.28L19.9985 348.204C20.4606 348.188 20.961 348.171 21.4985 348.152M215.999 341.28L195.499 339.704C167.099 338.442 114.999 342.178 92.4985 344.204C60.4257 346.495 32.7871 347.753 21.4985 348.152M21.4985 348.152L19.9985 350.704C38.9985 349.704 81.1985 347.504 97.9985 346.704C122.999 344.704 183.899 341.704 227.499 345.704M97.9985 350.704C103.499 350.704 163.499 346.704 243.499 348.204M24.4985 335.204C26.9985 335.204 61.9985 336.704 102.499 335.204L169.499 332.704M28.4985 331.704C33.9985 331.704 73.9985 334.204 112.499 331.704M28.4985 326.704C30.4985 326.704 83.9985 323.704 144.499 326.704M28.9985 328.704C35.4985 328.204 176.999 328.704 191.999 330.704" stroke="black"/>
<path d="M236.7 208.352C237.167 208.352 237.55 208.518 237.85 208.852C238.183 209.152 238.35 209.535 238.35 210.002C238.35 210.468 238.183 210.852 237.85 211.152C237.55 211.485 237.167 211.652 236.7 211.652C234.2 211.652 231.533 211.718 228.7 211.852C225.9 212.018 223.533 212.152 221.6 212.252C218.4 212.452 215.017 212.735 211.45 213.102C211.35 213.102 211.267 213.102 211.2 213.102C210.767 213.102 210.383 212.935 210.05 212.602C209.75 212.302 209.6 211.935 209.6 211.502V171.752C209.6 171.285 209.75 170.902 210.05 170.602C210.383 170.268 210.783 170.102 211.25 170.102C211.717 170.102 212.1 170.268 212.4 170.602C212.733 170.902 212.9 171.285 212.9 171.752V209.652C216.667 209.318 220.233 209.052 223.6 208.852C229.267 208.518 233.633 208.352 236.7 208.352ZM194.65 192.402C194.15 192.402 193.717 192.152 193.35 191.652C193.35 191.652 193.333 191.652 193.3 191.652C193.133 191.318 193.05 191.002 193.05 190.702C193.05 190.368 193.167 190.052 193.4 189.752L198.35 182.952L194.05 182.252C193.683 182.185 193.383 182.052 193.15 181.852C192.95 181.652 192.817 181.418 192.75 181.152C192.683 180.952 192.65 180.752 192.65 180.552C192.65 180.185 192.8 179.835 193.1 179.502C194.7 177.768 196.383 175.468 198.15 172.602C198.917 171.368 199.517 170.268 199.95 169.302C200.117 168.902 200.417 168.618 200.85 168.452C201.05 168.385 201.25 168.352 201.45 168.352C201.683 168.352 201.917 168.418 202.15 168.552C202.55 168.718 202.833 169.018 203 169.452C203.067 169.618 203.1 169.818 203.1 170.052C203.1 170.252 203.033 170.468 202.9 170.702C202.333 171.968 201.533 173.418 200.5 175.052C199.5 176.685 198.483 178.168 197.45 179.502L200.55 180.002L204.15 175.152C204.483 174.685 204.933 174.452 205.5 174.452C205.9 174.452 206.25 174.602 206.55 174.902C206.917 175.268 207.1 175.685 207.1 176.152C207.1 176.518 207 176.818 206.8 177.052L198.65 188.202L203 187.202C203.133 187.168 203.25 187.152 203.35 187.152C203.783 187.152 204.15 187.302 204.45 187.602C204.817 187.968 205 188.385 205 188.852C205 189.318 204.833 189.702 204.5 190.002C204.267 190.235 204 190.385 203.7 190.452L194.95 192.352C194.883 192.385 194.783 192.402 194.65 192.402ZM219.9 185.502L215.35 186.252C215.217 186.252 215.1 186.252 215 186.252C214.367 186.252 213.9 185.952 213.6 185.352C213.5 185.118 213.45 184.885 213.45 184.652C213.45 184.218 213.65 183.818 214.05 183.452C214.917 182.752 216.167 181.418 217.8 179.452L215.05 178.252C214.517 178.018 214.2 177.602 214.1 177.002C214.1 176.935 214.1 176.852 214.1 176.752C214.1 176.285 214.283 175.902 214.65 175.602C215.317 175.068 216.067 174.268 216.9 173.202C217.767 172.102 218.467 171.085 219 170.152C219.333 169.652 219.8 169.402 220.4 169.402C220.8 169.402 221.167 169.568 221.5 169.902C221.8 170.235 221.95 170.618 221.95 171.052C221.95 171.318 221.883 171.585 221.75 171.852C221.317 172.485 220.8 173.218 220.2 174.052C219.6 174.885 219.017 175.635 218.45 176.302L219.9 176.902C220.167 176.568 220.5 176.102 220.9 175.502C221.333 174.868 221.6 174.518 221.7 174.452C222 174.118 222.383 173.952 222.85 173.952C223.25 173.952 223.6 174.118 223.9 174.452C224.233 174.752 224.4 175.135 224.4 175.602C224.4 175.902 224.3 176.185 224.1 176.452C223.567 177.252 222.85 178.235 221.95 179.402C221.083 180.535 220.267 181.535 219.5 182.402C219.567 182.368 219.65 182.352 219.75 182.352C220.15 182.352 220.483 182.502 220.75 182.802C221.117 183.135 221.3 183.518 221.3 183.952C221.3 184.352 221.15 184.702 220.85 185.002C220.583 185.268 220.267 185.435 219.9 185.502ZM231.1 184.902L226.5 185.652C226.367 185.652 226.25 185.652 226.15 185.652C225.517 185.652 225.067 185.335 224.8 184.702C224.7 184.468 224.65 184.235 224.65 184.002C224.65 183.535 224.867 183.152 225.3 182.852C226.167 182.118 227.383 180.802 228.95 178.902L226 177.652C225.5 177.418 225.2 177.002 225.1 176.402C225.1 176.335 225.1 176.252 225.1 176.152C225.1 175.685 225.283 175.302 225.65 175.002C226.317 174.468 227.067 173.668 227.9 172.602C228.733 171.502 229.433 170.485 230 169.552C230.333 169.052 230.8 168.802 231.4 168.802C231.8 168.802 232.167 168.968 232.5 169.302C232.8 169.602 232.95 169.968 232.95 170.402C232.95 170.702 232.867 170.985 232.7 171.252C232.233 171.985 231.7 172.752 231.1 173.552C230.5 174.352 229.933 175.052 229.4 175.652L230.9 176.302C231.533 175.435 231.967 174.835 232.2 174.502C232.433 174.135 232.6 173.918 232.7 173.852C233 173.518 233.383 173.352 233.85 173.352C234.25 173.352 234.6 173.518 234.9 173.852C235.233 174.152 235.4 174.535 235.4 175.002C235.4 175.335 235.3 175.618 235.1 175.852C234.567 176.618 233.867 177.568 233 178.702C232.167 179.835 231.383 180.852 230.65 181.752C230.717 181.752 230.8 181.752 230.9 181.752C231.3 181.752 231.633 181.885 231.9 182.152C232.267 182.485 232.45 182.885 232.45 183.352C232.45 183.785 232.3 184.135 232 184.402C231.733 184.668 231.433 184.835 231.1 184.902ZM215.05 207.652C214.317 207.652 213.833 207.318 213.6 206.652C213.5 206.452 213.45 206.235 213.45 206.002C213.45 205.568 213.65 205.168 214.05 204.802C214.05 204.802 214.067 204.802 214.1 204.802C214.933 204.168 216.167 202.918 217.8 201.052L215.1 199.902C214.867 199.835 214.667 199.702 214.5 199.502C214.233 199.235 214.1 198.885 214.1 198.452C214.1 197.952 214.267 197.568 214.6 197.302C215.533 196.568 216.633 195.402 217.9 193.802C218.467 193.135 218.833 192.652 219 192.352C219.2 192.018 219.35 191.818 219.45 191.752C219.717 191.452 220.033 191.302 220.4 191.302C220.8 191.302 221.133 191.385 221.4 191.552C221.9 191.818 222.15 192.252 222.15 192.852C222.15 193.185 222.05 193.485 221.85 193.752C221.417 194.385 220.883 195.102 220.25 195.902C219.65 196.668 219.083 197.352 218.55 197.952L219.9 198.502C220.667 197.535 221.133 196.918 221.3 196.652C221.467 196.385 221.6 196.218 221.7 196.152C221.967 195.852 222.3 195.702 222.7 195.702C223.2 195.702 223.617 195.868 223.95 196.202C224.25 196.502 224.4 196.868 224.4 197.302C224.4 197.635 224.3 197.918 224.1 198.152C223.567 198.918 222.867 199.835 222 200.902C221.133 201.968 220.35 202.918 219.65 203.752C220.117 203.752 220.517 203.918 220.85 204.252C221.15 204.552 221.3 204.902 221.3 205.302C221.3 205.735 221.15 206.085 220.85 206.352C220.583 206.652 220.267 206.835 219.9 206.902L215.25 207.652C215.183 207.652 215.117 207.652 215.05 207.652ZM226.2 207.052C225.5 207.052 225.033 206.718 224.8 206.052C224.7 205.852 224.65 205.635 224.65 205.402C224.65 204.968 224.85 204.568 225.25 204.202C225.25 204.202 225.267 204.202 225.3 204.202C226.133 203.568 227.317 202.335 228.85 200.502L226.1 199.302C225.433 199.035 225.1 198.552 225.1 197.852C225.1 197.352 225.267 196.968 225.6 196.702C226.533 195.968 227.633 194.802 228.9 193.202C229.467 192.535 229.833 192.052 230 191.752C230.2 191.418 230.35 191.218 230.45 191.152C230.717 190.852 231.05 190.702 231.45 190.702C231.983 190.702 232.4 190.868 232.7 191.202C233 191.468 233.15 191.785 233.15 192.152C233.15 192.552 233.05 192.885 232.85 193.152C232.417 193.785 231.883 194.502 231.25 195.302C230.65 196.068 230.083 196.752 229.55 197.352L230.9 197.902C231.667 196.935 232.133 196.318 232.3 196.052C232.467 195.785 232.6 195.618 232.7 195.552C232.967 195.252 233.3 195.102 233.7 195.102C234.2 195.102 234.617 195.268 234.95 195.602C235.25 195.902 235.4 196.268 235.4 196.702C235.4 197.035 235.3 197.318 235.1 197.552C234.6 198.285 233.917 199.202 233.05 200.302C232.217 201.402 231.433 202.368 230.7 203.202C230.767 203.168 230.85 203.152 230.95 203.152C231.35 203.152 231.683 203.302 231.95 203.602C232.283 203.902 232.45 204.318 232.45 204.852C232.45 205.252 232.3 205.585 232 205.852C231.733 206.118 231.433 206.268 231.1 206.302L226.4 207.052C226.333 207.052 226.267 207.052 226.2 207.052ZM202.65 211.902C202.65 212.368 202.5 212.752 202.2 213.052C201.9 213.385 201.5 213.552 201 213.552C200.533 213.552 200.133 213.385 199.8 213.052C199.5 212.752 199.35 212.368 199.35 211.902V192.552C199.35 192.085 199.5 191.702 199.8 191.402C200.133 191.068 200.533 190.902 201 190.902C201.5 190.902 201.9 191.068 202.2 191.402C202.5 191.702 202.65 192.085 202.65 192.552V211.902ZM233.25 186.752C233.65 186.752 233.983 186.885 234.25 187.152C234.583 187.485 234.75 187.868 234.75 188.302C234.75 188.768 234.6 189.152 234.3 189.452C234.033 189.718 233.7 189.868 233.3 189.902C221.967 190.735 216.283 191.152 216.25 191.152C215.817 191.152 215.467 191.018 215.2 190.752C214.867 190.418 214.7 190.035 214.7 189.602C214.7 189.168 214.833 188.802 215.1 188.502C215.4 188.202 215.75 188.035 216.15 188.002C227.517 187.168 233.217 186.752 233.25 186.752ZM191.7 203.552C191.133 203.552 190.683 203.318 190.35 202.852C190.117 202.585 190 202.268 190 201.902C190 201.335 190.233 200.885 190.7 200.552C191.833 199.685 192.85 198.785 193.75 197.852C194.65 196.885 195.35 195.952 195.85 195.052C196.083 194.618 196.417 194.352 196.85 194.252C197.017 194.218 197.2 194.202 197.4 194.202C197.6 194.202 197.8 194.252 198 194.352C198.2 194.452 198.367 194.585 198.5 194.752C198.667 194.885 198.783 195.068 198.85 195.302C198.917 195.535 198.95 195.752 198.95 195.952C198.95 196.152 198.883 196.385 198.75 196.652C197.383 198.952 195.35 201.135 192.65 203.202C192.383 203.435 192.067 203.552 191.7 203.552ZM209.35 190.052C209.483 190.285 209.55 190.518 209.55 190.752C209.55 190.952 209.517 191.168 209.45 191.402C209.383 191.635 209.267 191.835 209.1 192.002C208.967 192.135 208.817 192.252 208.65 192.352C208.517 192.418 208.317 192.452 208.05 192.452C207.817 192.452 207.583 192.435 207.35 192.402C206.95 192.302 206.65 192.052 206.45 191.652L203.2 185.802C203.1 185.535 203.05 185.302 203.05 185.102C203.05 184.335 203.333 183.818 203.9 183.552C204.133 183.418 204.35 183.352 204.55 183.352C205.083 183.352 205.517 183.502 205.85 183.802C205.95 183.935 206.033 184.068 206.1 184.202L209.35 190.052ZM208.5 201.902C207.933 201.902 207.5 201.702 207.2 201.302C204.7 198.235 203.45 196.685 203.45 196.652C203.217 196.352 203.1 196.018 203.1 195.652C203.1 195.152 203.267 194.752 203.6 194.452C203.967 194.152 204.333 194.002 204.7 194.002C205.267 194.002 205.7 194.202 206 194.602L209.75 199.202C209.983 199.502 210.1 199.835 210.1 200.202C210.1 200.735 209.9 201.185 209.5 201.552C209.2 201.785 208.867 201.902 208.5 201.902ZM223.8 186.702C223.167 186.702 222.667 186.435 222.3 185.902C222.3 185.902 221.783 184.952 220.75 183.052C220.65 182.818 220.6 182.602 220.6 182.402C220.6 181.668 220.867 181.168 221.4 180.902C221.633 180.768 221.85 180.702 222.05 180.702C222.55 180.702 222.967 180.852 223.3 181.152C223.4 181.285 223.483 181.418 223.55 181.552L225.1 184.402C225.2 184.602 225.25 184.818 225.25 185.052C225.25 185.518 225.083 185.918 224.75 186.252C224.45 186.552 224.133 186.702 223.8 186.702ZM234.95 186.052C234.283 186.052 233.783 185.802 233.45 185.302C233.45 185.302 232.95 184.352 231.95 182.452C231.85 182.218 231.8 182.002 231.8 181.802C231.8 181.068 232.067 180.568 232.6 180.302C232.833 180.168 233.05 180.102 233.25 180.102C233.75 180.102 234.167 180.252 234.5 180.552C234.6 180.685 234.683 180.818 234.75 180.952L236.25 183.802C236.383 184.035 236.45 184.252 236.45 184.452C236.45 184.918 236.283 185.302 235.95 185.602C235.65 185.902 235.317 186.052 234.95 186.052ZM225.05 205.702C225.183 205.935 225.25 206.152 225.25 206.352C225.25 206.552 225.217 206.768 225.15 207.002C225.117 207.202 225.017 207.385 224.85 207.552C224.717 207.685 224.55 207.802 224.35 207.902C224.183 208.002 224 208.052 223.8 208.052C223.133 208.052 222.633 207.802 222.3 207.302C222.3 207.302 221.783 206.368 220.75 204.502C220.65 204.268 220.6 204.052 220.6 203.852C220.6 203.185 220.85 202.685 221.35 202.352C221.583 202.218 221.817 202.152 222.05 202.152C222.55 202.152 222.967 202.302 223.3 202.602C223.4 202.735 223.483 202.868 223.55 203.002L225.05 205.702ZM234.95 207.452C234.283 207.452 233.783 207.202 233.45 206.702C233.45 206.702 232.95 205.768 231.95 203.902C231.85 203.668 231.8 203.452 231.8 203.252C231.8 202.552 232.067 202.068 232.6 201.802C232.833 201.668 233.05 201.602 233.25 201.602C233.95 201.602 234.433 201.868 234.7 202.402L236.25 205.102C236.383 205.368 236.45 205.602 236.45 205.802C236.45 206.302 236.283 206.702 235.95 207.002C235.65 207.302 235.317 207.452 234.95 207.452ZM269.95 167.102C270.317 166.568 270.817 166.302 271.45 166.302C271.75 166.302 271.983 166.368 272.15 166.502C272.417 166.702 272.633 166.918 272.8 167.152C272.9 167.252 272.95 167.485 272.95 167.852C272.983 168.218 273 168.752 273 169.452V170.852C273.3 170.818 274.15 170.752 275.55 170.652C277.517 170.518 278.633 170.452 278.9 170.452C279.233 170.452 279.433 170.468 279.5 170.502C279.867 170.668 280.167 170.918 280.4 171.252C280.5 171.418 280.55 171.652 280.55 171.952C280.55 172.318 280.5 172.585 280.4 172.752C280.167 173.185 279.833 173.485 279.4 173.652C279.233 173.685 278.15 173.768 276.15 173.902C274.417 174.035 273.367 174.135 273 174.202V175.502C273.133 175.502 273.583 175.468 274.35 175.402C275.117 175.335 275.633 175.302 275.9 175.302C276.167 175.302 276.35 175.318 276.45 175.352C276.817 175.518 277.117 175.768 277.35 176.102C277.45 176.268 277.5 176.502 277.5 176.802C277.5 177.168 277.45 177.435 277.35 177.602C277.117 178.068 276.783 178.368 276.35 178.502C276.183 178.535 274.5 178.702 271.3 179.002C268.133 179.268 266.433 179.402 266.2 179.402C265.833 179.402 265.483 179.235 265.15 178.902C264.85 178.568 264.7 178.202 264.7 177.802C264.7 177.535 264.75 177.285 264.85 177.052C265.117 176.552 265.467 176.252 265.9 176.152C266.067 176.118 266.65 176.068 267.65 176.002C268.683 175.902 269.367 175.818 269.7 175.752V174.452C269.4 174.485 268.45 174.568 266.85 174.702C264.617 174.868 263.35 174.952 263.05 174.952C262.75 174.952 262.567 174.935 262.5 174.902C262.133 174.735 261.833 174.485 261.6 174.152C261.5 173.952 261.45 173.718 261.45 173.452C261.45 172.918 261.6 172.502 261.9 172.202C262.1 172.002 262.367 171.852 262.7 171.752C262.833 171.718 264 171.618 266.2 171.452C268.133 171.285 269.3 171.168 269.7 171.102V169.552L269.75 167.552C269.75 167.485 269.767 167.402 269.8 167.302C269.867 167.168 269.917 167.102 269.95 167.102ZM248.25 188.202C251.483 187.535 253.2 187.202 253.4 187.202C253.9 187.202 254.3 187.385 254.6 187.752C254.933 188.085 255.1 188.452 255.1 188.852C255.1 189.085 255.05 189.318 254.95 189.552C254.717 190.052 254.367 190.368 253.9 190.502C253.767 190.535 252.867 190.718 251.2 191.052C249.533 191.385 248.633 191.568 248.5 191.602C248.4 191.602 247.65 191.752 246.25 192.052C244.883 192.318 244.15 192.452 244.05 192.452C243.45 192.452 242.983 192.135 242.65 191.502C242.517 191.268 242.45 191.052 242.45 190.852C242.45 190.618 242.467 190.452 242.5 190.352C242.533 190.185 242.767 189.802 243.2 189.202C243.9 188.235 245.433 186.202 247.8 183.102C247.3 183.002 246.65 182.885 245.85 182.752C244.217 182.518 243.35 182.385 243.25 182.352C243.183 182.318 243.1 182.285 243 182.252C242.9 182.185 242.733 182.052 242.5 181.852C242.3 181.652 242.167 181.452 242.1 181.252C242.067 181.018 242.05 180.802 242.05 180.602C242.05 180.335 242.1 180.118 242.2 179.952C242.3 179.785 242.517 179.518 242.85 179.152C243.95 177.952 245.083 176.485 246.25 174.752C247.45 173.018 248.467 171.352 249.3 169.752C249.433 169.385 249.533 169.168 249.6 169.102C249.7 169.002 249.8 168.885 249.9 168.752C250.033 168.618 250.2 168.518 250.4 168.452C250.633 168.352 250.85 168.302 251.05 168.302C251.45 168.302 251.85 168.518 252.25 168.952C252.55 169.218 252.7 169.585 252.7 170.052C252.7 170.318 252.6 170.668 252.4 171.102C252.4 171.135 252.4 171.152 252.4 171.152C250.933 174.018 249.183 176.752 247.15 179.352C247.117 179.385 247.083 179.435 247.05 179.502C247.45 179.568 248.467 179.735 250.1 180.002C250.4 179.635 251.083 178.735 252.15 177.302C253.383 175.668 254.067 174.802 254.2 174.702C254.5 174.535 254.833 174.452 255.2 174.452C255.8 174.452 256.267 174.718 256.6 175.252C256.767 175.585 256.85 175.885 256.85 176.152C256.85 176.418 256.817 176.635 256.75 176.802C256.683 176.968 255.417 178.668 252.95 181.902C250.517 185.102 248.95 187.202 248.25 188.202ZM263.95 180.152C276.183 179.152 282.383 178.652 282.55 178.652C282.717 178.652 282.817 178.652 282.85 178.652C283.317 178.685 283.7 178.885 284 179.252C284.3 179.585 284.45 179.918 284.45 180.252C284.45 180.352 284.133 181.818 283.5 184.652C282.9 187.452 282.6 188.868 282.6 188.902C282.4 189.502 281.95 189.835 281.25 189.902C280.717 189.968 277.567 190.218 271.8 190.652C266.033 191.085 263.067 191.302 262.9 191.302C262.433 191.302 262.083 191.118 261.85 190.752C261.717 190.585 261.3 189.452 260.6 187.352C259.533 184.018 259 182.252 259 182.052C259 181.585 259.167 181.185 259.5 180.852C259.7 180.685 259.9 180.568 260.1 180.502C260.3 180.435 261.583 180.318 263.95 180.152ZM264.2 187.952C265.7 187.818 266.65 187.735 267.05 187.702V186.352C267.083 185.085 267.15 184.352 267.25 184.152C267.55 183.518 268.05 183.202 268.75 183.202C269.483 183.202 270 183.535 270.3 184.202C270.4 184.402 270.45 185.085 270.45 186.252V187.452C271.217 187.418 272.1 187.352 273.1 187.252V186.002C273.1 184.835 273.15 184.168 273.25 184.002C273.483 183.235 274 182.852 274.8 182.852C275.5 182.852 276.017 183.185 276.35 183.852C276.417 183.985 276.45 184.468 276.45 185.302C276.483 186.135 276.5 186.702 276.5 187.002C277.8 186.902 278.85 186.802 279.65 186.702C279.75 186.302 279.933 185.518 280.2 184.352C280.5 183.185 280.683 182.452 280.75 182.152C280.483 182.152 280.1 182.185 279.6 182.252C279.133 182.285 276.483 182.502 271.65 182.902C266.817 183.268 263.883 183.485 262.85 183.552C262.883 183.718 262.95 183.935 263.05 184.202C263.25 184.802 263.35 185.152 263.35 185.252C263.383 185.418 263.5 185.852 263.7 186.552C263.933 187.218 264.1 187.685 264.2 187.952ZM255.1 183.352C255.533 183.352 255.917 183.518 256.25 183.852C256.383 183.952 257.1 184.968 258.4 186.902C259.733 188.802 260.45 189.852 260.55 190.052C260.65 190.252 260.7 190.468 260.7 190.702C260.7 190.935 260.633 191.152 260.5 191.352C260.3 191.785 260 192.085 259.6 192.252C259.467 192.318 259.25 192.352 258.95 192.352C258.383 192.352 257.9 192.102 257.5 191.602C257.267 191.335 256.683 190.502 255.75 189.102C254.283 186.902 253.517 185.735 253.45 185.602C253.417 185.435 253.4 185.252 253.4 185.052C253.4 184.818 253.45 184.602 253.55 184.402C253.817 183.702 254.333 183.352 255.1 183.352ZM266.4 206.752C265.733 206.852 265.267 206.902 265 206.902C264.7 206.902 264.467 206.868 264.3 206.802C264.167 206.702 264.017 206.568 263.85 206.402C263.65 206.235 263.517 206.052 263.45 205.852C263.417 205.618 263.4 203.485 263.4 199.452C263.4 195.385 263.417 193.268 263.45 193.102C263.65 192.502 264.05 192.135 264.65 192.002C264.817 191.968 267.1 191.768 271.5 191.402C275.9 191.002 278.2 190.802 278.4 190.802C278.867 190.802 279.267 190.985 279.6 191.352C279.833 191.552 279.967 191.735 280 191.902C280.067 192.135 280.1 194.502 280.1 199.002C280.1 203.502 280.067 205.868 280 206.102C279.967 206.302 279.833 206.518 279.6 206.752C279.4 206.952 279.167 207.085 278.9 207.152H278C277.733 207.085 277.483 206.952 277.25 206.752C277.05 206.518 276.917 206.302 276.85 206.102C276.817 205.868 276.8 203.752 276.8 199.752V194.202L266.7 195.152V203.402C267.133 203.335 267.967 203.218 269.2 203.052C270.433 202.885 271.117 202.802 271.25 202.802C271.917 202.802 272.383 203.135 272.65 203.802C272.783 204.035 272.85 204.268 272.85 204.502C272.85 204.735 272.767 204.985 272.6 205.252C272.433 205.585 271.833 206.268 270.8 207.302C270.267 207.835 269.767 208.302 269.3 208.702C267.633 210.068 265.817 211.418 263.85 212.752C262.517 213.618 261.667 214.068 261.3 214.102C261.233 214.102 261.167 214.102 261.1 214.102C260.667 214.102 260.283 213.935 259.95 213.602C259.65 213.302 259.5 212.918 259.5 212.452C259.5 211.985 259.683 211.585 260.05 211.252C260.117 211.152 260.267 211.035 260.5 210.902C260.733 210.768 260.85 210.702 260.85 210.702C261.65 210.268 262.233 209.902 262.6 209.602C262.8 209.468 263.15 209.235 263.65 208.902C264.45 208.335 265.2 207.768 265.9 207.202L266.4 206.752ZM250.65 190.802C251.083 190.802 251.467 190.985 251.8 191.352C251.867 191.385 251.9 191.418 251.9 191.452C252.133 191.685 252.25 192.168 252.25 192.902C252.283 193.602 252.3 195.952 252.3 199.952V202.202C252.3 208.835 252.283 212.235 252.25 212.402C252.15 212.668 251.983 212.918 251.75 213.152C251.483 213.452 251.117 213.602 250.65 213.602C250.217 213.602 249.833 213.452 249.5 213.152C249.267 213.052 249.117 212.852 249.05 212.552C248.983 212.252 248.933 211.818 248.9 211.252C248.9 210.718 248.9 208.485 248.9 204.552V192.252C248.9 192.185 248.917 192.102 248.95 192.002L249.1 191.802C249.3 191.402 249.617 191.118 250.05 190.952C250.217 190.852 250.417 190.802 250.65 190.802ZM252.9 196.452C252.767 196.218 252.7 196.002 252.7 195.802C252.7 195.568 252.717 195.385 252.75 195.252C252.85 194.918 253.017 194.635 253.25 194.402C253.583 194.102 253.967 193.952 254.4 193.952C254.833 193.952 255.333 194.202 255.9 194.702C255.9 194.735 255.967 194.835 256.1 195.002C256.267 195.135 256.717 195.518 257.45 196.152C259.15 197.785 260.15 198.802 260.45 199.202C260.783 199.568 260.95 199.918 260.95 200.252C260.95 200.252 260.95 200.268 260.95 200.302C260.917 200.735 260.733 201.118 260.4 201.452C260.067 201.785 259.7 201.952 259.3 201.952C259.033 201.952 258.8 201.918 258.6 201.852C258.433 201.752 258.167 201.552 257.8 201.252C257.467 200.952 256.95 200.452 256.25 199.752C254.15 197.752 253.05 196.668 252.95 196.502C252.917 196.502 252.9 196.485 252.9 196.452ZM246.8 194.102C247.267 194.102 247.667 194.285 248 194.652C248.367 194.985 248.55 195.352 248.55 195.752C248.55 196.318 248.05 197.202 247.05 198.402C245.683 200.135 244.117 201.668 242.35 203.002C241.883 203.368 241.467 203.552 241.1 203.552C240.533 203.552 240.1 203.385 239.8 203.052C239.767 203.052 239.75 203.052 239.75 203.052C239.45 202.685 239.3 202.302 239.3 201.902C239.3 201.702 239.333 201.502 239.4 201.302C239.5 200.935 239.883 200.535 240.55 200.102C242.55 198.568 244.067 196.952 245.1 195.252C245.433 194.752 245.733 194.435 246 194.302C246.267 194.168 246.533 194.102 246.8 194.102ZM268.85 198.202C268.45 197.902 268.25 197.518 268.25 197.052C268.25 196.552 268.383 196.168 268.65 195.902C268.85 195.702 269.05 195.585 269.25 195.552C269.483 195.485 270.1 195.418 271.1 195.352C272.133 195.252 272.783 195.202 273.05 195.202C273.55 195.202 273.883 195.218 274.05 195.252C274.283 195.285 274.5 195.402 274.7 195.602C275 195.902 275.15 196.252 275.15 196.652C275.15 197.085 275.017 197.435 274.75 197.702C274.483 197.935 274.2 198.085 273.9 198.152C273.633 198.185 272.933 198.252 271.8 198.352C270.6 198.452 269.9 198.502 269.7 198.502C269.533 198.502 269.433 198.485 269.4 198.452C269.2 198.452 269.017 198.368 268.85 198.202ZM269.15 199.502C269.35 199.402 269.983 199.318 271.05 199.252C272.117 199.152 272.783 199.102 273.05 199.102C273.55 199.102 273.883 199.118 274.05 199.152C274.217 199.185 274.35 199.235 274.45 199.302C274.617 199.402 274.767 199.552 274.9 199.752C275.067 199.952 275.15 200.152 275.15 200.352C275.15 200.985 274.933 201.452 274.5 201.752L274.3 201.902C274.233 201.968 274.167 202.002 274.1 202.002C271.333 202.268 269.9 202.402 269.8 202.402C269.2 202.402 268.733 202.152 268.4 201.652C268.3 201.452 268.25 201.168 268.25 200.802C268.25 200.235 268.55 199.802 269.15 199.502ZM272.9 206.502C273.2 205.902 273.7 205.602 274.4 205.602C274.6 205.602 274.8 205.668 275 205.802C275.2 205.868 277.917 207.535 283.15 210.802C283.317 210.902 283.45 211.068 283.55 211.302C283.65 211.535 283.7 211.752 283.7 211.952C283.7 212.485 283.55 212.902 283.25 213.202C283.117 213.335 282.95 213.435 282.75 213.502C282.517 213.635 282.283 213.702 282.05 213.702C281.85 213.702 281.667 213.652 281.5 213.552C281.333 213.485 279.95 212.652 277.35 211.052C274.75 209.485 273.4 208.668 273.3 208.602C273.2 208.502 273.133 208.435 273.1 208.402C272.833 208.135 272.7 207.752 272.7 207.252C272.7 206.985 272.767 206.735 272.9 206.502ZM313.65 213.102C313.65 213.568 313.483 213.968 313.15 214.302C312.85 214.635 312.45 214.802 311.95 214.802C311.483 214.802 311.083 214.635 310.75 214.302C310.417 213.968 310.25 213.568 310.25 213.102V200.052C308.517 201.585 306.533 203.102 304.3 204.602C302.1 206.102 299.75 207.468 297.25 208.702C294.783 209.935 292.45 210.952 290.25 211.752C290.05 211.852 289.833 211.902 289.6 211.902C289.2 211.902 288.833 211.735 288.5 211.402C288.333 211.235 288.2 211.035 288.1 210.802C288 210.568 287.95 210.335 287.95 210.102C287.95 209.702 288.117 209.335 288.45 209.002C288.617 208.835 288.833 208.702 289.1 208.602C292.9 207.202 296.633 205.385 300.3 203.152C302.233 202.018 303.983 200.835 305.55 199.602C307.383 198.202 308.95 196.802 310.25 195.402V192.952L299.95 193.852L301.05 199.602C301.083 199.735 301.1 199.852 301.1 199.952C301.1 200.452 300.917 200.868 300.55 201.202C300.25 201.502 299.9 201.652 299.5 201.652C298.967 201.652 298.517 201.485 298.15 201.152C297.917 200.918 297.767 200.635 297.7 200.302L296.25 192.652C296.217 192.518 296.2 192.385 296.2 192.252C296.2 191.918 296.317 191.602 296.55 191.302C296.55 191.268 296.583 191.218 296.65 191.152C296.95 190.852 297.3 190.668 297.7 190.602C297.733 190.602 301.917 190.252 310.25 189.552V187.352C305.083 187.852 302.467 188.102 302.4 188.102C301.967 188.102 301.583 187.935 301.25 187.602C300.883 187.235 300.7 186.852 300.7 186.452C300.7 185.952 300.85 185.552 301.15 185.252C301.45 184.918 301.8 184.735 302.2 184.702L310.25 183.902V180.852C310.25 180.352 310.417 179.952 310.75 179.652C311.083 179.318 311.483 179.152 311.95 179.152C312.45 179.152 312.85 179.318 313.15 179.652C313.483 179.952 313.65 180.352 313.65 180.852V183.552C317.95 183.118 320.133 182.902 320.2 182.902C320.667 182.902 321.05 183.052 321.35 183.352C321.683 183.718 321.85 184.185 321.85 184.752C321.85 185.152 321.7 185.502 321.4 185.802C321.133 186.102 320.783 186.268 320.35 186.302L313.65 186.952V189.202C322.35 188.468 326.717 188.102 326.75 188.102C327.25 188.102 327.667 188.285 328 188.652C328.3 188.952 328.45 189.318 328.45 189.752C328.45 189.885 328.367 190.435 328.2 191.402C327.767 193.735 327.267 195.835 326.7 197.702C326.333 198.802 325.95 199.752 325.55 200.552C325.317 201.018 324.95 201.318 324.45 201.452C324.317 201.485 324.133 201.502 323.9 201.502C323.667 201.502 323.417 201.418 323.15 201.252L318.1 198.252C317.667 198.018 317.4 197.668 317.3 197.202C317.267 197.068 317.25 196.885 317.25 196.652C317.25 196.285 317.383 195.952 317.65 195.652C318.05 195.285 318.5 195.102 319 195.102C319.267 195.102 319.533 195.168 319.8 195.302L323.2 197.302C323.667 195.968 324.15 194.102 324.65 191.702L313.65 192.652V198.102L315.5 199.402C318 201.135 320.617 202.752 323.35 204.252C324.817 205.052 326.15 205.685 327.35 206.152C329.017 206.752 331.25 207.335 334.05 207.902L335.4 208.152C335.867 208.252 336.233 208.502 336.5 208.902C336.7 209.168 336.8 209.468 336.8 209.802C336.8 210.435 336.567 210.902 336.1 211.202C335.767 211.435 335.4 211.552 335 211.552C334.867 211.552 334.733 211.535 334.6 211.502C334.5 211.468 334.017 211.368 333.15 211.202C330.383 210.635 328.15 210.052 326.45 209.452C324.783 208.818 323.117 208.035 321.45 207.102C319.05 205.768 316.45 204.152 313.65 202.252V213.102ZM325.6 182.752C325 182.752 324.533 182.502 324.2 182.002C324.2 182.002 322.917 180.152 320.35 176.452C320.117 176.118 320 175.818 320 175.552C320 175.018 320.183 174.585 320.55 174.252C320.783 174.018 321.067 173.852 321.4 173.752C321.4 173.752 324.817 173.152 331.65 171.952C331.783 171.918 331.917 171.902 332.05 171.902C332.517 171.902 332.883 172.052 333.15 172.352C333.517 172.685 333.7 173.118 333.7 173.652C333.7 174.118 333.55 174.502 333.25 174.802C332.983 175.068 332.667 175.235 332.3 175.302L324.65 176.652L326.95 180.052C327.183 180.318 327.3 180.618 327.3 180.952C327.3 181.585 327.05 182.068 326.55 182.402C326.25 182.635 325.933 182.752 325.6 182.752ZM306.55 182.252C306.55 182.718 306.383 183.118 306.05 183.452C305.717 183.785 305.35 183.952 304.95 183.952C304.25 183.952 303.717 183.685 303.35 183.152L299.8 177.652C299.567 177.352 299.45 177.068 299.45 176.802C299.45 176.502 299.517 176.252 299.65 176.052C299.717 175.818 299.85 175.618 300.05 175.452C300.25 175.252 300.533 175.102 300.9 175.002C300.9 175.002 303.983 174.452 310.15 173.352C310.283 173.318 310.4 173.302 310.5 173.302C310.967 173.302 311.35 173.452 311.65 173.752C312.017 174.118 312.2 174.568 312.2 175.102C312.2 175.568 312.05 175.952 311.75 176.252C311.483 176.518 311.167 176.685 310.8 176.752L304.05 177.952L306.25 181.302C306.45 181.602 306.55 181.918 306.55 182.252ZM291.95 183.002C291.35 183.002 290.883 182.768 290.55 182.302C290.317 182.035 290.2 181.718 290.2 181.352C290.2 180.718 290.45 180.252 290.95 179.952C292.217 179.018 293.4 177.935 294.5 176.702C295.6 175.435 296.55 174.152 297.35 172.852C298.183 171.518 298.8 170.318 299.2 169.252C299.367 168.785 299.667 168.468 300.1 168.302C300.3 168.202 300.517 168.152 300.75 168.152C301.25 168.152 301.667 168.318 302 168.652C302.333 168.985 302.5 169.385 302.5 169.852C302.5 170.085 302.45 170.302 302.35 170.502C301.917 171.702 301.233 173.035 300.3 174.502C299.4 175.968 298.317 177.435 297.05 178.902C295.817 180.335 294.45 181.585 292.95 182.652C292.65 182.885 292.317 183.002 291.95 183.002ZM322.75 169.752C322.35 170.685 321.767 171.768 321 173.002C320.267 174.235 319.417 175.485 318.45 176.752C317.417 177.985 316.283 179.118 315.05 180.152C314.717 180.418 314.367 180.552 314 180.552C313.467 180.552 313.017 180.352 312.65 179.952C312.383 179.618 312.25 179.252 312.25 178.852C312.25 178.318 312.45 177.868 312.85 177.502C313.883 176.702 314.833 175.768 315.7 174.702C316.6 173.602 317.383 172.502 318.05 171.402C318.717 170.302 319.233 169.302 319.6 168.402C319.667 168.202 319.783 168.018 319.95 167.852C320.317 167.485 320.717 167.302 321.15 167.302C321.383 167.302 321.617 167.368 321.85 167.502C322.283 167.668 322.583 167.968 322.75 168.402C322.85 168.602 322.9 168.818 322.9 169.052C322.9 169.285 322.85 169.518 322.75 169.752ZM344.35 194.702C343.917 194.702 343.567 194.568 343.3 194.302C342.933 193.935 342.75 193.568 342.75 193.202C342.75 192.702 342.883 192.318 343.15 192.052C343.45 191.752 343.767 191.585 344.1 191.552L351.25 190.552V189.302C349.05 189.602 347.917 189.752 347.85 189.752C347.417 189.752 347.033 189.585 346.7 189.252C346.467 189.052 346.317 188.785 346.25 188.452C346.25 188.385 346.25 188.285 346.25 188.152C346.25 187.685 346.367 187.335 346.6 187.102C346.867 186.835 347.217 186.668 347.65 186.602L351.25 186.102V184.902C347.483 185.368 345.567 185.602 345.5 185.602C345.1 185.602 344.767 185.468 344.5 185.202C344.233 184.902 344.05 184.585 343.95 184.252C343.95 184.185 343.95 184.102 343.95 184.002C343.95 183.568 344.083 183.218 344.35 182.952C344.617 182.652 344.95 182.485 345.35 182.452L351.25 181.702V180.352C342.983 181.318 338.817 181.802 338.75 181.802C338.317 181.802 337.967 181.668 337.7 181.402C337.367 181.068 337.2 180.685 337.2 180.252C337.2 179.785 337.333 179.418 337.6 179.152C337.867 178.852 338.2 178.685 338.6 178.652L351.25 177.202V176.152C347.55 176.618 345.667 176.852 345.6 176.852C345.2 176.852 344.867 176.718 344.6 176.452C344.233 176.085 344.05 175.718 344.05 175.352C344.05 174.852 344.183 174.468 344.45 174.202C344.75 173.902 345.083 173.735 345.45 173.702L351.25 172.952V169.752C351.25 169.285 351.4 168.902 351.7 168.602C352 168.302 352.367 168.152 352.8 168.152C353.267 168.152 353.65 168.318 353.95 168.652C354.283 168.952 354.45 169.318 354.45 169.752V172.602C358.95 172.035 361.233 171.752 361.3 171.752C361.7 171.752 362.067 171.918 362.4 172.252C362.667 172.552 362.8 172.902 362.8 173.302C362.8 173.368 362.683 174.235 362.45 175.902C365.05 175.602 366.383 175.452 366.45 175.452C366.883 175.452 367.233 175.585 367.5 175.852C367.867 176.218 368.05 176.652 368.05 177.152C368.05 177.518 367.9 177.852 367.6 178.152C367.333 178.418 367 178.568 366.6 178.602L361.9 179.152L361.35 182.552C361.283 182.918 361.133 183.218 360.9 183.452C360.667 183.685 360.35 183.818 359.95 183.852L354.45 184.502V185.702C356.75 185.368 357.933 185.202 358 185.202C358.367 185.202 358.683 185.352 358.95 185.652C359.317 185.985 359.5 186.402 359.5 186.902C359.5 187.268 359.35 187.585 359.05 187.852C358.75 188.185 358.433 188.368 358.1 188.402L354.45 188.902V190.152C358.483 189.552 360.55 189.252 360.65 189.252C361.083 189.252 361.433 189.385 361.7 189.652C362.067 189.985 362.25 190.418 362.25 190.952C362.25 191.285 362.1 191.585 361.8 191.852C361.5 192.152 361.183 192.335 360.85 192.402L344.5 194.702C344.467 194.702 344.417 194.702 344.35 194.702ZM347.3 206.652C346.867 206.652 346.483 206.485 346.15 206.152C345.95 205.952 345.817 205.768 345.75 205.602L343.35 198.052C343.317 197.885 343.3 197.702 343.3 197.502C343.3 197.268 343.367 197.018 343.5 196.752C343.533 196.685 343.617 196.585 343.75 196.452C344.017 196.185 344.317 196.035 344.65 196.002L360.05 193.802C360.15 193.802 360.25 193.802 360.35 193.802C360.783 193.802 361.133 193.968 361.4 194.302C361.7 194.602 361.85 194.952 361.85 195.352C361.85 195.452 361.85 195.552 361.85 195.652L360.35 203.452C360.283 203.818 360.133 204.118 359.9 204.352C359.7 204.552 359.417 204.685 359.05 204.752L347.45 206.652C347.417 206.652 347.367 206.652 347.3 206.652ZM375.5 170.202C375.5 169.735 375.65 169.352 375.95 169.052C376.283 168.718 376.683 168.552 377.15 168.552C377.617 168.552 378 168.718 378.3 169.052C378.633 169.352 378.8 169.735 378.8 170.202V212.602C378.8 213.168 378.55 213.618 378.05 213.952C377.783 214.152 377.517 214.252 377.25 214.252C376.983 214.252 376.75 214.202 376.55 214.102L366.2 210.052C365.767 209.918 365.467 209.652 365.3 209.252C365.2 209.018 365.15 208.785 365.15 208.552C365.15 208.085 365.3 207.702 365.6 207.402C365.933 207.068 366.317 206.902 366.75 206.902C366.95 206.902 367.15 206.952 367.35 207.052L375.5 210.202V170.202ZM341.8 213.252C341.733 213.285 341.6 213.302 341.4 213.302C341.2 213.302 341 213.235 340.8 213.102C340.633 213.002 340.467 212.885 340.3 212.752C340.033 212.485 339.9 212.185 339.9 211.852C339.9 211.318 340.067 210.885 340.4 210.552C340.6 210.352 340.833 210.218 341.1 210.152L361.75 204.652C361.883 204.618 362.05 204.602 362.25 204.602C362.45 204.602 362.65 204.668 362.85 204.802C363.05 204.902 363.217 205.018 363.35 205.152C363.617 205.385 363.75 205.685 363.75 206.052C363.75 206.618 363.583 207.052 363.25 207.352C363.05 207.552 362.817 207.685 362.55 207.752L341.8 213.252ZM368.45 196.102C368.15 196.402 367.767 196.552 367.3 196.552C366.833 196.552 366.433 196.402 366.1 196.102C365.8 195.768 365.65 195.368 365.65 194.902V181.652C365.65 181.185 365.8 180.802 366.1 180.502C366.433 180.168 366.833 180.002 367.3 180.002C367.767 180.002 368.15 180.168 368.45 180.502C368.783 180.802 368.95 181.185 368.95 181.652V194.902C368.95 195.368 368.783 195.768 368.45 196.102ZM355.05 198.452C355.417 198.452 355.733 198.585 356 198.852C356.333 199.185 356.5 199.585 356.5 200.052C356.5 200.452 356.367 200.768 356.1 201.002C355.833 201.268 355.533 201.435 355.2 201.502L354.35 201.652V202.302L357.45 201.802L358.3 197.252L354.35 197.802V198.552C354.75 198.485 354.983 198.452 355.05 198.452ZM350.15 202.352C349.717 202.352 349.35 202.202 349.05 201.902C348.75 201.602 348.6 201.268 348.6 200.902C348.6 200.402 348.75 200.002 349.05 199.702C349.283 199.468 349.567 199.335 349.9 199.302L351.3 199.052V198.252L346.95 198.852L348.35 203.302L351.3 202.802V202.202C350.633 202.302 350.25 202.352 350.15 202.352ZM354.45 175.752V176.802L359.15 176.302L359.35 175.152L354.45 175.752ZM354.45 180.002V181.352L358.4 180.852L358.6 179.502L354.45 180.002Z" fill="#0082C5"/>
<path d="M500.5 126.573C499.7 128.173 497.833 129.24 497 129.573H496M500.5 126.573C499.7 126.573 494.5 121.24 492 118.573M500.5 126.573C504.167 123.073 512.8 115.073 518 111.073M492 118.573C490.8 118.573 489.5 120.573 489 121.573V124.073C489 124.473 482.333 129.907 479 132.573C478.6 134.573 474.833 142.073 473 145.573C475.667 143.907 482.1 140.373 486.5 139.573C488.667 136.907 493.4 131.173 495 129.573H496M492 118.573C492.4 117.373 496.5 113.073 498.5 111.073C500.9 109.473 505.167 103.407 507 100.573C507.09 100.741 507.184 100.908 507.28 101.073M518 111.073C515.581 109.783 510.165 106.027 507.28 101.073M518 111.073C518.5 111.073 519.6 110.873 520 110.073M520 110.073C533.5 96.4066 560.8 68.5733 562 66.5733M520 110.073C515.682 106.54 510.69 100.792 508.615 98.2163M562 66.5733L551 56.0733M562 66.5733C563.257 67.7733 563.857 67.74 564 67.5733L569 62.0733C566.6 59.2733 559 52.5733 555.5 49.5733L551 54.5733C550.833 54.9066 550.6 55.6733 551 56.0733M551 56.0733C548.6 57.2733 521.667 84.5733 508.5 98.0733C508.537 98.1198 508.575 98.1675 508.615 98.2163M562 65.5733L566.5 61.0733M559.5 63.0733L564 58.5733M558.5 62.0733L563 57.5733M558 60.5733L562 56.5733M555.5 59.0733L559.5 54.5733M489 123.573C489.667 124.74 492.4 127.573 496 129.573M556 49.5733C564 40.4066 583.8 18.9733 599 6.57331C600.667 4.90665 604.9 1.47331 608.5 1.07331C610.5 0.73998 614.6 1.37331 615 6.57331C615 8.07331 614.3 11.9733 611.5 15.5733M611.5 15.5733C611.082 16.1401 610.582 16.8008 610 17.5496M611.5 15.5733C610.812 14.8229 610.115 14.0953 609.422 13.3966M569 61.5733C589.76 41.9062 604.081 25.1684 610 17.5496M600.5 5.5733C602.047 6.69819 605.681 9.62621 609.422 13.3966M610 17.5496C609.5 16.7241 608.4 15.0733 608 15.0733M601.5 9.0733C600.87 8.40664 599.488 7.0733 599 7.0733M603 8.0733L601 9.5733M601 9.5733C602.5 10.24 605.9 12.2733 607.5 15.0733M601 9.5733C600.333 9.40664 599 9.6733 599 12.0733C599.153 12.1345 599.321 12.2072 599.5 12.291M607.5 15.0733C608.115 14.6222 609.36 13.6552 609.422 13.3966M607.5 15.0733C607.9 17.4733 605.667 17.74 604.5 17.5733M604.5 17.5733C604.137 15.0304 601.272 13.1198 599.5 12.291M604.5 17.5733C595.167 26.4066 576.4 44.3733 576 45.5733C574.667 47.4066 571.8 51.1733 571 51.5733C570.5 51.74 569.4 51.8733 569 51.0733L567 49.0733C566.833 48.4066 566.7 46.9733 567.5 46.5733C569.461 45.1047 573.405 42.1487 573.5 42.0733C574.7 41.2733 591.333 21.8851 599.5 12.291M507.28 101.073C507.43 100.002 507.907 97.9307 508.615 98.2163M505 121.573C504 120.907 501.9 119.373 501.5 118.573M506 120.573C505 119.907 502.9 118.373 502.5 117.573M507 119.573C506 118.907 503.9 117.373 503.5 116.573M508 118.573C507 117.907 504.9 116.373 504.5 115.573M509 117.573C508 116.907 505.9 115.373 505.5 114.573M510 116.573C509 115.907 506.9 114.373 506.5 113.573M511 115.573C510 114.907 507.9 113.373 507.5 112.573M512.115 114.573C511.115 113.907 509.015 112.373 508.615 111.573" stroke="black"/>
<circle cx="482" cy="135.573" r="1" fill="black"/>
</svg>
