<svg width="595" height="375" viewBox="0 0 595 375" fill="none" xmlns="http://www.w3.org/2000/svg">
<path d="M499.998 41.2037L502.498 39.2037C505.298 37.2037 507.665 38.3704 508.498 39.2037L521.5 90.0288M499.998 41.2037L483.998 25.2037M499.998 41.2037L503.998 45.2037L516.417 96M483.998 25.2037L470.498 29.2037M483.998 25.2037L503.5 109.602M7.49821 355.704C25.8982 357.704 57.1649 357.87 70.4982 357.704C130.098 355.704 216.332 355.537 251.998 355.704C256.798 361.704 262.665 364.87 264.998 365.704L274.498 362.704L285.998 360.204L289.498 362.704L309.998 365.704L370.498 353.704L564.998 300.204V294.704L521 115M7.49821 355.704C5.49821 360.504 2.99821 363.37 5.49821 363.704H165.998L247.498 361.704L248.998 362.704L258.498 371.204L268.998 374.204H289.498H303.498L309.998 371.204L356.498 362.704L452.498 339.204L564.998 308.204C567.998 306.704 574.098 302.404 574.498 297.204L526.993 111.5M7.49821 355.704L30.4984 288.204L93.4998 36.5H97.4918M7.49821 355.704L97.4918 36.5M470.498 29.2037L467.498 15.7037C466.698 13.7037 464.165 13.8704 462.998 14.2037C430.198 25.4037 409.665 31.8704 403.498 33.7037C371.898 40.5037 336.665 56.2037 322.998 63.2037C290.598 79.2037 285.832 96.537 287.498 103.204C287.498 103.204 226.5 91 221.5 63.2037C216.5 35.4074 177.5 1 177.5 1L155.264 63.2037M470.498 29.2037L493.888 119.5M368.998 330.887C332.933 334.657 306.438 340.507 296.998 343.204C287.798 345.604 285.165 351.87 284.998 354.704H283.498C264.298 339.104 220.832 325.204 201.498 320.204C185.898 315.404 148.332 307.537 131.498 304.204C89.4982 295.804 112.665 227.167 98.4982 222L155.264 63.2037M368.998 330.887C373.048 330.464 377.218 330.067 381.498 329.704L543.498 282.704L507.867 128.5M368.998 330.887L532.998 280.704C533.832 280.37 535.398 279.404 534.998 278.204L498.81 138.5M97.4918 36.5C97.4918 36.5 113.5 37.5 125 47C136.5 56.5 137.509 53.7037 155.264 63.2037" stroke="black"/>
<path d="M284.999 354.204C288.999 357.704 300.199 364.704 312.999 364.704M284.999 354.204C284.347 354.557 283.679 354.892 282.999 355.21M284.999 354.204C286.037 303.67 285.249 262.982 285.5 226.5M287.499 102.704C287.263 118.48 286.848 136.721 286.448 157.5C286.448 157.5 286.673 154.688 286.448 169.5M256.999 360.704C261.97 360.704 273.66 359.574 282.999 355.21M26 299.204H30.9985C69.3319 303.037 150.499 311.704 168.499 315.704M168.499 315.704C175.332 317.037 191.499 320.504 201.499 323.704C207.236 325.042 215.561 327.263 224.999 330.209M168.499 315.704L152.999 313.704C140.599 312.104 101.832 308.037 83.9985 306.204C64.7985 304.204 41.3319 302.037 31.9985 301.204V299.704M282.999 355.21C267.02 344.827 243.8 336.078 224.999 330.209M32.4985 301.704L31.4985 303.704C35.4985 303.87 57.6985 305.504 114.499 310.704C129.665 311.707 172.999 317.013 224.999 330.209" stroke="black"/>
<path d="M33.9985 304.704V305.704C34.4899 305.74 34.99 305.777 35.4985 305.815M149.999 315.204C133.067 313.235 67.5861 308.197 35.4985 305.815M35.4985 305.815V307.704C35.7449 307.716 35.9931 307.728 36.2433 307.74M31.4985 304.704L29.9985 307.704M29.9985 307.704L36.2433 307.74M29.9985 307.704V309.204C52.7859 310.202 89.8323 312.469 126.999 316.032M36.2433 307.74C73.8282 309.604 155.161 315.869 209.398 327.123M30.4985 309.704L29.4985 310.704M126.999 316.032L29.4985 311.704V310.704M126.999 316.032C140.194 317.297 153.405 318.725 165.999 320.317M29.4985 310.704L29.9985 312.204L27.4985 313.704C28.3141 313.725 29.1478 313.748 29.9985 313.771M165.999 320.317C151.891 317.664 71.0451 314.894 29.9985 313.771M165.999 320.317C181.868 322.324 196.757 324.592 209.398 327.123M29.9985 313.771L27.4985 316.032C74.9318 316.702 177.718 319.858 209.398 327.123M209.398 327.123C215.093 328.263 220.332 329.456 224.999 330.704C220.127 329.458 214.902 328.265 209.398 327.123ZM28.9985 317.204V318.704C29.1641 318.701 29.3308 318.699 29.4985 318.697M227.499 331.204C209.622 328.293 190.165 326.018 170.499 324.252M280.499 355.704C273.007 351.066 255.894 342.61 234.499 336.693M29.4985 318.697L28.4985 319.7M29.4985 318.697C57.4433 318.344 114.812 319.253 170.499 324.252M28.4985 319.7L27.4985 320.704L26.4985 321.704L103.499 323.704C149.899 325.304 191.832 329.37 206.999 331.204C216.625 332.35 225.907 334.317 234.499 336.693M28.4985 319.7C54.3319 320.401 118.899 322.292 170.499 324.252M26.9985 322.204V323.704C62.8185 323.395 145.759 325.11 213.999 333.791M234.499 336.693C227.865 335.648 221.009 334.683 213.999 333.791M27.4985 324.204L25.9985 326.704C26.4818 326.68 26.9819 326.656 27.4985 326.633M213.999 333.791C127.252 325.225 54.5971 325.418 27.4985 326.633M27.4985 326.633L17.9985 343.204C18.6313 343.224 19.2987 343.244 19.9985 343.264M215.999 343.204C209.215 342.204 201.778 341.487 193.999 340.997M19.9985 343.264C36.812 343.757 72.3416 344.356 94.9985 343.204C115.125 341.287 158.196 338.74 193.999 340.997M19.9985 343.264L17.9985 346.204C19.0911 346.228 20.2634 346.253 21.4985 346.28M193.999 340.997C176.399 339.231 120.665 342.732 94.9985 344.704C74.9985 347.742 65.4985 347.204 64.4985 347.204C63.7562 347.204 37.4099 346.63 21.4985 346.28M21.4985 346.28L19.9985 353.204C20.4606 353.188 20.961 353.171 21.4985 353.152M215.999 346.28L195.499 344.704C167.099 343.442 114.999 347.178 92.4985 349.204C60.4257 351.495 32.7871 352.753 21.4985 353.152M21.4985 353.152L19.9985 355.704C38.9985 354.704 81.1985 352.504 97.9985 351.704C122.999 349.704 183.899 346.704 227.499 350.704M97.9985 355.704C103.499 355.704 163.499 351.704 243.499 353.204M24.4985 340.204C26.9985 340.204 61.9985 341.704 102.499 340.204L169.499 337.704M28.4985 336.704C33.9985 336.704 73.9985 339.204 112.499 336.704M28.4985 331.704C30.4985 331.704 83.9985 328.704 144.499 331.704M28.9985 333.704C35.4985 333.204 176.999 333.704 191.999 335.704" stroke="black"/>
<path d="M236.7 213.352C237.167 213.352 237.55 213.518 237.85 213.852C238.183 214.152 238.35 214.535 238.35 215.002C238.35 215.468 238.183 215.852 237.85 216.152C237.55 216.485 237.167 216.652 236.7 216.652C234.2 216.652 231.533 216.718 228.7 216.852C225.9 217.018 223.533 217.152 221.6 217.252C218.4 217.452 215.017 217.735 211.45 218.102C211.35 218.102 211.267 218.102 211.2 218.102C210.767 218.102 210.383 217.935 210.05 217.602C209.75 217.302 209.6 216.935 209.6 216.502V176.752C209.6 176.285 209.75 175.902 210.05 175.602C210.383 175.268 210.783 175.102 211.25 175.102C211.717 175.102 212.1 175.268 212.4 175.602C212.733 175.902 212.9 176.285 212.9 176.752V214.652C216.667 214.318 220.233 214.052 223.6 213.852C229.267 213.518 233.633 213.352 236.7 213.352ZM194.65 197.402C194.15 197.402 193.717 197.152 193.35 196.652C193.35 196.652 193.333 196.652 193.3 196.652C193.133 196.318 193.05 196.002 193.05 195.702C193.05 195.368 193.167 195.052 193.4 194.752L198.35 187.952L194.05 187.252C193.683 187.185 193.383 187.052 193.15 186.852C192.95 186.652 192.817 186.418 192.75 186.152C192.683 185.952 192.65 185.752 192.65 185.552C192.65 185.185 192.8 184.835 193.1 184.502C194.7 182.768 196.383 180.468 198.15 177.602C198.917 176.368 199.517 175.268 199.95 174.302C200.117 173.902 200.417 173.618 200.85 173.452C201.05 173.385 201.25 173.352 201.45 173.352C201.683 173.352 201.917 173.418 202.15 173.552C202.55 173.718 202.833 174.018 203 174.452C203.067 174.618 203.1 174.818 203.1 175.052C203.1 175.252 203.033 175.468 202.9 175.702C202.333 176.968 201.533 178.418 200.5 180.052C199.5 181.685 198.483 183.168 197.45 184.502L200.55 185.002L204.15 180.152C204.483 179.685 204.933 179.452 205.5 179.452C205.9 179.452 206.25 179.602 206.55 179.902C206.917 180.268 207.1 180.685 207.1 181.152C207.1 181.518 207 181.818 206.8 182.052L198.65 193.202L203 192.202C203.133 192.168 203.25 192.152 203.35 192.152C203.783 192.152 204.15 192.302 204.45 192.602C204.817 192.968 205 193.385 205 193.852C205 194.318 204.833 194.702 204.5 195.002C204.267 195.235 204 195.385 203.7 195.452L194.95 197.352C194.883 197.385 194.783 197.402 194.65 197.402ZM219.9 190.502L215.35 191.252C215.217 191.252 215.1 191.252 215 191.252C214.367 191.252 213.9 190.952 213.6 190.352C213.5 190.118 213.45 189.885 213.45 189.652C213.45 189.218 213.65 188.818 214.05 188.452C214.917 187.752 216.167 186.418 217.8 184.452L215.05 183.252C214.517 183.018 214.2 182.602 214.1 182.002C214.1 181.935 214.1 181.852 214.1 181.752C214.1 181.285 214.283 180.902 214.65 180.602C215.317 180.068 216.067 179.268 216.9 178.202C217.767 177.102 218.467 176.085 219 175.152C219.333 174.652 219.8 174.402 220.4 174.402C220.8 174.402 221.167 174.568 221.5 174.902C221.8 175.235 221.95 175.618 221.95 176.052C221.95 176.318 221.883 176.585 221.75 176.852C221.317 177.485 220.8 178.218 220.2 179.052C219.6 179.885 219.017 180.635 218.45 181.302L219.9 181.902C220.167 181.568 220.5 181.102 220.9 180.502C221.333 179.868 221.6 179.518 221.7 179.452C222 179.118 222.383 178.952 222.85 178.952C223.25 178.952 223.6 179.118 223.9 179.452C224.233 179.752 224.4 180.135 224.4 180.602C224.4 180.902 224.3 181.185 224.1 181.452C223.567 182.252 222.85 183.235 221.95 184.402C221.083 185.535 220.267 186.535 219.5 187.402C219.567 187.368 219.65 187.352 219.75 187.352C220.15 187.352 220.483 187.502 220.75 187.802C221.117 188.135 221.3 188.518 221.3 188.952C221.3 189.352 221.15 189.702 220.85 190.002C220.583 190.268 220.267 190.435 219.9 190.502ZM231.1 189.902L226.5 190.652C226.367 190.652 226.25 190.652 226.15 190.652C225.517 190.652 225.067 190.335 224.8 189.702C224.7 189.468 224.65 189.235 224.65 189.002C224.65 188.535 224.867 188.152 225.3 187.852C226.167 187.118 227.383 185.802 228.95 183.902L226 182.652C225.5 182.418 225.2 182.002 225.1 181.402C225.1 181.335 225.1 181.252 225.1 181.152C225.1 180.685 225.283 180.302 225.65 180.002C226.317 179.468 227.067 178.668 227.9 177.602C228.733 176.502 229.433 175.485 230 174.552C230.333 174.052 230.8 173.802 231.4 173.802C231.8 173.802 232.167 173.968 232.5 174.302C232.8 174.602 232.95 174.968 232.95 175.402C232.95 175.702 232.867 175.985 232.7 176.252C232.233 176.985 231.7 177.752 231.1 178.552C230.5 179.352 229.933 180.052 229.4 180.652L230.9 181.302C231.533 180.435 231.967 179.835 232.2 179.502C232.433 179.135 232.6 178.918 232.7 178.852C233 178.518 233.383 178.352 233.85 178.352C234.25 178.352 234.6 178.518 234.9 178.852C235.233 179.152 235.4 179.535 235.4 180.002C235.4 180.335 235.3 180.618 235.1 180.852C234.567 181.618 233.867 182.568 233 183.702C232.167 184.835 231.383 185.852 230.65 186.752C230.717 186.752 230.8 186.752 230.9 186.752C231.3 186.752 231.633 186.885 231.9 187.152C232.267 187.485 232.45 187.885 232.45 188.352C232.45 188.785 232.3 189.135 232 189.402C231.733 189.668 231.433 189.835 231.1 189.902ZM215.05 212.652C214.317 212.652 213.833 212.318 213.6 211.652C213.5 211.452 213.45 211.235 213.45 211.002C213.45 210.568 213.65 210.168 214.05 209.802C214.05 209.802 214.067 209.802 214.1 209.802C214.933 209.168 216.167 207.918 217.8 206.052L215.1 204.902C214.867 204.835 214.667 204.702 214.5 204.502C214.233 204.235 214.1 203.885 214.1 203.452C214.1 202.952 214.267 202.568 214.6 202.302C215.533 201.568 216.633 200.402 217.9 198.802C218.467 198.135 218.833 197.652 219 197.352C219.2 197.018 219.35 196.818 219.45 196.752C219.717 196.452 220.033 196.302 220.4 196.302C220.8 196.302 221.133 196.385 221.4 196.552C221.9 196.818 222.15 197.252 222.15 197.852C222.15 198.185 222.05 198.485 221.85 198.752C221.417 199.385 220.883 200.102 220.25 200.902C219.65 201.668 219.083 202.352 218.55 202.952L219.9 203.502C220.667 202.535 221.133 201.918 221.3 201.652C221.467 201.385 221.6 201.218 221.7 201.152C221.967 200.852 222.3 200.702 222.7 200.702C223.2 200.702 223.617 200.868 223.95 201.202C224.25 201.502 224.4 201.868 224.4 202.302C224.4 202.635 224.3 202.918 224.1 203.152C223.567 203.918 222.867 204.835 222 205.902C221.133 206.968 220.35 207.918 219.65 208.752C220.117 208.752 220.517 208.918 220.85 209.252C221.15 209.552 221.3 209.902 221.3 210.302C221.3 210.735 221.15 211.085 220.85 211.352C220.583 211.652 220.267 211.835 219.9 211.902L215.25 212.652C215.183 212.652 215.117 212.652 215.05 212.652ZM226.2 212.052C225.5 212.052 225.033 211.718 224.8 211.052C224.7 210.852 224.65 210.635 224.65 210.402C224.65 209.968 224.85 209.568 225.25 209.202C225.25 209.202 225.267 209.202 225.3 209.202C226.133 208.568 227.317 207.335 228.85 205.502L226.1 204.302C225.433 204.035 225.1 203.552 225.1 202.852C225.1 202.352 225.267 201.968 225.6 201.702C226.533 200.968 227.633 199.802 228.9 198.202C229.467 197.535 229.833 197.052 230 196.752C230.2 196.418 230.35 196.218 230.45 196.152C230.717 195.852 231.05 195.702 231.45 195.702C231.983 195.702 232.4 195.868 232.7 196.202C233 196.468 233.15 196.785 233.15 197.152C233.15 197.552 233.05 197.885 232.85 198.152C232.417 198.785 231.883 199.502 231.25 200.302C230.65 201.068 230.083 201.752 229.55 202.352L230.9 202.902C231.667 201.935 232.133 201.318 232.3 201.052C232.467 200.785 232.6 200.618 232.7 200.552C232.967 200.252 233.3 200.102 233.7 200.102C234.2 200.102 234.617 200.268 234.95 200.602C235.25 200.902 235.4 201.268 235.4 201.702C235.4 202.035 235.3 202.318 235.1 202.552C234.6 203.285 233.917 204.202 233.05 205.302C232.217 206.402 231.433 207.368 230.7 208.202C230.767 208.168 230.85 208.152 230.95 208.152C231.35 208.152 231.683 208.302 231.95 208.602C232.283 208.902 232.45 209.318 232.45 209.852C232.45 210.252 232.3 210.585 232 210.852C231.733 211.118 231.433 211.268 231.1 211.302L226.4 212.052C226.333 212.052 226.267 212.052 226.2 212.052ZM202.65 216.902C202.65 217.368 202.5 217.752 202.2 218.052C201.9 218.385 201.5 218.552 201 218.552C200.533 218.552 200.133 218.385 199.8 218.052C199.5 217.752 199.35 217.368 199.35 216.902V197.552C199.35 197.085 199.5 196.702 199.8 196.402C200.133 196.068 200.533 195.902 201 195.902C201.5 195.902 201.9 196.068 202.2 196.402C202.5 196.702 202.65 197.085 202.65 197.552V216.902ZM233.25 191.752C233.65 191.752 233.983 191.885 234.25 192.152C234.583 192.485 234.75 192.868 234.75 193.302C234.75 193.768 234.6 194.152 234.3 194.452C234.033 194.718 233.7 194.868 233.3 194.902C221.967 195.735 216.283 196.152 216.25 196.152C215.817 196.152 215.467 196.018 215.2 195.752C214.867 195.418 214.7 195.035 214.7 194.602C214.7 194.168 214.833 193.802 215.1 193.502C215.4 193.202 215.75 193.035 216.15 193.002C227.517 192.168 233.217 191.752 233.25 191.752ZM191.7 208.552C191.133 208.552 190.683 208.318 190.35 207.852C190.117 207.585 190 207.268 190 206.902C190 206.335 190.233 205.885 190.7 205.552C191.833 204.685 192.85 203.785 193.75 202.852C194.65 201.885 195.35 200.952 195.85 200.052C196.083 199.618 196.417 199.352 196.85 199.252C197.017 199.218 197.2 199.202 197.4 199.202C197.6 199.202 197.8 199.252 198 199.352C198.2 199.452 198.367 199.585 198.5 199.752C198.667 199.885 198.783 200.068 198.85 200.302C198.917 200.535 198.95 200.752 198.95 200.952C198.95 201.152 198.883 201.385 198.75 201.652C197.383 203.952 195.35 206.135 192.65 208.202C192.383 208.435 192.067 208.552 191.7 208.552ZM209.35 195.052C209.483 195.285 209.55 195.518 209.55 195.752C209.55 195.952 209.517 196.168 209.45 196.402C209.383 196.635 209.267 196.835 209.1 197.002C208.967 197.135 208.817 197.252 208.65 197.352C208.517 197.418 208.317 197.452 208.05 197.452C207.817 197.452 207.583 197.435 207.35 197.402C206.95 197.302 206.65 197.052 206.45 196.652L203.2 190.802C203.1 190.535 203.05 190.302 203.05 190.102C203.05 189.335 203.333 188.818 203.9 188.552C204.133 188.418 204.35 188.352 204.55 188.352C205.083 188.352 205.517 188.502 205.85 188.802C205.95 188.935 206.033 189.068 206.1 189.202L209.35 195.052ZM208.5 206.902C207.933 206.902 207.5 206.702 207.2 206.302C204.7 203.235 203.45 201.685 203.45 201.652C203.217 201.352 203.1 201.018 203.1 200.652C203.1 200.152 203.267 199.752 203.6 199.452C203.967 199.152 204.333 199.002 204.7 199.002C205.267 199.002 205.7 199.202 206 199.602L209.75 204.202C209.983 204.502 210.1 204.835 210.1 205.202C210.1 205.735 209.9 206.185 209.5 206.552C209.2 206.785 208.867 206.902 208.5 206.902ZM223.8 191.702C223.167 191.702 222.667 191.435 222.3 190.902C222.3 190.902 221.783 189.952 220.75 188.052C220.65 187.818 220.6 187.602 220.6 187.402C220.6 186.668 220.867 186.168 221.4 185.902C221.633 185.768 221.85 185.702 222.05 185.702C222.55 185.702 222.967 185.852 223.3 186.152C223.4 186.285 223.483 186.418 223.55 186.552L225.1 189.402C225.2 189.602 225.25 189.818 225.25 190.052C225.25 190.518 225.083 190.918 224.75 191.252C224.45 191.552 224.133 191.702 223.8 191.702ZM234.95 191.052C234.283 191.052 233.783 190.802 233.45 190.302C233.45 190.302 232.95 189.352 231.95 187.452C231.85 187.218 231.8 187.002 231.8 186.802C231.8 186.068 232.067 185.568 232.6 185.302C232.833 185.168 233.05 185.102 233.25 185.102C233.75 185.102 234.167 185.252 234.5 185.552C234.6 185.685 234.683 185.818 234.75 185.952L236.25 188.802C236.383 189.035 236.45 189.252 236.45 189.452C236.45 189.918 236.283 190.302 235.95 190.602C235.65 190.902 235.317 191.052 234.95 191.052ZM225.05 210.702C225.183 210.935 225.25 211.152 225.25 211.352C225.25 211.552 225.217 211.768 225.15 212.002C225.117 212.202 225.017 212.385 224.85 212.552C224.717 212.685 224.55 212.802 224.35 212.902C224.183 213.002 224 213.052 223.8 213.052C223.133 213.052 222.633 212.802 222.3 212.302C222.3 212.302 221.783 211.368 220.75 209.502C220.65 209.268 220.6 209.052 220.6 208.852C220.6 208.185 220.85 207.685 221.35 207.352C221.583 207.218 221.817 207.152 222.05 207.152C222.55 207.152 222.967 207.302 223.3 207.602C223.4 207.735 223.483 207.868 223.55 208.002L225.05 210.702ZM234.95 212.452C234.283 212.452 233.783 212.202 233.45 211.702C233.45 211.702 232.95 210.768 231.95 208.902C231.85 208.668 231.8 208.452 231.8 208.252C231.8 207.552 232.067 207.068 232.6 206.802C232.833 206.668 233.05 206.602 233.25 206.602C233.95 206.602 234.433 206.868 234.7 207.402L236.25 210.102C236.383 210.368 236.45 210.602 236.45 210.802C236.45 211.302 236.283 211.702 235.95 212.002C235.65 212.302 235.317 212.452 234.95 212.452ZM269.95 172.102C270.317 171.568 270.817 171.302 271.45 171.302C271.75 171.302 271.983 171.368 272.15 171.502C272.417 171.702 272.633 171.918 272.8 172.152C272.9 172.252 272.95 172.485 272.95 172.852C272.983 173.218 273 173.752 273 174.452V175.852C273.3 175.818 274.15 175.752 275.55 175.652C277.517 175.518 278.633 175.452 278.9 175.452C279.233 175.452 279.433 175.468 279.5 175.502C279.867 175.668 280.167 175.918 280.4 176.252C280.5 176.418 280.55 176.652 280.55 176.952C280.55 177.318 280.5 177.585 280.4 177.752C280.167 178.185 279.833 178.485 279.4 178.652C279.233 178.685 278.15 178.768 276.15 178.902C274.417 179.035 273.367 179.135 273 179.202V180.502C273.133 180.502 273.583 180.468 274.35 180.402C275.117 180.335 275.633 180.302 275.9 180.302C276.167 180.302 276.35 180.318 276.45 180.352C276.817 180.518 277.117 180.768 277.35 181.102C277.45 181.268 277.5 181.502 277.5 181.802C277.5 182.168 277.45 182.435 277.35 182.602C277.117 183.068 276.783 183.368 276.35 183.502C276.183 183.535 274.5 183.702 271.3 184.002C268.133 184.268 266.433 184.402 266.2 184.402C265.833 184.402 265.483 184.235 265.15 183.902C264.85 183.568 264.7 183.202 264.7 182.802C264.7 182.535 264.75 182.285 264.85 182.052C265.117 181.552 265.467 181.252 265.9 181.152C266.067 181.118 266.65 181.068 267.65 181.002C268.683 180.902 269.367 180.818 269.7 180.752V179.452C269.4 179.485 268.45 179.568 266.85 179.702C264.617 179.868 263.35 179.952 263.05 179.952C262.75 179.952 262.567 179.935 262.5 179.902C262.133 179.735 261.833 179.485 261.6 179.152C261.5 178.952 261.45 178.718 261.45 178.452C261.45 177.918 261.6 177.502 261.9 177.202C262.1 177.002 262.367 176.852 262.7 176.752C262.833 176.718 264 176.618 266.2 176.452C268.133 176.285 269.3 176.168 269.7 176.102V174.552L269.75 172.552C269.75 172.485 269.767 172.402 269.8 172.302C269.867 172.168 269.917 172.102 269.95 172.102ZM248.25 193.202C251.483 192.535 253.2 192.202 253.4 192.202C253.9 192.202 254.3 192.385 254.6 192.752C254.933 193.085 255.1 193.452 255.1 193.852C255.1 194.085 255.05 194.318 254.95 194.552C254.717 195.052 254.367 195.368 253.9 195.502C253.767 195.535 252.867 195.718 251.2 196.052C249.533 196.385 248.633 196.568 248.5 196.602C248.4 196.602 247.65 196.752 246.25 197.052C244.883 197.318 244.15 197.452 244.05 197.452C243.45 197.452 242.983 197.135 242.65 196.502C242.517 196.268 242.45 196.052 242.45 195.852C242.45 195.618 242.467 195.452 242.5 195.352C242.533 195.185 242.767 194.802 243.2 194.202C243.9 193.235 245.433 191.202 247.8 188.102C247.3 188.002 246.65 187.885 245.85 187.752C244.217 187.518 243.35 187.385 243.25 187.352C243.183 187.318 243.1 187.285 243 187.252C242.9 187.185 242.733 187.052 242.5 186.852C242.3 186.652 242.167 186.452 242.1 186.252C242.067 186.018 242.05 185.802 242.05 185.602C242.05 185.335 242.1 185.118 242.2 184.952C242.3 184.785 242.517 184.518 242.85 184.152C243.95 182.952 245.083 181.485 246.25 179.752C247.45 178.018 248.467 176.352 249.3 174.752C249.433 174.385 249.533 174.168 249.6 174.102C249.7 174.002 249.8 173.885 249.9 173.752C250.033 173.618 250.2 173.518 250.4 173.452C250.633 173.352 250.85 173.302 251.05 173.302C251.45 173.302 251.85 173.518 252.25 173.952C252.55 174.218 252.7 174.585 252.7 175.052C252.7 175.318 252.6 175.668 252.4 176.102C252.4 176.135 252.4 176.152 252.4 176.152C250.933 179.018 249.183 181.752 247.15 184.352C247.117 184.385 247.083 184.435 247.05 184.502C247.45 184.568 248.467 184.735 250.1 185.002C250.4 184.635 251.083 183.735 252.15 182.302C253.383 180.668 254.067 179.802 254.2 179.702C254.5 179.535 254.833 179.452 255.2 179.452C255.8 179.452 256.267 179.718 256.6 180.252C256.767 180.585 256.85 180.885 256.85 181.152C256.85 181.418 256.817 181.635 256.75 181.802C256.683 181.968 255.417 183.668 252.95 186.902C250.517 190.102 248.95 192.202 248.25 193.202ZM263.95 185.152C276.183 184.152 282.383 183.652 282.55 183.652C282.717 183.652 282.817 183.652 282.85 183.652C283.317 183.685 283.7 183.885 284 184.252C284.3 184.585 284.45 184.918 284.45 185.252C284.45 185.352 284.133 186.818 283.5 189.652C282.9 192.452 282.6 193.868 282.6 193.902C282.4 194.502 281.95 194.835 281.25 194.902C280.717 194.968 277.567 195.218 271.8 195.652C266.033 196.085 263.067 196.302 262.9 196.302C262.433 196.302 262.083 196.118 261.85 195.752C261.717 195.585 261.3 194.452 260.6 192.352C259.533 189.018 259 187.252 259 187.052C259 186.585 259.167 186.185 259.5 185.852C259.7 185.685 259.9 185.568 260.1 185.502C260.3 185.435 261.583 185.318 263.95 185.152ZM264.2 192.952C265.7 192.818 266.65 192.735 267.05 192.702V191.352C267.083 190.085 267.15 189.352 267.25 189.152C267.55 188.518 268.05 188.202 268.75 188.202C269.483 188.202 270 188.535 270.3 189.202C270.4 189.402 270.45 190.085 270.45 191.252V192.452C271.217 192.418 272.1 192.352 273.1 192.252V191.002C273.1 189.835 273.15 189.168 273.25 189.002C273.483 188.235 274 187.852 274.8 187.852C275.5 187.852 276.017 188.185 276.35 188.852C276.417 188.985 276.45 189.468 276.45 190.302C276.483 191.135 276.5 191.702 276.5 192.002C277.8 191.902 278.85 191.802 279.65 191.702C279.75 191.302 279.933 190.518 280.2 189.352C280.5 188.185 280.683 187.452 280.75 187.152C280.483 187.152 280.1 187.185 279.6 187.252C279.133 187.285 276.483 187.502 271.65 187.902C266.817 188.268 263.883 188.485 262.85 188.552C262.883 188.718 262.95 188.935 263.05 189.202C263.25 189.802 263.35 190.152 263.35 190.252C263.383 190.418 263.5 190.852 263.7 191.552C263.933 192.218 264.1 192.685 264.2 192.952ZM255.1 188.352C255.533 188.352 255.917 188.518 256.25 188.852C256.383 188.952 257.1 189.968 258.4 191.902C259.733 193.802 260.45 194.852 260.55 195.052C260.65 195.252 260.7 195.468 260.7 195.702C260.7 195.935 260.633 196.152 260.5 196.352C260.3 196.785 260 197.085 259.6 197.252C259.467 197.318 259.25 197.352 258.95 197.352C258.383 197.352 257.9 197.102 257.5 196.602C257.267 196.335 256.683 195.502 255.75 194.102C254.283 191.902 253.517 190.735 253.45 190.602C253.417 190.435 253.4 190.252 253.4 190.052C253.4 189.818 253.45 189.602 253.55 189.402C253.817 188.702 254.333 188.352 255.1 188.352ZM266.4 211.752C265.733 211.852 265.267 211.902 265 211.902C264.7 211.902 264.467 211.868 264.3 211.802C264.167 211.702 264.017 211.568 263.85 211.402C263.65 211.235 263.517 211.052 263.45 210.852C263.417 210.618 263.4 208.485 263.4 204.452C263.4 200.385 263.417 198.268 263.45 198.102C263.65 197.502 264.05 197.135 264.65 197.002C264.817 196.968 267.1 196.768 271.5 196.402C275.9 196.002 278.2 195.802 278.4 195.802C278.867 195.802 279.267 195.985 279.6 196.352C279.833 196.552 279.967 196.735 280 196.902C280.067 197.135 280.1 199.502 280.1 204.002C280.1 208.502 280.067 210.868 280 211.102C279.967 211.302 279.833 211.518 279.6 211.752C279.4 211.952 279.167 212.085 278.9 212.152H278C277.733 212.085 277.483 211.952 277.25 211.752C277.05 211.518 276.917 211.302 276.85 211.102C276.817 210.868 276.8 208.752 276.8 204.752V199.202L266.7 200.152V208.402C267.133 208.335 267.967 208.218 269.2 208.052C270.433 207.885 271.117 207.802 271.25 207.802C271.917 207.802 272.383 208.135 272.65 208.802C272.783 209.035 272.85 209.268 272.85 209.502C272.85 209.735 272.767 209.985 272.6 210.252C272.433 210.585 271.833 211.268 270.8 212.302C270.267 212.835 269.767 213.302 269.3 213.702C267.633 215.068 265.817 216.418 263.85 217.752C262.517 218.618 261.667 219.068 261.3 219.102C261.233 219.102 261.167 219.102 261.1 219.102C260.667 219.102 260.283 218.935 259.95 218.602C259.65 218.302 259.5 217.918 259.5 217.452C259.5 216.985 259.683 216.585 260.05 216.252C260.117 216.152 260.267 216.035 260.5 215.902C260.733 215.768 260.85 215.702 260.85 215.702C261.65 215.268 262.233 214.902 262.6 214.602C262.8 214.468 263.15 214.235 263.65 213.902C264.45 213.335 265.2 212.768 265.9 212.202L266.4 211.752ZM250.65 195.802C251.083 195.802 251.467 195.985 251.8 196.352C251.867 196.385 251.9 196.418 251.9 196.452C252.133 196.685 252.25 197.168 252.25 197.902C252.283 198.602 252.3 200.952 252.3 204.952V207.202C252.3 213.835 252.283 217.235 252.25 217.402C252.15 217.668 251.983 217.918 251.75 218.152C251.483 218.452 251.117 218.602 250.65 218.602C250.217 218.602 249.833 218.452 249.5 218.152C249.267 218.052 249.117 217.852 249.05 217.552C248.983 217.252 248.933 216.818 248.9 216.252C248.9 215.718 248.9 213.485 248.9 209.552V197.252C248.9 197.185 248.917 197.102 248.95 197.002L249.1 196.802C249.3 196.402 249.617 196.118 250.05 195.952C250.217 195.852 250.417 195.802 250.65 195.802ZM252.9 201.452C252.767 201.218 252.7 201.002 252.7 200.802C252.7 200.568 252.717 200.385 252.75 200.252C252.85 199.918 253.017 199.635 253.25 199.402C253.583 199.102 253.967 198.952 254.4 198.952C254.833 198.952 255.333 199.202 255.9 199.702C255.9 199.735 255.967 199.835 256.1 200.002C256.267 200.135 256.717 200.518 257.45 201.152C259.15 202.785 260.15 203.802 260.45 204.202C260.783 204.568 260.95 204.918 260.95 205.252C260.95 205.252 260.95 205.268 260.95 205.302C260.917 205.735 260.733 206.118 260.4 206.452C260.067 206.785 259.7 206.952 259.3 206.952C259.033 206.952 258.8 206.918 258.6 206.852C258.433 206.752 258.167 206.552 257.8 206.252C257.467 205.952 256.95 205.452 256.25 204.752C254.15 202.752 253.05 201.668 252.95 201.502C252.917 201.502 252.9 201.485 252.9 201.452ZM246.8 199.102C247.267 199.102 247.667 199.285 248 199.652C248.367 199.985 248.55 200.352 248.55 200.752C248.55 201.318 248.05 202.202 247.05 203.402C245.683 205.135 244.117 206.668 242.35 208.002C241.883 208.368 241.467 208.552 241.1 208.552C240.533 208.552 240.1 208.385 239.8 208.052C239.767 208.052 239.75 208.052 239.75 208.052C239.45 207.685 239.3 207.302 239.3 206.902C239.3 206.702 239.333 206.502 239.4 206.302C239.5 205.935 239.883 205.535 240.55 205.102C242.55 203.568 244.067 201.952 245.1 200.252C245.433 199.752 245.733 199.435 246 199.302C246.267 199.168 246.533 199.102 246.8 199.102ZM268.85 203.202C268.45 202.902 268.25 202.518 268.25 202.052C268.25 201.552 268.383 201.168 268.65 200.902C268.85 200.702 269.05 200.585 269.25 200.552C269.483 200.485 270.1 200.418 271.1 200.352C272.133 200.252 272.783 200.202 273.05 200.202C273.55 200.202 273.883 200.218 274.05 200.252C274.283 200.285 274.5 200.402 274.7 200.602C275 200.902 275.15 201.252 275.15 201.652C275.15 202.085 275.017 202.435 274.75 202.702C274.483 202.935 274.2 203.085 273.9 203.152C273.633 203.185 272.933 203.252 271.8 203.352C270.6 203.452 269.9 203.502 269.7 203.502C269.533 203.502 269.433 203.485 269.4 203.452C269.2 203.452 269.017 203.368 268.85 203.202ZM269.15 204.502C269.35 204.402 269.983 204.318 271.05 204.252C272.117 204.152 272.783 204.102 273.05 204.102C273.55 204.102 273.883 204.118 274.05 204.152C274.217 204.185 274.35 204.235 274.45 204.302C274.617 204.402 274.767 204.552 274.9 204.752C275.067 204.952 275.15 205.152 275.15 205.352C275.15 205.985 274.933 206.452 274.5 206.752L274.3 206.902C274.233 206.968 274.167 207.002 274.1 207.002C271.333 207.268 269.9 207.402 269.8 207.402C269.2 207.402 268.733 207.152 268.4 206.652C268.3 206.452 268.25 206.168 268.25 205.802C268.25 205.235 268.55 204.802 269.15 204.502ZM272.9 211.502C273.2 210.902 273.7 210.602 274.4 210.602C274.6 210.602 274.8 210.668 275 210.802C275.2 210.868 277.917 212.535 283.15 215.802C283.317 215.902 283.45 216.068 283.55 216.302C283.65 216.535 283.7 216.752 283.7 216.952C283.7 217.485 283.55 217.902 283.25 218.202C283.117 218.335 282.95 218.435 282.75 218.502C282.517 218.635 282.283 218.702 282.05 218.702C281.85 218.702 281.667 218.652 281.5 218.552C281.333 218.485 279.95 217.652 277.35 216.052C274.75 214.485 273.4 213.668 273.3 213.602C273.2 213.502 273.133 213.435 273.1 213.402C272.833 213.135 272.7 212.752 272.7 212.252C272.7 211.985 272.767 211.735 272.9 211.502ZM313.65 218.102C313.65 218.568 313.483 218.968 313.15 219.302C312.85 219.635 312.45 219.802 311.95 219.802C311.483 219.802 311.083 219.635 310.75 219.302C310.417 218.968 310.25 218.568 310.25 218.102V205.052C308.517 206.585 306.533 208.102 304.3 209.602C302.1 211.102 299.75 212.468 297.25 213.702C294.783 214.935 292.45 215.952 290.25 216.752C290.05 216.852 289.833 216.902 289.6 216.902C289.2 216.902 288.833 216.735 288.5 216.402C288.333 216.235 288.2 216.035 288.1 215.802C288 215.568 287.95 215.335 287.95 215.102C287.95 214.702 288.117 214.335 288.45 214.002C288.617 213.835 288.833 213.702 289.1 213.602C292.9 212.202 296.633 210.385 300.3 208.152C302.233 207.018 303.983 205.835 305.55 204.602C307.383 203.202 308.95 201.802 310.25 200.402V197.952L299.95 198.852L301.05 204.602C301.083 204.735 301.1 204.852 301.1 204.952C301.1 205.452 300.917 205.868 300.55 206.202C300.25 206.502 299.9 206.652 299.5 206.652C298.967 206.652 298.517 206.485 298.15 206.152C297.917 205.918 297.767 205.635 297.7 205.302L296.25 197.652C296.217 197.518 296.2 197.385 296.2 197.252C296.2 196.918 296.317 196.602 296.55 196.302C296.55 196.268 296.583 196.218 296.65 196.152C296.95 195.852 297.3 195.668 297.7 195.602C297.733 195.602 301.917 195.252 310.25 194.552V192.352C305.083 192.852 302.467 193.102 302.4 193.102C301.967 193.102 301.583 192.935 301.25 192.602C300.883 192.235 300.7 191.852 300.7 191.452C300.7 190.952 300.85 190.552 301.15 190.252C301.45 189.918 301.8 189.735 302.2 189.702L310.25 188.902V185.852C310.25 185.352 310.417 184.952 310.75 184.652C311.083 184.318 311.483 184.152 311.95 184.152C312.45 184.152 312.85 184.318 313.15 184.652C313.483 184.952 313.65 185.352 313.65 185.852V188.552C317.95 188.118 320.133 187.902 320.2 187.902C320.667 187.902 321.05 188.052 321.35 188.352C321.683 188.718 321.85 189.185 321.85 189.752C321.85 190.152 321.7 190.502 321.4 190.802C321.133 191.102 320.783 191.268 320.35 191.302L313.65 191.952V194.202C322.35 193.468 326.717 193.102 326.75 193.102C327.25 193.102 327.667 193.285 328 193.652C328.3 193.952 328.45 194.318 328.45 194.752C328.45 194.885 328.367 195.435 328.2 196.402C327.767 198.735 327.267 200.835 326.7 202.702C326.333 203.802 325.95 204.752 325.55 205.552C325.317 206.018 324.95 206.318 324.45 206.452C324.317 206.485 324.133 206.502 323.9 206.502C323.667 206.502 323.417 206.418 323.15 206.252L318.1 203.252C317.667 203.018 317.4 202.668 317.3 202.202C317.267 202.068 317.25 201.885 317.25 201.652C317.25 201.285 317.383 200.952 317.65 200.652C318.05 200.285 318.5 200.102 319 200.102C319.267 200.102 319.533 200.168 319.8 200.302L323.2 202.302C323.667 200.968 324.15 199.102 324.65 196.702L313.65 197.652V203.102L315.5 204.402C318 206.135 320.617 207.752 323.35 209.252C324.817 210.052 326.15 210.685 327.35 211.152C329.017 211.752 331.25 212.335 334.05 212.902L335.4 213.152C335.867 213.252 336.233 213.502 336.5 213.902C336.7 214.168 336.8 214.468 336.8 214.802C336.8 215.435 336.567 215.902 336.1 216.202C335.767 216.435 335.4 216.552 335 216.552C334.867 216.552 334.733 216.535 334.6 216.502C334.5 216.468 334.017 216.368 333.15 216.202C330.383 215.635 328.15 215.052 326.45 214.452C324.783 213.818 323.117 213.035 321.45 212.102C319.05 210.768 316.45 209.152 313.65 207.252V218.102ZM325.6 187.752C325 187.752 324.533 187.502 324.2 187.002C324.2 187.002 322.917 185.152 320.35 181.452C320.117 181.118 320 180.818 320 180.552C320 180.018 320.183 179.585 320.55 179.252C320.783 179.018 321.067 178.852 321.4 178.752C321.4 178.752 324.817 178.152 331.65 176.952C331.783 176.918 331.917 176.902 332.05 176.902C332.517 176.902 332.883 177.052 333.15 177.352C333.517 177.685 333.7 178.118 333.7 178.652C333.7 179.118 333.55 179.502 333.25 179.802C332.983 180.068 332.667 180.235 332.3 180.302L324.65 181.652L326.95 185.052C327.183 185.318 327.3 185.618 327.3 185.952C327.3 186.585 327.05 187.068 326.55 187.402C326.25 187.635 325.933 187.752 325.6 187.752ZM306.55 187.252C306.55 187.718 306.383 188.118 306.05 188.452C305.717 188.785 305.35 188.952 304.95 188.952C304.25 188.952 303.717 188.685 303.35 188.152L299.8 182.652C299.567 182.352 299.45 182.068 299.45 181.802C299.45 181.502 299.517 181.252 299.65 181.052C299.717 180.818 299.85 180.618 300.05 180.452C300.25 180.252 300.533 180.102 300.9 180.002C300.9 180.002 303.983 179.452 310.15 178.352C310.283 178.318 310.4 178.302 310.5 178.302C310.967 178.302 311.35 178.452 311.65 178.752C312.017 179.118 312.2 179.568 312.2 180.102C312.2 180.568 312.05 180.952 311.75 181.252C311.483 181.518 311.167 181.685 310.8 181.752L304.05 182.952L306.25 186.302C306.45 186.602 306.55 186.918 306.55 187.252ZM291.95 188.002C291.35 188.002 290.883 187.768 290.55 187.302C290.317 187.035 290.2 186.718 290.2 186.352C290.2 185.718 290.45 185.252 290.95 184.952C292.217 184.018 293.4 182.935 294.5 181.702C295.6 180.435 296.55 179.152 297.35 177.852C298.183 176.518 298.8 175.318 299.2 174.252C299.367 173.785 299.667 173.468 300.1 173.302C300.3 173.202 300.517 173.152 300.75 173.152C301.25 173.152 301.667 173.318 302 173.652C302.333 173.985 302.5 174.385 302.5 174.852C302.5 175.085 302.45 175.302 302.35 175.502C301.917 176.702 301.233 178.035 300.3 179.502C299.4 180.968 298.317 182.435 297.05 183.902C295.817 185.335 294.45 186.585 292.95 187.652C292.65 187.885 292.317 188.002 291.95 188.002ZM322.75 174.752C322.35 175.685 321.767 176.768 321 178.002C320.267 179.235 319.417 180.485 318.45 181.752C317.417 182.985 316.283 184.118 315.05 185.152C314.717 185.418 314.367 185.552 314 185.552C313.467 185.552 313.017 185.352 312.65 184.952C312.383 184.618 312.25 184.252 312.25 183.852C312.25 183.318 312.45 182.868 312.85 182.502C313.883 181.702 314.833 180.768 315.7 179.702C316.6 178.602 317.383 177.502 318.05 176.402C318.717 175.302 319.233 174.302 319.6 173.402C319.667 173.202 319.783 173.018 319.95 172.852C320.317 172.485 320.717 172.302 321.15 172.302C321.383 172.302 321.617 172.368 321.85 172.502C322.283 172.668 322.583 172.968 322.75 173.402C322.85 173.602 322.9 173.818 322.9 174.052C322.9 174.285 322.85 174.518 322.75 174.752ZM344.35 199.702C343.917 199.702 343.567 199.568 343.3 199.302C342.933 198.935 342.75 198.568 342.75 198.202C342.75 197.702 342.883 197.318 343.15 197.052C343.45 196.752 343.767 196.585 344.1 196.552L351.25 195.552V194.302C349.05 194.602 347.917 194.752 347.85 194.752C347.417 194.752 347.033 194.585 346.7 194.252C346.467 194.052 346.317 193.785 346.25 193.452C346.25 193.385 346.25 193.285 346.25 193.152C346.25 192.685 346.367 192.335 346.6 192.102C346.867 191.835 347.217 191.668 347.65 191.602L351.25 191.102V189.902C347.483 190.368 345.567 190.602 345.5 190.602C345.1 190.602 344.767 190.468 344.5 190.202C344.233 189.902 344.05 189.585 343.95 189.252C343.95 189.185 343.95 189.102 343.95 189.002C343.95 188.568 344.083 188.218 344.35 187.952C344.617 187.652 344.95 187.485 345.35 187.452L351.25 186.702V185.352C342.983 186.318 338.817 186.802 338.75 186.802C338.317 186.802 337.967 186.668 337.7 186.402C337.367 186.068 337.2 185.685 337.2 185.252C337.2 184.785 337.333 184.418 337.6 184.152C337.867 183.852 338.2 183.685 338.6 183.652L351.25 182.202V181.152C347.55 181.618 345.667 181.852 345.6 181.852C345.2 181.852 344.867 181.718 344.6 181.452C344.233 181.085 344.05 180.718 344.05 180.352C344.05 179.852 344.183 179.468 344.45 179.202C344.75 178.902 345.083 178.735 345.45 178.702L351.25 177.952V174.752C351.25 174.285 351.4 173.902 351.7 173.602C352 173.302 352.367 173.152 352.8 173.152C353.267 173.152 353.65 173.318 353.95 173.652C354.283 173.952 354.45 174.318 354.45 174.752V177.602C358.95 177.035 361.233 176.752 361.3 176.752C361.7 176.752 362.067 176.918 362.4 177.252C362.667 177.552 362.8 177.902 362.8 178.302C362.8 178.368 362.683 179.235 362.45 180.902C365.05 180.602 366.383 180.452 366.45 180.452C366.883 180.452 367.233 180.585 367.5 180.852C367.867 181.218 368.05 181.652 368.05 182.152C368.05 182.518 367.9 182.852 367.6 183.152C367.333 183.418 367 183.568 366.6 183.602L361.9 184.152L361.35 187.552C361.283 187.918 361.133 188.218 360.9 188.452C360.667 188.685 360.35 188.818 359.95 188.852L354.45 189.502V190.702C356.75 190.368 357.933 190.202 358 190.202C358.367 190.202 358.683 190.352 358.95 190.652C359.317 190.985 359.5 191.402 359.5 191.902C359.5 192.268 359.35 192.585 359.05 192.852C358.75 193.185 358.433 193.368 358.1 193.402L354.45 193.902V195.152C358.483 194.552 360.55 194.252 360.65 194.252C361.083 194.252 361.433 194.385 361.7 194.652C362.067 194.985 362.25 195.418 362.25 195.952C362.25 196.285 362.1 196.585 361.8 196.852C361.5 197.152 361.183 197.335 360.85 197.402L344.5 199.702C344.467 199.702 344.417 199.702 344.35 199.702ZM347.3 211.652C346.867 211.652 346.483 211.485 346.15 211.152C345.95 210.952 345.817 210.768 345.75 210.602L343.35 203.052C343.317 202.885 343.3 202.702 343.3 202.502C343.3 202.268 343.367 202.018 343.5 201.752C343.533 201.685 343.617 201.585 343.75 201.452C344.017 201.185 344.317 201.035 344.65 201.002L360.05 198.802C360.15 198.802 360.25 198.802 360.35 198.802C360.783 198.802 361.133 198.968 361.4 199.302C361.7 199.602 361.85 199.952 361.85 200.352C361.85 200.452 361.85 200.552 361.85 200.652L360.35 208.452C360.283 208.818 360.133 209.118 359.9 209.352C359.7 209.552 359.417 209.685 359.05 209.752L347.45 211.652C347.417 211.652 347.367 211.652 347.3 211.652ZM375.5 175.202C375.5 174.735 375.65 174.352 375.95 174.052C376.283 173.718 376.683 173.552 377.15 173.552C377.617 173.552 378 173.718 378.3 174.052C378.633 174.352 378.8 174.735 378.8 175.202V217.602C378.8 218.168 378.55 218.618 378.05 218.952C377.783 219.152 377.517 219.252 377.25 219.252C376.983 219.252 376.75 219.202 376.55 219.102L366.2 215.052C365.767 214.918 365.467 214.652 365.3 214.252C365.2 214.018 365.15 213.785 365.15 213.552C365.15 213.085 365.3 212.702 365.6 212.402C365.933 212.068 366.317 211.902 366.75 211.902C366.95 211.902 367.15 211.952 367.35 212.052L375.5 215.202V175.202ZM341.8 218.252C341.733 218.285 341.6 218.302 341.4 218.302C341.2 218.302 341 218.235 340.8 218.102C340.633 218.002 340.467 217.885 340.3 217.752C340.033 217.485 339.9 217.185 339.9 216.852C339.9 216.318 340.067 215.885 340.4 215.552C340.6 215.352 340.833 215.218 341.1 215.152L361.75 209.652C361.883 209.618 362.05 209.602 362.25 209.602C362.45 209.602 362.65 209.668 362.85 209.802C363.05 209.902 363.217 210.018 363.35 210.152C363.617 210.385 363.75 210.685 363.75 211.052C363.75 211.618 363.583 212.052 363.25 212.352C363.05 212.552 362.817 212.685 362.55 212.752L341.8 218.252ZM368.45 201.102C368.15 201.402 367.767 201.552 367.3 201.552C366.833 201.552 366.433 201.402 366.1 201.102C365.8 200.768 365.65 200.368 365.65 199.902V186.652C365.65 186.185 365.8 185.802 366.1 185.502C366.433 185.168 366.833 185.002 367.3 185.002C367.767 185.002 368.15 185.168 368.45 185.502C368.783 185.802 368.95 186.185 368.95 186.652V199.902C368.95 200.368 368.783 200.768 368.45 201.102ZM355.05 203.452C355.417 203.452 355.733 203.585 356 203.852C356.333 204.185 356.5 204.585 356.5 205.052C356.5 205.452 356.367 205.768 356.1 206.002C355.833 206.268 355.533 206.435 355.2 206.502L354.35 206.652V207.302L357.45 206.802L358.3 202.252L354.35 202.802V203.552C354.75 203.485 354.983 203.452 355.05 203.452ZM350.15 207.352C349.717 207.352 349.35 207.202 349.05 206.902C348.75 206.602 348.6 206.268 348.6 205.902C348.6 205.402 348.75 205.002 349.05 204.702C349.283 204.468 349.567 204.335 349.9 204.302L351.3 204.052V203.252L346.95 203.852L348.35 208.302L351.3 207.802V207.202C350.633 207.302 350.25 207.352 350.15 207.352ZM354.45 180.752V181.802L359.15 181.302L359.35 180.152L354.45 180.752ZM354.45 185.002V186.352L358.4 185.852L358.6 184.502L354.45 185.002Z" fill="#0082C5"/>
<path d="M479.5 153.573C478.7 155.173 476.833 156.24 476 156.573H475M479.5 153.573C478.7 153.573 473.5 148.24 471 145.573M479.5 153.573C483.167 150.073 491.8 142.073 497 138.073M471 145.573C469.8 145.573 468.5 147.573 468 148.573V151.073C468 151.473 461.333 156.907 458 159.573C457.6 161.573 453.833 169.073 452 172.573C454.667 170.907 461.1 167.373 465.5 166.573C467.667 163.907 472.4 158.173 474 156.573H475M471 145.573C471.4 144.373 475.5 140.073 477.5 138.073C479.9 136.473 484.167 130.407 486 127.573C486.09 127.741 486.184 127.908 486.28 128.073M497 138.073C494.581 136.783 489.165 133.027 486.28 128.073M497 138.073C497.5 138.073 498.6 137.873 499 137.073M499 137.073C512.5 123.407 539.8 95.5733 541 93.5733M499 137.073C494.682 133.54 489.69 127.792 487.615 125.216M541 93.5733L530 83.0733M541 93.5733C542.257 94.7733 542.857 94.74 543 94.5733L548 89.0733C545.6 86.2733 538 79.5733 534.5 76.5733L530 81.5733C529.833 81.9066 529.6 82.6733 530 83.0733M530 83.0733C527.6 84.2733 500.667 111.573 487.5 125.073C487.537 125.12 487.575 125.168 487.615 125.216M541 92.5733L545.5 88.0733M538.5 90.0733L543 85.5733M537.5 89.0733L542 84.5733M537 87.5733L541 83.5733M534.5 86.0733L538.5 81.5733M468 150.573C468.667 151.74 471.4 154.573 475 156.573M535 76.5733C543 67.4066 562.8 45.9733 578 33.5733C579.667 31.9066 583.9 28.4733 587.5 28.0733C589.5 27.74 593.6 28.3733 594 33.5733C594 35.0733 593.3 38.9733 590.5 42.5733M590.5 42.5733C590.082 43.1401 589.582 43.8008 589 44.5496M590.5 42.5733C589.812 41.8229 589.115 41.0953 588.422 40.3966M548 88.5733C568.76 68.9062 583.081 52.1684 589 44.5496M579.5 32.5733C581.047 33.6982 584.681 36.6262 588.422 40.3966M589 44.5496C588.5 43.7241 587.4 42.0733 587 42.0733M580.5 36.0733C579.87 35.4066 578.488 34.0733 578 34.0733M582 35.0733L580 36.5733M580 36.5733C581.5 37.24 584.9 39.2733 586.5 42.0733M580 36.5733C579.333 36.4066 578 36.6733 578 39.0733C578.153 39.1345 578.321 39.2072 578.5 39.291M586.5 42.0733C587.115 41.6222 588.36 40.6552 588.422 40.3966M586.5 42.0733C586.9 44.4733 584.667 44.74 583.5 44.5733M583.5 44.5733C583.137 42.0304 580.272 40.1198 578.5 39.291M583.5 44.5733C574.167 53.4066 555.4 71.3733 555 72.5733C553.667 74.4066 550.8 78.1733 550 78.5733C549.5 78.74 548.4 78.8733 548 78.0733L546 76.0733C545.833 75.4066 545.7 73.9733 546.5 73.5733C548.461 72.1047 552.405 69.1487 552.5 69.0733C553.7 68.2733 570.333 48.8851 578.5 39.291M486.28 128.073C486.43 127.002 486.907 124.931 487.615 125.216M484 148.573C483 147.907 480.9 146.373 480.5 145.573M485 147.573C484 146.907 481.9 145.373 481.5 144.573M486 146.573C485 145.907 482.9 144.373 482.5 143.573M487 145.573C486 144.907 483.9 143.373 483.5 142.573M488 144.573C487 143.907 484.9 142.373 484.5 141.573M489 143.573C488 142.907 485.9 141.373 485.5 140.573M490 142.573C489 141.907 486.9 140.373 486.5 139.573M491.115 141.573C490.115 140.907 488.015 139.373 487.615 138.573" stroke="black"/>
<circle cx="461" cy="162.573" r="1" fill="black"/>
</svg>
