<svg width="265" height="467" viewBox="0 0 265 467" fill="none" xmlns="http://www.w3.org/2000/svg">
<path d="M132.712 23.1028C130.598 15.576 120.227 13.7093 115.306 13.7169M132.712 23.1028L135.354 26.1563C136.997 29.4382 140.121 37.5953 139.476 43.9683C138.671 51.9344 135.09 60.8851 127.751 65.1815M132.712 23.1028C131.787 25.7102 127.477 30.1953 117.326 33.2438M90.0532 38.2034L97.6034 42.356V36.3158C105.816 35.9152 112.29 34.7563 117.326 33.2438M90.0532 38.2034C90.5565 34.3024 94.6588 25.8208 107.041 23.1028C109.027 20.6354 112.17 16.9534 115.306 13.7169M90.0532 38.2034L89.5312 41.4621C88.2417 41.6953 86.541 42.3309 85.4139 43.4924M135.136 25.9039C139.968 21.9778 142.094 19.4378 141.968 18.2096C140.458 3.48667 128.559 6.11507 124.029 6.87009C123.298 6.99186 122.341 7.51458 121.243 8.3139M127.751 65.1815C120.411 69.4779 127.84 84.6046 124.887 78.8761M127.751 65.1815C126.08 65.6589 121.467 66.5599 116.383 66.3451M98.5714 70.5519C99.4964 68.8513 100.469 63.9821 96.9603 58.1104M97.6034 56.2308C94.9723 56.4695 88.851 55.5505 85.4139 49.9653C83.5571 46.948 84.0896 44.8572 85.4139 43.4924M85.4139 43.4924C82.669 39.2353 78.2354 27.4631 82.4601 14.4308C87.7411 -1.85951 116.115 -1.58572 120.501 6.87009L121.243 8.3139M121.243 8.3139C119.5 9.58329 117.405 11.5503 115.306 13.7169M105.143 35.69C103.978 36.6284 103.777 40.162 104.339 43.4924M117.326 33.2438C118.834 33.8009 119.69 35.2055 119.93 35.8382C120.289 36.6783 120.754 38.0948 121.01 39.9483M121.01 39.9483C121.172 41.1242 121.25 42.4761 121.163 43.9683C120.883 48.7737 112.937 54.2104 106.994 49.6237C105.701 48.6252 104.782 46.1222 104.339 43.4924M121.01 39.9483L125.937 38.9239M125.937 38.9239C126.21 40.4609 126.653 42.2356 127.342 43.9683C129.112 48.415 137.964 47.1614 138.243 42.356C138.467 38.5117 137.619 35.3976 137.032 34.0245C133.16 26.5493 126.187 30.2656 125.55 35.1852C125.55 35.9499 125.649 37.305 125.937 38.9239ZM104.339 43.4924L93.0141 42.356M96.0906 66.9557C93.4609 67.8026 87.6439 71.0204 85.4139 77.1175M85.4139 77.1175L104.339 94.9852L112.349 87.2792M85.4139 77.1175C83.9637 76.6413 79.3696 76.525 72.5941 79.8699C65.8185 83.2148 60.6939 94.7718 58.9786 100.132L48.1506 130.151C44.2554 140.121 37.4727 162.913 41.5037 174.32C45.5347 185.727 58.7642 194.009 64.8751 196.724C68.3057 199.466 72.3844 197.866 73.9949 196.724M96.0906 71.1974C100.594 73.0476 110.743 77.5408 115.306 80.7125C119.869 83.8842 128.843 109.824 132.76 122.397C136.347 138.558 143.748 172.352 144.654 178.242C145.787 185.605 152.583 221.966 152.923 231.368C153.195 238.889 154.094 274.978 154.509 292.083L152.81 342.15M152.81 342.15L150.318 385.874C150.016 388.97 147.214 394.234 138.424 390.518C127.436 385.874 126.417 383.835 111.805 382.136C97.1922 380.437 95.9462 379.757 87.6771 373.074C84.4012 370.426 80.2365 368.881 76.042 367.733M152.81 342.15L174.584 402.229C177.795 409.304 186.069 423.593 193.475 424.152C197.223 421.05 205.795 415.435 214.261 413.842M77.548 198.648L70.1196 220.946L69.1002 226.723L58.3391 273.166L45.4258 313.152C43.1225 318.325 38.8785 330.822 40.3284 339.431C42.1408 350.192 53.9213 358.801 59.6983 362.766C63.1867 365.16 69.6488 365.984 76.042 367.733M77.548 198.648C79.4507 198.086 82.4518 196.52 79.2345 194.756C75.2129 192.551 85.5912 186.843 86.8885 184.507M77.548 198.648C76.4593 198.848 74.7517 198.567 73.9949 196.724M84.6831 181.394C81.4399 182.778 74.72 186.946 73.7859 192.551C73.4707 194.442 73.6095 195.785 73.9949 196.724M84.6831 181.394C85.8506 181.653 87.9263 182.639 86.8885 184.507M84.6831 181.394C76.3521 165.767 71.7418 175.119 70.1196 162.419C68.8219 152.26 74.5312 140.689 77.548 136.173M86.8885 184.507C92.4516 188.544 105.456 196.066 112.97 193.863C120.484 191.661 131.701 191.002 136.37 190.948C138.907 191.488 142.605 193.458 137.099 197.021C132.754 197.134 123.27 197.617 120.096 198.648C120.069 205.906 117.537 222.024 107.626 228.437M81.9591 198.648L112.404 219.45M75.2743 182.146C73.7019 183.04 70.0854 186.521 68.1985 193.296M216.447 398.489C217.113 399.174 217.699 399.307 218.04 399.215C219.2 398.148 222.326 395.208 225.554 391.98C229.588 387.945 231.954 385.874 236.823 383.215C240.719 381.088 240.58 374.259 240.023 371.11L236.823 359.423C233.02 349.823 223.745 326.087 217.066 307.944C210.388 289.802 190.631 248.164 181.588 229.613C178.573 224.836 172.655 212.917 173.101 203.456C173.546 193.995 169.019 170.575 166.701 160.047C166.146 158.028 165.469 155.565 164.734 152.891M216.447 398.489C215.742 397.763 214.948 396.416 214.261 394.057C212.927 389.475 206.02 370.64 202.734 361.795L188.958 323.079C186.781 317.03 181.094 298.686 175.763 273.706C170.433 248.726 161.401 214.01 157.552 199.775L139.026 137.101L122.906 83.1261C123.568 81.2617 125.732 78.0923 129.088 80.3295C132.444 82.5667 142.212 90.0928 146.676 93.5762C147.682 95.2688 148.516 98.8307 143.806 99.5372C147.867 106.855 156.238 122.356 157.24 125.82C157.558 126.923 158.355 129.78 159.381 133.484M216.447 398.489C216.609 401.148 216.399 407.941 214.261 413.842M214.261 413.842C215.98 413.518 217.694 413.361 219.363 413.424C219.844 417.102 221.755 425.399 225.554 429.163M195.384 425.608C195.419 427.211 195.656 430.627 196.325 431.463C197.162 432.508 200.162 435.645 201.448 440.663C201.479 440.784 201.517 440.901 201.562 441.014M201.562 441.014C203.009 444.616 211.486 443.629 215.666 442.649C218.21 439.478 224.03 433.094 226.957 432.927C228.827 432.17 230.472 433.816 231.06 434.733C239.06 445.882 251.806 444.656 257.179 442.649C260.681 443.133 266.718 445.833 262.857 452.76C258.996 459.688 251.123 462.985 247.669 463.767H223.792M201.562 441.014L202.18 465.858H215.666C216.423 465.928 218.223 465.607 219.363 463.767M43.9893 351.529L22.5438 384.308C20.7422 387.213 19.6495 394.594 29.6923 400.871M35.7947 403.138C37.8172 403.86 41.5681 404.695 44.8315 404.173M76.042 367.733C68.438 377.849 52.3932 398.911 49.0456 402.229C47.9383 403.327 46.4444 403.916 44.8315 404.173M21.1525 395.689C19.6373 398.618 15.3643 405.053 10.3944 407.356M10.3944 407.356C7.36395 408.669 1.5152 413.477 2.36373 422.205L1 425.842L9.18222 433.266C10.3038 432.212 11.769 431.37 12.3614 431.082M10.3944 407.356C9.03073 410.386 19.1827 427.66 28.5771 420.084C32.484 416.933 35.1406 417.167 36.8621 418.679M5.54564 424.478C7.19815 425.77 9.80438 428.128 12.3614 431.082M36.8621 418.679C38.452 420.076 39.2442 422.562 39.4867 424.478C45.093 446.727 50.5478 438.267 54.1844 445.388C57.8209 452.51 52.9722 453.419 48.1235 455.237C43.2747 457.055 22.5438 451.601 19.1827 442.055C17.791 438.102 15.1045 434.25 12.3614 431.082M36.8621 418.679C37.4165 414.945 39.7865 406.815 44.8315 404.173M194.273 415.071C196.662 412.403 203.1 406.931 209.74 406.388M73.7859 280.211C82.9189 270.166 101.441 247.742 102.467 238.4C98.3402 240.863 90.3618 244.044 86.8885 245.326M98.8763 171.709L109.137 179.661C108.025 174.018 104.673 161.039 100.159 154.267M64.8751 155.549C60.6507 152.313 54.7367 144.093 64.8751 137.101M124.887 44.7368L129.088 49.9653L124.269 50.973M119.007 56.2308C121.068 57.0766 125.703 58.1252 127.751 55.5527M98.5714 20.2399C100.323 18.2346 105.531 13.5606 112.349 10.9079M164.734 152.891C166.603 149.575 171.793 143.275 177.603 144.601C184.864 146.259 193.913 124.08 189.863 121.263C186.623 119.009 183.15 117.682 183.561 117.975C178.206 119.531 169.267 124.708 176.356 132.962L181.751 135.06M164.734 152.891C162.994 146.566 160.927 139.064 159.381 133.484M167.62 104.141L165.486 115.321M179.529 134.131L177.603 139.328L161.773 134.781L165.486 115.321M184.292 118.196L187.114 109.736M187.114 109.736C189.165 110.6 194.122 110.696 192.01 107.336L189.165 105.888M187.114 109.736L170.898 104.852L165.653 103.425C161.803 99.6411 165.173 98.9419 167.339 99.0653L168.849 99.5372M168.849 99.5372L170.898 95.2746L190.026 100.78L189.165 105.888M168.849 99.5372L189.165 105.888M165.486 115.321C165.566 114.904 164.935 114.182 161.773 114.634C158.612 115.087 158.739 119.998 159.197 122.397C159.962 123.449 161.363 126.195 160.849 128.764C160.335 131.333 159.656 132.981 159.381 133.484" stroke="black" stroke-width="1.5"/>
</svg>
