<svg width="343" height="148" viewBox="0 0 343 148" fill="none" xmlns="http://www.w3.org/2000/svg">
<path d="M76.3754 24.8737L83.4075 34.524C85.1077 36.2743 88.8682 40.0148 90.3084 40.9749C92.1087 42.1751 96.1593 44.4254 97.2094 44.4254C98.2596 44.4254 101.26 45.7756 106.511 46.0757C110.711 46.3157 116.662 46.1757 119.113 46.0757C121.713 46.9258 127.484 49.1961 129.764 51.4764C130.39 52.1028 131.174 52.8038 132.022 53.5192M198.624 52.8266C205.825 58.2274 204.925 66.7786 203.575 70.3791C201.074 73.5296 194.453 79.7404 187.972 79.3804C181.491 79.0203 168.47 74.5297 162.769 72.3294L148.367 64.9783L138.315 58.3774C136.937 57.3981 134.259 55.4084 132.022 53.5192M198.624 52.8266L188.872 42.0251L177.321 31.2236C174.57 28.2231 167.809 21.2021 162.769 17.1216C156.468 12.0208 142.216 11.1207 134.565 9.62051C129.445 8.61658 126.609 7.88137 123.719 6.38088M198.624 52.8266C199.065 53.534 200.438 55.5363 202.4 57.8873C204.853 60.826 204.311 67.4244 203.575 69.1701M138.315 137.516C142.029 140.471 150.368 146.46 154.019 146.773C158.582 147.164 167.187 144.296 169.925 140.906C172.115 138.194 173.532 132.127 173.967 129.433V125.782M138.315 137.516C132.674 139.191 125.903 139.854 119.113 139.944M138.315 137.516C136.788 136.665 134.437 135.394 132.022 134.16C128.953 132.594 125.78 131.087 124.053 130.575C120.967 129.661 112.666 111.184 108.9 102.06C108.2 97.8409 109.214 89.4757 118.87 89.7692M173.967 125.782C176.139 126.043 180.955 126.852 182.832 127.999C185.179 129.433 196.782 127.086 199.52 122.523C202.258 117.96 205.282 115.352 203.575 100.359L201.085 95.9262M173.967 125.782L134.565 108.051C131.39 105.066 123.855 97.3022 119.113 90.1361C119.031 90.0131 118.95 89.8908 118.87 89.7692M201.085 95.9262C205.687 96.6127 215.432 97.7797 217.591 96.9559C220.289 95.9262 229.325 91.3237 231.202 83.9313C233.079 76.539 231.319 69.8506 229.559 67.0345C227.799 64.2184 224.631 58.8208 220.407 57.0607C217.027 55.6526 213.366 55.0659 211.958 54.9486C210.814 53.4307 207.535 50.2487 203.575 49.6636C206.173 48.3659 212.745 45.5015 218.246 44.4254C223.746 43.3493 244.042 42.3768 253.502 42.0251C266.718 40.3287 296.103 37.2871 307.924 38.6915C322.7 40.447 341.008 33.1322 341.561 26.7708C342.114 20.4095 335.2 14.0505 320.817 11.8355C309.312 10.0635 290.578 9.62051 282.649 9.62051C273.728 9.62051 255.409 9.62051 253.502 9.62051C251.119 9.62051 224.844 17.0905 190.825 11.8355C156.805 6.58049 145.978 4.92101 142.147 5.47417C139.082 5.9167 128.585 6.26303 123.719 6.38088M201.085 95.9262C193.143 94.3758 174.62 91.2749 164.067 91.2749C161.051 90.5135 150.927 86.5895 134.565 76.9846C133.258 76.3619 131.507 75.4458 129.764 74.3963C126.598 72.4894 123.46 70.1423 123.069 68.3159C123.042 68.1901 123.028 68.0668 123.028 67.9462M123.719 6.38088C122.291 5.63912 120.85 4.71034 119.113 3.46962C114.912 0.469196 103.46 0.819252 98.2596 1.36933L70.9557 8.72038C61.7034 12.3647 41.478 20.1753 34.5941 22.2635C25.9893 24.8737 15.168 27.0874 2 32.9544L3.82527 139.211C10.0399 135.908 25.0766 128.599 35.5068 125.782C48.5444 122.262 81.7904 136.082 85.5713 136.864C88.1957 137.407 103.704 140.149 119.113 139.944M123.028 67.9462C118.729 65.9999 115.292 68.7572 114.112 70.3791C111.235 74.6199 112.304 78.8594 115.766 84.8217C116.653 86.3483 117.696 87.9878 118.87 89.7692M123.028 67.9462C122.184 64.1502 122.801 55.9503 132.022 53.5192M25.1698 40.9749C26.4348 53.3478 31.459 79.261 41.4351 83.9313C53.9053 89.7692 66.0014 92.6567 85.5713 90.1361C101.227 88.1195 109.298 82.1254 111.376 79.3804M105.141 100.359C97.8218 105.922 79.9841 118.142 67.1887 122.523M290.326 11.8355C291.229 18.6399 293.406 32.7225 294.895 34.6175M258.517 17.3591L259.532 35.8019M254.625 13.4676C254.816 19.0511 255.625 30.6582 257.332 32.4179M250.734 11.8355C250 16.5619 249.143 28.5501 251.58 38.6915M203.575 19.1782L211.958 37.0672M121.264 132.177L119.113 139.944M131.084 134.466L133.001 138.36" stroke="#3E5764" stroke-width="2"/>
</svg>
