<svg width="342" height="148" viewBox="0 0 342 148" fill="none" xmlns="http://www.w3.org/2000/svg">
<path d="M266.216 24.8737L259.184 34.524C257.484 36.2743 253.724 40.0148 252.283 40.9749C250.483 42.1751 246.433 44.4254 245.382 44.4254C244.332 44.4254 241.332 45.7756 236.081 46.0757C231.88 46.3157 225.93 46.1757 223.479 46.0757C220.879 46.9258 215.108 49.1961 212.828 51.4764C212.201 52.1028 211.417 52.8038 210.57 53.5192M143.968 52.8266C136.767 58.2274 137.667 66.7786 139.017 70.3791C141.518 73.5296 148.139 79.7404 154.619 79.3804C161.1 79.0203 174.122 74.5297 179.823 72.3294L194.225 64.9783L204.277 58.3774C205.655 57.3981 208.333 55.4084 210.57 53.5192M143.968 52.8266L153.719 42.0251L165.271 31.2236C168.021 28.2231 174.782 21.2021 179.823 17.1216C186.124 12.0208 200.376 11.1207 208.027 9.62051C213.147 8.61658 215.983 7.88137 218.872 6.38088M143.968 52.8266C143.527 53.534 142.154 55.5363 140.192 57.8873C137.739 60.826 138.281 67.4244 139.017 69.1701M204.277 137.516C200.563 140.471 192.223 146.46 188.573 146.773C184.01 147.164 175.405 144.296 172.667 140.906C170.477 138.194 169.06 132.127 168.625 129.433V125.782M204.277 137.516C209.918 139.191 216.689 139.854 223.479 139.944M204.277 137.516C205.804 136.665 208.155 135.394 210.57 134.16C213.639 132.594 216.812 131.087 218.539 130.575C221.624 129.661 229.926 111.184 233.692 102.06C234.392 97.8409 233.378 89.4757 223.722 89.7692M168.625 125.782C166.452 126.043 161.637 126.852 159.76 127.999C157.413 129.433 145.809 127.086 143.071 122.523C140.334 117.96 137.31 115.352 139.017 100.359L141.507 95.9262M168.625 125.782L208.027 108.051C211.202 105.066 218.737 97.3022 223.479 90.1361C223.561 90.0131 223.641 89.8908 223.722 89.7692M141.507 95.9262C136.905 96.6127 127.16 97.7797 125.001 96.9559C122.302 95.9262 113.267 91.3237 111.39 83.9313C109.512 76.539 111.272 69.8506 113.033 67.0345C114.793 64.2184 117.961 58.8208 122.185 57.0607C125.564 55.6526 129.225 55.0659 130.633 54.9486C131.778 53.4307 135.057 50.2487 139.017 49.6636C136.419 48.3659 129.847 45.5015 124.346 44.4254C118.846 43.3493 98.5497 42.3768 89.0893 42.0251C75.8741 40.3287 46.4885 37.2871 34.668 38.6915C19.8923 40.447 1.58405 33.1322 1.0309 26.7708C0.477751 20.4095 7.39226 14.0505 21.7744 11.8355C33.2802 10.0635 52.0138 9.62051 59.9425 9.62051C68.8637 9.62051 87.1827 9.62051 89.0893 9.62051C91.4726 9.62051 117.748 17.0905 151.767 11.8355C185.786 6.58049 196.614 4.92101 200.445 5.47417C203.51 5.9167 214.007 6.26303 218.872 6.38088M141.507 95.9262C149.449 94.3758 167.972 91.2749 178.525 91.2749C181.541 90.5135 191.665 86.5895 208.027 76.9846C209.334 76.3619 211.085 75.4458 212.828 74.3963C215.994 72.4894 219.132 70.1423 219.523 68.3159C219.55 68.1901 219.564 68.0668 219.564 67.9462M218.872 6.38088C220.301 5.63912 221.742 4.71034 223.479 3.46962C227.68 0.469196 239.131 0.819252 244.332 1.36933L271.636 8.72038C280.888 12.3647 301.114 20.1753 307.998 22.2635C316.603 24.8737 327.424 27.0874 340.592 32.9544L338.767 139.211C332.552 135.908 317.515 128.599 307.085 125.782C294.047 122.262 260.801 136.082 257.02 136.864C254.396 137.407 238.888 140.149 223.479 139.944M219.564 67.9462C223.863 65.9999 227.299 68.7572 228.48 70.3791C231.357 74.6199 230.288 78.8594 226.825 84.8217C225.939 86.3483 224.896 87.9878 223.722 89.7692M219.564 67.9462C220.408 64.1502 219.791 55.9503 210.57 53.5192M317.422 40.9749C316.157 53.3478 311.133 79.261 301.157 83.9313C288.687 89.7692 276.59 92.6567 257.02 90.1361C241.365 88.1195 233.294 82.1254 231.215 79.3804M237.451 100.359C244.77 105.922 262.608 118.142 275.403 122.523M52.2656 11.8355C51.3632 18.6399 49.1862 32.7225 47.6972 34.6175M84.0751 17.3591L83.0599 35.8019M87.9667 13.4676C87.7757 19.0511 86.967 30.6582 85.2595 32.4179M91.8583 11.8355C92.5914 16.5619 93.4487 28.5501 91.0123 38.6915M139.017 19.1782L130.633 37.0672M221.328 132.177L223.479 139.944M211.508 134.466L209.591 138.36" stroke="#3E5764" stroke-width="2"/>
</svg>
