<svg width="79" height="79" viewBox="0 0 79 79" fill="none" xmlns="http://www.w3.org/2000/svg">
<path d="M49.6353 20.0684H30.1818C24.8099 20.0684 20.4551 24.4232 20.4551 29.7951V49.2485C20.4551 54.6205 24.8099 58.9753 30.1818 58.9753H49.6353C55.0072 58.9753 59.362 54.6205 59.362 49.2485V29.7951C59.362 24.4232 55.0072 20.0684 49.6353 20.0684Z" stroke="#1E1E1E" stroke-width="3.25" stroke-linejoin="round"/>
<path d="M32.981 45.7011V59.0687H40.5264V45.7011H46.161L47.3319 39.334H40.5345V37.0705C40.5345 33.7078 41.8517 32.4132 45.2666 32.4132C46.3318 32.4132 47.1855 32.4458 47.6733 32.4947V26.7301C46.7383 26.4695 44.4617 26.209 43.1445 26.209C36.1846 26.209 32.981 29.4984 32.981 36.5901V39.334H28.688V45.7011H32.981Z" fill="#1E1E1E"/>
</svg>
