<svg width="121" height="121" viewBox="0 0 121 121" fill="none" xmlns="http://www.w3.org/2000/svg">
<circle cx="60.5" cy="60.5" r="59.8349" stroke="white" stroke-width="1.33017"/>
<path d="M31.7996 48.1252C29.0251 48.8898 26.3947 50.118 23.4889 50.118C23.104 50.118 21.8641 50.1749 21.7028 49.8522" stroke="white" stroke-width="1.42913" stroke-linecap="round"/>
<path d="M21.437 49.8522C21.437 51.7929 22.0185 53.3417 23.4372 54.7604C25.1121 56.4353 27.4796 56.8541 29.4082 58.0596C30.1132 58.5002 31.5274 58.2219 32.331 58.2219C33.3692 58.2219 34.4074 58.2219 35.4457 58.2219C36.6857 58.2219 37.6208 57.5852 38.7153 57.0927C39.1615 56.8919 39.6413 56.8937 40.1177 56.8196C40.963 56.6881 41.7852 56.4499 42.6271 56.3029C44.2898 56.0126 45.9551 55.7773 47.6091 55.432C49.1094 55.1188 50.5311 54.467 52.0228 54.1625C53.5023 53.8606 54.8614 53.1611 56.3184 52.8561C57.7721 52.5519 59.7787 51.9749 60.8945 50.915C61.3821 50.4517 61.7599 49.7516 62.3558 49.4536" stroke="white" stroke-width="1.42913" stroke-linecap="round"/>
<path d="M32.0652 47.4608C33.0588 47.7608 34.0881 47.794 35.1135 47.9258C36.2634 48.0737 37.3829 48.3648 38.5455 48.3908C40.6048 48.4369 42.6532 48.5236 44.7158 48.5236C48.2598 48.5236 51.7388 48.1251 55.2851 48.1251C56.8151 48.1251 58.3317 47.9922 59.8611 47.9922C61.1638 47.9922 62.4623 48.029 63.7582 47.8889C64.925 47.7628 66.0782 47.6851 67.2419 47.5642C68.0736 47.4777 68.9581 47.5471 69.7661 47.328C72.8635 46.488 76.5475 46.1626 78.9625 43.8147C79.5556 43.2381 79.8319 42.8039 79.9958 41.9843C80.1875 41.0256 79.8555 39.8869 79.6267 38.9582C79.3121 37.6809 78.7231 36.3539 78.1358 35.1793C77.1223 33.1522 75.7232 31.6122 74.2462 29.9242C73.2819 28.8221 72.3982 27.5513 71.257 26.6176C70.3312 25.8602 68.8666 25.3345 67.729 25.075C63.5449 24.1208 59.2446 23.3595 54.9677 24.1451C53.0004 24.5064 50.9938 25.118 49.1443 25.8795C48.3365 26.2121 47.467 26.3934 46.6791 26.7652C46.0993 27.0388 45.5005 27.4565 44.893 27.6509C43.9683 27.9468 43.2516 28.6455 42.4204 29.1344C41.1073 29.9068 39.6842 30.8469 38.5234 31.8358C37.1086 33.041 35.2909 34.4753 34.6633 36.3011C34.0347 38.1296 33.3271 39.7735 32.9952 41.6817C32.8114 42.7386 32.7295 43.7943 32.7295 44.8702C32.7295 45.0798 32.9123 45.1335 32.9657 45.3352C33.0405 45.6178 32.9261 45.9333 33.069 46.1987C33.313 46.6519 33.3613 47.2304 33.5266 47.7265" stroke="white" stroke-width="1.42913" stroke-linecap="round"/>
<path d="M67.9902 60.4867C68.9751 59.6073 70.392 59.0074 71.5296 58.3122C72.3376 57.8184 73.0103 57.4307 73.9818 57.3637C74.8268 57.3054 77.384 56.1948 77.7757 57.4678C78.1569 58.7068 78.9221 60.2433 78.2962 61.6203C78.1274 61.9916 78.0716 62.4362 77.9376 62.8232C77.7764 63.2889 77.3593 63.7995 77.3593 64.2344" stroke="white" stroke-width="1.42913" stroke-linecap="round"/>
<path d="M65.9081 49.4521C65.9399 50.2776 66.2888 50.8813 66.4865 51.6497C66.6667 52.3508 66.5327 53.2082 66.5327 53.9284C66.5327 55.1082 66.5327 56.288 66.5327 57.4678C66.5327 59.3362 69.9169 57.5719 70.905 57.5719" stroke="white" stroke-width="1.42913" stroke-linecap="round"/>
<path d="M50.036 60.9276C51.7843 60.0436 53.5363 59.1414 55.2761 58.2384C57.1165 57.2832 59.1022 56.6991 61.009 55.9257C62.1881 55.4474 63.4593 55.3156 64.5864 54.6946C64.8617 54.5429 65.4408 54.2583 65.7565 54.2583" stroke="white" stroke-width="1.42913" stroke-linecap="round"/>
<path d="M38.3629 70.0216C38.3629 71.6621 38.1891 73.1148 37.6606 74.6414C37.63 74.7298 36.9091 75.3385 37.1525 75.5007C37.5497 75.7656 39.0121 75.3222 39.4439 75.2605C40.5241 75.1062 41.6009 74.9435 42.687 74.8447" stroke="white" stroke-width="1.42913" stroke-linecap="round"/>
<path d="M43.2879 75.2337C43.73 75.2337 43.6616 77.032 43.6095 77.3704C43.5316 77.8765 44.746 77.9343 45.076 78.1818C45.1687 78.2514 45.2314 78.2379 45.3315 78.275C45.4486 78.3184 45.5056 78.4523 45.638 78.4763C45.7625 78.499 45.7987 78.6156 45.8724 78.7077C46.0525 78.9328 46.1008 79.5377 46.1008 79.8317" stroke="white" stroke-width="1.42913" stroke-linecap="round"/>
<path d="M44.9648 81.8332C45.4397 81.6195 45.848 81.205 46.2871 80.9256C46.6858 80.6719 47.0926 80.4316 47.4892 80.1743C48.1561 79.7415 48.7976 79.3952 49.5327 79.0744C50.7143 78.5588 51.9933 78.3193 53.2051 77.8843C53.9806 77.6059 54.691 77.1406 55.471 76.8806C56.8016 76.4371 57.9856 75.8069 59.2215 75.1676C59.7065 74.9168 60.1863 74.5956 60.7061 74.4223" stroke="white" stroke-width="1.42913" stroke-linecap="round"/>
<path d="M44.7485 82.266C44.9396 82.7571 45.0988 83.2761 45.3886 83.7205C45.6238 84.0812 45.877 84.43 46.1128 84.7903C46.7959 85.8338 47.7283 86.6879 48.5831 87.5882C49.3306 88.3754 50.0744 89.1638 50.8851 89.8872C51.5003 90.4361 52.1182 91.0464 52.8445 91.4499C53.461 91.7924 54.1056 92.1115 54.7438 92.4115C55.1539 92.6043 55.5754 92.9214 56.018 93.0276C56.297 93.0945 56.6156 93.122 56.8655 93.247" stroke="white" stroke-width="1.42913" stroke-linecap="round"/>
<path d="M67.9357 71.1087C68.6894 73.5206 69.3687 75.7458 71.4047 77.3455C72.1421 77.9249 73.0148 78.823 73.9141 79.08" stroke="white" stroke-width="1.42913" stroke-linecap="round"/>
<path d="M72.8513 69.2488C74.2673 71.2548 75.6907 73.0038 77.5306 74.6368C78.0938 75.1366 78.6558 75.6281 79.2135 76.1351C79.4275 76.3297 79.7142 76.3775 79.8925 76.5558" stroke="white" stroke-width="1.42913" stroke-linecap="round"/>
<path d="M64.7472 75.6258C65.9266 77.2397 67.0947 79.0189 68.4671 80.4676C68.9049 80.9297 69.2829 81.4854 69.7956 81.8699" stroke="white" stroke-width="1.42913" stroke-linecap="round"/>
<path d="M79.8925 64.466C81.6526 65.163 83.6671 65.9372 85.1919 67.1231C85.7227 67.5359 85.7381 68.3839 85.7381 68.9904C85.7381 70.8806 86.2695 72.698 86.2695 74.5629" stroke="white" stroke-width="1.42913" stroke-linecap="round"/>
<path d="M67.9357 68.4517C70.042 67.7692 72.1799 67.2348 74.3127 66.6508C75.2183 66.4028 76.042 65.9713 76.9624 65.7872C77.5102 65.6777 77.9817 65.3664 78.5492 65.2632C78.8873 65.2017 79.1212 65.1046 79.3611 64.8646" stroke="white" stroke-width="1.42913" stroke-linecap="round"/>
<path d="M56.8171 93.6583C60.7518 91.6909 64.565 89.3249 68.4012 87.1712C71.5386 85.4099 74.6064 83.6329 77.4078 81.3503C78.3825 80.556 79.1641 79.5488 80.13 78.7439C80.9893 78.0278 81.9794 76.909 82.9102 76.3402C84.2306 75.5333 86.2713 74.3709 87.8334 74.3709" stroke="white" stroke-width="1.42913" stroke-linecap="round"/>
<path d="M78.1898 44.9185C78.1898 46.5588 78.3802 49.2931 79.8115 50.334C80.4619 50.807 81.7928 51.0107 82.5627 51.3187C83.7615 51.7982 85.02 52.4737 86.1248 53.1576C87.28 53.8727 87.7464 55.7394 88.2244 56.908C88.7272 58.1369 89.4716 59.2505 90.3096 60.2818C91.3625 61.5778 93.1421 62.2497 94.7115 62.6421C97.2372 63.2735 99.8686 63.104 102.444 63.3226C105.327 63.5674 108.154 64.1926 111.03 64.4665" stroke="white" stroke-width="1.42913" stroke-linecap="round"/>
<path d="M61.7666 112.951C60.8929 114.009 59.1244 117.425 57.7797 117.767C56.9257 117.985 56.1354 119.049 55.5737 119.62" stroke="white" stroke-width="1.42913" stroke-linecap="round"/>
<path d="M90.337 76.7006C93.7019 76.7006 97.0138 76.7316 100.342 77.2211C101.748 77.4278 103.1 77.7636 104.495 77.9961C106 78.247 108.074 78.5971 109.283 79.6154C109.847 80.0899 110.786 80.7521 111.527 81.0266C112.521 81.3946 113.951 81.5759 114.697 82.3221" stroke="white" stroke-width="1.42913" stroke-linecap="round"/>
<path d="M58.4821 98.77C58.4821 101.516 60.5239 104.257 61.6051 106.728C62.2842 108.28 62.5899 109.982 63.1551 111.574C63.7897 113.363 64.7282 115.6 64.7282 117.508" stroke="white" stroke-width="1.42913" stroke-linecap="round"/>
<path d="M37.6126 67.8226C36.9887 67.8226 35.8182 68.0311 35.4665 67.3981C35.2928 67.0854 34.7903 66.7755 34.535 66.4902C34.2308 66.1502 34.0825 65.6107 33.8393 65.2285C33.6949 65.0015 33.7139 64.9156 33.6801 64.6448C33.6515 64.4157 33.4059 64.3353 33.3735 64.1083C33.3163 63.7075 33.3676 63.2634 33.3676 62.8583C33.3676 62.5344 33.6611 62.0145 33.6801 61.691C33.6978 61.389 34.535 60.5 34.535 60.5C35.4901 60.2347 36.437 60.0225 37.4475 60.0225C38.7916 60.0225 39.5942 61.3802 39.7587 62.6225C39.8777 63.5221 39.9343 64.1502 39.7587 65.0634C39.6212 65.7783 39.1749 66.2538 38.833 66.8616C38.496 67.4608 37.6066 67.8246 36.9758 68.0349" stroke="white" stroke-width="1.42913" stroke-linecap="round"/>
<path d="M41.6468 63.4731C42.0594 64.6076 43.2653 65.9965 44.6183 65.9965C45.2192 65.9965 45.7232 65.7705 46.2692 65.572C46.9606 65.3206 48.0503 64.5623 48.1204 63.7207C48.1691 63.1365 48.532 62.5921 48.5449 61.9991C48.5588 61.3613 48.4502 60.6928 48.1794 60.1125C47.9089 59.5328 47.358 58.3954 46.5875 58.2553C45.6128 58.0781 44.5409 58.0773 43.5571 58.2258C42.4531 58.3924 41.8744 58.8018 41.7471 59.9474C41.6125 61.1588 41.2013 62.2478 41.6468 63.4731Z" stroke="white" stroke-width="1.42913" stroke-linecap="round"/>
</svg>
