<svg width="122" height="121" viewBox="0 0 122 121" fill="none" xmlns="http://www.w3.org/2000/svg">
<circle cx="61" cy="60.5" r="59.8349" stroke="black" stroke-width="1.33017"/>
<path d="M32.2996 48.1251C29.5251 48.8897 26.8947 50.1179 23.9889 50.1179C23.604 50.1179 22.3641 50.1749 22.2028 49.8522" stroke="#060606" stroke-width="1.42913" stroke-linecap="round"/>
<path d="M21.937 49.8522C21.937 51.7929 22.5185 53.3417 23.9372 54.7604C25.6121 56.4353 27.9796 56.8541 29.9082 58.0596C30.6132 58.5002 32.0274 58.2219 32.831 58.2219C33.8692 58.2219 34.9074 58.2219 35.9457 58.2219C37.1857 58.2219 38.1208 57.5852 39.2153 57.0927C39.6615 56.8919 40.1413 56.8937 40.6177 56.8196C41.463 56.6881 42.2852 56.4499 43.1271 56.3029C44.7898 56.0126 46.4551 55.7773 48.1091 55.432C49.6094 55.1188 51.0311 54.467 52.5228 54.1625C54.0023 53.8606 55.3614 53.1611 56.8184 52.8561C58.2721 52.5519 60.2787 51.9749 61.3945 50.915C61.8821 50.4517 62.2599 49.7516 62.8558 49.4536" stroke="#060606" stroke-width="1.42913" stroke-linecap="round"/>
<path d="M32.5652 47.4608C33.5588 47.7607 34.5881 47.794 35.6135 47.9258C36.7634 48.0736 37.8829 48.3648 39.0455 48.3908C41.1048 48.4369 43.1532 48.5236 45.2158 48.5236C48.7598 48.5236 52.2388 48.1251 55.7851 48.1251C57.3151 48.1251 58.8317 47.9922 60.3611 47.9922C61.6638 47.9922 62.9623 48.029 64.2582 47.8889C65.425 47.7627 66.5782 47.685 67.7419 47.5641C68.5736 47.4777 69.4581 47.5471 70.2661 47.328C73.3635 46.488 77.0475 46.1626 79.4625 43.8147C80.0556 43.2381 80.3319 42.8039 80.4958 41.9843C80.6875 41.0256 80.3555 39.8868 80.1267 38.9582C79.8121 37.6809 79.2231 36.3539 78.6358 35.1793C77.6223 33.1522 76.2232 31.6122 74.7462 29.9242C73.7819 28.8221 72.8982 27.5513 71.757 26.6176C70.8312 25.8601 69.3666 25.3345 68.229 25.075C64.0449 24.1208 59.7446 23.3595 55.4677 24.145C53.5004 24.5064 51.4938 25.118 49.6443 25.8795C48.8365 26.2121 47.967 26.3934 47.1791 26.7652C46.5993 27.0388 46.0005 27.4565 45.393 27.6509C44.4683 27.9468 43.7516 28.6455 42.9204 29.1344C41.6073 29.9068 40.1842 30.8469 39.0234 31.8358C37.6086 33.041 35.7909 34.4752 35.1633 36.3011C34.5347 38.1296 33.8271 39.7735 33.4952 41.6817C33.3114 42.7386 33.2295 43.7943 33.2295 44.8702C33.2295 45.0798 33.4123 45.1335 33.4657 45.3352C33.5405 45.6177 33.4261 45.9333 33.569 46.1987C33.813 46.6518 33.8613 47.2304 34.0266 47.7265" stroke="#060606" stroke-width="1.42913" stroke-linecap="round"/>
<path d="M68.4902 60.4867C69.4751 59.6073 70.892 59.0074 72.0296 58.3122C72.8376 57.8184 73.5103 57.4307 74.4818 57.3637C75.3268 57.3054 77.884 56.1948 78.2757 57.4678C78.6569 58.7067 79.4221 60.2433 78.7962 61.6203C78.6274 61.9916 78.5716 62.4362 78.4376 62.8232C78.2764 63.2889 77.8593 63.7995 77.8593 64.2344" stroke="#060606" stroke-width="1.42913" stroke-linecap="round"/>
<path d="M66.4081 49.452C66.4398 50.2776 66.7888 50.8813 66.9864 51.6497C67.1667 52.3508 67.0327 53.2082 67.0327 53.9284C67.0327 55.1082 67.0327 56.288 67.0327 57.4678C67.0327 59.3362 70.4169 57.5719 71.4049 57.5719" stroke="#060606" stroke-width="1.42913" stroke-linecap="round"/>
<path d="M50.5359 60.9276C52.2843 60.0436 54.0363 59.1414 55.7761 58.2384C57.6165 57.2831 59.6021 56.6991 61.5089 55.9256C62.688 55.4473 63.9592 55.3155 65.0863 54.6946C65.3617 54.5429 65.9408 54.2583 66.2564 54.2583" stroke="#060606" stroke-width="1.42913" stroke-linecap="round"/>
<path d="M38.8629 70.0216C38.8629 71.6621 38.6891 73.1148 38.1606 74.6414C38.13 74.7298 37.4091 75.3385 37.6525 75.5007C38.0497 75.7656 39.5121 75.3222 39.9439 75.2605C41.0241 75.1062 42.1009 74.9435 43.187 74.8447" stroke="#060606" stroke-width="1.42913" stroke-linecap="round"/>
<path d="M43.7879 75.2338C44.23 75.2338 44.1616 77.032 44.1095 77.3705C44.0316 77.8765 45.246 77.9343 45.576 78.1819C45.6687 78.2514 45.7314 78.238 45.8315 78.275C45.9486 78.3184 46.0056 78.4523 46.138 78.4764C46.2625 78.499 46.2987 78.6156 46.3724 78.7078C46.5525 78.9328 46.6008 79.5378 46.6008 79.8317" stroke="#060606" stroke-width="1.42913" stroke-linecap="round"/>
<path d="M45.4648 81.8332C45.9396 81.6195 46.348 81.2051 46.7871 80.9256C47.1858 80.6719 47.5926 80.4317 47.9892 80.1743C48.6561 79.7415 49.2976 79.3952 50.0327 79.0744C51.2142 78.5588 52.4932 78.3194 53.705 77.8844C54.4806 77.606 55.191 77.1406 55.971 76.8806C57.3016 76.4371 58.4856 75.8069 59.7215 75.1677C60.2064 74.9168 60.6862 74.5956 61.206 74.4224" stroke="#060606" stroke-width="1.42913" stroke-linecap="round"/>
<path d="M45.2485 82.266C45.4396 82.7571 45.5988 83.2761 45.8886 83.7205C46.1238 84.0812 46.377 84.43 46.6128 84.7904C47.2959 85.8339 48.2283 86.6879 49.0831 87.5882C49.8306 88.3754 50.5744 89.1638 51.3851 89.8872C52.0003 90.4361 52.6182 91.0464 53.3445 91.4499C53.961 91.7924 54.6056 92.1116 55.2438 92.4116C55.6539 92.6043 56.0754 92.9214 56.518 93.0276C56.797 93.0946 57.1156 93.1221 57.3655 93.247" stroke="#060606" stroke-width="1.42913" stroke-linecap="round"/>
<path d="M68.4357 71.1088C69.1894 73.5206 69.8687 75.7458 71.9047 77.3455C72.6421 77.9249 73.5148 78.823 74.4141 79.08" stroke="#060606" stroke-width="1.42913" stroke-linecap="round"/>
<path d="M73.3513 69.2488C74.7673 71.2548 76.1907 73.0038 78.0306 74.6367C78.5938 75.1365 79.1558 75.628 79.7135 76.135C79.9275 76.3296 80.2142 76.3774 80.3925 76.5557" stroke="#060606" stroke-width="1.42913" stroke-linecap="round"/>
<path d="M65.2472 75.6257C66.4266 77.2396 67.5947 79.0188 68.9671 80.4675C69.4049 80.9296 69.7829 81.4853 70.2956 81.8698" stroke="#060606" stroke-width="1.42913" stroke-linecap="round"/>
<path d="M80.3925 64.4661C82.1526 65.163 84.1671 65.9372 85.6919 67.1231C86.2227 67.536 86.2381 68.384 86.2381 68.9905C86.2381 70.8807 86.7695 72.6981 86.7695 74.5629" stroke="#060606" stroke-width="1.42913" stroke-linecap="round"/>
<path d="M68.4357 68.4517C70.542 67.7692 72.6799 67.2348 74.8127 66.6508C75.7183 66.4028 76.542 65.9713 77.4624 65.7872C78.0102 65.6777 78.4817 65.3664 79.0492 65.2632C79.3873 65.2017 79.6212 65.1046 79.8611 64.8646" stroke="#060606" stroke-width="1.42913" stroke-linecap="round"/>
<path d="M57.3171 93.6583C61.2518 91.6909 65.065 89.3249 68.9012 87.1712C72.0386 85.4098 75.1064 83.6329 77.9078 81.3502C78.8825 80.556 79.6641 79.5488 80.63 78.7438C81.4893 78.0277 82.4794 76.9089 83.4102 76.3401C84.7306 75.5332 86.7713 74.3708 88.3334 74.3708" stroke="#060606" stroke-width="1.42913" stroke-linecap="round"/>
<path d="M78.6898 44.9185C78.6898 46.5588 78.8802 49.293 80.3115 50.334C80.9619 50.807 82.2928 51.0107 83.0627 51.3186C84.2615 51.7981 85.52 52.4737 86.6248 53.1576C87.78 53.8727 88.2464 55.7394 88.7244 56.9079C89.2272 58.1369 89.9716 59.2505 90.8096 60.2818C91.8625 61.5777 93.6421 62.2497 95.2115 62.642C97.7372 63.2734 100.369 63.1039 102.944 63.3226C105.827 63.5674 108.654 64.1926 111.53 64.4665" stroke="#060606" stroke-width="1.42913" stroke-linecap="round"/>
<path d="M62.2666 112.951C61.3929 114.009 59.6244 117.425 58.2797 117.767C57.4257 117.985 56.6354 119.049 56.0737 119.62" stroke="#060606" stroke-width="1.42913" stroke-linecap="round"/>
<path d="M90.837 76.7006C94.2019 76.7006 97.5138 76.7316 100.842 77.2211C102.248 77.4278 103.6 77.7636 104.995 77.996C106.5 78.2469 108.574 78.5971 109.783 79.6154C110.347 80.0898 111.286 80.752 112.027 81.0265C113.021 81.3946 114.451 81.5759 115.197 82.322" stroke="#060606" stroke-width="1.42913" stroke-linecap="round"/>
<path d="M58.9821 98.77C58.9821 101.516 61.0239 104.257 62.1052 106.728C62.7842 108.28 63.09 109.982 63.6551 111.574C64.2897 113.363 65.2282 115.6 65.2282 117.508" stroke="#060606" stroke-width="1.42913" stroke-linecap="round"/>
<path d="M38.1126 67.8226C37.4887 67.8226 36.3182 68.0311 35.9665 67.3981C35.7928 67.0854 35.2903 66.7755 35.035 66.4902C34.7308 66.1502 34.5825 65.6107 34.3393 65.2285C34.1949 65.0015 34.2139 64.9156 34.1801 64.6448C34.1515 64.4157 33.9059 64.3353 33.8735 64.1083C33.8163 63.7075 33.8676 63.2634 33.8676 62.8583C33.8676 62.5344 34.1611 62.0145 34.1801 61.691C34.1978 61.389 35.035 60.5 35.035 60.5C35.9901 60.2347 36.937 60.0225 37.9475 60.0225C39.2916 60.0225 40.0942 61.3802 40.2587 62.6225C40.3777 63.5221 40.4343 64.1502 40.2587 65.0634C40.1212 65.7783 39.6749 66.2538 39.333 66.8616C38.996 67.4608 38.1066 67.8246 37.4758 68.0349" stroke="#060606" stroke-width="1.42913" stroke-linecap="round"/>
<path d="M42.1468 63.4731C42.5594 64.6076 43.7653 65.9965 45.1183 65.9965C45.7192 65.9965 46.2232 65.7705 46.7692 65.572C47.4606 65.3206 48.5503 64.5623 48.6204 63.7207C48.6691 63.1366 49.032 62.5921 49.0449 61.9991C49.0588 61.3613 48.9502 60.6928 48.6794 60.1125C48.4089 59.5328 47.858 58.3954 47.0875 58.2553C46.1128 58.0781 45.0409 58.0773 44.0571 58.2258C42.9531 58.3925 42.3744 58.8019 42.2471 59.9474C42.1125 61.1588 41.7013 62.2478 42.1468 63.4731Z" stroke="#060606" stroke-width="1.42913" stroke-linecap="round"/>
</svg>
