<svg width="243" height="382" viewBox="0 0 243 382" fill="none" xmlns="http://www.w3.org/2000/svg">
<g filter="url(#filter0_d_1036_4413)">
<path d="M95.9087 0.811493C-43.6092 -10.9237 17.1813 106.852 17.1813 209.721C17.1813 272.34 27.4643 347.212 55.7418 357.495C91.0888 370.348 135.882 386.323 176.243 357.495C221.23 325.361 235.69 275.554 235.69 209.721C235.69 79.5388 267.823 15.2716 95.9087 0.811493Z" fill="#FFE8AD" fill-opacity="0.9"/>
<path d="M106.261 97.936C106.101 97.952 105.949 97.912 105.805 97.816C105.677 97.72 105.597 97.592 105.565 97.432C105.549 97.256 105.589 97.104 105.685 96.976C105.797 96.832 105.933 96.752 106.093 96.736C106.861 96.624 107.789 96.512 108.877 96.4C109.965 96.288 111.109 96.192 112.309 96.112V90.664L108.925 91C108.765 91.016 108.621 90.968 108.493 90.856C108.365 90.744 108.293 90.608 108.277 90.448C108.261 90.272 108.301 90.12 108.397 89.992C108.509 89.864 108.645 89.792 108.805 89.776L112.309 89.464V85.744C112.309 85.568 112.365 85.424 112.477 85.312C112.605 85.2 112.749 85.144 112.909 85.144C113.085 85.144 113.229 85.2 113.341 85.312C113.469 85.424 113.533 85.568 113.533 85.744V89.344L116.653 89.056C116.813 89.04 116.957 89.088 117.085 89.2C117.213 89.296 117.285 89.432 117.301 89.608C117.317 89.768 117.269 89.912 117.157 90.04C117.061 90.168 116.925 90.24 116.749 90.256L113.533 90.568V96.04C114.653 95.976 115.749 95.928 116.821 95.896C117.893 95.864 118.869 95.856 119.749 95.872C119.925 95.888 120.069 95.952 120.181 96.064C120.293 96.176 120.341 96.32 120.325 96.496C120.325 96.656 120.269 96.8 120.157 96.928C120.045 97.04 119.901 97.096 119.725 97.096C118.765 97.064 117.677 97.072 116.461 97.12C115.245 97.168 113.997 97.232 112.717 97.312C111.453 97.392 110.253 97.488 109.117 97.6C107.981 97.712 107.029 97.824 106.261 97.936ZM101.581 97.264C101.437 97.296 101.301 97.272 101.173 97.192C101.045 97.128 100.957 97.024 100.909 96.88L99.3492 92.632C99.2852 92.488 99.2932 92.32 99.3732 92.128C99.4852 91.952 99.6212 91.856 99.7812 91.84L105.397 90.688C105.605 90.64 105.781 90.688 105.925 90.832C106.085 90.96 106.149 91.136 106.117 91.36L105.493 96.112C105.445 96.416 105.277 96.592 104.989 96.64L101.581 97.264ZM108.277 84.64C108.117 84.656 107.965 84.608 107.821 84.496C107.693 84.384 107.621 84.248 107.605 84.088C107.589 83.928 107.629 83.784 107.725 83.656C107.837 83.528 107.973 83.456 108.133 83.44L117.205 82.408C117.381 82.392 117.533 82.44 117.661 82.552C117.789 82.648 117.861 82.784 117.877 82.96C117.893 83.12 117.853 83.264 117.757 83.392C117.661 83.52 117.525 83.6 117.349 83.632L108.277 84.64ZM98.1012 84.52C97.9412 84.552 97.7892 84.52 97.6452 84.424C97.5012 84.328 97.4132 84.2 97.3812 84.04C97.3652 83.88 97.4052 83.728 97.5012 83.584C97.5972 83.44 97.7252 83.36 97.8852 83.344L106.741 81.712C106.917 81.68 107.069 81.712 107.197 81.808C107.341 81.904 107.429 82.032 107.461 82.192C107.493 82.352 107.461 82.504 107.365 82.648C107.269 82.792 107.133 82.88 106.957 82.912L98.1012 84.52ZM101.869 95.992L104.341 95.536L104.821 92.032L100.717 92.872L101.869 95.992ZM113.605 81.184C113.477 81.28 113.333 81.32 113.173 81.304C113.013 81.288 112.877 81.216 112.765 81.088L110.557 78.304C110.461 78.176 110.421 78.032 110.437 77.872C110.469 77.712 110.549 77.576 110.677 77.464C110.805 77.352 110.949 77.312 111.109 77.344C111.269 77.36 111.405 77.432 111.517 77.56L113.701 80.32C113.813 80.448 113.853 80.6 113.821 80.776C113.805 80.936 113.733 81.072 113.605 81.184ZM103.741 80.752C103.629 80.864 103.485 80.92 103.309 80.92C103.149 80.904 103.013 80.84 102.901 80.728L100.765 78.4C100.653 78.272 100.605 78.128 100.621 77.968C100.637 77.792 100.701 77.648 100.813 77.536C100.941 77.424 101.085 77.376 101.245 77.392C101.405 77.392 101.541 77.456 101.653 77.584L103.789 79.912C103.901 80.024 103.949 80.168 103.933 80.344C103.933 80.504 103.869 80.64 103.741 80.752ZM101.677 86.776C101.517 86.808 101.365 86.776 101.221 86.68C101.077 86.584 100.989 86.456 100.957 86.296C100.925 86.12 100.957 85.968 101.053 85.84C101.149 85.696 101.277 85.608 101.437 85.576L104.221 85.048C104.397 85.016 104.549 85.048 104.677 85.144C104.821 85.24 104.901 85.368 104.917 85.528C104.949 85.688 104.917 85.84 104.821 85.984C104.741 86.128 104.613 86.216 104.437 86.248L101.677 86.776ZM101.677 89.56C101.517 89.576 101.365 89.536 101.221 89.44C101.077 89.344 100.989 89.216 100.957 89.056C100.925 88.896 100.957 88.752 101.053 88.624C101.149 88.48 101.277 88.392 101.437 88.36L104.221 87.832C104.397 87.8 104.549 87.832 104.677 87.928C104.821 88.008 104.901 88.136 104.917 88.312C104.949 88.472 104.917 88.624 104.821 88.768C104.741 88.896 104.613 88.976 104.437 89.008L101.677 89.56ZM140.125 98.128L135.445 96.448C135.285 96.384 135.165 96.28 135.085 96.136C135.021 95.992 135.021 95.84 135.085 95.68C135.149 95.52 135.253 95.408 135.397 95.344C135.541 95.264 135.693 95.256 135.853 95.32L139.717 96.688V86.992C139.173 87.024 138.597 87.064 137.989 87.112C137.397 87.16 136.797 87.208 136.189 87.256V93.88C136.189 94.04 136.133 94.184 136.021 94.312C135.909 94.44 135.765 94.504 135.589 94.504C135.429 94.504 135.285 94.44 135.157 94.312C135.045 94.184 134.989 94.04 134.989 93.88V87.352C134.477 87.4 133.965 87.448 133.453 87.496C132.941 87.544 132.429 87.584 131.917 87.616V93.88C131.917 94.04 131.853 94.184 131.725 94.312C131.613 94.44 131.469 94.504 131.293 94.504C131.133 94.504 130.989 94.44 130.861 94.312C130.749 94.184 130.693 94.04 130.693 93.88V87.736C130.165 87.784 129.645 87.84 129.133 87.904C128.621 87.952 128.125 88 127.645 88.048V96.808C127.645 96.968 127.581 97.104 127.453 97.216C127.341 97.344 127.197 97.408 127.021 97.408C126.861 97.408 126.717 97.344 126.589 97.216C126.477 97.104 126.421 96.968 126.421 96.808V88.168C125.637 88.248 124.917 88.336 124.261 88.432C123.605 88.512 123.037 88.592 122.557 88.672C122.397 88.688 122.245 88.648 122.101 88.552C121.973 88.456 121.893 88.328 121.861 88.168C121.845 87.992 121.885 87.84 121.981 87.712C122.077 87.568 122.205 87.488 122.365 87.472C122.877 87.392 123.477 87.312 124.165 87.232C124.853 87.136 125.605 87.048 126.421 86.968V80.176C126.421 80 126.477 79.856 126.589 79.744C126.717 79.632 126.861 79.576 127.021 79.576C127.197 79.576 127.341 79.632 127.453 79.744C127.581 79.856 127.645 80 127.645 80.176V86.824L130.693 86.536V82.768C130.693 82.592 130.749 82.448 130.861 82.336C130.989 82.224 131.133 82.168 131.293 82.168C131.469 82.168 131.613 82.224 131.725 82.336C131.853 82.448 131.917 82.592 131.917 82.768V86.416C132.429 86.368 132.941 86.32 133.453 86.272C133.965 86.224 134.477 86.184 134.989 86.152V82.384C134.989 82.208 135.045 82.064 135.157 81.952C135.285 81.84 135.429 81.784 135.589 81.784C135.765 81.784 135.909 81.84 136.021 81.952C136.133 82.064 136.189 82.208 136.189 82.384V86.032C136.797 85.984 137.397 85.936 137.989 85.888C138.597 85.84 139.173 85.8 139.717 85.768V79.72L129.565 80.68C129.405 80.696 129.253 80.656 129.109 80.56C128.981 80.448 128.909 80.312 128.893 80.152C128.877 79.976 128.925 79.824 129.037 79.696C129.149 79.568 129.285 79.496 129.445 79.48L140.269 78.448C140.445 78.416 140.597 78.472 140.725 78.616C140.853 78.712 140.917 78.856 140.917 79.048V85.672C141.621 85.624 142.269 85.584 142.861 85.552C143.453 85.52 143.973 85.496 144.421 85.48C144.597 85.464 144.741 85.512 144.853 85.624C144.981 85.736 145.045 85.88 145.045 86.056C145.061 86.216 145.013 86.36 144.901 86.488C144.789 86.6 144.645 86.664 144.469 86.68C144.021 86.696 143.493 86.728 142.885 86.776C142.277 86.808 141.621 86.848 140.917 86.896V97.552C140.917 97.76 140.837 97.928 140.677 98.056C140.469 98.168 140.285 98.192 140.125 98.128Z" fill="#3A3A3A"/>
<path d="M105.517 178.512C105.213 178.544 105.005 178.416 104.893 178.128L103.477 174.408C103.397 174.232 103.413 174.056 103.525 173.88C103.621 173.72 103.773 173.624 103.981 173.592L111.781 172.872C111.973 172.84 112.141 172.912 112.285 173.088C112.413 173.248 112.453 173.424 112.405 173.616L111.373 177.624C111.293 177.896 111.109 178.048 110.821 178.08L105.517 178.512ZM100.261 184.344C100.101 184.36 99.9572 184.312 99.8292 184.2C99.7012 184.104 99.6212 183.976 99.5892 183.816C99.5732 183.64 99.6132 183.488 99.7092 183.36C99.8052 183.232 99.9332 183.16 100.093 183.144C100.653 183.064 101.381 182.984 102.277 182.904C103.173 182.824 104.173 182.752 105.277 182.688C106.397 182.608 107.541 182.544 108.709 182.496L111.085 178.728C111.165 178.584 111.285 178.496 111.445 178.464C111.621 178.432 111.781 178.456 111.925 178.536C112.053 178.632 112.133 178.76 112.165 178.92C112.213 179.08 112.189 179.232 112.093 179.376L110.173 182.424C111.533 182.376 112.821 182.344 114.037 182.328C115.253 182.312 116.269 182.32 117.085 182.352C117.261 182.352 117.397 182.416 117.493 182.544C117.605 182.656 117.661 182.8 117.661 182.976C117.645 183.136 117.573 183.272 117.445 183.384C117.333 183.512 117.197 183.568 117.037 183.552C116.397 183.52 115.613 183.504 114.685 183.504C113.757 183.52 112.749 183.544 111.661 183.576C110.589 183.608 109.485 183.648 108.349 183.696C107.229 183.76 106.149 183.824 105.109 183.888C104.069 183.968 103.125 184.04 102.277 184.104C101.445 184.184 100.773 184.264 100.261 184.344ZM97.6212 175.8C97.4772 175.88 97.3252 175.904 97.1652 175.872C97.0052 175.824 96.8852 175.728 96.8052 175.584C96.7252 175.44 96.7012 175.288 96.7332 175.128C96.7812 174.968 96.8772 174.848 97.0212 174.768C97.9652 174.224 98.9172 173.552 99.8772 172.752C100.853 171.952 101.781 171.088 102.661 170.16C103.541 169.216 104.325 168.256 105.013 167.28C105.717 166.288 106.285 165.336 106.717 164.424L102.733 165.216C102.573 165.248 102.421 165.216 102.277 165.12C102.133 165.024 102.045 164.896 102.013 164.736C101.997 164.576 102.029 164.432 102.109 164.304C102.205 164.16 102.333 164.072 102.493 164.04L107.605 163.008C107.829 162.976 108.021 163.04 108.181 163.2C108.341 163.392 108.381 163.592 108.301 163.8C107.949 164.824 107.405 165.904 106.669 167.04C105.933 168.16 105.069 169.272 104.077 170.376C103.101 171.48 102.053 172.504 100.933 173.448C99.8292 174.376 98.7252 175.16 97.6212 175.8ZM119.653 175.32C119.637 175.304 119.477 175.232 119.173 175.104C118.885 174.976 118.517 174.816 118.069 174.624C117.637 174.416 117.189 174.192 116.725 173.952C116.277 173.696 115.869 173.44 115.501 173.184C115.069 172.88 114.557 172.464 113.965 171.936C113.389 171.408 112.789 170.84 112.165 170.232C111.541 169.608 110.957 169.016 110.413 168.456C109.869 167.896 109.413 167.432 109.045 167.064C108.693 166.68 108.501 166.472 108.469 166.44C108.357 166.312 108.301 166.168 108.301 166.008C108.317 165.832 108.381 165.688 108.493 165.576C108.621 165.448 108.765 165.392 108.925 165.408C109.101 165.408 109.245 165.472 109.357 165.6C109.373 165.616 109.549 165.808 109.885 166.176C110.221 166.528 110.653 166.984 111.181 167.544C111.725 168.088 112.301 168.672 112.909 169.296C113.533 169.904 114.133 170.472 114.709 171C115.285 171.512 115.773 171.912 116.173 172.2C116.509 172.424 116.893 172.656 117.325 172.896C117.773 173.12 118.205 173.336 118.621 173.544C119.053 173.736 119.405 173.896 119.677 174.024C119.965 174.136 120.109 174.192 120.109 174.192C120.269 174.256 120.381 174.368 120.445 174.528C120.509 174.672 120.509 174.824 120.445 174.984C120.381 175.144 120.269 175.256 120.109 175.32C119.965 175.384 119.813 175.384 119.653 175.32ZM105.853 177.264L110.293 176.904L111.013 174.168L104.893 174.72L105.853 177.264ZM105.565 171.888C105.405 171.904 105.261 171.864 105.133 171.768C105.005 171.656 104.933 171.52 104.917 171.36C104.901 171.184 104.941 171.032 105.037 170.904C105.149 170.776 105.285 170.704 105.445 170.688L110.245 170.184C110.421 170.152 110.573 170.192 110.701 170.304C110.829 170.4 110.901 170.536 110.917 170.712C110.933 170.872 110.885 171.016 110.773 171.144C110.677 171.272 110.541 171.352 110.365 171.384L105.565 171.888ZM114.949 170.04C114.837 170.152 114.693 170.2 114.517 170.184C114.357 170.152 114.221 170.08 114.109 169.968C113.997 169.84 113.949 169.696 113.965 169.536C113.981 169.36 114.053 169.216 114.181 169.104L117.157 166.584C117.285 166.472 117.429 166.424 117.589 166.44C117.765 166.456 117.909 166.528 118.021 166.656C118.133 166.784 118.181 166.936 118.165 167.112C118.149 167.272 118.077 167.408 117.949 167.52L114.949 170.04ZM112.669 167.736C112.541 167.848 112.397 167.896 112.237 167.88C112.077 167.864 111.941 167.792 111.829 167.664C111.717 167.536 111.669 167.392 111.685 167.232C111.701 167.072 111.773 166.936 111.901 166.824L114.877 164.304C115.005 164.192 115.149 164.144 115.309 164.16C115.485 164.176 115.629 164.248 115.741 164.376C115.853 164.504 115.901 164.648 115.885 164.808C115.869 164.968 115.797 165.104 115.669 165.216L112.669 167.736ZM102.229 169.44L99.7812 167.976C99.6372 167.896 99.5412 167.776 99.4932 167.616C99.4612 167.44 99.4932 167.28 99.5892 167.136C99.6692 166.992 99.7892 166.904 99.9492 166.872C100.109 166.824 100.261 166.848 100.405 166.944L102.853 168.408C102.997 168.488 103.085 168.616 103.117 168.792C103.165 168.952 103.149 169.104 103.069 169.248C102.989 169.392 102.861 169.488 102.685 169.536C102.525 169.568 102.373 169.536 102.229 169.44ZM106.477 181.824L104.485 180.024C104.373 179.912 104.309 179.776 104.293 179.616C104.293 179.44 104.349 179.296 104.461 179.184C104.573 179.056 104.709 178.984 104.869 178.968C105.045 178.952 105.189 179.008 105.301 179.136L107.293 180.936C107.421 181.048 107.485 181.184 107.485 181.344C107.501 181.504 107.453 181.648 107.341 181.776C107.229 181.904 107.085 181.976 106.909 181.992C106.749 181.992 106.605 181.936 106.477 181.824ZM144.565 182.952C144.533 182.936 144.317 182.848 143.917 182.688C143.533 182.512 143.045 182.272 142.453 181.968C141.861 181.664 141.237 181.296 140.581 180.864C139.925 180.432 139.309 179.952 138.733 179.424C137.901 178.656 136.973 177.664 135.949 176.448C134.941 175.232 133.949 173.968 132.973 172.656C132.381 173.664 131.701 174.664 130.933 175.656C130.165 176.648 129.357 177.592 128.509 178.488C127.661 179.384 126.821 180.208 125.989 180.96C125.157 181.696 124.373 182.328 123.637 182.856C123.509 182.952 123.357 182.992 123.181 182.976C123.021 182.944 122.893 182.864 122.797 182.736C122.701 182.592 122.669 182.44 122.701 182.28C122.733 182.12 122.813 181.984 122.941 181.872C123.661 181.344 124.437 180.704 125.269 179.952C126.117 179.2 126.965 178.376 127.813 177.48C128.661 176.568 129.461 175.616 130.213 174.624C130.965 173.616 131.621 172.6 132.181 171.576C131.333 170.392 130.557 169.264 129.853 168.192C129.149 167.104 128.589 166.192 128.173 165.456C128.109 165.312 128.093 165.16 128.125 165C128.173 164.84 128.269 164.72 128.413 164.64C128.573 164.56 128.733 164.544 128.893 164.592C129.053 164.64 129.173 164.736 129.253 164.88C129.605 165.536 130.077 166.328 130.669 167.256C131.277 168.168 131.949 169.152 132.685 170.208C133.437 171.264 134.213 172.312 135.013 173.352C135.813 174.392 136.605 175.368 137.389 176.28C138.173 177.176 138.893 177.928 139.549 178.536C140.077 179.032 140.653 179.48 141.277 179.88C141.901 180.28 142.493 180.624 143.053 180.912C143.613 181.2 144.077 181.424 144.445 181.584C144.813 181.744 144.997 181.824 144.997 181.824C145.157 181.888 145.269 182 145.333 182.16C145.397 182.304 145.397 182.456 145.333 182.616C145.269 182.776 145.165 182.888 145.021 182.952C144.877 183.016 144.725 183.016 144.565 182.952Z" fill="#3A3A3A"/>
<path d="M105.517 264.512C105.213 264.544 105.005 264.416 104.893 264.128L103.477 260.408C103.397 260.232 103.413 260.056 103.525 259.88C103.621 259.72 103.773 259.624 103.981 259.592L111.781 258.872C111.973 258.84 112.141 258.912 112.285 259.088C112.413 259.248 112.453 259.424 112.405 259.616L111.373 263.624C111.293 263.896 111.109 264.048 110.821 264.08L105.517 264.512ZM100.261 270.344C100.101 270.36 99.9572 270.312 99.8292 270.2C99.7012 270.104 99.6212 269.976 99.5892 269.816C99.5732 269.64 99.6132 269.488 99.7092 269.36C99.8052 269.232 99.9332 269.16 100.093 269.144C100.653 269.064 101.381 268.984 102.277 268.904C103.173 268.824 104.173 268.752 105.277 268.688C106.397 268.608 107.541 268.544 108.709 268.496L111.085 264.728C111.165 264.584 111.285 264.496 111.445 264.464C111.621 264.432 111.781 264.456 111.925 264.536C112.053 264.632 112.133 264.76 112.165 264.92C112.213 265.08 112.189 265.232 112.093 265.376L110.173 268.424C111.533 268.376 112.821 268.344 114.037 268.328C115.253 268.312 116.269 268.32 117.085 268.352C117.261 268.352 117.397 268.416 117.493 268.544C117.605 268.656 117.661 268.8 117.661 268.976C117.645 269.136 117.573 269.272 117.445 269.384C117.333 269.512 117.197 269.568 117.037 269.552C116.397 269.52 115.613 269.504 114.685 269.504C113.757 269.52 112.749 269.544 111.661 269.576C110.589 269.608 109.485 269.648 108.349 269.696C107.229 269.76 106.149 269.824 105.109 269.888C104.069 269.968 103.125 270.04 102.277 270.104C101.445 270.184 100.773 270.264 100.261 270.344ZM97.6212 261.8C97.4772 261.88 97.3252 261.904 97.1652 261.872C97.0052 261.824 96.8852 261.728 96.8052 261.584C96.7252 261.44 96.7012 261.288 96.7332 261.128C96.7812 260.968 96.8772 260.848 97.0212 260.768C97.9652 260.224 98.9172 259.552 99.8772 258.752C100.853 257.952 101.781 257.088 102.661 256.16C103.541 255.216 104.325 254.256 105.013 253.28C105.717 252.288 106.285 251.336 106.717 250.424L102.733 251.216C102.573 251.248 102.421 251.216 102.277 251.12C102.133 251.024 102.045 250.896 102.013 250.736C101.997 250.576 102.029 250.432 102.109 250.304C102.205 250.16 102.333 250.072 102.493 250.04L107.605 249.008C107.829 248.976 108.021 249.04 108.181 249.2C108.341 249.392 108.381 249.592 108.301 249.8C107.949 250.824 107.405 251.904 106.669 253.04C105.933 254.16 105.069 255.272 104.077 256.376C103.101 257.48 102.053 258.504 100.933 259.448C99.8292 260.376 98.7252 261.16 97.6212 261.8ZM119.653 261.32C119.637 261.304 119.477 261.232 119.173 261.104C118.885 260.976 118.517 260.816 118.069 260.624C117.637 260.416 117.189 260.192 116.725 259.952C116.277 259.696 115.869 259.44 115.501 259.184C115.069 258.88 114.557 258.464 113.965 257.936C113.389 257.408 112.789 256.84 112.165 256.232C111.541 255.608 110.957 255.016 110.413 254.456C109.869 253.896 109.413 253.432 109.045 253.064C108.693 252.68 108.501 252.472 108.469 252.44C108.357 252.312 108.301 252.168 108.301 252.008C108.317 251.832 108.381 251.688 108.493 251.576C108.621 251.448 108.765 251.392 108.925 251.408C109.101 251.408 109.245 251.472 109.357 251.6C109.373 251.616 109.549 251.808 109.885 252.176C110.221 252.528 110.653 252.984 111.181 253.544C111.725 254.088 112.301 254.672 112.909 255.296C113.533 255.904 114.133 256.472 114.709 257C115.285 257.512 115.773 257.912 116.173 258.2C116.509 258.424 116.893 258.656 117.325 258.896C117.773 259.12 118.205 259.336 118.621 259.544C119.053 259.736 119.405 259.896 119.677 260.024C119.965 260.136 120.109 260.192 120.109 260.192C120.269 260.256 120.381 260.368 120.445 260.528C120.509 260.672 120.509 260.824 120.445 260.984C120.381 261.144 120.269 261.256 120.109 261.32C119.965 261.384 119.813 261.384 119.653 261.32ZM105.853 263.264L110.293 262.904L111.013 260.168L104.893 260.72L105.853 263.264ZM105.565 257.888C105.405 257.904 105.261 257.864 105.133 257.768C105.005 257.656 104.933 257.52 104.917 257.36C104.901 257.184 104.941 257.032 105.037 256.904C105.149 256.776 105.285 256.704 105.445 256.688L110.245 256.184C110.421 256.152 110.573 256.192 110.701 256.304C110.829 256.4 110.901 256.536 110.917 256.712C110.933 256.872 110.885 257.016 110.773 257.144C110.677 257.272 110.541 257.352 110.365 257.384L105.565 257.888ZM114.949 256.04C114.837 256.152 114.693 256.2 114.517 256.184C114.357 256.152 114.221 256.08 114.109 255.968C113.997 255.84 113.949 255.696 113.965 255.536C113.981 255.36 114.053 255.216 114.181 255.104L117.157 252.584C117.285 252.472 117.429 252.424 117.589 252.44C117.765 252.456 117.909 252.528 118.021 252.656C118.133 252.784 118.181 252.936 118.165 253.112C118.149 253.272 118.077 253.408 117.949 253.52L114.949 256.04ZM112.669 253.736C112.541 253.848 112.397 253.896 112.237 253.88C112.077 253.864 111.941 253.792 111.829 253.664C111.717 253.536 111.669 253.392 111.685 253.232C111.701 253.072 111.773 252.936 111.901 252.824L114.877 250.304C115.005 250.192 115.149 250.144 115.309 250.16C115.485 250.176 115.629 250.248 115.741 250.376C115.853 250.504 115.901 250.648 115.885 250.808C115.869 250.968 115.797 251.104 115.669 251.216L112.669 253.736ZM102.229 255.44L99.7812 253.976C99.6372 253.896 99.5412 253.776 99.4932 253.616C99.4612 253.44 99.4932 253.28 99.5892 253.136C99.6692 252.992 99.7892 252.904 99.9492 252.872C100.109 252.824 100.261 252.848 100.405 252.944L102.853 254.408C102.997 254.488 103.085 254.616 103.117 254.792C103.165 254.952 103.149 255.104 103.069 255.248C102.989 255.392 102.861 255.488 102.685 255.536C102.525 255.568 102.373 255.536 102.229 255.44ZM106.477 267.824L104.485 266.024C104.373 265.912 104.309 265.776 104.293 265.616C104.293 265.44 104.349 265.296 104.461 265.184C104.573 265.056 104.709 264.984 104.869 264.968C105.045 264.952 105.189 265.008 105.301 265.136L107.293 266.936C107.421 267.048 107.485 267.184 107.485 267.344C107.501 267.504 107.453 267.648 107.341 267.776C107.229 267.904 107.085 267.976 106.909 267.992C106.749 267.992 106.605 267.936 106.477 267.824ZM125.173 269.312C124.965 269.344 124.797 269.28 124.669 269.12C124.525 268.944 124.477 268.768 124.525 268.592L125.557 263.96C125.589 263.8 125.677 263.68 125.821 263.6C125.965 263.504 126.117 263.472 126.277 263.504C126.453 263.536 126.581 263.624 126.661 263.768C126.741 263.896 126.765 264.048 126.733 264.224L125.893 268.04L132.973 267.344V259.088L126.613 259.76C126.405 259.76 126.237 259.688 126.109 259.544C125.965 259.368 125.917 259.192 125.965 259.016L126.997 254.408C127.029 254.232 127.117 254.104 127.261 254.024C127.405 253.944 127.557 253.92 127.717 253.952C127.877 253.984 127.997 254.072 128.077 254.216C128.173 254.344 128.205 254.496 128.173 254.672L127.333 258.464L132.973 257.864V250.424C132.973 250.248 133.029 250.104 133.141 249.992C133.269 249.864 133.413 249.8 133.573 249.8C133.749 249.8 133.893 249.864 134.005 249.992C134.117 250.104 134.173 250.248 134.173 250.424V257.744L138.157 257.336C138.333 257.304 138.485 257.344 138.613 257.456C138.741 257.552 138.813 257.688 138.829 257.864C138.845 258.024 138.797 258.168 138.685 258.296C138.589 258.424 138.453 258.504 138.277 258.536L134.173 258.968V267.224L140.053 266.672C140.229 266.64 140.373 266.68 140.485 266.792C140.613 266.888 140.685 267.024 140.701 267.2C140.733 267.36 140.693 267.504 140.581 267.632C140.469 267.76 140.333 267.84 140.173 267.872L125.173 269.312ZM142.213 270.128C142.053 270.128 141.909 270.064 141.781 269.936C141.669 269.824 141.613 269.688 141.613 269.528V263.24C141.613 263.064 141.669 262.92 141.781 262.808C141.909 262.696 142.053 262.64 142.213 262.64C142.389 262.64 142.533 262.696 142.645 262.808C142.757 262.92 142.813 263.064 142.813 263.24V269.528C142.813 269.688 142.757 269.824 142.645 269.936C142.533 270.064 142.389 270.128 142.213 270.128ZM140.149 260.168C139.989 260.168 139.845 260.112 139.717 260C139.605 259.872 139.549 259.728 139.549 259.568V254.024C139.549 253.848 139.605 253.704 139.717 253.592C139.845 253.48 139.989 253.424 140.149 253.424C140.325 253.424 140.469 253.48 140.581 253.592C140.693 253.704 140.749 253.848 140.749 254.024V259.568C140.749 259.728 140.693 259.872 140.581 260C140.469 260.112 140.325 260.168 140.149 260.168Z" fill="#3A3A3A"/>
<path d="M175 39L194.335 58.3352M194.335 39L175 58.3352" stroke="black" stroke-width="1.28901"/>
</g>
<defs>
<filter id="filter0_d_1036_4413" x="-16" y="-20" width="274.069" height="413.663" filterUnits="userSpaceOnUse" color-interpolation-filters="sRGB">
<feFlood flood-opacity="0" result="BackgroundImageFix"/>
<feColorMatrix in="SourceAlpha" type="matrix" values="0 0 0 0 0 0 0 0 0 0 0 0 0 0 0 0 0 0 127 0" result="hardAlpha"/>
<feOffset dy="4"/>
<feGaussianBlur stdDeviation="2"/>
<feComposite in2="hardAlpha" operator="out"/>
<feColorMatrix type="matrix" values="0 0 0 0 0 0 0 0 0 0 0 0 0 0 0 0 0 0 0.25 0"/>
<feBlend mode="normal" in2="BackgroundImageFix" result="effect1_dropShadow_1036_4413"/>
<feBlend mode="normal" in="SourceGraphic" in2="effect1_dropShadow_1036_4413" result="shape"/>
</filter>
</defs>
</svg>
