<svg width="847" height="433" viewBox="0 0 847 433" fill="none" xmlns="http://www.w3.org/2000/svg">
<path d="M496 430L533.5 426C576.698 420.351 581.527 419.484 633.364 412.219C673.04 406.659 714.533 398.762 720.79 396.995C738.859 391.893 765.558 400.872 788.872 387.329C812.186 373.785 812.813 365.673 831.896 339.656C847.162 318.843 847.59 287.393 845.896 274.27C846.427 213.626 831.896 111.5 801 90.5C766.685 67.1762 724.618 21.3842 550.32 5.03181C345.314 -14.2016 219.673 37.4134 134 73.5C48.3267 109.587 26.7282 182.399 21.8457 197.478C17.9397 209.542 2.70525 271.261 1.02669 306.886C-2.40534 357.34 32.7927 388.184 52.1666 390.987L102.999 406.502C128.142 406.197 158.144 421.72 259.499 430.001C335.653 436.222 460.367 430.128 496 430Z" fill="#C1BFBD" fill-opacity="0.75"/>
</svg>
